<?xml version="1.0"?>
<svg width="150" height="150" xmlns="http://www.w3.org/2000/svg" xmlns:svg="http://www.w3.org/2000/svg" xmlns:xlink="http://www.w3.org/1999/xlink">
 <!-- Created with SVG-edit - http://svg-edit.googlecode.com/ -->
 <defs>
  <symbol viewBox="0 0 96 40" id="svg_6" xmlns="http://www.w3.org/2000/svg" xmlns:xlink="http://www.w3.org/1999/xlink">
   <!-- Generator: Sketch 3.3.2 (12043) - http://www.bohemiancoding.com/sketch -->
   <title>Afgri Copy</title>
   <desc>Created with Sketch.</desc>
   <g id="svg_1" fill="none" fill-rule="evenodd">
    <g id="svg_2" fill="#4A4A4A">
     <g id="svg_3">
      <g id="svg_4">
       <path d="m87.674316,26.101074c-1.036316,-2.374023 -4.669312,-3.457642 -9.248108,-3.457642l-10.856873,0l0,3.915527c-2.487244,-2.967041 -6.736206,-4.445068 -12.371643,-4.445068c-5.669373,0 -10.220581,1.398071 -12.707764,3.769165l0,-3.239624l-16.166931,0l0,12.172363l-7.70575,-12.172363l-7.904602,0l-10.712219,16.406006l7.683411,0l1.920105,-2.944702l9.9729,0l1.810303,2.944702l4.935852,0l7.254395,0l0,-6.520386l6.713196,0c1.179565,4.206665 6.849365,7.02002 14.616333,7.02002c4.654602,0 8.738403,-0.956909 11.471436,-3.196411c0.480896,-0.396484 0.983704,-0.772339 1.190979,-1.171753l0,3.86853l7.254395,0l0,-6.310059l0.093262,0l6.833984,6.310059l9.012054,0l4.16568,0l0,-16.406006l-7.254395,0l0,3.457642l0,0zm-76.075012,6.848633l2.991333,-5.258301l0.074829,0l2.95459,5.258301l-6.020752,0l0,0zm28.75116,-3.996216l-6.773071,0l0,-2.734375l8.425659,0c-0.77832,0.841309 -1.339783,1.682617 -1.652588,2.734375l0,0zm27.218872,0.841309l-12.643372,0l0,3.365234l5.854492,0c-0.295349,1.893066 -2.695313,2.88916 -5.835388,2.88916c-4.764282,0 -7.351196,-2.56543 -7.351196,-5.107666c0,-2.5 2.475403,-5.16394 7.239685,-5.16394c2.918945,0 5.00531,1.048096 6.004517,2.614014l6.731262,-1.660522l0,3.063721l0,0zm7.97583,0.210327l-0.721497,0l0,-3.996338l0.721497,0c2.363098,0 5.022949,0.215576 5.022949,1.997681c0.000244,1.782349 -2.659668,1.998657 -5.022949,1.998657l0,0zm12.12915,6.739624l-5.752075,-4.412964c3.041199,-0.319458 5.130249,-1.551392 5.752075,-3.133057l0,7.546021l0,0z" id="svg_5"/>
       <path d="m69.626892,12.146606c-0.805847,0.115723 -1.579834,0.328735 -2.309631,0.62854c1.724304,3.987427 7.200928,6.901001 13.691528,6.901001l0.272949,-0.001953c-1.997437,-5.01709 -6.7005,-8.232788 -11.654846,-7.527588l0,0z" id="Shape"/>
       <path d="m82.834595,19.210693c-0.075195,0.138306 -0.152527,0.272583 -0.230469,0.405273c0.321045,-0.023315 0.637573,-0.054443 0.951782,-0.093018c3.650635,-3.36377 5.072266,-8.447754 3.16272,-12.796753c-1.458984,-3.324707 -4.534424,-5.470337 -8.092163,-6.07312c-1.570496,0.177734 -3.053101,0.527466 -4.404846,1.020752c1.731873,-0.038086 3.45636,0.362915 5.029968,1.249512c5.272034,2.964844 6.877319,10.257935 3.583008,16.287354l0,0z" id="Shape"/>
       <path d="m85.5755,19.173218c5.633148,-1.278198 9.688751,-4.858032 9.688751,-9.074951c0,-3.538452 -2.855316,-6.628296 -7.101837,-8.286499c0.946411,0.898071 1.724915,1.982544 2.273956,3.235352c2.181274,4.970093 0.012634,10.90332 -4.86087,14.126099l0,0z" id="Shape"/>
       <path d="m81.582092,18.87793c0.036072,0.26416 0.064636,0.526001 0.085999,0.787842c0.153809,-0.005615 0.30719,-0.010742 0.458679,-0.018921c1.372986,-5.22168 -0.477539,-10.653564 -4.847351,-13.111694c-2.904663,-1.634644 -6.318359,-1.613892 -9.34906,-0.258057c-0.477295,0.736206 -0.818054,1.522217 -1.009583,2.340576c0.680664,-0.265015 1.395996,-0.454102 2.140686,-0.560913c5.967834,-0.849976 11.574646,3.994385 12.52063,10.821167l0,0z" id="Shape"/>
      </g>
     </g>
    </g>
   </g>
  </symbol>
 </defs>
 <g>
  <title>Layer 1</title>
  <use id="svg_7" xlink:href="#svg_6" transform="matrix(0.6981068168221662,0,0,0.7049857960350173,7.049888685234205,84.27217903798277) " y="-101.125673" x="23.510224"/>
 </g>
</svg>