<?xml version="1.0" encoding="UTF-8" standalone="no"?>
<!-- Created with Inkscape (http://www.inkscape.org/) -->

<svg
   xmlns:sketch="http://www.bohemiancoding.com/sketch/ns"
   xmlns:dc="http://purl.org/dc/elements/1.1/"
   xmlns:cc="http://creativecommons.org/ns#"
   xmlns:rdf="http://www.w3.org/1999/02/22-rdf-syntax-ns#"
   xmlns:svg="http://www.w3.org/2000/svg"
   xmlns="http://www.w3.org/2000/svg"
   xmlns:sodipodi="http://sodipodi.sourceforge.net/DTD/sodipodi-0.dtd"
   xmlns:inkscape="http://www.inkscape.org/namespaces/inkscape"
   width="150"
   height="150"
   viewBox="0 0 150 150"
   id="svg2"
   version="1.1"
   inkscape:version="0.91 r13725"
   sodipodi:docname="test.svg">
  <defs
     id="defs4" />
  <sodipodi:namedview
     id="base"
     pagecolor="#ffffff"
     bordercolor="#666666"
     borderopacity="1.0"
     inkscape:pageopacity="0.0"
     inkscape:pageshadow="2"
     inkscape:zoom="1.979899"
     inkscape:cx="65.616368"
     inkscape:cy="62.857143"
     inkscape:document-units="px"
     inkscape:current-layer="layer1"
     showgrid="true"
     units="px"
     showguides="false"
     inkscape:window-width="982"
     inkscape:window-height="627"
     inkscape:window-x="139"
     inkscape:window-y="74"
     inkscape:window-maximized="0">
    <inkscape:grid
       type="xygrid"
       id="grid3721" />
  </sodipodi:namedview>
  <metadata
     id="metadata7">
    <rdf:RDF>
      <cc:Work
         rdf:about="">
        <dc:format>image/svg+xml</dc:format>
        <dc:type
           rdf:resource="http://purl.org/dc/dcmitype/StillImage" />
        <dc:title></dc:title>
      </cc:Work>
    </rdf:RDF>
  </metadata>
  <g
     inkscape:label="Layer 1"
     inkscape:groupmode="layer"
     id="layer1"
     transform="translate(0,-902.36213)">
    <g
       transform="translate(18.464366,957.0753)"
       style="fill:none;fill-rule:evenodd;stroke:none;stroke-width:1"
       id="Page-1"
       sketch:type="MSPage">
      <g
         style="fill:#4a4a4a"
         id="Desktop-HD"
         sketch:type="MSArtboardGroup"
         transform="translate(-413,-1371)">
        <g
           id="Bidvest-Copy"
           sketch:type="MSLayerGroup"
           transform="translate(413,1371.6488)">
          <g
             id="Group"
             sketch:type="MSShapeGroup">
            <path
               inkscape:connector-curvature="0"
               d="m 14.759895,25.318395 0,-9.06853 -14.759895,0 0,13.34639 21.284471,0 c 3.771934,0 7.100535,-3.137165 7.100535,-6.967833 0,-1.681264 -0.641529,-3.114452 -1.680692,-4.194832 l -11.944419,6.884805 0,0 z"
               id="Shape" />
            <path
               inkscape:connector-curvature="0"
               d="m 14.759895,4.2571668 11.885308,6.8835422 c 1.102496,-1.2093388 1.795437,-2.7805713 1.795437,-4.5092803 0,-3.8296583 -3.384235,-6.60366841 -7.155921,-6.60366841 l -21.284719,0 0,13.51446671 14.759895,0 0,-9.2850602 0,0 z"
               id="path3590" />
            <path
               inkscape:connector-curvature="0"
               d="m 15.607072,5.7385568 0,3.814264 0,3.9896582 0,2.707638 0,7.590673 L 26.03,17.833463 31.273006,14.811377 26.003425,11.760016 15.607072,5.7385568 Z"
               id="path3592" />
          </g>
          <g
             id="g3594"
             transform="translate(39.986928,0)"
             sketch:type="MSShapeGroup">
            <path
               inkscape:connector-curvature="0"
               d="m 3.9639216,6.9660664 2.9500915,0 C 7.5038823,6.9612714 7.9487059,7.0988111 8.248732,7.3786853 8.5487582,7.6608308 8.6443791,8.1211469 8.5405621,8.7533244 8.4076863,9.3902969 8.1267843,9.8279 7.7025752,10.063863 7.2746405,10.301087 6.7873464,10.414904 6.2382092,10.400519 l -2.8976863,0 0.6233987,-3.4344526 0,0 z m -3.71928108,5.5694716 5.96724178,0 c 0.7540393,0.0058 1.4805099,-0.119874 2.1843791,-0.371231 C 9.0971503,11.908155 9.7024183,11.515473 10.20834,10.981719 10.715503,10.446702 11.052039,9.7554709 11.217451,8.9120628 11.359268,8.1256895 11.291464,7.455657 11.016026,6.9039843 10.73885,6.352564 10.243856,5.9659388 9.5370065,5.7405757 10.118183,5.4783672 10.594549,5.1308588 10.959895,4.6993125 11.32698,4.2665043 11.566157,3.7410777 11.679412,3.1288371 11.873634,1.9808229 11.657804,1.1732508 11.035647,0.70586848 10.413987,0.23848613 9.5059608,0.01337541 8.3135556,0.02750792 l -5.7951242,0 -2.27379088,12.50803008 0,0 z M 4.8381699,2.1625266 l 2.5355687,0 c 0.5036862,-0.011861 0.9169673,0.078486 1.2450588,0.2740698 0.3256078,0.1955839 0.4468104,0.582209 0.357647,1.1669417 C 8.8713856,4.1241697 8.6443791,4.5037286 8.2951765,4.7422147 7.9484575,4.9781772 7.5319477,5.0967894 7.047634,5.0919944 l -2.7441961,0 0.534732,-2.9294678 0,0 z"
               id="path3596" />
            <path
               inkscape:connector-curvature="0"
               d="m 12.197503,12.538062 2.448144,0 1.645673,-9.0564168 -2.446653,0 -1.647164,9.0564168 0,0 z m 4.720196,-12.51004934 -2.445908,0 -0.372052,2.05047604 2.446156,0 0.371804,-2.05047604 0,0 z"
               id="path3598" />
            <path
               inkscape:connector-curvature="0"
               d="m 22.955229,12.538062 2.329673,0 2.273791,-12.51004934 -2.448889,0 -0.830536,4.55672554 -0.03278,0 C 24.042078,4.1375451 23.726405,3.7996267 23.298222,3.5730018 22.870039,3.3486482 22.387961,3.2338215 21.854719,3.2338215 c -0.877726,0.012871 -1.648405,0.2382338 -2.314026,0.6770987 -0.665124,0.438865 -1.210536,1.0104746 -1.632262,1.7186144 -0.423215,0.7081398 -0.70983,1.4765951 -0.858849,2.2982997 -0.154732,0.8504744 -0.152497,1.6413903 0.0079,2.3745147 0.159451,0.734133 0.495739,1.32568 1.003399,1.780191 0.509399,0.452998 1.213268,0.68896 2.107386,0.700822 0.574719,0.0048 1.118889,-0.10549 1.628287,-0.332115 0.510641,-0.225363 0.955961,-0.581199 1.334223,-1.06978 l 0.03452,0 -0.210117,1.156595 0,0 z m 0.794274,-4.5554642 c -0.128157,0.7755215 -0.397634,1.4480777 -0.811908,2.0232202 -0.415517,0.572872 -1.02451,0.873945 -1.824994,0.903724 -0.502444,-0.0083 -0.888405,-0.156467 -1.154653,-0.438865 C 19.690954,10.186008 19.525046,9.8279 19.456,9.3867638 19.38447,8.9453751 19.39639,8.4817783 19.48382,8.0015252 c 0.131137,-0.7732502 0.412536,-1.4435351 0.840967,-2.004293 0.431909,-0.562272 1.046366,-0.85855 1.842628,-0.8883293 0.77664,0.029779 1.271385,0.3260573 1.485477,0.8858057 0.21434,0.5610102 0.245882,1.2252383 0.09661,1.9878892 l 0,0 z"
               id="path3600" />
            <path
               inkscape:connector-curvature="0"
               d="m 45.256013,8.6122516 c 0.228248,-0.9428404 0.263765,-1.8205703 0.106301,-2.6316755 -0.156719,-0.8113576 -0.519582,-1.4659957 -1.08983,-1.971233 -0.57,-0.5004424 -1.359308,-0.7591178 -2.369412,-0.7755216 -0.909765,0.010599 -1.743778,0.2215776 -2.498066,0.6389914 -0.755032,0.4151425 -1.390104,0.9806954 -1.898261,1.6984251 -0.510392,0.7162155 -0.853386,1.5321156 -1.025006,2.4479529 -0.245138,1.4230934 -0.04495,2.5700981 0.596326,3.4321811 0.64451,0.865869 1.674484,1.308267 3.08868,1.33199 1.012588,0.0071 1.917634,-0.233692 2.716627,-0.723535 0.800733,-0.488833 1.470079,-1.263093 2.01251,-2.3258072 l -2.155817,0 c -0.14132,0.2929972 -0.407817,0.5610102 -0.800732,0.7992442 -0.393908,0.238486 -0.841961,0.362903 -1.344405,0.378549 -0.684745,10e-4 -1.177255,-0.182713 -1.481255,-0.558739 C 38.81166,9.9783103 38.713804,9.3993821 38.82234,8.6119993 l 6.433673,0 0,2.523e-4 z M 39.107464,7.0384955 c 0.0539,-0.2442905 0.167647,-0.5158367 0.346719,-0.8136289 0.178575,-0.2965303 0.432902,-0.553944 0.767948,-0.7722408 0.333058,-0.217035 0.755777,-0.3331235 1.27213,-0.3439752 0.586641,0.00227 1.003151,0.1647952 1.247046,0.4895906 0.243399,0.3263096 0.360131,0.8065626 0.350941,1.4400019 l -3.984784,0 0,2.524e-4 z"
               id="path3602" />
            <path
               inkscape:connector-curvature="0"
               d="m 46.086301,9.5967325 c -0.09835,0.7957105 0.01192,1.4253645 0.328091,1.8917375 0.318157,0.467383 0.768693,0.801768 1.353347,1.000885 0.58366,0.200379 1.227673,0.299054 1.930052,0.294259 0.690457,0.0048 1.360797,-0.0911 2.011268,-0.288202 0.65047,-0.197856 1.213764,-0.525427 1.688392,-0.990286 0.472392,-0.458802 0.786823,-1.086437 0.943046,-1.8738193 C 54.461699,8.8106115 54.277909,8.2185602 53.785647,7.8546481 53.295372,7.4892217 52.691346,7.2378649 51.976301,7.0909877 51.274915,6.9438582 50.666418,6.7873911 50.14634,6.6248672 49.628,6.460072 49.394784,6.1670748 49.443216,5.7388092 c 0.08618,-0.3568459 0.286117,-0.5905371 0.6003,-0.6960262 0.313438,-0.1080128 0.618183,-0.1554576 0.916223,-0.1435964 0.451032,-0.00959 0.816627,0.0747 1.095045,0.2490855 0.277425,0.17918 0.396889,0.502966 0.355909,0.9774146 l 2.324954,0 C 54.797242,5.3892819 54.680261,4.8090918 54.381974,4.3881449 54.084928,3.9659361 53.665189,3.6671344 53.127725,3.4914875 52.588523,3.3173547 51.988471,3.2305407 51.330797,3.2343262 c -0.649725,-0.00606 -1.28281,0.075962 -1.900745,0.2417669 -0.619176,0.1683283 -1.15366,0.4625874 -1.604941,0.8873199 -0.450039,0.4234706 -0.751307,1.016279 -0.904052,1.7801917 -0.08643,0.5241648 -0.0221,0.9476354 0.189751,1.2666263 0.212105,0.3154579 0.517098,0.5610103 0.912249,0.7389285 0.397882,0.1766564 0.823333,0.3131866 1.286287,0.4126189 0.853386,0.1789277 1.50187,0.3689595 1.946942,0.5632815 0.444823,0.1968457 0.636562,0.4754581 0.577451,0.8396226 -0.10183,0.4328085 -0.336536,0.7331245 -0.702628,0.9072565 -0.366837,0.172114 -0.739137,0.253881 -1.113673,0.250348 -0.501948,0.0013 -0.911503,-0.115079 -1.232392,-0.356846 -0.321137,-0.239748 -0.446066,-0.631168 -0.372549,-1.1682038 l -2.326196,0 0,-5.047e-4 z"
               id="path3604" />
            <path
               inkscape:connector-curvature="0"
               d="m 60.472654,0.76567929 -2.445164,0 -0.49549,2.71596591 -1.484235,0 -0.300275,1.6603177 1.482497,0 -0.971111,5.3476411 c -0.137595,0.87874 0.03701,1.463472 0.522562,1.754198 0.485059,0.286941 1.11715,0.420947 1.895033,0.399749 0.24464,0 0.493006,-0.0061 0.744601,-0.01918 0.25234,-0.0106 0.485555,-0.03685 0.703869,-0.06991 l 0.351438,-1.941706 c -0.131386,0.02498 -0.262026,0.04391 -0.388693,0.05451 -0.125921,0.0096 -0.254823,0.01565 -0.381738,0.01438 -0.406079,0.0083 -0.669347,-0.06031 -0.789556,-0.210978 -0.119961,-0.14713 -0.138588,-0.427004 -0.05489,-0.8396227 l 0.815137,-4.4890914 1.794693,0 0.303007,-1.6603177 -1.794445,0 0.492759,-2.71596591 0,0 z"
               id="path3606" />
            <path
               inkscape:connector-curvature="0"
               d="m 32.150732,12.514087 4.592039,-9.062221 -2.100431,0 -3.285137,6.673826 -0.843948,-6.673826 -2.568353,0 1.479516,9.062221 2.726314,0 z"
               id="path3608" />
          </g>
          <g
             id="g3610"
             transform="translate(39.986928,16.908541)"
             sketch:type="MSShapeGroup">
            <path
               inkscape:connector-curvature="0"
               d="m 2.8457778,0.12037871 1.6759738,0 -2.6013856,12.44468629 -1.67572548,0 2.60113728,-12.44468629 0,0 z"
               id="path3612" />
            <path
               inkscape:connector-curvature="0"
               d="m 6.3060131,3.4909827 1.4251241,0 -0.266,1.2880775 C 7.9983791,4.2485863 8.5251634,3.8675132 9.0447451,3.635841 9.5645752,3.4044211 10.113712,3.2888374 10.691412,3.2888374 c 1.267163,0 2.028157,0.4474454 2.284222,1.3468788 0.144549,0.4908524 0.122196,1.1934401 -0.06731,2.1085202 l -1.216745,5.8205756 -1.525713,0 1.192157,-5.7186196 C 11.47451,6.2930055 11.488418,5.8463172 11.399752,5.5073893 11.249739,4.9428459 10.824288,4.6601957 10.123647,4.6601957 c -0.3554117,0 -0.6556862,0.03735 -0.9000784,0.1110412 C 8.7847059,4.8956534 8.3704314,5.1434771 7.9812418,5.5157174 7.6705359,5.8155285 7.4437778,6.1224059 7.3022092,6.4429111 7.1603922,6.7613973 7.0282614,7.2191898 6.9063137,7.8119982 l -0.9927189,4.7528138 -1.5006275,0 1.8930458,-9.0738293 0,0 z"
               id="path3614" />
            <path
               inkscape:connector-curvature="0"
               d="m 15.393229,9.7181207 c -0.06135,0.5082653 -0.01664,0.8979193 0.133621,1.1689603 0.271961,0.490853 0.87549,0.73691 1.808601,0.73691 0.556091,0 1.071699,-0.124669 1.547072,-0.370474 0.475621,-0.245047 0.766209,-0.624102 0.872013,-1.137162 C 19.836745,9.7267011 19.728457,9.4304231 19.428431,9.2265112 19.239176,9.1028517 18.842536,8.9579934 18.236771,8.7947125 L 17.110928,8.4901064 C 16.387935,8.2970462 15.871582,8.0820301 15.560131,7.8455629 14.999072,7.4339535 14.79566,6.863101 14.951634,6.1345195 c 0.17783,-0.8582977 0.626627,-1.5530621 1.346392,-2.0832836 0.720013,-0.531231 1.593765,-0.7967204 2.622249,-0.7967204 1.345398,0 2.231071,0.4015148 2.659254,1.2037872 0.266497,0.5070038 0.334053,1.0559005 0.200432,1.6434092 l -1.417425,0 C 20.406745,5.7564748 20.351856,5.4432883 20.195386,5.160638 19.934601,4.7601328 19.379503,4.5584921 18.528601,4.5584921 c -0.567019,0 -1.018797,0.1112935 -1.355085,0.3313569 -0.336287,0.2193063 -0.542928,0.5102846 -0.620915,0.8719255 -0.0837,0.3952056 0.04148,0.7119253 0.375033,0.9478878 0.194719,0.1418298 0.497725,0.2670035 0.907778,0.3737544 l 0.943294,0.2458048 c 1.023268,0.2654893 1.692366,0.5218934 2.008039,0.7707266 0.501699,0.3901583 0.662392,1.0029036 0.483569,1.8379836 -0.166157,0.8080773 -0.611229,1.5058693 -1.336954,2.0928733 -0.725478,0.587004 -1.704537,0.881263 -2.938916,0.881263 -1.328758,0 -2.205241,-0.308139 -2.630444,-0.921641 -0.424706,-0.612493 -0.562797,-1.368583 -0.412784,-2.2723063 l 1.442013,0 0,0 z"
               id="path3616" />
            <path
               inkscape:connector-curvature="0"
               d="m 25.839752,3.4909827 -1.258223,6.0237308 c -0.09512,0.462335 -0.100091,0.8418935 -0.01714,1.1353955 0.149268,0.542083 0.589124,0.812367 1.316588,0.812367 1.04587,0 1.857033,-0.473439 2.434732,-1.422588 0.3117,-0.5087707 0.559072,-1.205554 0.741125,-2.0926215 l 0.935098,-4.4562838 1.500379,0 -1.893294,9.0738293 -1.416432,0 0.292575,-1.338803 c -0.267738,0.34448 -0.57,0.635711 -0.908523,0.872178 -0.672823,0.474701 -1.416928,0.711673 -2.235294,0.711673 -1.272875,0 -2.047281,-0.431799 -2.326196,-1.295648 -0.155228,-0.464607 -0.152745,-1.082652 0.0079,-1.8559021 l 1.292993,-6.1675795 1.533661,0 0,2.523e-4 z"
               id="path3618" />
            <path
               inkscape:connector-curvature="0"
               d="m 33.877124,3.4909827 1.425124,0 -0.325856,1.5671946 C 35.155216,4.7538236 35.517085,4.3808262 36.065477,3.9432231 36.612379,3.50562 37.183869,3.288585 37.778458,3.288585 c 0.02732,0 0.07476,0.00252 0.141071,0.00808 0.06731,0.00606 0.178576,0.017161 0.333804,0.034827 l -0.333804,1.6080779 c -0.08867,-0.016404 -0.169385,-0.028265 -0.241163,-0.034069 -0.07277,-0.00404 -0.15349,-0.00757 -0.24166,-0.00757 -0.75702,0 -1.389608,0.2455524 -1.898013,0.7391809 -0.508405,0.4951426 -0.831281,1.0649857 -0.972353,1.708772 l -1.081386,5.2189342 -1.501869,0 1.894039,-9.0738291 0,0 z"
               id="path3620" />
            <path
               inkscape:connector-curvature="0"
               d="m 43.554954,7.0670129 c 0.356157,-0.046183 0.620419,-0.1917984 0.793281,-0.441641 0.09413,-0.1342588 0.166405,-0.3308522 0.216575,-0.5837232 0.111517,-0.5201269 0.0084,-0.8981716 -0.308719,-1.1326198 -0.316418,-0.234196 -0.81464,-0.3505368 -1.491686,-0.3505368 -0.78434,0 -1.384889,0.2152684 -1.80115,0.6445435 -0.233464,0.2367195 -0.424209,0.5895276 -0.575464,1.0589289 l -1.400536,0 c 0.261033,-1.1184874 0.780863,-1.8980468 1.559738,-2.3359023 0.777634,-0.4373508 1.620092,-0.6546381 2.525386,-0.6546381 1.050092,0 1.858771,0.2036596 2.425543,0.6092122 0.567268,0.406562 0.76149,1.0400014 0.582915,1.8980468 l -1.091321,5.2272629 c -0.03328,0.157981 -0.02856,0.285426 0.01291,0.381578 0.04148,0.0959 0.165661,0.143848 0.370811,0.143848 0.06582,0 0.143307,-0.0058 0.229738,-0.01489 0.08668,-0.0083 0.178079,-0.01943 0.27817,-0.03634 l -0.241908,1.126311 c -0.243399,0.06763 -0.427935,0.110031 -0.554602,0.12694 -0.123686,0.01691 -0.291333,0.02498 -0.502941,0.02498 -0.517594,0 -0.853882,-0.185489 -1.008862,-0.558739 -0.08221,-0.197602 -0.111517,-0.476972 -0.08221,-0.838613 -0.396144,0.40631 -0.91051,0.76038 -1.543595,1.059434 -0.63383,0.299306 -1.295229,0.448455 -1.9837,0.448455 -0.828797,0 -1.452196,-0.256909 -1.871686,-0.767446 -0.41949,-0.512051 -0.548392,-1.149529 -0.387451,-1.917731 0.177333,-0.8418944 0.572484,-1.4929994 1.186941,-1.9568487 0.614954,-0.4633445 1.352105,-0.7480136 2.214928,-0.8552693 l 2.448889,-0.3046061 0,0 z M 40.580026,11.57377 c 0.527033,0 1.066484,-0.124417 1.617111,-0.374259 0.916968,-0.411105 1.475294,-1.086437 1.675974,-2.0237255 l 0.249608,-1.228519 c -0.205399,0.1193692 -0.460967,0.2175397 -0.766954,0.2965304 -0.305987,0.078991 -0.600549,0.135773 -0.883687,0.1695901 l -0.933607,0.1181074 c -0.561308,0.074701 -0.994706,0.1897795 -1.2997,0.3475084 -0.517843,0.2662464 -0.83749,0.689717 -0.959438,1.2709162 -0.09512,0.441137 -0.0099,0.78814 0.253582,1.042526 0.263765,0.253375 0.612222,0.381325 1.047111,0.381325 l 0,0 z"
               id="path3622" />
            <path
               inkscape:connector-curvature="0"
               d="m 49.017268,3.4909827 1.424876,0 -0.266497,1.2880775 c 0.533739,-0.5304739 1.060275,-0.911547 1.580105,-1.1432192 0.518836,-0.2314199 1.068967,-0.3470036 1.645673,-0.3470036 1.26766,0 2.029647,0.4474454 2.28447,1.3468788 0.144549,0.4908524 0.122942,1.1934401 -0.06607,2.1085202 l -1.216745,5.8205756 -1.525961,0 1.19166,-5.7186196 C 54.186261,6.2930055 54.199425,5.8463172 54.11051,5.5073893 53.960497,4.9428459 53.536039,4.6601957 52.834654,4.6601957 c -0.354915,0 -0.655438,0.03735 -0.900079,0.1110412 -0.438614,0.1244165 -0.85264,0.3722402 -1.242078,0.7444805 -0.311203,0.2998111 -0.537713,0.6066885 -0.679033,0.9271937 -0.141072,0.3184862 -0.274196,0.7762787 -0.396392,1.3690871 l -0.992719,4.7528138 -1.499634,0 1.892549,-9.0738293 0,0 z"
               id="path3624" />
            <path
               inkscape:connector-curvature="0"
               d="m 64.915176,6.5415863 -1.458902,0 C 63.484837,5.982595 63.379033,5.5159698 63.140105,5.1454961 62.90068,4.7765366 62.429778,4.5920568 61.731124,4.5920568 c -0.955961,0 -1.740549,0.474701 -2.350784,1.42486 -0.395647,0.6150166 -0.686981,1.3743868 -0.87549,2.2781104 -0.193974,0.9085186 -0.166654,1.6741979 0.08246,2.2962808 0.250105,0.620569 0.780863,0.930727 1.593268,0.930727 0.622654,0 1.155399,-0.193818 1.599477,-0.581704 0.445817,-0.386121 0.806693,-0.915081 1.084366,-1.5866272 l 1.458902,0 c -0.416758,1.2030302 -1.017059,2.0817692 -1.800653,2.6367232 -0.784092,0.556215 -1.694602,0.836846 -2.73451,0.836846 -1.167072,0 -2.008288,-0.435584 -2.522405,-1.301705 -0.513373,-0.867131 -0.634327,-1.9482677 -0.361621,-3.2474493 0.333058,-1.592936 0.974091,-2.8328115 1.920366,-3.7196266 0.948509,-0.8855533 2.011764,-1.3292132 3.190758,-1.3292132 1.004889,0 1.771346,0.2478237 2.295399,0.7447329 0.525294,0.4971616 0.72647,1.353188 0.604522,2.5675745 l 0,0 z"
               id="path3626" />
            <path
               inkscape:connector-curvature="0"
               d="m 73.669333,4.9145809 c 0.206144,0.4572877 0.294811,0.9915471 0.267242,1.6012641 0.0055,0.4186756 -0.08892,1.0849226 -0.283882,1.9987409 l -6.545438,0 c -0.165412,0.9213893 -0.107046,1.6580461 0.18081,2.2145141 0.285373,0.556215 0.848419,0.835837 1.686902,0.835837 0.784589,0 1.462876,-0.263218 2.035111,-0.786878 0.333556,-0.305363 0.597569,-0.658928 0.79204,-1.059686 l 1.475045,0 c -0.111516,0.333124 -0.318405,0.70284 -0.620418,1.112935 -0.304,0.409086 -0.618928,0.74549 -0.946771,1.004418 -0.551124,0.451988 -1.178,0.757099 -1.883608,0.91508 -0.384719,0.08984 -0.802967,0.13653 -1.258719,0.13653 -1.112928,0 -1.969046,-0.412871 -2.56885,-1.234828 -0.599307,-0.821452 -0.744353,-1.9712328 -0.432405,-3.451361 0.30549,-1.4569106 0.941804,-2.6392466 1.907699,-3.549027 0.967635,-0.9092757 2.079321,-1.3632826 3.336053,-1.3632826 0.63383,0 1.216248,0.1501579 1.751477,0.451988 0.532745,0.3010729 0.902562,0.6947643 1.107712,1.1737555 l 0,0 z M 72.361438,7.3032277 C 72.438678,6.6427852 72.408128,6.1148349 72.269538,5.719377 72.014467,4.9860006 71.405473,4.6177982 70.4438,4.6177982 c -0.689961,0 -1.320314,0.2518615 -1.892798,0.7576035 -0.572483,0.5052373 -0.95596,1.1487713 -1.149686,1.9280784 l 4.960118,0 0,-2.524e-4 z"
               id="path3628" />
          </g>
        </g>
      </g>
    </g>
  </g>
</svg>
