<?xml version="1.0"?>
<svg width="150" height="150" xmlns="http://www.w3.org/2000/svg" xmlns:svg="http://www.w3.org/2000/svg">
 <!-- Generator: Sketch 3.3.2 (12043) - http://www.bohemiancoding.com/sketch -->
 <title>Boschendal Copy</title>
 <desc>Created with Sketch.</desc>

 <g>
  <title>Layer 1</title>
  <g fill-rule="evenodd" fill="none" id="Page-1">
   <g fill="#4A4A4A" id="Desktop-HD">
    <g id="Boschendal-Copy">
     <g id="Group">
      <path id="Shape" d="m71.595322,44.820621c0.063354,0.096069 0.195007,0.202637 0.179138,0.357056c0.010559,0.18811 -0.253357,0.273315 -0.200317,0.460205c0.173889,-0.04834 0.22699,-0.33667 0.443359,-0.346924c0.184448,0.015747 0.301392,0.10144 0.453918,0.234985c0.05188,0.053345 0.05188,0.160156 0.136902,0.165039c0.031189,-0.015259 0.042725,-0.058716 0.052795,-0.090088c-0.095093,-0.16626 -0.252869,-0.342163 -0.163757,-0.551392c0.074463,-0.245239 0.26416,-0.512207 0.533142,-0.640625c-0.205811,-0.063843 -0.369385,0.128174 -0.596313,0.09082c-0.168579,-0.027222 -0.305481,-0.139038 -0.416687,-0.272095c-0.0896,-0.096802 -0.02594,-0.289551 -0.152527,-0.331787c-0.011292,0.208008 0.089355,0.480591 -0.090515,0.651489c-0.115784,0.155273 -0.332642,0.133667 -0.50647,0.165527c-0.026184,0.203857 0.216125,0.032959 0.327332,0.107788l0,0z"/>
      <path d="m74.081406,71.635681c1.873718,0.14978 3.762817,0.111938 5.610352,-0.117668c-1.93158,-0.085457 -3.715698,-0.064339 -5.610352,0.117668l0,0z" id="Shape"/>
      <path d="m77.068527,63.053169c0.169067,0.320183 0.23175,0.823357 0.02594,1.143669c0.19043,0.261719 0.185669,0.662964 0.137634,0.96167l0.1698,-0.310173c0.210327,-0.57666 0.135925,-1.324959 -0.295898,-1.779419l-0.037476,-0.015747l0,0z" id="Shape"/>
      <path id="Shape" d="m74.613876,66.275337c-0.195496,0.320915 -0.549011,0.529411 -0.886475,0.588135c0.617737,0.058472 1.271667,0.058472 1.974609,-0.037354c-0.32782,-0.037605 -0.623901,-0.143929 -0.877075,-0.35804c-0.047058,-0.064575 -0.131836,-0.176262 -0.21106,-0.192741l0,0z"/>
      <path d="m72.06456,58.28632c-0.136902,-0.069458 -0.325867,-0.042236 -0.453918,0.021606c-0.084045,0.047974 -0.23175,0.122803 -0.179626,0.246094c0.03772,0.096313 0.164063,0.074463 0.24353,0.116699c0.169067,0.021606 0.284851,-0.079834 0.406128,-0.181274c0.016541,-0.058716 0.026672,-0.149048 -0.016113,-0.203125l0,0z" id="Shape"/>
      <path d="m71.890915,63.389839c-0.25885,0.486443 -0.23175,1.234245 0.021179,1.704468c-0.068726,-0.330444 0.057861,-0.608772 0.152466,-0.886726c-0.173645,-0.224724 -0.195007,-0.528931 -0.173645,-0.817741l0,0z" id="Shape"/>
      <path id="Shape" d="m77.132675,58.141911c0.025696,-0.042969 -0.042786,-0.063599 -0.037964,-0.090088c-0.19043,-0.032593 -0.400574,0.032227 -0.569641,-0.10144c-0.105225,-0.107544 -0.089844,-0.2677 -0.116028,-0.411499c-0.195007,-0.021118 -0.073975,0.245239 -0.226685,0.32019c-0.190247,0.202881 -0.501953,0.160156 -0.733459,0.080322c-0.096069,0.186646 0.185181,0.133057 0.226013,0.267212c0.143127,0.208374 0.068909,0.41687 0.038147,0.705196c0.036255,-0.021114 0.088867,-0.053219 0.088867,-0.101681c0.074463,-0.154663 0.242065,-0.186646 0.406128,-0.154663c0.178894,0.036621 0.290588,0.186646 0.369812,0.34705c0.026672,-0.005501 0.062927,0.01049 0.084045,-0.010872c0.026184,-0.149288 -0.068176,-0.299313 -0.037415,-0.448605c0.048218,-0.234863 0.311707,-0.330811 0.508179,-0.401123l0,0zm-0.808411,0.374756c-0.110229,-0.074829 -0.316284,-0.047607 -0.332397,-0.219238c0.011292,-0.064087 0.027161,-0.12793 0.079285,-0.182007c0.126099,0.085693 0.206055,-0.106323 0.315796,-0.021118l0.101135,0.101685c-0.015137,0.123291 -0.053101,0.273071 -0.163818,0.320679l0,0z"/>
      <path d="m84.438278,43.809147l0,0.008667l0.009583,-0.008667l-0.009583,0z" id="Shape"/>
      <path id="Shape" d="m62.704575,43.717838c1.725342,0.304443 1.872559,2.500854 3.382202,3.169312l-0.026184,0.384277c-0.231506,-0.154663 -0.463989,-0.251465 -0.659485,-0.459473c-0.137146,-0.03186 -0.242065,-0.192993 -0.353516,-0.219482c0.169067,0.213867 0.306213,0.464844 0.417419,0.716309c0.036499,0.229614 0.226196,0.411621 0.226196,0.641235c-0.654175,-0.176636 -1.308594,-0.417236 -1.820862,-0.881836l-0.015381,0.010742c0.052612,0.213379 0.111206,0.427124 0.126343,0.657715c0.205566,0.63501 0.279785,1.324829 0.623169,1.907349c-0.232666,0.11731 -0.48584,0.205444 -0.659668,0.43042c-0.428223,0.502197 -0.421997,1.08374 -0.200806,1.820435l0.010315,0c-0.036499,-0.491089 0.269714,-0.591309 0.544006,-0.81604c0.517029,-0.389648 1.140259,-0.073608 1.609985,0.199463l0.010132,0.03479c-0.32666,0.246094 -0.643188,0.581787 -0.811523,0.913574c-0.285583,-0.342529 -0.614807,-0.733521 -0.85498,-1.043701l0,0.053101c0.240173,0.619995 0.136658,1.347168 0.411377,2.015137c-0.649353,0.240356 -1.166687,0.759033 -1.910461,0.753418c-0.059082,0.036865 -0.106873,-0.074951 -0.101318,0c0.469727,0.352661 1.053589,0.496826 1.607849,0.603149c0.374634,-0.020874 0.718811,0.048584 1.109558,-0.010376c0.205566,-0.095947 0.108276,0.176636 0.182739,0.256836c0.015381,0.089966 0.041809,0.160156 0.019958,0.256226c-0.422241,0.03186 -1.079529,0.138184 -1.319702,0.149048l0,0.026733c0.240173,0.16626 0.87854,0.529419 1.284607,0.769409l0.004089,0.038086c-0.507202,0.133545 -0.877075,0.55542 -1.326172,0.796143c0.491638,0.122803 0.965942,0.363647 1.467163,0.485962c0,0.064575 -0.063416,0.085693 -0.094604,0.128174c-0.364136,0.369141 -0.39386,0.967529 -0.325195,1.464352l0.022583,0.038086c0.083801,-0.192867 0.180359,-0.363766 0.369568,-0.486568c0.238281,-0.186523 0.575928,-0.219238 0.834839,-0.267334c-0.058594,0.411499 -0.136902,0.849361 -0.084534,1.282841c0.174316,0.871086 0.179138,1.810783 -0.152771,2.613396c-0.090088,0.197151 -0.169067,0.400032 -0.370056,0.512451l0.016541,0.015747c0.089844,-0.090088 0.205566,-0.117912 0.30072,-0.192261c1.071533,-0.560661 1.652039,-1.688347 1.836975,-2.836914c0.332092,-0.256828 0.680359,-0.401489 1.039124,-0.588135c0.105896,0.036865 0.185181,-0.133537 0.290161,-0.053223c-0.173889,0.309692 -0.364136,0.651489 -0.617004,0.870239l0.021118,0.027351c0.580505,-0.182014 1.019043,0.38427 1.63623,0.255852c0.04248,0.12867 0.079224,0.262703 0.063843,0.411507c0.015137,0.64196 -0.607788,1.031738 -0.596985,1.657463c0.057861,-0.171265 0.242065,-0.256462 0.370056,-0.363281c0.591064,-0.262207 1.265869,-0.502197 1.672485,-1.037224c0.079224,0 0.05835,0.107536 0.110474,0.154663c0.032654,0.064568 0.011047,0.145142 0.05304,0.202873c0.094666,-0.079582 0.153259,-0.192017 0.279602,-0.255859c0.079224,-0.021118 0.158447,-0.122803 0.22644,-0.112061c-0.078796,0.181274 0.03241,0.363281 0.047791,0.52356c-0.865295,0.624763 -1.4198,1.57618 -1.477722,2.655647c-0.072998,1.362907 0.596313,2.592529 1.730835,3.28112l0.042786,0.09082c-0.026184,0.320923 0.074402,0.623535 0.316528,0.848022c-0.121765,0.101563 -0.031982,0.131111 -0.079041,0.376709l-3.129761,0l-0.200989,0.023315l-2.812744,4.241951l0.015381,0.576416c0.015808,0.175774 -0.047363,0.379143 0.010559,0.550049l0.812683,-0.011108c0.005737,0 0.031921,-0.037231 0.048035,0l-0.011047,0.022217l0.047302,0l7.118103,-0.048714l7.440857,-0.027214l0,-1.009285l-0.62561,-0.898071l-2.213562,-3.425781c-1.230347,-0.063354 -2.281555,0.026489 -3.584656,-0.036858c0.030518,-0.117561 -0.011719,-0.240852 -0.042969,-0.347908c0.146973,-0.208 0.319153,-0.400017 0.361694,-0.651489c0.042053,-0.101677 -0.033142,-0.198242 0.062195,-0.272575c1.00293,-0.582031 1.57782,-1.683235 1.661926,-2.821175c0.057617,-1.244987 -0.507446,-2.335815 -1.473633,-3.051025c0.047546,-0.160034 0.116211,-0.310059 0.089844,-0.50293c-0.006042,-0.095947 -0.084106,-0.197632 -0.052612,-0.277954c0.083557,0.037598 0.195251,0.042732 0.279297,0.037598c0.147461,0.614632 0.859985,1.004883 0.839111,1.678223c0.010803,-0.8396 1.060547,-1.090324 1.124451,-1.897827l0.053284,-0.026489c0.294678,0.069458 0.601624,0.107552 0.897217,0.182007c0.648926,0.090576 1.366272,0.507576 1.619385,1.165161c-0.04657,-0.379631 0.021423,-0.839355 -0.199768,-1.165161c-0.306213,-0.60363 -0.965698,-0.737419 -1.419617,-1.143677c0.184692,-0.203613 0.368896,-0.427238 0.531982,-0.652218c0.485596,0.453854 1.167175,0.555538 1.494263,1.181644l0.015137,-0.053711c-0.019958,-0.139046 -0.019958,-0.24073 0,-0.395393c0.069885,-0.272339 0.101807,-0.577148 0.265137,-0.796627c0.369568,0.240604 0.796631,0.353146 1.149902,0.604366c0.840088,0.533569 1.520935,1.634766 2.560059,1.58667l-0.174133,-0.075195c-1.082092,-0.774773 -1.329956,-2.078487 -2.306702,-2.949337c-0.041809,-0.138916 -0.02594,-0.315552 -0.015625,-0.464844c0,-0.111694 -0.047302,-0.234985 -0.010315,-0.331787c0.285583,-0.010254 0.533386,0.07019 0.812256,0.075195c0.23291,0.021606 0.48053,0.112183 0.697388,0.170898c-0.074463,-0.06897 -0.116211,-0.143677 -0.168823,-0.218872c-0.253113,-0.582397 -0.490662,-1.19165 -0.971924,-1.656616c-0.072998,-0.09668 -0.237061,-0.133545 -0.26947,-0.230347c0.305969,-0.111694 0.692383,-0.031372 0.940979,0.182007c0.432251,0.390015 0.812195,0.983276 1.403442,1.090088c-0.189941,-0.182007 -0.221191,-0.427246 -0.290344,-0.657593c0.079285,-0.716187 -0.221863,-1.345825 -0.6698,-1.859009c-0.121765,-0.128662 -0.259338,-0.192749 -0.354675,-0.320923c0.143127,-0.197754 0.295349,-0.368652 0.506958,-0.496582c-0.374878,-0.021851 -0.785828,-0.101685 -1.166443,-0.182007c0.701965,-0.758545 1.213989,-1.619263 1.367432,-2.618774c0.501465,-0.165527 0.923218,-0.368042 1.3927,-0.613892c-0.432556,0.037354 -0.880676,-0.037598 -1.255554,-0.229614c-0.010559,-0.347534 -0.021118,-0.8396 -0.036255,-1.22937l-0.047791,-0.080566c-0.101379,0.364014 -0.200806,0.791992 -0.485596,1.090332c-0.411865,-0.21875 -0.877075,-0.29834 -1.330994,-0.421631c-0.094849,-0.021606 -0.231506,-0.005371 -0.289856,-0.053955l0.206055,-0.138794c0.438293,-0.21875 0.981079,-0.203125 1.403748,0.037598c-0.010376,-0.224487 -0.080017,-0.475952 -0.089355,-0.705566c0.64386,-0.182007 1.113831,-0.785767 1.356384,-1.410522c0.337708,-0.892944 0.432068,-1.929199 1.192444,-2.602661c0.031921,-0.021118 0.137573,-0.005371 0.148621,-0.064087l-0.148621,-0.010254c-0.992615,0.143921 -1.357178,1.212646 -1.889099,1.933838c-0.301392,0.475708 -0.765625,0.935181 -1.319458,1.053101c-0.010559,-0.235352 0.116028,-0.40625 0.152039,-0.614746c-0.05719,0.042725 -0.162598,-0.010254 -0.215698,0.064087c-0.221375,0 -0.485596,0.054077 -0.717834,0c0.074219,-0.33667 0.165955,-0.710693 0.281494,-1.015381c-0.384766,0.208008 -0.789429,0.320435 -1.269714,0.395142l0,-0.10144c0.720459,-0.454102 1.681091,-1.031128 1.921265,-1.833252l0,-0.024048c-0.480286,0.550537 -1.430115,0.670654 -2.288452,0.644165l0.025208,-0.029541c0.634216,-0.75293 0.624634,-1.790894 0.855896,-2.715698c-0.116455,0.20874 -0.337646,0.38916 -0.53363,0.549316c-0.574951,0.475952 -1.386169,0.448608 -2.082886,0.61438c-0.094421,0.016235 -0.174622,0.096558 -0.270203,0.064575c0,-0.272583 -0.139771,-0.481079 -0.214417,-0.716309c-0.306213,-0.716309 -1.049255,-1.096191 -1.725342,-1.244995c0.185913,0.18689 0.311768,0.421875 0.296143,0.705444c0.031433,0.399902 -0.141968,0.785156 -0.421997,0.988037c-0.253357,-0.224731 -0.612854,-0.453857 -0.718323,-0.795898c-0.067688,0.021118 -0.051819,0.122681 -0.088806,0.175781c-0.110474,0.155151 -0.211121,0.358276 -0.369873,0.438354c-0.072998,-0.934692 -0.469971,-1.73645 -0.950073,-2.500366c-0.109985,-0.128784 -0.194763,-0.342163 -0.342957,-0.384888c0.375122,0.785645 -0.237244,1.469727 -0.543701,2.126953c-0.226929,0.36853 -0.316772,0.796631 -0.469971,1.181641l-0.264221,-0.433472c0.10614,-0.566284 0.222412,-1.266113 -0.02594,-1.78479c-0.258362,-0.962158 -1.334778,-1.185791 -1.936401,-1.859741c-0.237976,-0.283325 -0.306152,-0.716309 -0.216858,-1.063721c-0.237,0.588135 -0.210815,1.352539 0.026672,1.93457c0.178894,0.561401 0.675781,0.988647 0.755066,1.57605c-0.754333,-0.256104 -1.704163,0.064819 -2.184509,0.641479l0,0.064575c0.240173,-0.144409 0.590576,-0.053833 0.817749,0.015747c0.311035,0.165527 0.616516,0.432617 0.6698,0.780396c-0.2901,-0.04834 -0.55188,-0.197632 -0.763672,-0.395386c-0.036072,0.047852 -0.031982,0.096313 -0.006042,0.154785c-0.031189,0.235229 -0.097961,0.4646 -0.177002,0.662964c-0.089783,0.117188 -0.084045,0.28833 -0.151978,0.400024c-0.353516,-0.357056 -0.48584,-0.828003 -0.543762,-1.319946c0,-0.763184 0.032227,-1.597412 -0.53241,-2.158325c-0.116272,-0.10144 -0.206055,-0.240356 -0.35376,-0.294434c0.554565,0.930298 -0.062683,1.90271 -0.100159,2.858765c-0.041992,0.080444 -0.007935,0.240601 -0.049927,0.33667c-0.617432,-0.352417 -1.450562,-0.544434 -2.171021,-0.347046l0,0.026489c0,0.031982 0.40271,0.192383 0.577576,0.304565c0.859497,0.892212 -0.300964,1.747192 -0.542786,2.554688c-0.053528,0.111938 -0.028809,0.267212 -0.102051,0.3573c-0.168823,-0.196899 -0.439758,-0.368164 -0.49231,-0.640747l-0.034119,0.064453c-0.470703,-0.507935 -0.986084,-0.96167 -1.510132,-1.384155c-0.827576,-0.619995 -2.046631,-0.790405 -2.959473,-0.256836c0.210632,-0.032104 0.42218,0.011108 0.634216,0.011108l0,0zm22.623535,6.02356c0.243774,0.085938 0.544922,0.064819 0.787476,0.101685c-0.242798,0.113037 -0.517822,0.155273 -0.796875,0.171631l0.009399,-0.273315l0,0zm-21.370605,-2.484375c0.147949,0.133301 0.263977,0.293701 0.443359,0.405884c0.501221,0.256836 0.854492,0.545166 1.4198,0.641235c0.211609,0.540527 0.438538,1.069214 0.686157,1.592041c-0.369385,-0.245361 -0.80719,-0.373535 -1.281982,-0.383911c-0.849915,-0.470459 -0.865784,-1.496704 -1.267334,-2.255249l0,0zm0.607117,3.420288c-0.327576,0.107056 -0.654907,0.347046 -0.844604,0.641235c-0.042053,-0.149048 0.010559,-0.347534 0.047302,-0.513062c0.100403,-0.485962 0.580444,-0.865356 1.040344,-0.972168c0.685425,-0.097046 1.303833,0.042725 1.873718,0.384766c0.153015,0.063599 0.268738,0.282715 0.379944,0.394653c0.601624,0.689575 1.39917,1.208008 2.243103,1.491089c0.174133,0.080322 0.364075,0.144409 0.517761,0.240479c-0.839355,0.256104 -1.620789,-0.170532 -2.318237,-0.533691c-0.901794,-0.513184 -1.794495,-1.389648 -2.939331,-1.133301l0,0zm5.499878,-4.574463c0.153748,0.09668 0.326904,0.026489 0.480103,0.010742c-0.026184,0.325928 0.110962,0.608765 0.027161,0.924561c0.237,-0.10144 0.554504,-0.069458 0.811951,-0.091064c0,0.171631 -0.015137,0.406616 0.063904,0.577026c-0.142883,0.128296 -0.280273,0.021851 -0.443115,0.091431c-0.222351,0.079834 -0.39624,-0.176636 -0.533386,-0.320313c-0.110962,-0.18811 -0.147705,-0.401245 -0.252869,-0.593506c-0.016357,-0.038086 -0.058655,-0.016235 -0.090332,-0.021606c-0.073242,0.128662 -0.079712,0.283447 -0.163513,0.40625c-0.126343,0.245728 -0.385498,0.36853 -0.659729,0.347412c-0.216431,-0.053711 -0.385254,-0.203125 -0.453918,-0.411621c-0.052612,-0.36853 0.226929,-0.711426 0.516602,-0.870972c0.085022,-0.053833 0.10614,-0.143921 0.074707,-0.230347c-0.300476,0.016235 -0.633789,0.176514 -0.886963,-0.074951c-0.142883,-0.165039 -0.194763,-0.378418 -0.147705,-0.603394c0.079529,-0.219238 0.264465,-0.363159 0.490417,-0.384766c0.291077,-0.063599 0.601868,0.299561 0.796875,-0.015747c0.200989,0.042236 0.365051,0.24585 0.496643,0.374023c-0.195251,0.096069 -0.327576,0.277954 -0.342957,0.502197c0.005066,0.154785 0.073242,0.315308 0.216125,0.384644l0,0zm4.976868,1.688965c0.137573,-0.03186 0.243042,-0.145142 0.380371,-0.176514c-0.063843,0.28833 0.042786,0.747437 -0.316772,0.859985c-0.084534,0.059204 -0.232239,0.095947 -0.342712,0.064087c0.141968,-0.21936 0.316345,-0.442749 0.279114,-0.747559l0,0zm2.787292,2.62915c0.147644,-0.091431 0.279541,-0.251465 0.332336,-0.432739c0.116272,0.117188 0.296143,0.07959 0.417175,0.191284c-0.121033,0.395874 -0.321838,0.759277 -0.469971,1.181274c-0.121094,-0.058716 -0.226746,-0.165527 -0.379944,-0.143921c0.07373,-0.24585 0.126526,-0.524048 0.100403,-0.795898l0,0zm5.863464,-0.010864c0.026917,0.144409 0.022583,0.320557 -0.100647,0.410889c-0.210388,0.198364 -0.536499,0.113159 -0.76947,0.027222c-0.237488,-0.122803 -0.401306,-0.353149 -0.50647,-0.577271c0.105164,-0.058716 0.247864,-0.182007 0.300903,-0.282715c0.3797,0.010376 0.881165,0.021118 1.075684,0.421875l0,0zm-0.059082,-0.31311l0.179626,-0.380615c0.206787,-0.012573 0.400818,0.015259 0.564392,0.083496l0.026672,0.098511c-0.037476,0.05249 -0.074463,0.102661 -0.113586,0.149048c-0.041077,0.047852 -0.085022,0.09375 -0.13739,0.132324c-0.2099,0.012085 -0.372009,-0.02771 -0.519714,-0.082764l0,0zm-1.291321,0.815308c0.078979,0.101685 0.210815,0.133667 0.315796,0.203125c-0.274048,0.271851 -0.658508,0.560913 -0.886169,0.887207c-0.13208,-0.21875 -0.206055,-0.481812 -0.280273,-0.732544c0.322754,0.059204 0.675781,-0.053223 0.850647,-0.357788l0,0zm-0.295166,0.021851c-0.237549,0.133179 -0.496155,-0.005859 -0.697205,-0.128662c-0.031921,-0.090576 -0.089783,-0.197632 -0.048035,-0.304688l0.190002,-0.181274c0.222107,0.042236 0.402039,0.063599 0.618896,0c0.078491,0.090576 0.126038,0.191528 0.142395,0.309448c-0.022827,0.133545 -0.079468,0.240356 -0.206055,0.305176l0,0zm-0.316772,1.758301c0.131836,0.560669 0.036011,1.212402 -0.401306,1.592529c-0.079285,0.057983 -0.189758,0.154785 -0.280273,0.063354c-0.100159,-0.117554 -0.142395,-0.299072 -0.342957,-0.245239c-0.142395,0.154663 -0.343445,0.036743 -0.495911,0.053223c-0.195251,-0.170898 -0.285339,-0.38501 -0.337646,-0.614624c0.132324,-0.064575 0.300171,-0.090698 0.45343,-0.079834c-0.031494,-0.299561 -0.62854,-0.342773 -0.390747,-0.679199c0.306396,-0.667969 1.003357,-1.07959 1.251221,-1.795166c0.110474,0.587891 0.374634,1.132813 0.544189,1.704956l0,0zm-0.480591,2.718994c-0.127014,0.128662 -0.338562,0.17627 -0.417358,0.374512c-0.184448,0.213379 -0.401062,-0.031982 -0.606628,0.047607c-0.242371,-0.058472 -0.179199,-0.336182 -0.279785,-0.497559c0.041992,-0.186523 0.163757,-0.341553 0.22644,-0.511719l0.127075,-0.283325c0.215393,0.085205 0.342224,-0.171265 0.522583,-0.064209c0.121033,0.111816 0.279785,0.202393 0.454346,0.218628c0.05719,0.037598 0.088623,0.107056 0.073486,0.192261c-0.121277,0.150269 -0.016296,0.373779 -0.100159,0.523804l0,0zm-12.377563,-0.117188c-0.807373,-0.160034 -1.625366,-0.267822 -2.190247,-0.972412c-0.359009,-0.395142 -0.585754,-0.945923 -0.390259,-1.474609l0.152527,-0.246582c-0.037231,0.721436 0.759827,0.94104 1.250732,1.234741c0.501221,0.304688 1.018738,0.549805 1.494263,0.908569c0.158508,0.12793 0.220947,0.309937 0.279053,0.486206c-1.045166,-0.315552 -2.031738,-0.870728 -2.850159,-1.66687c0.575623,0.838623 1.468079,1.314575 2.254089,1.730957l0,0zm-2,-0.294434c-0.396057,0.048462 -0.78125,-0.036743 -0.986816,-0.34668c-0.089844,-0.139038 -0.1427,-0.30481 -0.100403,-0.485962c0.079041,-0.14978 0.126343,-0.33728 0.301392,-0.422729c0.047058,0.080566 0.067993,0.187378 0.105408,0.283447c0.199097,0.33667 0.416199,0.689087 0.68042,0.971924l0,0zm-0.174866,-2.666138c0.222168,-0.069458 0.475281,0.036865 0.570862,0.256104c0.173157,0.229858 0.247864,0.518677 0.263245,0.823486c-0.311768,-0.139771 -0.780762,-0.272583 -0.91333,-0.668457c-0.010132,-0.139038 -0.042053,-0.314819 0.079224,-0.411133l0,0zm1.795227,1.61438l-0.084778,-0.011475l-0.49646,-0.320313c0.01062,-0.363159 0.079285,-0.812256 0.4328,-0.972412c0.217346,-0.096802 0.480286,-0.016235 0.607361,0.175781c0.137146,0.449219 -0.111206,0.845093 -0.458923,1.128418l0,0zm0.849182,-0.561401c0.427979,0.112061 0.654663,0.582031 0.839355,0.935181c-0.369385,-0.192261 -0.786255,-0.251465 -1.192871,-0.347046c0.184937,-0.166138 0.26947,-0.391113 0.353516,-0.588135l0,0zm-0.189941,0.843872c0.538391,0.16626 0.949829,0.406128 1.383301,0.807373c0.210815,0.566284 0.612183,1.084717 1.140015,1.453613c-0.115784,0.075073 -0.263672,0.341553 -0.443359,0.165527c-0.823975,-0.400635 -1.440918,-1.186646 -1.763489,-2.025269c-0.105408,-0.145142 -0.189941,-0.299927 -0.316467,-0.401245l0,0zm1.219482,-0.23999c-0.206055,-0.438843 -0.606384,-0.625 -0.950317,-0.898315c0.733948,-0.149048 1.478943,0.112549 2.074768,0.470825c0.295166,0.213623 0.606873,0.485962 0.775208,0.821899c0.169067,1.032593 0.69165,2.132324 1.657349,2.619019c-0.326111,-0.032104 -0.664978,-0.063354 -0.9599,-0.192261c-0.110962,-0.379395 -0.226929,-0.747559 -0.423401,-1.090088c-0.110229,0.005859 -0.110229,0.14978 -0.189514,0.213867c-0.126282,0.096069 -0.269226,0.320923 -0.453613,0.299072c-0.839172,-0.523315 -1.087219,-1.469727 -1.530579,-2.244019l0,0zm-0.152466,-3.297729c0.020142,-0.517944 -0.486572,-1.009766 -0.100403,-1.490845c0.09436,-0.25647 0.263672,-0.486084 0.453918,-0.705566c0.115723,0.24585 0.25885,0.50293 0.517273,0.631104c-0.037476,0.10144 -0.138062,0.175781 -0.189697,0.266968c-0.137878,0.261719 -0.085266,0.598389 0.105164,0.812256c0.004822,0.635864 -0.211609,1.202393 -0.549927,1.678589c-0.147278,0.154663 -0.195068,0.133057 -0.263489,0.202515c0.031677,-0.214111 0.04248,-0.464844 0.089844,-0.689087c-0.079285,-0.2146 -0.004822,-0.470703 -0.062683,-0.705933l0,0zm-0.396057,-1.409912c-0.158752,-0.476318 -0.364807,-0.984009 -0.338135,-1.491089c0.263672,-0.038086 0.490417,-0.203003 0.680359,-0.395874c0.180115,0.160889 0.248108,0.400513 0.216858,0.614014c-0.105164,0.460205 -0.464478,0.807617 -0.559082,1.272949l0,0zm4.638672,1.373291c0.142456,-0.101685 0.306213,-0.043457 0.443604,0.036865c0.164001,0.14978 0.10614,0.48645 0.100403,0.732544l-0.200317,1.795044l-0.153015,0.192871l-0.16449,-0.171753c-0.105164,-0.779419 -0.189697,-1.538696 -0.205566,-2.345459c-0.000244,-0.106567 0.094849,-0.197388 0.179382,-0.240112l0,0zm-0.316284,-0.043701c-0.089111,0.043457 -0.153198,-0.079834 -0.217102,-0.111938c0.048767,-0.149658 0.068726,-0.321045 0.063904,-0.464722c0.179138,0.133667 0.438538,0.186646 0.659912,0.107056l0.0625,0.203125c-0.237061,-0.026733 -0.45874,0.064087 -0.569214,0.266479l0,0zm0.707031,-0.918701c-0.105164,0.096313 -0.221436,0.165527 -0.364807,0.165527c-0.521851,-0.111694 -0.891907,-0.603638 -1.181335,-1.041992c-0.011292,-0.047852 0.015869,-0.128174 0.078308,-0.149292c0.115723,-0.04834 0.269714,0.036865 0.391235,-0.026489c0.41687,0 0.902039,0.042236 1.176758,0.410767c0.085022,0.214233 0.031677,0.465698 -0.100159,0.641479l0,0zm-0.896729,1.165283c0.163269,0.240112 0.100586,0.582153 0.15271,0.870972l0.163818,1.28186l-0.4328,-0.368042l-0.470215,-1.501953c0,-0.117798 0,-0.240356 0.090271,-0.309448c0.147461,-0.181885 0.34729,-0.09668 0.496216,0.026611l0,0zm-0.353271,1.592041c-0.196228,-0.117432 -0.417419,-0.235107 -0.623718,-0.347534c-0.142395,-0.304688 -0.279541,-0.609253 -0.369568,-0.934448c0.016052,-0.12793 0.063843,-0.230347 0.19043,-0.256836c0.136658,-0.005371 0.258362,0.085205 0.316284,0.203125l0.486572,1.335693l0,0zm-1.763977,-1.206787c0.090027,-0.11792 0.226929,-0.155396 0.369324,-0.11792c0.296387,0.171265 0.337463,0.555542 0.506775,0.833496c-0.210388,-0.053711 -0.478638,-0.128662 -0.696228,-0.175781c-0.042053,-0.102173 -0.105225,-0.203613 -0.169067,-0.283447c0,-0.086182 -0.041565,-0.171387 -0.010803,-0.256348l0,0zm-0.2901,-0.064819c-0.105469,-0.021118 -0.263,-0.021118 -0.369385,0.037354c0.085022,-0.24585 0.106384,-0.502197 0.16449,-0.742676c0.18927,0.096069 0.469055,0.036621 0.67511,-0.010742c0,0 0.274231,-0.188599 0.337891,-0.300415c0.007202,0.006714 0.033142,0.146851 0.078796,0.237061c0.04657,0.143677 0.085449,0.177002 0.12561,0.24353c-0.158264,0.026611 -0.120361,0.056763 -0.178223,0.076172l-0.100647,0.128662c0,0 -0.163025,-0.031372 -0.289612,0.010864c-0.169312,0.052979 -0.380676,0.12207 -0.444031,0.32019l0,0zm0.364563,-1.036621c-0.137878,0.074951 -0.317017,0.11792 -0.479858,0.063843c-0.16449,-0.074097 -0.290833,-0.25061 -0.317505,-0.427734c-0.015869,-0.212891 0.100403,-0.453857 0.305969,-0.550049c0.358826,-0.19751 0.781494,-0.262329 1.150879,-0.432739c0.057861,0 0.131104,0.021118 0.141907,0.085205c-0.105164,0.48645 -0.400574,0.95166 -0.801392,1.261475l0,0zm-0.654968,1.346558c0.121765,-0.074951 0.254578,0.010742 0.338196,0.074341c0.310974,0.529541 0.765137,1.031738 0.649109,1.704834c-0.385193,-0.470337 -0.790833,-0.881592 -1.129456,-1.383301c-0.042969,-0.155273 0.00531,-0.31604 0.142151,-0.395874l0,0zm0.987305,2.052002l-0.015808,0.14978c-0.337708,-0.272583 -0.706787,-0.475952 -1.086975,-0.651978c-0.22168,-0.240723 -0.490662,-0.496826 -0.644348,-0.770142c0.031921,-0.047607 -0.02594,-0.106323 0.021118,-0.165527c0.094849,-0.100952 0.258911,-0.181519 0.369629,-0.090088c0.432495,0.469727 0.876587,1.03064 1.356384,1.527954l0,0zm-1.889771,-1.015503c0.153198,0.134155 0.322266,0.256226 0.444031,0.43811c-0.306702,-0.058716 -0.575684,-0.107056 -0.887146,-0.090576c-0.036987,-0.111938 0.010071,-0.229614 0.0896,-0.294189c0.095337,-0.074463 0.237244,-0.074463 0.353516,-0.053345l0,0zm2.675842,4.670776c0.411865,0.090698 0.791565,0.031982 1.188049,0.047974c-0.100647,0.17627 -0.211548,0.347412 -0.263916,0.539429c-0.24353,-0.186646 -0.618164,-0.224121 -0.950562,-0.21875l0.026428,-0.368652l0,0zm-0.316772,-2.453003c-0.347534,-0.801514 0.027161,-1.928711 -0.469299,-2.65564c0.886475,0.19751 1.783936,0.919189 2.179932,1.774048c0,0.176392 -0.095581,0.341797 -0.127014,0.523071c-0.195496,0.721802 -0.037231,1.58252 0.163757,2.282349l0.152527,0.33667c-1.039185,-0.165283 -1.662415,-1.331177 -1.899902,-2.260498l0,0zm2.634277,-1.66687c0.422729,-0.486816 0.971008,-0.828613 1.546143,-1.026245c-0.50647,1.031128 0.105957,2.36731 -0.406067,3.361084c-0.316528,0.699829 -0.950317,1.373535 -1.683777,1.576782c-0.49115,-1.234497 -0.369385,-2.896484 0.543701,-3.911621l0,0zm0.469788,-0.732544c0.073242,-0.384399 0.189941,-0.81189 0.290344,-1.217896c0.037231,-0.085205 0.105164,-0.134033 0.189697,-0.166016c0.137146,-0.021118 0.268982,0.074707 0.342957,0.192139c0.063904,0.326294 -0.15271,0.593506 -0.231995,0.887695c-0.200256,0.085205 -0.406067,0.175781 -0.591003,0.304077l0,0zm0.860718,-0.405762c0.057373,-0.192749 0.131104,-0.427734 0.226685,-0.630859c0.036072,-0.080322 0.126587,-0.042725 0.179688,-0.101685c0.110901,0.032227 0.279297,0.064087 0.289856,0.219604c0.04248,0.14978 -0.073975,0.240356 -0.116943,0.358276l-0.579285,0.154663l0,0zm0.326355,3.024536c0.048279,-0.28833 0.016113,-0.572021 0.027161,-0.859985c0.533386,-0.737305 1.361938,-1.112061 2.279602,-1.037354c0.248535,0.037598 0.480774,0.122803 0.69696,0.240723c-0.92395,-0.015747 -1.087463,1.095703 -1.530334,1.683105c-0.606873,0.940552 -1.552856,1.944946 -2.739746,2.036255c-0.179626,0.036865 -0.385925,0.036865 -0.554749,0.053345c0.903259,-0.27832 1.652283,-1.181274 1.821106,-2.116089l0,0zm1.267334,-1.998779c0.126343,-0.202515 0.279785,-0.395142 0.416443,-0.593506c0.185181,-0.106323 0.40155,-0.036865 0.506714,0.144653c0.03772,0.074585 0.053101,0.208984 -0.010315,0.277954c-0.274475,0.048096 -0.633057,0.053589 -0.912842,0.170898l0,0zm1.4823,1.255859l-0.684509,0.229614c0.104004,-0.272339 0.25769,-0.576538 0.505798,-0.731812c0.021118,0.181763 0.131348,0.331055 0.178711,0.502197l0,0zm-0.938538,0.779663c0.369324,-0.341309 0.823486,-0.533569 1.293213,-0.651489c-0.100342,0.347534 -0.290833,0.689819 -0.469727,1.026489c-0.485352,0.97229 -1.525513,1.533447 -2.618225,1.484985c0.765137,-0.374512 1.414063,-1.116577 1.794739,-1.859985l0,0zm-0.607178,2.143188c0.660217,-0.235107 1.124207,-0.902954 1.536072,-1.44812c0.078796,0.106323 0.031921,0.294189 0.18927,0.347656c0.105408,0.042236 0.301392,-0.005371 0.327087,0.138794c-0.031921,0.662476 -0.152527,1.352051 -0.785583,1.69397c-0.337891,0.256348 -0.760559,0.315063 -1.103516,0.560913c-0.095093,0.047852 -0.211365,0.112427 -0.301147,0.208374c0.143372,-0.459717 0.037231,-1.026001 0.137817,-1.501587l0,0zm2.359619,-5.579224l-0.369629,-0.293701c0.173889,-0.133057 0.400818,-0.197632 0.579956,-0.335938c0.063171,0.057983 0.169312,0.036865 0.179688,0.143188c-0.067993,0.214355 -0.226746,0.326416 -0.390015,0.48645l0,0zm-0.26947,0.267212l-0.215942,0.235718c-0.185364,-0.19812 -0.343872,-0.454468 -0.591736,-0.577271c0.126099,-0.042725 0.285522,-0.070068 0.416687,-0.128662c0.153931,0.101563 0.364319,0.288696 0.390991,0.470215l0,0zm-0.506531,0.593262c-0.058105,0.074951 -0.079224,0.139282 -0.137146,0.219604c-0.364319,-0.358521 -0.74469,-0.679077 -1.113586,-1.015503c0.216125,0.010376 0.432739,-0.059326 0.643616,-0.101563l0.073975,0.026489c0.231995,0.25708 0.469055,0.54541 0.533142,0.870972l0,0zm-1.371277,-0.336426l0,0.192871l-0.528625,0.785034c-0.248291,0.1073 -0.481262,0.171143 -0.708191,0.320923l0.051147,-0.117798l0.904175,-1.319946c0.116272,-0.042969 0.281494,0 0.281494,0.138916l0,0zm-0.439758,-0.406128l-0.009583,0.175781c-0.284851,0.513062 -0.654907,0.994385 -0.97699,1.491211c0.016113,-0.23999 -0.011047,-0.641235 0.126587,-0.897583c0.12677,-0.304077 0.300659,-0.58252 0.453857,-0.875488c0.12085,-0.15625 0.343201,-0.043213 0.406128,0.106079l0,0zm-0.569885,-0.640747c-0.126343,-0.091797 -0.294922,-0.160767 -0.453918,-0.091797c0.079041,-0.785156 -0.548767,-1.271118 -0.992554,-1.821655c-0.03125,0.080322 0.090271,0.122803 0.090271,0.202393c0.237061,0.470703 0.638611,0.855713 0.569885,1.437744c-0.190186,-0.074829 -0.385193,-0.133545 -0.569885,0c-0.16449,-0.138916 -0.184204,-0.400024 -0.290588,-0.603638c-0.163086,-0.641113 -0.327332,-1.384033 -0.199829,-2.052002c0.342957,0.652344 0.992126,1.143677 1.540161,1.619385c0.317017,0.341309 0.496155,0.859985 0.306458,1.30957l0,0zm-1.873718,-0.283325c0.090515,0 0.164246,0.03186 0.237488,0.074829c0.105713,0.095825 0.137146,0.234863 0.105713,0.373535l-0.316101,1.319946l-0.560242,0.502197l0.253113,-2.004272c0.047546,-0.116943 0.148193,-0.239746 0.280029,-0.266235l0,0zm-0.35376,-0.155518c-0.105225,-0.17627 -0.142395,-0.406128 -0.253113,-0.587402c0.089783,-0.105835 0.212524,-0.265869 0.202209,-0.265869c0.042236,-0.085938 0.135193,-0.209717 0.124878,-0.311401c0.094849,0.315552 0.169556,0.65686 0.227417,0.972412c-0.121521,0.037842 -0.206543,0.123047 -0.301392,0.192261l0,0zm-0.3797,-2.553955c-0.211121,0.347046 -0.628479,0.347046 -0.97699,0.43811c-0.141907,0 -0.368835,0.064087 -0.495178,-0.052979c-0.111206,-0.342896 0.220947,-0.492188 0.379456,-0.754395c0.21106,-0.138306 0.406555,-0.330566 0.670288,-0.33667c0.169067,0.042969 0.301392,0.155396 0.406555,0.299072c0.05188,0.123291 0.068481,0.278442 0.015869,0.40686l0,0zm-1.68927,0.117188c-0.105896,0.053345 -0.147217,-0.075195 -0.163818,-0.155396c-0.089783,-0.368652 -0.041992,-0.635132 -0.037231,-1.009155c0.216919,0.064087 0.427734,0.213501 0.570435,0.368164c-0.02594,0.305054 -0.190247,0.556274 -0.369385,0.796387l0,0zm-0.010071,0.705566c0.321533,0.438843 0.642883,0.903442 0.543701,1.485474c-0.085022,0.16626 -0.301392,0.138916 -0.390747,0.320923c-0.137634,0.026489 -0.328064,0.03186 -0.433228,-0.101685c-0.32135,-0.459961 -0.100159,-1.101074 0.036743,-1.57605c0.047791,-0.096802 0.142883,-0.187378 0.24353,-0.128662l0,0zm-0.380432,-0.678345c-0.057861,0.04248 -0.100159,0.047729 -0.180115,0.037354c-0.30957,-0.246582 -0.680603,-0.539795 -0.869873,-0.908325c-0.005249,-0.134155 -0.048035,-0.267456 -0.015381,-0.401001c0.199829,-0.042969 0.379456,-0.1604 0.531738,-0.293701c0.079224,0.074829 0.149109,0.133301 0.243042,0.181641c0.195496,0.33667 0.268982,0.737427 0.343445,1.11145c0,0.10144 0,0.208008 -0.052856,0.272583l0,0zm-0.506042,-0.016357l0.305237,0.245239c0.026672,0.048462 0.052856,0.113037 0.020691,0.16626c-0.395325,0.250732 -0.906372,0.325928 -1.366272,0.192261c-0.21637,-0.064087 -0.337463,-0.299072 -0.35376,-0.523315c0.042053,-0.155151 0.053528,-0.342041 0.226929,-0.411499c0.428223,-0.176636 0.823792,0.111694 1.167175,0.331055l0,0zm-3.294006,-0.577148c0.364807,0.042236 0.195496,0.491089 0.2901,0.732544c0.158264,0.939819 0.696716,1.74646 0.759888,2.692505c0.084778,0.342041 0.110962,0.727051 0.026184,1.079468c-0.100159,-0.133057 -0.094177,-0.331299 -0.163086,-0.485962c-0.269714,-1.052734 -0.802856,-1.993286 -1.546387,-2.8479c-0.259155,-0.673096 -0.29541,-1.619751 0.252869,-2.153931c-0.042236,0.369141 0.08551,0.737915 0.380432,0.983276l0,0zm-2.797607,3.826538c0.654419,0.32019 1.299255,0.742554 2.027405,0.934814c-0.175049,0.122803 -0.338379,0.299927 -0.395996,0.475708c-0.132324,-0.357788 -0.475037,-0.640625 -0.849915,-0.721436c-0.443359,-0.031982 -0.70752,0.304688 -0.907837,0.641113c-0.141907,-0.042236 -0.353516,-0.111694 -0.421692,-0.267212c0.025452,-0.421875 0.194519,-0.828003 0.548035,-1.062988l0,0zm-2.902832,2.692383c0.639099,-0.057861 1.071594,-0.512451 1.646301,-0.576538c0.110962,0.203003 0.27478,0.406616 0.406372,0.576538c-0.643616,0.246582 -1.408997,0.246582 -2.052673,0l0,0zm2.406189,-0.256104c-0.838623,-0.453369 -0.706787,-1.469238 -0.959961,-2.244263c0.221008,0.609253 0.664551,1.197144 1.277222,1.474609c0.06311,0.101685 0.031189,0.288818 0.073975,0.395874c-0.163086,0.063599 -0.290588,0.223755 -0.391235,0.373779l0,0zm-0.632568,1.539307c1.588867,-0.321045 3.435486,-0.16626 4.903076,0.48645l0.163757,0.176514c-1.388367,0.053101 -2.728882,-0.171143 -3.978943,-0.470703c0.23175,0.107056 0.442871,0.144409 0.685669,0.213867c0.891724,0.325806 1.905151,0.417236 2.839417,0.567017c0.021118,0.047119 0.005981,0.110962 0.010803,0.164795c-1.731567,0.272583 -3.293579,-0.23999 -4.623779,-1.137939l0,0zm-0.369873,1.357178c0.332886,-0.277954 0.760376,-0.43811 1.166931,-0.588135c0.178955,0.096313 0.364075,0.165771 0.532898,0.278809c-0.338135,0.063354 -0.718506,0.079712 -1.050903,0.17041c0.411621,0.052979 0.976929,0.037231 1.430603,0.021118c0.121765,0.058716 0.253601,0.085693 0.379944,0.12793c-0.722839,0.289307 -1.684021,0.187622 -2.459473,-0.010132l0,0zm1.535828,1.207031c-0.316284,0.107056 -0.585022,0.246582 -0.786255,0.561646c-0.015137,-0.566284 0.338135,-1.07959 0.876282,-1.293457c0.660461,-0.197632 1.350952,-0.469727 2.07428,-0.357788c0.448364,-0.005371 0.860474,-0.085205 1.293274,-0.128174l0.02594,0.037354l-0.015625,0.26709c-0.871033,0 -1.488281,0.625 -2.317505,0.742676c-0.399658,0.05896 -0.759888,0.095947 -1.150391,0.170654l0,0zm1.314392,0.203857c-0.268982,0.529175 -0.464722,1.116817 -0.807434,1.629398c-0.090027,-0.545288 -0.031921,-1.142948 0.237549,-1.592045c0.184448,-0.032471 0.395996,0.015869 0.569885,-0.037354l0,0zm-0.886658,3.810062c-0.041565,0.026482 -0.095093,0.048332 -0.126343,0.091301c0.23175,-0.62085 0.306213,-1.34716 0.23175,-2.042114c0.285583,-0.063469 0.565125,-0.143677 0.834106,-0.203117c-0.005554,0.828972 -0.348511,1.560295 -0.939514,2.153931l0,0zm2.59729,-3.436039c-0.702209,0.331177 -1.224792,1.100094 -2.027405,1.20203c-0.084045,-0.005135 -0.184448,0.064079 -0.237488,0.03759c0.464661,-0.732544 0.697388,-1.651241 1.530762,-2.137203c0.369324,-0.171631 0.744019,-0.380127 1.177246,-0.348267c0.015625,0.128174 0.020874,0.267944 0.062683,0.385132c-0.917908,-0.005493 -1.604004,0.77478 -2.110779,1.475094c0.543518,-0.44421 1.029358,-0.994137 1.720764,-1.17065c0.263672,0.027222 0.622986,-0.085205 0.733459,0.235229c0.052551,0.064819 0.142395,0.064819 0.180115,0.14978c-0.348511,0.101929 -0.697449,-0.015869 -1.029358,0.171265l0,0zm2.28009,2.07336c-0.215881,0.401253 -0.597046,0.678474 -0.99762,0.849365l-0.280029,0.203369c0.132324,-0.28833 0.385193,-0.577393 0.481018,-0.908325c0.084106,-0.224243 0.052124,-0.496826 0.078064,-0.742912c0.174866,0.010368 0.517822,-0.470215 0.491638,-0.042969c0.036987,0.246086 0.485352,0.358269 0.226929,0.641472l0,0zm1.15564,-0.486816c-0.063843,0.294189 -0.306702,0.45459 -0.495911,0.679321c-0.026428,-0.411621 -0.464722,-0.619377 -0.606873,-0.983757c-0.100647,-0.28833 -0.026672,-0.625008 0.010071,-0.913338c-0.058105,-0.042965 -0.073486,-0.117794 -0.16333,-0.090572c-0.211548,0.288082 -0.391174,0.582027 -0.659668,0.821896c-0.427979,0.37989 -0.987305,0.101936 -1.456848,0.037842c0.348022,-0.40612 0.575684,-1.111446 1.202759,-1.154415c0.190186,-0.026489 0.407288,0.058716 0.613098,0.026489c0.047302,-0.036865 0.089355,-0.106323 0.036987,-0.154663c-0.085022,-0.048218 -0.200806,-0.005493 -0.290588,-0.036865c-0.311035,-0.080322 -0.607117,-0.294922 -0.749573,-0.588623c-0.173584,-0.336182 -0.147705,-0.764038 -0.190186,-1.132568c0.437805,0.213379 1.039673,0.074829 1.303833,0.630371c0.106384,0.262207 0.226929,0.524048 0.280273,0.807373c0.015381,0.047729 0.079224,0.036865 0.126526,0.036865c0.121765,-0.208008 -0.073242,-0.454102 -0.02594,-0.689575c0.010132,-0.598389 0.643677,-0.865356 0.912659,-1.28186c0.163025,0.465332 0.300171,1.084717 0.010559,1.538818l-0.275024,0.369019c0.00531,0.047852 0.011536,0.100952 0.063416,0.117432c0.090088,0.042725 0.127075,-0.06958 0.190491,-0.102417c0.395996,-0.250244 0.970947,-0.351929 1.403442,-0.101685c0.153503,0.101685 0.322327,0.305298 0.4328,0.460205c-0.53772,0 -0.844666,0.592777 -1.409302,0.486446c-0.263428,0 -0.485352,-0.187374 -0.759338,-0.218746c-0.03125,0.047852 -0.089844,0.106567 -0.047791,0.17041c0.390503,0.310421 0.664734,0.733028 0.543457,1.266598l0,0zm2.860779,1.748047c-0.628235,-0.390015 -1.118896,-1.063354 -1.784363,-1.4646c-0.263733,-0.138306 -0.51178,-0.240471 -0.786804,-0.266479c-0.02063,-0.123291 0.032471,-0.262207 0.100403,-0.337402c-0.057129,-0.154663 -0.078979,-0.352417 -0.136658,-0.523315c0.791565,0.139038 1.641479,0.624756 1.87323,1.474731c-0.131836,-0.694572 -0.622498,-1.34729 -1.277405,-1.656738c0.153748,-0.17041 0.406616,-0.181877 0.591797,-0.074341c0.2901,0.138184 0.553772,0.314819 0.748535,0.576538c0.50293,0.636597 0.185181,1.625 0.671265,2.271606l0,0zm-0.110718,-1.154411c0.248352,0.005371 0.612671,-0.021858 0.897278,0.021111c0.100342,0.08033 0.179626,0.208504 0.126282,0.347656c-0.184937,0.347542 -0.612366,0.139038 -0.913086,0.182007c-0.057617,-0.176025 -0.094604,-0.363403 -0.110474,-0.550774l0,0zm-1.01416,0.550529c-0.368896,0.042236 -0.907837,0.026489 -1.281982,0.010376c-0.116272,-0.021118 -0.226929,-0.079826 -0.253601,-0.203125c-0.021179,-0.128166 0.031921,-0.224976 0.100586,-0.309448c0.158508,-0.074951 0.396057,-0.07019 0.548523,-0.048332c0.364563,0.064568 0.597046,0.294182 0.886475,0.550529l0,0zm-1.45636,0.293701c0.554565,-0.031975 1.130188,-0.042961 1.730591,-0.036865c0.100403,0.068848 0.185669,0.181274 0.280273,0.256104c-0.469482,0.053345 -0.770203,-0.005371 -1.22937,0.047981c0.342712,0.053215 0.654175,0.240356 0.865295,0.512932c0.132324,-0.218742 0.332153,-0.309814 0.527893,-0.43335c0.137329,0.042732 0.258118,0.12793 0.379883,0.203003c-0.459412,0.160889 -0.817993,0.614754 -0.896973,1.09082c-0.074707,-0.481079 -0.490417,-0.935547 -0.949829,-1.073845c-0.602539,-0.16626 -1.261292,0.015739 -1.699402,0.459229c-0.100586,0.107048 -0.211548,0.251465 -0.274231,0.395378c0.163086,-0.577148 0.648926,-1.213623 1.265869,-1.421387l0,0zm1.947693,2.768066c-0.110474,0.192749 -0.189697,0.395874 -0.226685,0.619385c-0.069153,-0.213371 -0.147949,-0.442986 -0.279785,-0.640747c0.090027,-0.203117 0.190186,-0.395866 0.226685,-0.619263c0.052856,0.235229 0.141968,0.448364 0.279785,0.640625l0,0zm-3.256287,0.705322c-0.252686,-0.780144 -0.13208,-1.5979 0.42218,-2.190796c0.337402,-0.36853 0.80719,-0.619507 1.350647,-0.524048c0.26947,0.070313 0.538208,0.193123 0.723389,0.406258c0.253601,0.380119 0.338623,0.972893 0.079224,1.373657c-0.337402,-0.250732 -0.797302,-0.384285 -1.219299,-0.229622c-0.131104,0.037598 -0.248291,0.127937 -0.353516,0.229622c-0.109985,-0.149055 -0.109985,-0.417 -0.053284,-0.603638c0.079956,0 0.027344,-0.10157 0.079956,-0.138924c0.116272,-0.165764 0.300903,-0.197754 0.480591,-0.229607c-0.042542,0.068718 -0.116516,0.192009 -0.053345,0.293694c0.036743,0.074837 0.126587,0.058716 0.190186,0.090576c0.109985,-0.026482 0.216431,-0.101685 0.242371,-0.219231c0,-0.101196 -0.036804,-0.191536 -0.100647,-0.266731c-0.131104,-0.096062 -0.29541,-0.14978 -0.469788,-0.107056c-0.279541,0.064087 -0.53241,0.352425 -0.596313,0.619995c-0.056641,0.250732 -0.010071,0.528816 0.100403,0.742188c-0.126526,0.278206 -0.242554,0.689819 -0.047302,0.97242c0.137634,0.230339 0.364075,0.384888 0.606873,0.464958c0.095093,-0.021118 0.200317,-0.005005 0.280273,-0.063599c0.057434,-0.026611 0.125854,-0.064209 0.152527,-0.128052c0.016052,-0.080437 0.016052,-0.139404 0,-0.219482c-0.058594,-0.090576 -0.179199,-0.10144 -0.268982,-0.090576c-0.110962,0.021851 -0.147705,0.143799 -0.163818,0.245483c-0.095093,0.021606 -0.185181,-0.031372 -0.253357,-0.106323c-0.15271,-0.171135 -0.285034,-0.36853 -0.227173,-0.614624c0.037231,-0.069458 0.021118,-0.16552 0.074463,-0.230347c0.321533,0.34803 0.801392,0.358276 1.20343,0.24659c0.152466,-0.075203 0.263672,-0.155525 0.395264,-0.283699c0.211121,0.272591 0.311523,0.69519 0.174622,1.052979c-0.111206,0.357788 -0.448853,0.646614 -0.786316,0.790527c-0.143127,0.010864 -0.300659,0.074959 -0.443787,0.015747c-0.685425,-0.037102 -1.29834,-0.651489 -1.51947,-1.29834l0,0zm2.422485,-0.72644c-0.158508,0.218872 -0.443359,0.283691 -0.723633,0.277473c-0.227173,-0.010262 -0.421936,-0.107056 -0.580444,-0.277473c0.195496,-0.299797 0.601624,-0.294434 0.935181,-0.245842c0.147217,0.026604 0.278809,0.138298 0.368896,0.245842l0,0zm8.028748,9.233772l-4.138428,-0.029182l-6.223022,-0.013794l-4.333679,0l-0.02063,-0.381592l4.56012,-0.033936l4.370422,-0.000732l2.887939,-0.01049c0.933716,-0.021126 1.898926,-0.003548 2.874939,-0.008423c0.043213,0.139763 0.016357,0.333733 0.022339,0.478149l0,0zm-2.618469,-4.697273c0.839355,1.282349 1.673218,2.57605 2.480591,3.863533l-10.017761,0.047974l-4.450134,0.016106l0.206299,-0.363159l2.327393,-3.54113l0.143127,-0.035156l3.330017,0c0.084595,0 0.074707,0.339714 0.036804,0.483521c-0.132568,0.369377 -0.606689,0.135368 -0.823303,0.40844c-0.200256,0.143921 -0.24762,0.484505 -0.569153,0.425293c-0.417419,0.107056 -0.723389,0.557739 -0.913818,0.93689l0.116455,0.065552c0.923889,0.10144 1.778625,0.22522 2.670349,0.192513c0.69696,0 1.520447,0.075432 2.243591,-0.026733c0.675537,-0.031502 1.318909,-0.111702 1.973816,-0.192017c0.691467,0.005371 1.419373,-0.052612 2.089905,-0.047615c0.058838,-0.047729 0.147949,-0.016472 0.216125,-0.026611c0.010803,-0.026489 -0.02063,-0.064079 -0.047058,-0.090576c-0.738708,-0.091064 -1.49884,-0.069458 -2.232544,-0.091064c-0.041992,-0.021118 -0.05835,-0.005493 -0.110718,-0.010368l-0.068176,-0.182014l1.832153,-0.064087l0,-0.085197c-0.720459,-0.026733 -0.876099,-0.112923 -1.388367,-0.080574l-0.190674,-0.037964c-0.105164,0.048096 -0.274475,-0.036865 -0.369324,0.026978c-0.142212,0.01075 -0.176819,-0.096802 -0.272644,-0.155273c0.416931,-0.063354 0.78009,-0.026489 1.176086,-0.12793c-0.100403,-0.085197 -0.244263,-0.053215 -0.364807,-0.074341c-0.591003,-0.010857 -0.987305,-0.037346 -1.51062,-0.026978c-0.025696,-0.042236 -0.063599,-0.08007 -0.07373,-0.128296c0.448669,-0.021606 0.917908,0 1.356689,-0.064079c-0.528564,-0.12281 -1.003357,-0.154671 -1.546387,-0.166267c-0.212036,-0.213379 -0.528076,-0.175049 -0.797302,-0.234978c-0.090332,-0.101196 -0.211121,-0.208008 -0.179199,-0.368294l0.062927,-0.229607c1.31488,-0.005493 2.470276,-0.04847 3.663391,-0.016487l0,0zm-6.75592,1.177254c0.020203,-0.143921 0.152527,-0.206551 0.305725,-0.452156l2.713562,0c0.321106,0.245605 0.743774,-0.086906 0.886414,0.324471c-1.256226,0.133537 -2.665283,0.218742 -3.905701,0.127686l0,0zm4.359863,0.335686c0.253113,0.047607 0.458679,0.23999 0.643616,0.427246l-0.011047,0.085327c-2.030762,0.309814 -3.989746,0.251228 -6.043091,0c0.010559,-0.11792 0.168823,-0.229858 0.253601,-0.341667c0.116455,-0.123299 0.253601,-0.17115 0.405823,-0.192757c1.504395,0.122559 3.246704,0.091064 4.751099,0.021851l0,0zm-3.320679,-1.576294c0.575623,0.025757 1.092957,0.010262 1.663086,0.015511c-0.026428,0.149292 -0.069153,0.304192 -0.016296,0.470207c0.032166,0.090576 0.085266,0.170418 0.127014,0.256348l-1.847778,0.027344c0,-0.070313 0.053345,-0.134399 0.089355,-0.177368c0.053284,-0.175529 0.063843,-0.426994 -0.015381,-0.592041l0,0zm-0.07373,-0.241211c-0.068726,-0.026001 -0.157776,-0.032104 -0.189758,-0.117798c0.015869,-0.069824 0.004822,-0.171257 0.090088,-0.191528c0.670044,-0.032707 1.345154,0.010262 2.000061,-0.038086c0.06842,0 0.132324,0.038086 0.19043,0.091309c0.015381,0.053833 0.026428,0.143677 -0.016113,0.192017c-0.639038,0.106331 -1.383789,0.042969 -2.074707,0.064087l0,0zm2.381409,-0.924072c-0.037964,0.12281 -0.111206,0.208504 -0.201233,0.293701l-0.179626,0.053352c-0.744019,0.004883 -1.582703,0.04834 -2.306274,-0.042244c-0.095093,-0.064812 -0.174622,-0.187378 -0.174622,-0.321045c0.016113,-0.058594 0.00531,-0.143677 0.073975,-0.176514c0.8396,0.10144 1.746704,0.074959 2.586548,0.026489c0.079224,0.011597 0.280273,0 0.201233,0.16626l0,0zm-1.558167,-0.374748c-0.817932,0.053833 -1.640747,-0.239876 -2.205627,-0.908333c0.506287,0.283325 1.176575,0.363899 1.699646,0.064575c0.395264,-0.256592 0.627747,-0.641228 0.670044,-1.090088c0.05835,0.485962 0.422424,0.999756 0.897461,1.154427c0.533142,0.171135 1.134033,0.048332 1.546143,-0.309944c-0.543701,0.945435 -1.583374,1.137817 -2.607666,1.089363l0,0zm2.976563,-1.821663c-0.368896,0.513069 -0.964722,0.967041 -1.66217,0.82325c-0.305969,-0.042732 -0.591492,-0.294197 -0.733887,-0.577888c-0.16333,-0.314819 -0.178711,-0.806145 0.015808,-1.116325c0.30072,0.18689 0.676331,0.379143 1.077148,0.245483c0.174316,-0.064095 0.34845,-0.160278 0.480286,-0.310066c0.079285,0.134033 0.115784,0.310066 0.063904,0.464844c-0.079468,0.18811 -0.184937,0.363159 -0.396484,0.432617c0.022095,-0.090088 -0.073486,-0.122437 -0.110474,-0.175781c-0.052124,-0.042473 -0.1427,-0.032104 -0.206299,-0.015747c-0.104736,0.063362 -0.174377,0.186646 -0.126587,0.309944c0.069397,0.175896 0.253357,0.186638 0.433472,0.191521c0.25769,-0.057854 0.479858,-0.260986 0.606445,-0.501465c0.158264,-0.299797 0.047058,-0.679443 -0.100647,-0.946411c0.122253,-0.325798 0.11145,-0.689087 -0.05188,-0.988159c-0.132324,-0.251457 -0.390991,-0.342033 -0.670532,-0.347778c-0.138062,0.032227 -0.348694,0.069832 -0.390991,0.25647c-0.058105,0.112671 0.053101,0.198128 0.047546,0.283325c0.073975,0.069458 0.205139,0.079842 0.295654,0.037354c0.067749,-0.074951 0.121277,-0.170891 0.100403,-0.267212c0.037231,-0.058472 0.094116,-0.005371 0.153198,-0.015747c0.205139,0.133667 0.321838,0.357788 0.337708,0.614258c-0.032227,0.032356 0.015564,0.127937 -0.036987,0.170898c-0.290161,-0.202881 -0.723633,-0.326172 -1.060791,-0.143669c-0.164551,0.037346 -0.285339,0.170166 -0.433044,0.229118c-0.179382,-0.293701 -0.280029,-0.662598 -0.116211,-0.998535c0.185181,-0.353149 0.56488,-0.689819 1.003113,-0.689819c0.681091,-0.05835 1.282715,0.30481 1.610291,0.897591c0.336975,0.646851 0.258667,1.539055 -0.127991,2.137932l0,0zm-2.141968,-1.11145c0.195007,-0.229614 0.542969,-0.262207 0.838867,-0.219238c0.105652,0.053719 0.216614,0.091316 0.300659,0.192017c-0.22168,0.224983 -0.558838,0.278206 -0.860229,0.192749l-0.279297,-0.165527l0,0zm2.026917,-1.758789c-0.374878,-0.363159 -0.924133,-0.571167 -1.483948,-0.513184c-0.067688,-0.175171 -0.236572,-0.335938 -0.226685,-0.511841c0.702454,-0.09668 1.325195,0.480347 1.710632,1.025024l0,0zm-0.354248,-2.196411c-0.163269,-0.020386 -0.316772,-0.069214 -0.443298,-0.191528c-0.216187,-0.272575 -0.16333,-0.67334 -0.190002,-1.01001c-0.020874,-0.038086 -0.058105,-0.069214 -0.090271,-0.101685c-0.062683,0 -0.146484,0.036865 -0.153015,0.111938c-0.052124,0.395142 0.158997,1.015503 -0.289856,1.18103c-0.152954,0.027222 -0.358276,0.12793 -0.453918,-0.03759c-0.031189,-0.432014 -0.237976,-0.82312 -0.570374,-1.14344c0.089844,-0.170898 0.30072,-0.117798 0.427246,-0.256104c0.084778,-0.010254 0.131836,-0.058712 0.179871,-0.12817c0.009888,-0.139038 -0.157776,-0.053711 -0.226929,-0.112183c-0.295166,-0.015747 -0.581177,-0.171143 -0.7229,-0.449219c-0.106384,-0.229858 -0.079468,-0.512939 0.025757,-0.731812c0.058533,-0.111694 0.19043,-0.208496 0.301636,-0.256836c0.437561,-0.057983 0.775452,0.208496 1.075867,0.513794c0.042786,-0.005493 0.090088,-0.048462 0.090088,-0.091919c-0.026672,-0.154663 -0.153259,-0.29834 -0.090088,-0.45874c0.401794,0 0.675842,-0.304443 0.976501,-0.090576l0.269958,0.047607c0.041748,0.053101 -0.026917,0.085205 -0.042297,0.12793c-0.064087,0.139038 -0.227661,0.278076 -0.148376,0.427368c0.215881,-0.13855 0.385925,-0.405762 0.654907,-0.464844c0.063416,-0.026611 0.15802,-0.026611 0.216858,-0.026611c0.035767,0.422729 0.18396,0.817749 0.162598,1.245605c-0.136658,0.12793 -0.358582,0.12207 -0.506531,0.154663c-0.115967,-0.016235 -0.26825,-0.075073 -0.401062,-0.053955c-0.063416,0.037476 -0.099915,0.112427 -0.063416,0.181885c0.348267,0.299191 0.686646,0.673336 0.670288,1.153683c-0.042725,0.219604 -0.248291,0.33667 -0.432007,0.411621c-0.073975,-0.021118 -0.152527,0.033203 -0.227234,0.048096l0,0zm0.897278,1.34729c-0.110474,-0.352409 -0.569702,-0.678833 -0.47937,-1.154411c0.221863,-0.064209 0.336914,-0.30481 0.442871,-0.486084c0.226196,0.080315 0.438477,0.19751 0.686829,0.229607c0.104919,0.587654 -0.502441,0.903198 -0.65033,1.410889l0,0zm2.296875,-1.779419c0.559326,0.18116 1.065796,0.689087 1.17627,1.293335c-0.659729,-0.988647 -1.978882,-0.94091 -2.97699,-1.3955c-0.337219,-0.18177 -0.654663,-0.533691 -0.91333,-0.848518c0.037231,-0.021599 0.085022,-0.011467 0.116699,0c0.939026,-0.19836 1.334351,0.859505 2.153015,1.014771c-0.358521,-0.198242 -0.685852,-0.518433 -0.923889,-0.887329c-0.131592,-0.202271 -0.368835,-0.299068 -0.522339,-0.432613c0.185181,-0.064819 0.35907,-0.208008 0.559082,-0.080078c0.528381,0.192261 0.548523,0.827999 0.99762,1.126705l0.333862,0.209229l0,0zm-0.407776,-0.742676c-0.199829,-0.2677 -0.310791,-0.635738 -0.659485,-0.795895c0.078979,-0.069946 0.206787,-0.080566 0.307129,-0.128662l0.263,-0.144409c0.127258,0.021606 0.222351,0.123291 0.317688,0.219604c0.210876,0.288452 -0.09552,0.587162 -0.228333,0.849361l0,0zm1.964478,0.320313c-0.479614,-0.630489 -1.361694,-1.004391 -1.547119,-1.811398c0.258911,-0.449097 0.417175,-0.956787 0.380676,-1.512207c0.079224,0.004883 0.126282,0.091309 0.216125,0.064087c0.342957,0.310181 0.760315,0.577026 1.192627,0.742798c0.448853,0.871094 -0.237244,1.645874 -0.24231,2.51672l0,0zm3.040161,0.577278c0.253845,0.272575 0.495911,0.534416 0.797302,0.742676c-0.96637,-0.395149 -1.541809,-1.351936 -2.381348,-1.950199c-0.290405,-0.181396 -0.622559,-0.315552 -0.849487,-0.587402c0.068481,-0.219971 0.132568,-0.438843 0.141968,-0.684326c1.123901,0.41626 1.610718,1.560299 2.291565,2.479252l0,0zm-2.396301,-3.013676c0.22168,0.02063 0.501221,0.058716 0.712097,0.064087l-0.036316,0.432739l-0.633728,-0.294434l-0.042053,-0.202393l0,0zm1.472168,-1.20813c0.126587,0.149292 0.258911,0.337402 0.32782,0.513672c0.147461,0.245361 0.284851,0.501465 0.443115,0.741821c-0.596558,-0.262207 -1.325195,-0.234985 -2.000061,-0.266846c-0.612915,-0.058716 -1.16095,-0.421875 -1.509399,-0.913818c0.057861,-0.294434 0.659729,-0.219482 0.443115,-0.625488c0.870544,-0.160034 1.725769,-0.111694 2.29541,0.550659l0,0zm1.420044,-0.87085c0.100403,0.406128 -0.02063,0.876465 0.25293,1.202759c-0.648926,-0.379639 -0.870605,-1.437744 -1.799072,-1.357544c0.02594,-0.12793 0.152527,-0.273071 0.290833,-0.310059c0.437805,0.042969 0.859314,0.342041 1.023804,0.758545c-0.0271,-0.341309 -0.291077,-0.662354 -0.591736,-0.859985c-0.110718,-0.058716 -0.248108,-0.091431 -0.358826,-0.112549l0.205627,-0.320435c0.464417,0.149536 0.812439,0.539795 0.97644,0.999268l0,0zm-0.675049,-1.683105c-0.063904,0.095947 -0.158264,0.192261 -0.264648,0.299072c-0.464966,0.561646 -0.918152,1.245483 -1.647034,1.384033c-0.310547,-0.122803 -0.711853,-0.111694 -1.03894,-0.12793c0.047302,-0.085205 0.020203,-0.197754 -0.026428,-0.272583c0.174377,-0.325928 0.401306,-0.668457 0.443848,-1.047363c0.205811,-0.170898 0.490845,-0.203125 0.749023,-0.272583c0.633301,-0.123535 1.223877,0.064331 1.78418,0.037354l0,0zm0.611694,-4.473145c0.047791,1.646606 -0.611938,3.307861 -2.078857,4.10376c-0.216858,-0.004883 -0.417603,0.006104 -0.634705,0.038086c0.534119,-0.55603 1.157288,-1.020874 1.636902,-1.65686l0.464722,-0.705811c-0.021606,-0.036865 0.047546,-0.075195 -0.010803,-0.101685c-0.502197,0.983521 -1.541138,1.566772 -2.354797,2.244751l-0.141663,0.154785l-0.100647,-0.384399c0.147705,-0.577271 0.64917,-1.05835 1.150391,-1.373657c0.300903,-0.026123 0.633545,-0.143188 0.749756,-0.448486c0.585999,-0.459229 1.088196,-1.149048 1.319702,-1.870483l0,0zm-1.47699,0.394165c0.224792,-0.036865 0.373657,-0.004395 0.515625,0.037354c0.140259,0.039917 0.27832,0.09082 0.42865,0.131104c0.047302,0.124023 0.017578,0.177734 -0.010559,0.219971c-0.028564,0.040527 -0.063416,0.080322 -0.093384,0.118408c-0.171509,0.001709 -0.276184,-0.03064 -0.383301,-0.057495c-0.104004,-0.026489 -0.204651,-0.046387 -0.310791,-0.046387c-0.064575,-0.075928 -0.071106,-0.095093 -0.081665,-0.117676c-0.067017,-0.124512 -0.102783,-0.202026 -0.064575,-0.285278l0,0zm-0.05835,0.285034c0.031189,0.095581 -0.032227,0.218872 -0.137878,0.245605c-0.300903,0.058716 -0.66449,0.053101 -0.965698,0c-0.021362,-0.144409 -0.268921,-0.165527 -0.173828,-0.310181c0.115967,-0.133545 0.263672,-0.245728 0.406555,-0.346924c0.352356,-0.026611 0.690979,0.117065 0.87085,0.411499l0,0zm0.938782,-1.052734c-0.332642,-0.310181 -0.854736,-0.234985 -1.240417,-0.101685c-1.013,0.41626 -1.456848,1.527954 -2.386475,2.0896c-0.643372,0.395142 -1.329041,0.689331 -2.073547,0.833496c-0.121765,0.048096 -0.274292,0.063843 -0.406372,0.10144c0.544006,-0.566528 1.245972,-0.845093 1.862915,-1.282715c0.69165,-0.378906 1.346619,-0.908325 1.873962,-1.560547c0.248352,-0.304565 0.427979,-0.662354 0.580505,-1.015503c0.048279,-0.160034 0.254333,-0.069458 0.369385,-0.074341c0.506958,0.06897 1.071533,0.224243 1.319885,0.72644c0.015625,0.101807 0.121765,0.165894 0.100159,0.283813l0,0zm-0.622986,-1.330933c1.372498,-0.256714 1.647522,-1.784912 2.506775,-2.656128c0.116699,-0.127441 0.285339,-0.234619 0.444519,-0.309448c-0.96637,0.983276 -0.650085,2.676758 -1.974792,3.371948c-0.237061,0.005127 -0.51709,0.27771 -0.706787,0.015503c0.711548,-0.143921 1.20343,-0.748291 1.477661,-1.383545c0.11554,-0.21936 0.178955,-0.465454 0.29541,-0.684204c-0.406616,0.571167 -0.638367,1.341064 -1.346558,1.666992c-0.210632,0.123169 -0.469299,0.198364 -0.706787,0.171631l0.010559,-0.192749l0,0zm-0.047058,-0.630493c-0.122009,0.250732 -0.210388,0.513062 -0.279785,0.780273c-0.210876,-0.080322 -0.437805,-0.10144 -0.659973,-0.14978c0.036987,-0.176392 0.0896,-0.336792 0.137146,-0.501953c0.290588,0.015137 0.543945,-0.064453 0.802612,-0.12854l0,0zm-0.596313,-0.860474c-0.343445,0.577148 -0.395325,1.272339 -0.734192,1.848755c-0.755066,1.368286 -2.074219,2.228271 -3.356445,2.987549c-0.301147,0.229614 -0.586243,0.517944 -0.850403,0.807007c0.370056,-0.673584 0.718079,-1.357544 1.040344,-2.052002c0.168579,0.026489 0.375122,-0.021118 0.490417,-0.203125c0.111206,-0.134033 0.111206,-0.31604 0.053528,-0.475708c-0.005493,-0.112427 -0.158264,-0.187378 -0.064087,-0.310059c0.010559,-0.101685 0.126526,-0.074951 0.190186,-0.112549c0.169312,-0.128174 0.411865,-0.28833 0.364319,-0.550537c-0.158264,-0.293701 0.21637,-0.474976 0.343201,-0.667236c0.744507,-0.663086 1.615051,-0.98938 2.523132,-1.272095l0,0zm-3.331055,-1.153687c0.649658,0.368408 1.156372,0.988159 1.225098,1.746582c-0.258911,0.171875 -0.559082,0.38501 -0.823547,0.588135c0.042053,-0.064087 0.068481,-0.160156 0.126343,-0.192017c0.063416,-0.224243 0.026672,-0.475952 -0.163818,-0.631226c-0.053284,-0.122681 -0.306152,-0.111694 -0.253113,-0.239868c0.158752,-0.411865 0.168823,-0.919434 -0.110962,-1.271606l0,0zm1.351379,1.062866c0.280029,-0.139038 0.528381,-0.347778 0.801453,-0.497559c-0.088623,0.246094 -0.141724,0.513306 -0.15155,0.796143c-0.159485,0.027344 -0.291077,0.134155 -0.43396,0.203857l-0.215942,-0.502441l0,0zm0.71283,-0.87085c0.691895,0.021606 1.345337,-0.133545 1.910217,-0.475586c-0.432556,0.545166 -1.082153,0.838867 -1.719788,1.015381c-0.016113,-0.107056 0.009827,-0.256836 0.073242,-0.358276c-0.063416,-0.032104 -0.136902,0.069214 -0.215393,0.091064c-0.311768,0.080322 -0.591797,0.240479 -0.908752,0.304077c-0.068481,-0.015747 -0.126099,-0.111694 -0.168884,-0.175781c0.316528,-0.171265 0.62323,-0.459473 1.029358,-0.400879l0,0zm-0.876343,-1.783325c0.522583,-0.12207 1.035095,-0.329468 1.420288,-0.820679l0.025696,0c-0.215881,0.736694 -0.327332,1.542236 -0.949585,2.119995c-0.269714,0.271851 -0.575195,0.442017 -0.886414,0.608032c-0.253601,-0.192505 -0.512756,-0.372192 -0.812744,-0.452026c0.627563,-0.368652 1.334595,-0.605347 1.809631,-1.209717c0.074219,-0.010254 0.089844,-0.086182 0.116211,-0.140015c-0.147461,0.096802 -0.26416,0.203369 -0.406311,0.320557c-0.690979,0.464844 -1.536072,0.560547 -2.227722,1.026001c-0.010071,-0.203613 -0.105225,-0.396118 -0.289612,-0.502441l-0.153748,-0.041992c0.707275,-0.560669 1.499817,-0.805786 2.354309,-0.907715l0,0zm-3.267151,0.324463c0.253113,-0.534424 0.801636,-1.041992 0.516602,-1.710449l-0.126587,-0.266479c0.617249,0.266479 1.198914,0.87085 1.192871,1.591797c-0.025452,0.059448 0,0.144409 -0.025452,0.203125c-0.475281,0.266968 -0.914246,0.513062 -1.357361,0.898071c-0.015381,-0.251465 -0.332153,-0.427246 -0.200073,-0.716064l0,0zm-0.849915,-0.950684c0.13739,0.325928 0.760132,0.544434 0.432739,0.935181c-0.020142,0.042236 -0.004517,0.111694 -0.063843,0.12793c-0.179626,0.015259 -0.31604,0.122803 -0.469299,0.208008c-0.163269,-0.154663 -0.29541,-0.368164 -0.543701,-0.335938c0.158752,-0.369629 0.500977,-0.56189 0.644104,-0.935181l0,0zm-0.580444,1.152954c0.174561,0.113037 0.258423,0.309937 0.326843,0.486572c0.19574,0.571655 0.005737,1.207886 0.063416,1.832886l0.142639,-0.010254c0.011047,-0.598999 0.053101,-1.223755 0.163513,-1.795654c0.026001,-0.160889 0.143188,-0.315552 0.280273,-0.395874c0.079285,-0.042969 0.120605,-0.021118 0.199829,0.010864c0.254089,0.277954 0.159485,0.737427 0.090332,1.062988c-0.142456,0.390503 -0.332886,0.759155 -0.416687,1.170898c0.026184,0.026611 0.031433,0.090698 0.084045,0.085938c0.265137,-0.727051 0.501953,-1.501831 1.20343,-1.881592c0.068665,-0.04248 0.169067,-0.032104 0.243774,-0.015625c0.146484,0.165527 0.110718,0.400024 0.052124,0.592773c-0.263733,0.524048 -0.781494,0.914063 -1.119141,1.410767c0.011536,0.032471 -0.020691,0.079834 0.026611,0.10144c0.612427,-0.517822 1.129517,-1.37793 2.016174,-1.207886c0.159241,0.074829 0.116699,0.289429 0.0896,0.423096c-0.073486,0.192261 -0.285095,0.292969 -0.443115,0.400024c-0.458923,0.261475 -0.965698,0.45459 -1.436157,0.716064c-0.010071,0.058716 0.053284,0.080566 0.079468,0.11792c0.554321,-0.214722 1.072327,-0.529541 1.710205,-0.539307c0.159241,0.036865 0.348938,0.058228 0.42749,0.229126c0.036499,0.095459 0.047791,0.240601 -0.020935,0.320435c-0.195435,0.171631 -0.469482,0.208496 -0.722595,0.256836c-0.45874,0.016235 -0.918884,0.085327 -1.367737,0.036865c-0.031433,0.027832 -0.047058,0.064819 -0.042725,0.107544l0.090515,0.048462c0.660217,0.015625 1.298523,0.032104 1.863159,0.310181c0.073975,0.111694 0.22699,0.207886 0.153198,0.368042c-0.121948,0.310181 -0.522583,0.197632 -0.775452,0.192261c-0.395752,-0.20874 -0.855896,-0.283325 -1.240662,-0.496704c-0.069153,0.005371 -0.127014,-0.079834 -0.189697,-0.016479c0.601563,0.395874 1.324707,0.60437 1.726013,1.234741c0.041992,0.080566 0.073242,0.192749 0.02063,0.282837c-0.041992,0.113037 -0.168823,0.091919 -0.264404,0.113037l-0.252869,-0.064941c-0.490662,-0.363159 -0.992126,-0.752808 -1.446472,-1.154175c-0.063171,0.187134 0.13208,0.261841 0.205811,0.374023c0.359741,0.406738 0.829224,0.710693 0.998352,1.256348c0.036011,0.18689 -0.005798,0.383911 -0.17511,0.485962c-0.16333,0.047974 -0.289612,-0.064087 -0.415955,-0.138916c-0.460144,-0.529419 -0.755554,-1.149048 -1.056946,-1.758301c0.032654,0.769409 0.628967,1.336426 0.407776,2.115845c-0.148132,-0.374023 -0.523071,-0.58252 -0.80835,-0.886963c-0.004822,-0.368652 -0.047058,-0.775024 -0.016113,-1.164795c-0.015808,-0.042236 -0.052307,-0.06897 -0.099854,-0.064087c-0.083862,0.314819 -0.095154,0.710938 -0.136902,1.036499c-0.158997,-0.069702 -0.301208,-0.208008 -0.4328,-0.320435c0.079285,-0.277954 0.194519,-0.545898 0.2901,-0.817749c-0.237732,0.18689 -0.332825,0.395386 -0.470215,0.625c-0.121033,-0.079834 -0.194763,-0.218872 -0.300903,-0.341553l0.481018,-0.464966c-0.248047,0.021118 -0.42218,0.143188 -0.597046,0.256226l-0.189453,-0.347534c0.179138,-0.112427 0.395752,-0.187378 0.597046,-0.277466c0.020142,-0.059204 -0.042786,-0.059204 -0.063416,-0.091187c-0.370056,0.048218 -0.708252,0.176392 -1.067017,0.266968c-0.189514,-0.208496 -0.411865,-0.448364 -0.718079,-0.36853c-0.110474,0.026733 -0.216187,0.058594 -0.306213,0.128174c-0.063416,-0.13855 0.100647,-0.197754 0.163757,-0.272095c0.105225,-0.038086 0.205627,-0.085693 0.332886,-0.064575c0.131348,-0.058716 0.316772,0.010254 0.464722,-0.010376c0.094604,-0.006104 0.195007,0.010376 0.279053,-0.016479c0.190186,0.026855 0.455078,0.010376 0.634033,0.016479l0.280518,-0.026489l-0.074707,-0.11792c-0.591492,-0.058716 -1.097778,-0.075073 -1.68927,-0.138916c-0.137878,-0.016479 -0.25293,-0.112549 -0.35376,-0.192383c-0.03125,-0.124023 -0.158997,-0.28894 -0.037231,-0.422607c0.121765,-0.154663 0.327576,-0.175781 0.507446,-0.181152c0.548279,0.160034 1.108337,0.438232 1.656616,0.65686c0.037231,-0.010376 0.079712,-0.027222 0.090332,-0.064087c-0.512024,-0.288086 -1.024292,-0.491211 -1.46814,-0.796631c-0.100586,-0.079834 0.027161,-0.154541 0.037231,-0.229614c0.116516,-0.11792 0.242798,-0.219604 0.379944,-0.282959c0.396484,0.267212 0.786011,0.678833 1.104004,1.052856c0.036743,-0.026611 0.084045,0.015625 0.099915,-0.053833l-0.026184,-0.101685c-0.359497,-0.347412 -0.648926,-0.720947 -0.914001,-1.106079c0.170227,-0.14978 0.301636,-0.358276 0.470459,-0.523315c0.274963,0.470337 0.411621,0.993652 0.659668,1.474731c0.020691,0.021118 0.058167,0.010986 0.089844,0.010986c-0.237488,-0.748657 -0.618164,-1.555176 -0.353516,-2.346191c0.067749,-0.047119 0.1203,-0.132568 0.226013,-0.101196l0,0zm-1.05072,-2.436279c0.090271,-0.294434 0.185425,-0.582764 0.16449,-0.924072c0.653992,1.025513 0.854492,2.682373 0.279358,3.771973c-0.189758,0.353149 -0.517334,0.689819 -0.812988,0.946411c0.29541,-1.15979 0.617737,-2.276611 0.64386,-3.537476c-0.031921,-0.037964 0.016113,-0.112915 -0.03717,-0.139648c-0.05188,0.08667 -0.020691,0.198364 -0.03656,0.294434c-0.210815,1.186523 -0.575623,2.255005 -0.860474,3.409546c-0.35376,-1.27771 0.021118,-2.704102 0.659485,-3.821167l0,0zm-1.118896,4.552979c-0.121765,0.107056 -0.332397,0.139404 -0.49115,0.229736c-0.047302,-0.133057 -0.100342,-0.261475 -0.205811,-0.36853c0.200562,-0.090576 0.43396,-0.219604 0.622986,-0.384277c0.068665,-0.155273 0.195496,-0.031982 0.279541,0.010254l0.063171,0.117676c-0.057861,0.154419 -0.073242,0.342041 -0.268738,0.395142l0,0zm-2.279846,-5.990112c-0.090027,-0.230347 -0.126526,-0.48645 -0.163757,-0.742798c0.54895,0.849243 1.973389,1.031128 1.989197,2.281616c0.042053,0.320435 -0.005005,0.646851 -0.152954,0.887207c-0.152527,-0.143921 -0.338135,-0.331787 -0.516602,-0.475098c-0.010315,-0.807983 -0.928894,-1.235474 -1.155884,-1.950928l0,0zm-0.744019,2.207275l-0.306152,-0.027222c0.158447,-0.187378 0.406067,-0.154785 0.596252,-0.267212c0.522644,-0.064087 1.186646,-0.053833 1.620117,0.369019c0.268982,0.208008 0.380188,0.491455 0.585754,0.747559c0.322815,0.684204 0.364136,1.490601 0.744751,2.153442c-0.723328,-0.523315 -1.71521,-1.074585 -2.074463,-2.00415c-0.237061,-0.431885 -0.644409,-0.918457 -1.16626,-0.971436l0,0zm-0.116455,2.426025c0.095093,0.004883 0.169067,0.085205 0.254333,0.074097c-0.153687,-0.256104 -0.343445,-0.555908 -0.23822,-0.897339c0.062866,-0.224854 0.184875,-0.411743 0.137573,-0.667847c0.152283,0.186768 0.395325,0.207886 0.580444,0.33667c0.294922,0.144287 0.506042,0.405884 0.559387,0.688721c0.031921,0.096313 0,0.203857 -0.010559,0.283691c0.057861,-0.091309 0.158447,-0.176514 0.263672,-0.229858c0.390503,0.335938 0.83429,0.747559 1.341064,0.897583c0,0.155396 -0.201294,0.240356 -0.301636,0.358032c-0.178955,0.144409 -0.43811,0.251221 -0.648926,0.166016c0.427979,0.358032 0.601563,0.935181 0.496399,1.501465c0,0.128174 -0.042786,0.240112 -0.063416,0.358521c-0.4599,-0.337402 -1.193359,-0.417236 -1.357117,-1.053589c-0.184204,0.476196 -0.638367,0.721558 -1.102112,0.732544l-0.23822,0.080322c-0.015381,-0.444214 -0.189758,-1.04248 0.26416,-1.336182c0.069153,-0.069702 0.158508,-0.106567 0.216858,-0.165649c-0.058594,-0.021118 -0.147949,-0.015747 -0.200989,0c-0.443359,-0.027344 -0.72821,-0.352417 -1.119385,-0.502197c0.337891,-0.176636 0.618164,-0.812378 1.166687,-0.625l0,0zm-1.43042,-3.928711c0.792053,0.855835 -0.06842,2.191772 0.49646,3.105469c-0.158508,0.058716 -0.374695,-0.016113 -0.549744,0.063354c0.011292,-0.068237 -0.057861,-0.106567 -0.073242,-0.164917c-0.301147,-1.015991 0.464478,-1.972046 0.126526,-3.003906l0,0zm-0.242798,3.580444c0.222168,-0.203125 0.591553,-0.266479 0.876587,-0.143677c0.094666,0.058472 0.179626,0.143677 0.226746,0.234985c-0.385254,0.235352 -0.527649,0.678833 -0.923645,0.845093c-0.137878,-0.107544 -0.295166,-0.198486 -0.306213,-0.358521c-0.089111,-0.192871 -0.011292,-0.428101 0.126526,-0.577881l0,0zm-1.377747,-0.613892c-0.105225,-0.219604 -0.289673,-0.364014 -0.480103,-0.475708c0.665466,0.010376 1.261292,0.293701 1.694092,0.844727c-0.300232,0.229858 -0.274292,0.683716 -0.21637,1.014771c-0.274292,-0.016235 -0.664307,0.026489 -0.844177,0.320679c-0.179382,0.267212 -0.258667,0.608765 -0.116211,0.923584c0.079468,0.161377 0.195679,0.263062 0.317688,0.384888c-0.19043,0.16626 -0.291077,0.379639 -0.406799,0.598389c-0.180359,-0.245239 -0.676331,-0.255615 -0.597046,-0.677979c-0.13739,-1.079346 1.213745,-1.805664 0.648926,-2.93335l0,0zm-1.535828,2.447144c0.189941,0.726318 0.950317,1.074097 1.330017,1.677734c-0.110474,0.33667 -0.073303,0.733276 -0.01062,1.091064c-0.395264,-0.283447 -0.818176,-0.55603 -1.240173,-0.791992c-0.179626,-0.138306 -0.19043,-0.389771 -0.226929,-0.603149c-0.053345,-0.454224 0.057861,-0.935303 0.147705,-1.373657l0,0zm1.118896,3.024902c0.554504,0.502197 0.991821,1.078857 1.351868,1.710449c0.047058,0.154663 0.199768,0.287476 0.24231,0.459229c0.163269,0.389893 0.285095,0.795898 0.432495,1.191284c-0.1203,-0.031982 -0.21637,-0.079834 -0.316772,-0.139038c-1.640747,-0.689087 -2.824036,-2.324585 -3.435425,-3.938232c-0.100159,-0.277954 -0.242859,-0.539551 -0.380432,-0.806763c0.686829,0.603638 1.504333,0.843628 2.105957,1.523071l0,0zm-3.372559,-4.959595c0.522583,0.262329 0.992554,0.641479 1.367249,1.154419l0.633484,0.946533c0.047363,0.063354 -0.026123,0.121948 -0.03717,0.164917c-0.997437,-0.598389 -1.340576,-1.944824 -2.518127,-2.254517c0.49646,0.240112 0.981567,0.72168 1.266663,1.191528c0.343384,0.48645 0.612122,1.02002 1.150818,1.336304c-0.041809,0.053101 0.011292,0.245361 -0.126343,0.165527c-0.327332,-0.14978 -0.696899,-0.331665 -0.886658,-0.678711c-0.51709,-0.641235 -0.833801,-1.544434 -1.673157,-1.939331c-0.237549,-0.107544 -0.460205,-0.236206 -0.734192,-0.256836c0.496643,-0.192993 1.077087,0.015503 1.557434,0.170166l0,0z"/>
      <path id="Shape" d="m53.680592,83.011292c-0.310486,-0.156364 -0.648132,-0.278435 -0.987492,-0.384766c-0.336975,-0.105591 -0.67511,-0.198242 -0.997864,-0.293694c-0.305237,-0.108162 -0.559566,-0.195557 -0.789425,-0.303596c-0.226929,-0.105835 -0.427494,-0.228874 -0.626591,-0.409302c-0.094604,-0.090446 -0.095825,-0.208252 -0.065796,-0.343872c0.393372,-0.506104 1.204407,-0.397331 1.829041,-0.298584c0.895569,0.193245 1.77985,0.63208 1.974854,1.859993l0.541325,0l-0.005741,-2.701294l-0.559387,0l-0.463257,0.279167c-0.245667,0.042236 -0.48291,0.074707 -0.71637,0.048584c-0.239437,-0.026489 -0.469543,-0.056641 -0.699825,-0.098381c-0.873718,-0.212654 -1.866028,-0.090942 -2.586491,0.402214c-0.58313,0.414551 -0.770691,1.081184 -0.763245,1.734749c0.120056,1.231567 1.369633,1.819695 2.319946,2.138908c0.442139,0.161133 0.909729,0.259521 1.364075,0.394409c0.445744,0.132813 0.871342,0.299072 1.242371,0.593506c0.024963,0.050049 0.054508,0.109016 0.07465,0.168953c0.019466,0.059685 0.028381,0.117912 0.01849,0.172363l-0.072754,0.131218c-0.544922,0.71656 -1.631405,0.587646 -2.491882,0.432373c-0.959896,-0.295898 -1.932556,-1.185303 -2.023071,-2.309807l-0.55481,-0.028206l0,2.973885l0.576172,-0.01722c0.05164,-0.145874 0.245178,-0.261589 0.404907,-0.330322c0.065796,-0.018669 0.146244,-0.018669 0.220463,-0.010368c0.074703,0.00988 0.15295,0.027824 0.223568,0.044792c1.480103,0.439575 3.344727,0.715088 4.568058,-0.50634c0.404232,-0.463997 0.671753,-1.137337 0.458004,-1.822029c-0.252193,-0.750359 -0.784607,-1.204704 -1.411922,-1.517334l0,0z"/>
      <path id="Shape" d="m57.256336,86.342957c1.169128,0.981323 3.053406,1.034058 4.392761,0.405151c0.788692,-0.413452 1.371334,-1.214844 1.432064,-2.227295l-0.722412,0.060669c-0.01825,0.568726 -0.262936,1.075806 -0.680599,1.447388c-0.511292,0.435425 -1.363163,0.619148 -1.942142,0.273071c-0.446228,-0.271118 -0.605709,-0.745972 -0.693359,-1.238159c-0.030758,-0.353638 -0.073486,-0.737907 -0.096554,-1.132813c-0.024235,-0.392204 -0.028812,-0.790283 0.016109,-1.169182c0.089359,-0.753914 0.369385,-1.414429 1.081421,-1.79187c0.262024,-0.104126 0.569458,-0.072273 0.832401,0.035759c0.830933,0.359749 1.357601,1.181763 1.502926,2.074593l0.100647,0.232544c0,0 0.262939,-0.025764 0.467346,0.004509l-0.068726,-3.054199c-0.003357,0 -0.271851,0.027229 -0.465637,0.017952c-0.26178,0.26123 -0.633545,0.355583 -1.003662,0.291748c-0.554504,-0.24585 -1.176758,-0.35144 -1.836975,-0.322762c-1.380676,0.085449 -2.72961,1.056519 -3.155212,2.386963c-0.393127,1.258057 -0.23822,2.810791 0.839603,3.705933l0,0z"/>
      <path id="Shape" d="m122.136093,83.935364c-0.105164,-0.002197 -0.227173,-0.000481 -0.352295,0.058968c-0.037231,0.112915 -0.058838,0.231323 -0.091248,0.349236c-0.030762,0.114388 -0.062927,0.224861 -0.115051,0.327026c-0.589111,1.219604 -1.880432,1.987671 -3.261169,1.878418c-0.327515,-0.04126 -0.715393,-0.169189 -0.817017,-0.484985l0.006531,-5.504265c0,-0.164803 0.042236,-0.345589 0.157288,-0.469246c0.182739,-0.151855 0.313171,-0.200684 0.580688,-0.215698c0.272095,-0.014153 0.523804,0.008675 0.763977,-0.008545l0,-0.463135l-5.890381,0.00293c0,0 0.040344,0.311897 0.107544,0.485237c0.253174,0.005608 0.510864,-0.009277 0.735413,-0.002205c0.215149,0.005867 0.432739,0.033333 0.635681,0.12207c0.121033,0.088867 0.249756,0.22522 0.254578,0.369263l0.005005,5.046265c-0.01123,0.168457 0.005066,0.346077 -0.002869,0.516731c-0.00647,0.16552 -0.032898,0.309685 -0.116699,0.426506c-0.104675,0.114258 -0.190674,0.175179 -0.367188,0.205811c-0.13208,-0.002678 -0.511536,0.050667 -0.922974,0.012581c-0.417358,-0.040535 -0.814575,-0.187874 -0.995178,-0.608765l-2.726318,-5.59095l-1.100647,-0.009636l-2.800232,5.36377c-0.322815,0.538574 -0.943359,0.883415 -1.659729,0.957268c0.00647,0.095581 0.006958,0.330078 0.006958,0.330078l3.753418,0.007324l-0.057861,-0.40564c-0.127747,-0.007324 -0.258911,-0.015259 -0.387634,-0.027954c-0.126526,-0.012321 -0.249756,-0.030518 -0.368896,-0.059929c-0.231689,-0.058228 -0.43512,-0.160896 -0.586182,-0.354622c-0.100647,-0.178589 -0.092957,-0.357292 -0.034851,-0.535645c0.02832,-0.091301 0.07135,-0.179443 0.116211,-0.265747c0.041321,-0.07605 0.085022,-0.150269 0.126343,-0.219971l2.980164,-0.000969c0.072754,0.132317 0.347473,0.645622 0.452698,0.930908c0.023743,0.065422 0.054993,0.125969 0.077332,0.187866c0.019714,0.053337 0.024475,0.104607 0.018494,0.15966c-0.046814,0.104126 -0.212769,0.151733 -0.400818,0.170166c-0.191895,0.017464 -0.458252,0.003181 -0.698425,0.021858l0,0.400269l13.208801,-0.00074l0,-3.087517c0.000671,-0.000488 -0.124146,-0.011604 -0.233459,-0.014046l0,0zm-15.1521,0.631104l1.205566,-2.311035l1.113647,2.317024l-2.319214,-0.005989l0,0z"/>
      <path id="Shape" d="m104.13353,82.668518c-0.565369,-1.537109 -2.17157,-2.104851 -3.611511,-2.223389l-5.57843,-0.010376l0.064331,0.426033c0.391968,-0.020638 0.736816,-0.025024 1.091309,0.088257c0.146973,0.093994 0.27832,0.246208 0.284607,0.401489l0.000732,4.675652l-0.066101,0.334969c-0.143616,0.197624 -0.537231,0.260979 -0.777832,0.278435c-0.254333,0.018188 -0.548279,-0.01416 -1.028625,0.011116l0,0.115601l5.270996,0c1.103577,0 2.430908,-0.064827 3.394409,-0.786987c1.034851,-0.815315 1.339417,-2.061409 0.956116,-3.310799l0,0zm-2.655945,2.854744c-0.071289,0.338615 -0.280762,0.68615 -0.586914,0.842529c-0.434692,0.189331 -0.843689,0.244621 -1.693115,0.220085c-0.062012,-0.009644 -0.118652,-0.011108 -0.179443,-0.021362c-0.056152,-0.012077 -0.115967,-0.03051 -0.194763,-0.086914c-0.06842,-0.057495 -0.070862,-0.183716 -0.070862,-0.187134l0.013672,-5.13147c0.027893,-0.09729 0.110535,-0.155998 0.219299,-0.190308c0.110962,-0.036621 0.233459,-0.043091 0.309082,-0.046257c0.17218,-0.009521 0.418823,-0.015137 0.646057,-0.004402c0.610962,0.028442 1.208923,0.139282 1.45752,0.740601c0.16571,0.447517 0.234131,1.259041 0.23175,1.950439c-0.004822,0.668343 -0.044922,1.394043 -0.152283,1.914192l0,0z"/>
      <path id="Shape" d="m70.294357,86.685608c-0.230774,0.020508 -0.488708,-0.012817 -0.737061,0.01001l0.010803,0.375l4.972534,-0.005371l-0.05188,-0.394897c-0.421509,-0.014282 -0.66864,0.021118 -1.055298,-0.020866c-0.167847,-0.047981 -0.320374,-0.163582 -0.33551,-0.326904l-0.00116,-4.994881c0.109985,-0.275146 0.312195,-0.360832 0.563904,-0.386108c0.266296,-0.02697 0.56842,0.013313 0.877075,-0.037346l0.000427,-0.403206l-4.979675,0.018433l0.078552,0.419685c0.262207,-0.033455 0.544189,-0.014046 0.787231,0.045158c0.147949,0.066528 0.27594,0.151001 0.311462,0.35144l0.008179,2.054932l-2.906677,0.002197l-0.00885,-1.696899c-0.007202,-0.217773 -0.001221,-0.404655 0.095825,-0.546379c0.115051,-0.136726 0.28772,-0.194702 0.483154,-0.217537c0.196228,-0.022331 0.402771,-0.004272 0.62854,0.011475l0.000977,-0.431145l-4.975403,0.005852l0.05957,0.410652c0.187317,0.00415 0.388306,-0.003792 0.585754,0.003166c0.190918,0.008301 0.372681,0.02845 0.531921,0.089844c0.138794,0.077393 0.258667,0.23597 0.24762,0.396362l0.011047,4.842163c-0.011047,0.131355 -0.063904,0.25293 -0.164307,0.331062c-0.163269,0.083 -0.359497,0.094719 -0.576843,0.091545l-0.329224,-0.007813c-0.112427,-0.000732 -0.223145,0.002686 -0.328064,0.018921c-0.030762,0.000488 -0.056946,0.025024 -0.059814,0.084717l-0.001709,0.093262l0.005066,0.199707l4.984741,-0.065788l0.006958,-0.129402c0.003357,-0.047722 0.00647,-0.107666 -0.067261,-0.202148c-0.154419,-0.006592 -0.313843,0 -0.470703,0c-0.154663,0.000732 -0.302551,-0.00415 -0.437805,-0.034416c-0.107117,-0.033089 -0.189697,-0.158821 -0.212036,-0.274055l0.003357,-2.296021l2.907104,0.00293c-0.005981,0.77771 0.025269,1.570686 -0.001892,2.334839c-0.070862,0.190308 -0.239929,0.259888 -0.460632,0.277832l0,0z"/>
      <path id="Shape" d="m46.597832,81.453918c-1.433723,-1.304314 -3.857185,-1.464844 -5.581306,-0.710938c-0.993771,0.440796 -1.816284,1.49231 -1.893429,2.649414c-0.110905,1.280884 0.353573,2.57972 1.54211,3.222656c1.680359,0.846558 4.227722,0.805542 5.73621,-0.355591c1.077572,-0.915283 1.268246,-2.513428 0.839596,-3.792114c-0.152527,-0.360718 -0.349915,-0.707275 -0.643181,-1.013428l0,0zm-1.886665,2.304199c-0.005066,0.443726 0.00116,0.776978 -0.031982,1.393311c-0.054993,0.497559 -0.15826,1.005371 -0.548519,1.273804c-0.329716,0.277229 -0.83667,0.341797 -1.276432,0.260498c-0.300411,-0.10302 -0.585266,-0.247673 -0.762508,-0.540886c-0.17963,-0.385376 -0.237976,-0.825439 -0.251652,-1.296387c0.003357,-0.504646 -0.010132,-1.041267 -0.003601,-1.562386c0.006958,-0.516968 0.033569,-1.021355 0.117432,-1.462891c0.053284,-0.285271 0.26532,-0.663696 0.606628,-0.841789c0.618896,-0.285645 1.411682,-0.27845 1.876343,0.437126c0.01709,0.060913 0.038696,0.102661 0.05835,0.145393c0.018494,0.04052 0.033875,0.076653 0.045654,0.129875c0.15802,0.697632 0.181824,1.36145 0.170288,2.064331l0,0z"/>
      <path id="Shape" d="m90.848373,80.449043l0.055481,0.390869c0.579041,0.055054 1.227966,0.28125 1.400146,0.846062c0.097961,0.477417 0.122681,0.969238 0.128723,1.464355c0.007446,0.496216 -0.004822,0.991333 0.023743,1.470459l-3.737122,-4.186035c-1.022095,0.027229 -3.333862,0.009277 -3.333862,0.009277l0,0.411873l0.664307,0.038818c0.361145,0.183228 0.69043,0.424561 0.770142,0.838379l0.027161,3.167351c-0.00647,0.214355 0.000732,0.433723 -0.024231,0.642464c-0.023804,0.206055 -0.067993,0.396843 -0.166687,0.560661c-0.119873,0.197632 -0.292297,0.314331 -0.492065,0.392822c-0.101135,0.040047 -0.207764,0.069336 -0.315613,0.095833c-0.109985,0.025017 -0.22168,0.046867 -0.3302,0.06945l-0.044678,0.085938c0.012756,0.029541 0.015869,0.064583 0.015869,0.108643c0,0.047119 -0.003113,0.097176 0.005005,0.201782l3.818054,-0.017456l-0.056396,-0.380859c-0.409241,-0.034302 -0.799255,-0.0979 -1.118164,-0.325073c-0.357849,-0.208488 -0.506042,-0.596062 -0.546143,-1.005859c-0.058105,-0.951904 -0.079285,-1.896355 -0.050903,-2.955681c0.70459,0.74987 1.28894,1.477776 1.992554,2.235344l2.248657,2.582283l1.351135,0.015129l-0.03363,-4.754028c0.007446,-0.297852 0.029053,-0.591553 0.094116,-0.870483c0.069885,-0.272339 0.24884,-0.431999 0.475525,-0.535645c0.116455,-0.053955 0.243286,-0.092522 0.370789,-0.123528c0.129944,-0.03186 0.261353,-0.058472 0.432556,-0.150024c-0.006714,-0.089119 -0.006714,-0.321663 -0.006714,-0.321663l-3.617554,-0.001457l0,0z"/>
      <path id="Shape" d="m76.194565,86.667664c-0.295593,0.006592 -1.135681,-0.009399 -1.135681,-0.009399l0,0.353638l8.885864,0l0,-2.473869l-0.493958,0.04541c-0.086731,0.291985 -0.205139,0.57238 -0.385986,0.818481c-0.828796,1.152702 -2.2099,1.340576 -3.514709,1.149536l-0.15033,-0.11145c-0.031006,-0.030525 -0.056213,-0.071533 -0.070129,-0.183723l-0.005798,-0.298088l0.008911,-2.001953c0.43396,-0.021118 0.895569,0.001701 1.24884,0.247307c0.392639,0.281372 0.576111,0.844246 0.605408,1.089844l0.356201,0l0,-3.238647l-0.446472,0.061646c-0.005981,0.266487 -0.122742,0.497803 -0.271606,0.704353c-0.375366,0.505608 -0.963074,0.714104 -1.683533,0.695427l0,-2.271973c0,-0.081543 0.153442,-0.136101 0.213989,-0.21093c0.601807,-0.216438 1.371277,-0.124031 2.008179,-0.006721c0.917419,0.274788 1.670105,0.950928 2.005615,1.942024c0.141663,-0.006599 0.491577,-0.03907 0.491577,-0.03907c0,0 0.039368,-1.565796 0.009644,-2.548088l-4.482605,0l-3.937622,0l0.059082,0.456543c0.21228,0.00769 0.426758,0.018433 0.637085,0.023308c0.205139,0.006966 0.396057,0.027351 0.577637,0.080078c0.057617,0.033699 0.133972,0.087402 0.190674,0.142212c0.057617,0.059448 0.091003,0.120605 0.092224,0.179077l-0.095337,5.047729c-0.093933,0.276978 -0.414795,0.348877 -0.717163,0.3573l0,0z"/>
      <path id="Shape" d="m36.454212,83.183899c-0.168095,-0.063843 -0.741093,-0.156609 -1.261539,-0.232292l-0.609249,-0.086914c0.501888,-0.089607 0.96875,-0.173103 1.445004,-0.294197c0.47699,-0.121338 0.915039,-0.348259 1.215454,-0.884277c0.209171,-0.317253 0.258915,-0.830315 0.083805,-1.187859c-0.673157,-1.132332 -1.959904,-1.324341 -3.116093,-1.455696l-6.978024,-0.013794l0.062195,0.494263c0.440186,-0.006104 0.885925,-0.007324 1.298523,0.061897c0.20105,0.043205 0.369629,0.236809 0.411438,0.441765l0.008118,5.660278c0,0.098877 0.003601,0.226929 -0.010559,0.356079c-0.013184,0.122566 -0.042725,0.238167 -0.101807,0.325081c-0.210876,0.168213 -0.551147,0.211418 -0.834351,0.217163c-0.290588,0.005371 -0.559753,-0.030273 -1.0401,0l0,0.180908l5.52319,0c0.766602,0 1.51947,0.143433 2.240662,0.071526c0.724125,-0.072021 1.419865,-0.153809 2.066349,-0.472282c0.572323,-0.296875 1.17749,-0.825569 1.098511,-1.605225c-0.078312,-0.790771 -0.836246,-1.355835 -1.501526,-1.576424l0,0zm-4.553652,-3.298462c0.030766,-0.20166 0.160707,-0.274536 0.334532,-0.305786c0.091068,-0.016228 0.189274,-0.019409 0.282471,-0.020622c0.098938,-0.000496 0.19043,0 0.268497,-0.007088c0.483643,-0.015015 0.949337,0.035156 1.25647,0.447632c0.360535,0.548592 0.324703,1.415283 0.0896,2.032837c-0.201237,0.424438 -0.559818,0.559448 -0.982483,0.59436c-0.409729,0.033813 -0.862427,-0.027344 -1.253847,-0.010132l0.004761,-2.731201l0,0zm2.538515,6.120117c-0.235596,0.337402 -0.57373,0.479614 -0.956791,0.532356c-0.192623,0.0271 -0.394836,0.030754 -0.597042,0.025146c-0.202209,-0.006477 -0.404179,-0.02137 -0.596802,-0.03199l-0.112427,-0.034424c-0.036499,-0.012695 -0.074646,-0.026733 -0.108768,-0.045166c-0.066036,-0.033325 -0.1369,-0.071892 -0.16284,-0.141602l-0.074219,-0.25354l0,-2.911491c0.240171,0.016968 0.483217,0.000732 0.723879,-0.008797c0.209896,0.002197 0.421932,0 0.610962,0.00489c0.187801,0.006096 0.368408,0.020622 0.530758,0.056267c0.316288,0.071411 0.576847,0.227173 0.762756,0.578003c0.323914,0.682747 0.296818,1.556526 -0.019466,2.230347l0,0z"/>
      <path id="Shape" d="m59.630295,97.452209c-1.448853,-0.317619 -1.862854,-0.673462 -1.862854,-1.308472l0,-0.019165c0,-0.606079 0.586914,-1.087158 1.443302,-1.087158c0.677242,0 1.309628,0.221321 1.921082,0.731331l0.44305,-0.586678c-0.667847,-0.54834 -1.499756,-0.827271 -2.459225,-0.827271c-1.25098,0 -2.308899,0.778931 -2.308899,1.837044l0,0.019157c0,1.106323 0.776001,1.606567 2.29089,1.943237c1.382874,0.298096 1.791874,0.654182 1.791874,1.279427l0,0.019402c0,0.663574 -0.513,1.144653 -1.397282,1.144653c-0.91235,0 -1.535824,-0.317261 -2.222656,-0.952637l-0.443356,0.557983c0.790401,0.721443 1.688782,1.077515 2.733028,1.077515c1.307678,0 2.290833,-0.750366 2.290833,-1.904907l0,-0.019165c0,-1.029167 -0.752625,-1.577515 -2.219788,-1.904297l0,0z"/>
      <rect height="6.630447" width="0.720478" y="94.624644" x="64.972191" id="Rectangle-path"/>
      <path id="Shape" d="m70.495834,95.662903l4.278687,5.592163l0.284363,0l0,-6.630371l-0.72052,0l0,5.222786l-3.844177,-5.222786l-0.718811,0l0,6.630371l0.720459,0l0,-5.592163z"/>
      <path id="Shape" d="m84.267075,99.62616c-0.630188,0.615723 -1.20752,0.971558 -2.110779,0.971558c-1.448853,0 -2.534363,-1.222046 -2.534363,-2.780151l0,-0.018913c0,-1.549316 1.075867,-2.761238 2.534363,-2.761238c0.89386,0 1.507019,0.384888 2.062012,0.923584l0.504333,-0.557617c-0.658508,-0.634888 -1.454895,-1.068237 -2.649902,-1.068237c-1.937622,0 -3.411255,1.578011 -3.411255,3.482666l0,0.019173c0,1.933586 1.481323,3.463493 3.38147,3.463493c1.195251,0 1.986816,-0.471428 2.67395,-1.183342l-0.449829,-0.490974l0,0z"/>
      <path id="Shape" d="m88.507797,98.062683l3.602356,0l0,-0.736694l-3.602356,0l0,-2.210205l4.082703,0l0,-0.491089l-4.803162,0l0,6.630371l5.043335,0l0,-0.9823l-4.322876,0l0,-2.210083z"/>
      <path id="Shape" d="m62.074448,107.278259l0.076847,0.6427l1.139767,-0.368156l0,5.980827l0.72052,0l0,-6.875977l-0.328308,0l-1.608826,0.620605z"/>
      <path id="Shape" d="m69.472763,109.332458c-0.959656,0 -1.488525,0.490364 -1.846069,1.029182c-0.009644,-1.741341 0.747131,-2.97242 1.941895,-2.97242c0.601868,0 1.069702,0.240486 1.558899,0.663818l0.435852,-0.586914c-0.573975,-0.481079 -1.26947,-0.769653 -2.059814,-0.769653c-1.721741,0 -2.85022,1.606323 -2.85022,3.65564l0,0.019051c0,1.375725 0.415222,2.068474 0.942139,2.607048c0.414063,0.423096 1.011047,0.682983 1.735413,0.682983c1.335754,0 2.365784,-0.942863 2.365784,-2.241333l0,-0.019157c0,-1.260376 -1.000977,-2.068245 -2.223877,-2.068245l0,0zm1.503418,2.116333c0,0.856079 -0.674622,1.539185 -1.643677,1.539185c-0.968811,0 -1.718567,-0.654175 -1.718567,-1.510254l0,-0.019165c0,-0.750366 0.711853,-1.471672 1.699829,-1.471672c0.950317,0 1.662415,0.615723 1.662415,1.442986l0,0.018921l0,0z"/>
      <path id="Shape" d="m78.259933,110.063538c0.61145,-0.288567 1.121826,-0.769897 1.121826,-1.548828l0,-0.019646c0,-1.038582 -1.077393,-1.779427 -2.281494,-1.779427c-1.204407,0 -2.281555,0.740845 -2.281555,1.779427l0,0.019646c0,0.778931 0.510315,1.260262 1.121765,1.548828c-0.7901,0.288574 -1.361938,0.855835 -1.361938,1.654427l0,0.019157c0,1.125496 1.120117,1.904915 2.521729,1.904915c1.401794,0 2.521667,-0.769653 2.521667,-1.914558l0,-0.019157c0,-0.79834 -0.58075,-1.34668 -1.362,-1.644783l0,0zm-2.720764,-1.500732l0,-0.019157c0,-0.67334 0.705139,-1.164185 1.561096,-1.164185c0.855896,0 1.560974,0.500481 1.560974,1.164185l0,0.019157c0,0.731079 -0.72406,1.231323 -1.560974,1.231323c-0.836975,0 -1.561096,-0.500488 -1.561096,-1.231323l0,0zm3.362244,3.155159c0,0.682854 -0.719299,1.260246 -1.801147,1.260246c-1.08197,0 -1.801208,-0.577393 -1.801208,-1.260246l0,-0.019173c0,-0.750732 0.841736,-1.279419 1.801208,-1.279419c0.959412,0 1.801147,0.528687 1.801147,1.279419l0,0.019173l0,0z"/>
      <path id="Shape" d="m84.900375,109.37104c-0.54541,0 -0.857605,0.0653 -1.243286,0.237907l0.195923,-2.2146l2.973694,0l0,-0.736694l-3.622864,0l-0.187988,3.357544l0.498535,0.375122c0.385742,-0.211426 0.733704,-0.365593 1.288696,-0.365593c0.959473,0 1.543274,0.596794 1.543274,1.433594l0,0.019157c0,0.856079 -0.555237,1.490845 -1.495972,1.490845c-0.667847,0 -1.251465,-0.355713 -1.825195,-0.92334l-0.465637,0.548225c0.592468,0.606194 1.312927,1.067986 2.253845,1.067986c1.373474,0 2.253418,-0.89489 2.253418,-2.212646l0,-0.019165c0,-1.279419 -0.886902,-2.058342 -2.166443,-2.058342l0,0z"/>
     </g>
    </g>
   </g>
  </g>
 </g>
</svg>