<?xml version="1.0" encoding="UTF-8" standalone="no"?>
<svg width="44px" height="45px" viewBox="0 0 44 45" version="1.1" xmlns="http://www.w3.org/2000/svg" xmlns:xlink="http://www.w3.org/1999/xlink" xmlns:sketch="http://www.bohemiancoding.com/sketch/ns">
    <!-- Generator: Sketch 3.3.2 (12043) - http://www.bohemiancoding.com/sketch -->
    <title>Strategy Copy</title>
    <desc>Created with Sketch.</desc>
    <defs></defs>
    <g id="Page-1" stroke="none" stroke-width="1" fill="none" fill-rule="evenodd" sketch:type="MSPage">
        <g id="Desktop-HD" sketch:type="MSArtboardGroup" transform="translate(-945.000000, -1113.000000)" stroke="#4A4A4A">
            <g id="BRAND-STRATEGY-Copy-+-Strategy-Copy-Copy" sketch:type="MSLayerGroup" transform="translate(906.000000, 1112.546609)">
                <g id="Strategy-Copy" transform="translate(39.000000, 0.828125)" sketch:type="MSShapeGroup">
                    <path d="M40.2332571,0.298222222 L3.34294286,0.298222222 C1.84408571,0.298222222 0.630257143,1.507 0.630257143,2.99688889 L0.630257143,40.4494444 C0.630257143,41.9405556 1.84531429,43.1505556 3.34294286,43.1505556 L40.2332571,43.1505556 C41.7333429,43.1505556 42.9459429,41.9405556 42.9459429,40.4494444 L42.9459429,2.99688889 C42.9459429,1.507 41.7333429,0.298222222 40.2332571,0.298222222 L40.2332571,0.298222222 Z" id="Shape"></path>
                    <path d="M31.3494571,16.4743333 L26.1612,21.6357778 L31.3433143,26.8033333 L33.6493429,24.5092222 L35.1936571,30.5115556 L36.7342857,36.5126667 L30.7007714,34.98 L24.6672571,33.4436667 L26.9634571,31.1605556 L21.7752,25.9991111 L16.5869429,31.1605556 L18.8831429,33.4436667 L12.8484,34.98 L6.81488571,36.5126667 L8.35797143,30.5115556 L9.90105714,24.5092222 L12.2070857,26.8033333 L17.4014857,21.6357778 L12.2070857,16.4694444 L9.90105714,18.7635556 L8.35797143,12.76 L6.81488571,6.75888889 L12.8484,8.29277778 L18.8831429,9.82788889 L16.5869429,12.111 L21.7813429,17.2785556 L26.5752286,12.5094444 L26.9634571,12.111 L24.6672571,9.82788889 L30.7007714,8.29277778 L36.7342857,6.75888889 L35.1936571,12.76 L33.6493429,18.7635556 L31.3433143,16.4694444" id="Shape"></path>
                </g>
            </g>
        </g>
    </g>
</svg>