<?xml version="1.0" encoding="UTF-8" standalone="no"?>
<svg width="59px" height="47px" viewBox="0 0 59 47" version="1.1" xmlns="http://www.w3.org/2000/svg" xmlns:xlink="http://www.w3.org/1999/xlink" xmlns:sketch="http://www.bohemiancoding.com/sketch/ns">
    <!-- Generator: Sketch 3.3.2 (12043) - http://www.bohemiancoding.com/sketch -->
    <title>Digital Copy</title>
    <desc>Created with Sketch.</desc>
    <defs></defs>
    <g id="Page-1" stroke="none" stroke-width="1" fill="none" fill-rule="evenodd" sketch:type="MSPage">
        <g id="Desktop-HD" sketch:type="MSArtboardGroup" transform="translate(-439.000000, -979.000000)" stroke="#4A4A4A">
            <g id="DIGITAL-Copy-+-Digital-Copy-Copy" sketch:type="MSLayerGroup" transform="translate(408.000000, 978.546609)">
                <g id="Digital-Copy" transform="translate(32.000000, 0.828125)" sketch:type="MSShapeGroup">
                    <g id="Group">
                        <path d="M57.09375,44.6381579 C57.09375,44.9710526 56.821875,45.2434211 56.4895833,45.2434211 L0.90625,45.2434211 C0.573958333,45.2434211 0.302083333,44.9710526 0.302083333,44.6381579 L0.302083333,1.05921053 C0.302083333,0.726315789 0.573958333,0.453947368 0.90625,0.453947368 L56.4895833,0.453947368 C56.821875,0.453947368 57.09375,0.726315789 57.09375,1.05921053 L57.09375,44.6381579 L57.09375,44.6381579 Z" id="Shape"></path>
                        <path d="M57.09375,44.6381579 C57.09375,44.9710526 56.821875,45.2434211 56.4895833,45.2434211 L55.28125,45.2434211 C54.9489583,45.2434211 54.6770833,44.9710526 54.6770833,44.6381579 L54.6770833,1.05921053 C54.6770833,0.726315789 54.9489583,0.453947368 55.28125,0.453947368 L56.4895833,0.453947368 C56.821875,0.453947368 57.09375,0.726315789 57.09375,1.05921053 L57.09375,44.6381579 L57.09375,44.6381579 Z" id="Shape"></path>
                        <path d="M57.09375,4.69078947 C57.09375,5.02368421 56.821875,5.29605263 56.4895833,5.29605263 L0.90625,5.29605263 C0.573958333,5.29605263 0.302083333,5.02368421 0.302083333,4.69078947 L0.302083333,1.05921053 C0.302083333,0.726315789 0.573958333,0.453947368 0.90625,0.453947368 L56.4895833,0.453947368 C56.821875,0.453947368 57.09375,0.726315789 57.09375,1.05921053 L57.09375,4.69078947 L57.09375,4.69078947 Z" id="Shape"></path>
                        <path d="M51.0520833,21.6381579 C51.0520833,21.9710526 50.7802083,22.2434211 50.4479167,22.2434211 L4.53125,22.2434211 C4.19895833,22.2434211 3.92708333,21.9710526 3.92708333,21.6381579 L3.92708333,9.53289474 C3.92708333,9.2 4.19895833,8.92763158 4.53125,8.92763158 L50.4479167,8.92763158 C50.7802083,8.92763158 51.0520833,9.2 51.0520833,9.53289474 L51.0520833,21.6381579 L51.0520833,21.6381579 Z" id="Shape"></path>
                        <path d="M13.59375,32.5328947 C13.59375,32.8657895 13.321875,33.1381579 12.9895833,33.1381579 L4.53125,33.1381579 C4.19895833,33.1381579 3.92708333,32.8657895 3.92708333,32.5328947 L3.92708333,25.2697368 C3.92708333,24.9368421 4.19895833,24.6644737 4.53125,24.6644737 L12.9895833,24.6644737 C13.321875,24.6644737 13.59375,24.9368421 13.59375,25.2697368 L13.59375,32.5328947 L13.59375,32.5328947 Z" id="Shape"></path>
                        <path d="M37.7604167,32.5328947 C37.7604167,32.8657895 37.4885417,33.1381579 37.15625,33.1381579 L16.6145833,33.1381579 C16.2822917,33.1381579 16.0104167,32.8657895 16.0104167,32.5328947 L16.0104167,25.2697368 C16.0104167,24.9368421 16.2822917,24.6644737 16.6145833,24.6644737 L37.15625,24.6644737 C37.4885417,24.6644737 37.7604167,24.9368421 37.7604167,25.2697368 L37.7604167,32.5328947 L37.7604167,32.5328947 Z" id="Shape"></path>
                        <path d="M51.0520833,32.5328947 C51.0520833,32.8657895 50.7802083,33.1381579 50.4479167,33.1381579 L40.78125,33.1381579 C40.4489583,33.1381579 40.1770833,32.8657895 40.1770833,32.5328947 L40.1770833,25.2697368 C40.1770833,24.9368421 40.4489583,24.6644737 40.78125,24.6644737 L50.4479167,24.6644737 C50.7802083,24.6644737 51.0520833,24.9368421 51.0520833,25.2697368 L51.0520833,32.5328947 L51.0520833,32.5328947 Z" id="Shape"></path>
                        <ellipse id="Oval" stroke-width="0.75" cx="3.02083333" cy="2.875" rx="0.92075" ry="0.922421053"></ellipse>
                        <ellipse id="Oval" stroke-width="0.75" cx="6.64583333" cy="2.875" rx="0.92075" ry="0.922421053"></ellipse>
                        <ellipse id="Oval" stroke-width="0.75" cx="10.2708333" cy="2.875" rx="0.92075" ry="0.922421053"></ellipse>
                        <path d="M4.53125,36.7697368 L37.15625,36.7697368" id="Shape"></path>
                        <path d="M40.78125,36.7697368 L50.4479167,36.7697368" id="Shape"></path>
                        <path d="M40.78125,39.1907895 L50.4479167,39.1907895" id="Shape"></path>
                        <path d="M4.53125,39.1907895 L37.15625,39.1907895" id="Shape"></path>
                        <path d="M4.53125,41.6118421 L37.15625,41.6118421" id="Shape"></path>
                        <path d="M55.8854167,13.1644737 L55.8854167,18.0065789" id="Shape"></path>
                    </g>
                </g>
            </g>
        </g>
    </g>
</svg>