<svg width="150" height="150" xmlns="http://www.w3.org/2000/svg">
 <!-- Generator: Sketch 3.3.2 (12043) - http://www.bohemiancoding.com/sketch -->
 <title>Ignite Copy</title>
 <desc>Created with Sketch.</desc>
 <g>
  <title>Layer 1</title>
  <g id="Desktop-HD" fill="#4A4A4A">
   <g id="Group">
    <path d="m53.884979,78.459389c-0.128239,0.084839 -0.32098,0.061638 -0.427368,-0.048828l-2.017212,-2.100464c-0.106819,-0.111084 -0.318909,-0.201904 -0.47089,-0.201904l-5.418938,0c-0.152832,0 -0.364502,0.09082 -0.47131,0.201904l-2.930241,3.049805c-0.106571,0.112061 -0.193611,0.329712 -0.193611,0.48584l0,12.342041c0,0.155754 0.08704,0.375114 0.193611,0.486694l2.930241,3.049431c0.10656,0.110603 0.318478,0.2024 0.47131,0.2024l5.418938,0c0.151741,0 0.364071,-0.091919 0.47089,-0.2024l2.017212,-2.099594c0.106388,-0.111092 0.194401,-0.074715 0.194401,0.081413l0,6.382446c0,0.155518 -0.124882,0.284058 -0.277283,0.284058l-10.93549,0c-0.151981,0 -0.276669,0.12793 -0.276669,0.283691l0,0.555061c0,0.155876 0.086788,0.374626 0.194389,0.486198l2.930061,3.049805c0.106377,0.109863 0.318108,0.202393 0.470699,0.202393l9.110661,0c0.152588,0 0.364307,-0.092766 0.47113,-0.202393l2.930656,-3.049805c0.105961,-0.111572 0.193974,-0.330322 0.193974,-0.486198l0,-24.818611c0,-0.156746 -0.125061,-0.284065 -0.277462,-0.284065l-0.441101,0c-0.152229,0 -0.382019,0.068245 -0.510437,0.152962l-3.350163,2.19812l0,0zm-6.841801,12.759399c-0.152157,0 -0.276249,-0.127319 -0.276249,-0.282959l0,-9.751945c0,-0.155647 0.124092,-0.282967 0.276249,-0.282967l6.331551,0c0.152401,0 0.277283,0.127319 0.277283,0.282967l0,9.751945c0,0.15564 -0.124882,0.282959 -0.277283,0.282959l-6.331551,0l0,0z" id="Shape"/>
    <path d="m78.705231,79.526527l-3.124023,-3.217285c-0.106995,-0.110725 -0.318535,-0.200439 -0.472595,-0.200439l-5.003426,0c-0.152153,0 -0.364738,0.089966 -0.472343,0.200439l-2.015503,2.07666c-0.107239,0.110229 -0.299377,0.130249 -0.42804,0.046021l-3.267879,-2.169434c-0.127811,-0.084839 -0.357002,-0.153931 -0.509399,-0.153931l-0.52478,0c-0.151371,0 -0.276493,0.126953 -0.276493,0.283691l0,21.178101c0,0.156982 0.125122,0.283943 0.276493,0.283943l4.257931,0c0.151794,0 0.276855,-0.126961 0.276855,-0.283943l0,-16.435791c0,-0.156502 0.124939,-0.284058 0.277534,-0.284058l5.916069,0c0.153015,0 0.27771,0.127556 0.27771,0.284058l0,16.435791c0,0.156982 0.124268,0.283943 0.276855,0.283943l4.257751,0c0.151375,0 0.2771,-0.126961 0.2771,-0.283943l0,-18.043823l0.000183,0z" id="Shape"/>
    <path d="m87.386871,97.854408c0.151802,0 0.276062,-0.127319 0.276062,-0.282715l0,-21.179321c0,-0.156006 -0.12426,-0.283569 -0.276062,-0.283569l-4.257751,0c-0.152397,0 -0.276672,0.127563 -0.276672,0.283569l0,21.179321c0,0.155396 0.124275,0.282715 0.276672,0.282715l4.257751,0l0,0zm0,-23.925415c0.151802,0 0.276062,-0.127686 0.276062,-0.284302l0,-4.559448c0,-0.155396 -0.12426,-0.282715 -0.276062,-0.282715l-4.257751,0c-0.152397,0 -0.276672,0.127563 -0.276672,0.282715l0,4.559448c0,0.156616 0.124275,0.284302 0.276672,0.284302l4.257751,0l0,0z" id="Shape"/>
    <path d="m101.931,80.851196l0,-4.458794c0,-0.156006 -0.124001,-0.2836 -0.276001,-0.2836l-4.009598,0c-0.152298,0 -0.276802,-0.128204 -0.276802,-0.284706l0,-6.738396c0,-0.155899 -0.124298,-0.283798 -0.276901,-0.283798l-0.482399,0c-0.1521,0 -0.388802,0.056297 -0.525398,0.127098l-3.2771,1.6688c-0.137505,0.070198 -0.249298,0.254097 -0.249298,0.410995l0,4.8153c0,0.156502 -0.071404,0.388603 -0.159302,0.516502l-2.169998,3.167099c-0.087601,0.127106 -0.159004,0.359406 -0.159004,0.5159l0,0.543304c0,0.155899 0.124702,0.2845 0.276604,0.2845l1.935394,0c0.152206,0 0.2761,0.127998 0.2761,0.282997l0,13.020103c0,0.155998 0.088707,0.374001 0.195503,0.484795l2.927498,3.014702c0.107605,0.111099 0.319702,0.202103 0.472603,0.202103l5.419098,0c0.152,0 0.276001,-0.128304 0.276001,-0.284698l0,-4.174004c0,-0.156197 -0.124001,-0.284302 -0.276001,-0.284302l-3.926598,0c-0.152298,0 -0.276802,-0.1269 -0.276802,-0.283295l0,-11.695602c0,-0.155304 0.124504,-0.283005 0.276802,-0.283005l4.285599,0l0,0l0,0z" id="Shape"/>
    <path d="m120.940033,94.63871c0.108215,-0.110718 0.195435,-0.328857 0.195435,-0.484993l0,-0.543091c0,-0.156975 -0.124451,-0.28405 -0.276855,-0.28405l-11.142883,0c-0.152412,0 -0.27771,-0.127686 -0.27771,-0.283569l0,-3.32093c0,-0.156113 0.125298,-0.283806 0.27771,-0.283806l7.824829,0c0.151733,0 0.364929,-0.090454 0.472115,-0.200073l2.927361,-3.015984c0.108215,-0.111092 0.195435,-0.329475 0.195435,-0.485725l0,-5.926636c0,-0.156006 -0.087395,-0.374146 -0.195435,-0.484863l-2.927361,-3.015991c-0.107185,-0.110466 -0.320129,-0.200676 -0.472115,-0.200676l-9.317451,0c-0.153008,0 -0.365959,0.090446 -0.472527,0.200676l-2.927727,3.015991c-0.108101,0.11084 -0.19532,0.328857 -0.19532,0.484863l0,14.34388c0,0.15612 0.087463,0.374504 0.19532,0.484978l2.927727,3.015022c0.106567,0.110466 0.319344,0.202019 0.472527,0.202019l9.317451,0c0.151733,0 0.364929,-0.091675 0.472115,-0.202019l2.927361,-3.015022l0,0zm-11.224304,-9.729858c-0.152412,0 -0.27771,-0.126709 -0.27771,-0.282959l0,-3.491455c0,-0.155754 0.125298,-0.283684 0.27771,-0.283684l6.33075,0c0.152161,0 0.2771,0.12793 0.2771,0.283684l0,3.491455c0,0.15625 -0.124939,0.282959 -0.2771,0.282959l-6.33075,0l0,0z" id="Shape"/>
    <path d="m37.530731,76.108192l-4.257141,0c-0.152401,0 -0.27692,0.128174 -0.27692,0.284058l0,21.179688c0,0.155396 0.124519,0.282715 0.27692,0.282715l4.25732,0c0.151981,0 0.276428,-0.127319 0.276428,-0.282715l0,-21.179688c0,-0.155884 -0.124447,-0.284058 -0.276608,-0.284058l0,0z" id="Shape"/>
    <path id="Shape" d="m29.8085,67.597939c0.05542,0.228394 0.143681,0.448242 0.25378,0.656372c0.012089,0.022583 0.027899,0.043213 0.04059,0.065666l0.04645,-0.299187c-0.129091,-0.127068 -0.23901,-0.271477 -0.34082,-0.422852l0,0z"/>
    <path d="m30.10269,68.319977c-0.012699,-0.022209 -0.028561,-0.042839 -0.04059,-0.065666c-0.11017,-0.208374 -0.19842,-0.427979 -0.25378,-0.656372c-0.02039,-0.030518 -0.039549,-0.061401 -0.058899,-0.092155l-0.18927,1.598869c0.130369,0.057007 0.263371,0.106941 0.398251,0.14698l0.144289,-0.931656l0,0z" id="Shape"/>
    <g id="Shape">
     <path d="m39.020943,63.883907c-0.103638,-0.965328 -0.42799,-1.92712 -0.961548,-2.741089c-0.058662,-0.09082 -0.421093,-0.78064 -0.606201,-0.640739c-0.054512,0.0415 -0.001232,0.19104 0.007931,0.243649c0.05267,0.311401 0.037659,0.604252 -0.020382,0.92041c-0.02393,0.129032 -0.02747,0.26086 -0.068729,0.38879c-0.01038,0.031742 -0.043701,0.151981 -0.092411,0.158451c-0.069088,0.00806 -0.05994,-0.10791 -0.072628,-0.146969c-0.029362,-0.093391 -0.076229,-0.18079 -0.124092,-0.265633c-0.347038,-0.617668 -0.88036,-1.094849 -1.339588,-1.63464c-0.818729,-0.96558 -1.397472,-2.119999 -1.440132,-3.393311c-0.017269,-0.49366 0.089912,-0.984867 0.217712,-1.471439c0.028137,-0.109859 0.357059,-1.064701 0.235229,-1.11108c-0.33886,-0.126591 -1.312073,1.042603 -1.484013,1.23193c-0.36993,0.40881 -0.698238,0.8479 -0.97345,1.310909c-0.4757,0.798103 -0.78857,1.66333 -0.93615,2.540413c-0.11866,0.70715 -0.131958,1.42004 -0.052071,2.119259c0.050423,0.445438 0.137032,0.88855 0.271061,1.314819c0.014339,0.045902 0.095581,0.175541 0.06934,0.223019c-0.02668,0.04895 -0.118469,0.027592 -0.170719,0.018192c-0.1297,-0.023922 -0.236881,-0.091919 -0.324341,-0.1759c-0.177368,-0.171513 -0.275389,-0.40332 -0.364498,-0.623173c-0.09741,-0.237549 -0.17005,-0.485477 -0.22357,-0.738277c-0.049561,-0.235352 -0.041201,-0.491089 -0.09803,-0.72205c-0.060791,-0.243652 -0.251699,0.194698 -0.279779,0.273438c-0.0625,0.174683 -0.097471,0.354 -0.121401,0.533943c-0.05682,0.42688 -0.04767,0.85791 -0.01874,1.280998c0.048279,0.702881 0.1576,1.399052 0.304569,2.083614c0.057251,0.267815 -0.43115,-0.077393 -0.511719,-0.143921c-0.196291,-0.164429 -0.349731,-0.368042 -0.47315,-0.583618c-0.10327,-0.180904 -0.186951,-0.371086 -0.25561,-0.566887c-0.0296,-0.086308 -0.057251,-0.176758 -0.077702,-0.266357c-0.025999,-0.115482 -0.08618,-0.008911 -0.10071,0.050407c-0.04352,0.183113 -0.042479,0.375492 -0.04706,0.55957c-0.01104,0.417236 -0.014769,0.83886 0.049501,1.246574c0.084969,0.534782 0.208809,1.101669 0.417238,1.617416c0.084471,0.208366 0.1861,0.404533 0.301821,0.590561c0.01935,0.03064 0.038509,0.061531 0.058901,0.092049c0.101809,0.151474 0.211969,0.295769 0.340569,0.422714c0.099741,0.09803 0.2082,0.18811 0.326241,0.268188c0.15259,0.103516 0.31744,0.19519 0.48877,0.276855c0.05682,0.027214 0.114321,0.052238 0.172791,0.076286c0.028748,0.012215 0.058098,0.023323 0.087219,0.03479c0.10302,0.039925 0.20776,0.074463 0.314571,0.104248c0.041019,0.011353 0.08136,0.025887 0.12262,0.035896c0.213989,0.050529 0.446899,0.089714 0.672977,0.088493c0.090393,-0.000732 0.343502,-0.0271 0.389282,-0.105225c0.01733,-0.029785 0.00354,-0.066895 -0.059509,-0.113152c-0.17572,-0.126472 -0.342651,-0.262329 -0.48254,-0.421875c-0.08057,-0.091187 -0.147591,-0.19165 -0.205883,-0.297241c-0.005859,-0.004265 -0.012257,-0.007683 -0.018307,-0.012085c-0.022892,-0.017334 -0.048092,-0.030273 -0.070621,-0.04821c-0.033501,-0.026245 -0.062618,-0.05481 -0.094051,-0.082275c-0.02771,-0.024414 -0.057068,-0.048096 -0.083069,-0.073242c-0.300171,-0.290649 -0.49255,-0.636223 -0.602659,-1.011215c-0.0462,-0.157349 -0.07745,-0.320068 -0.09638,-0.485466c-0.00811,-0.069832 -0.01458,-0.139648 -0.01812,-0.210449c-0.02832,-0.53698 0.063471,-1.097404 0.21484,-1.616928c0.027279,-0.09375 0.05975,-0.489128 0.19733,-0.457386c0.005859,0.000729 0.011047,0.00317 0.016838,0.004879c0.172432,0.077511 0.127632,0.536377 0.14325,0.692863c0.021671,0.221184 0.078922,0.520744 0.219612,0.697502c0.26318,0.33313 0.201351,-0.259521 0.20422,-0.388054c0.00983,-0.323235 0.007511,-0.575195 0.124939,-0.88195c0.10968,-0.283081 0.25415,-0.551762 0.359932,-0.83765c0.048698,-0.130371 0.088249,-0.347412 0.2146,-0.424431c0.173031,-0.103401 0.107838,0.402458 0.117237,0.501579c0.027843,0.28125 0.105961,0.557251 0.210453,0.818729c0.11451,0.287598 0.302677,0.534546 0.42487,0.817741c0.015381,0.035889 0.06226,0.181267 0.118649,0.366325c0.019173,0.062744 0.039131,0.129517 0.05975,0.199219c0.039562,0.133667 0.07996,0.274651 0.115971,0.406242c0.07782,0.283569 0.134281,0.519897 0.110291,0.523438c0.46344,-0.067757 0.753792,-0.412971 0.939941,-0.842522c0.062199,-0.143433 0.114079,-0.295525 0.155281,-0.451416c0.020199,-0.07592 0.037659,-0.153069 0.053707,-0.229607c0.061211,-0.294304 0.094723,-0.584953 0.11536,-0.824699c0.01226,-0.142212 0.020382,-0.28442 0.024532,-0.425659c0.002079,-0.064941 -0.027042,-0.220821 0.019779,-0.271851c0.086418,-0.095703 0.163021,0.130737 0.202141,0.203011c0.163399,0.299679 0.279358,0.625 0.348087,0.960922c0.010563,0.051758 0.01495,0.1045 0.023502,0.156502c0.010799,0.068474 0.023499,0.137321 0.030579,0.206413c0.012939,0.124512 0.019592,0.25 0.02124,0.375359c0.001282,0.106812 -0.00312,0.213257 -0.009338,0.319824c-0.01062,0.173828 -0.026863,0.347168 -0.05603,0.518677c-0.03101,0.183952 -0.06329,0.372673 -0.118412,0.550766c-0.030029,0.094856 -0.234428,0.386353 -0.137447,0.477051c0.082268,0.076538 0.33313,-0.097542 0.406979,-0.142464c0.144291,-0.085938 0.272949,-0.198967 0.38953,-0.320793c0.563541,-0.586426 0.835388,-1.397324 1.003418,-2.191017c0.016171,-0.076164 0.031002,-0.152092 0.045353,-0.227531c0.00457,-0.023071 0.009579,-0.046753 0.013969,-0.069702c0.024361,-0.130737 0.001831,-0.310059 0.072628,-0.426758c0.113472,-0.188229 0.28418,0.271 0.31665,0.347778c0.01099,0.025879 0.017891,0.053711 0.02808,0.079826c0.05267,0.132576 0.095341,0.269051 0.130131,0.407837c0.023312,0.093872 0.047241,0.18811 0.06366,0.282585c0.10577,0.603516 0.045231,1.259026 -0.085518,1.85289c-0.114742,0.522453 -0.37743,1.048569 -0.777763,1.412704c0.372013,-0.22583 0.674252,-0.537102 0.93951,-0.862305c0.177132,-0.21788 0.3424,-0.458733 0.491882,-0.710793c0.056217,-0.09436 0.109497,-0.190804 0.160099,-0.288696c0.2467,-0.47644 0.424252,-0.98278 0.47546,-1.466904c0.02747,-0.276611 0.010441,-0.568474 -0.018551,-0.841915l0,0z" id="svg_1"/>
     <path d="m33.175522,67.898918c-0.148098,-0.150993 -0.265499,-0.327591 -0.373501,-0.509987c-0.0121,-0.020203 -0.034599,-0.066605 -0.062298,-0.122101c-0.019501,-0.039505 -0.041801,-0.082306 -0.065502,-0.126205c-0.010498,-0.018791 -0.020798,-0.036896 -0.031498,-0.055092c-0.0811,-0.138199 -0.1698,-0.247101 -0.215702,-0.133698c-0.0243,0.061897 -0.010098,0.150993 0.012501,0.237793c0.006302,0.023102 0.0126,0.045998 0.019199,0.068298c0.0144,0.0476 0.028301,0.092499 0.037903,0.127304c0.002499,0.009598 0.0075,0.017998 0.009998,0.027496c0.055801,0.194 0.184799,0.465591 0.277699,0.560593c0.0928,0.0951 0.291203,0.211296 0.467903,0.300095c0.326698,0.164795 0.708099,0.268402 1.084198,0.319801c0.045399,0.006195 0.091202,0.005394 0.1366,0.009094c-0.101398,-0.021996 -0.202301,-0.047699 -0.298801,-0.078598c-0.374699,-0.1213 -0.721897,-0.342499 -0.998699,-0.624794l0,0l0,0z" id="svg_2"/>
    </g>
    <path d="m32.532681,67.330238c-0.022701,-0.086792 -0.036861,-0.175896 -0.012512,-0.237785c0.045841,-0.113411 0.134521,-0.004402 0.215702,0.133774l0.031429,0.055061c0.023739,0.043823 0.046021,0.08667 0.065559,0.126221c0.02771,0.05542 0.050171,0.102051 0.062252,0.121948c0.108028,0.182251 0.225468,0.359131 0.37347,0.510132c0.276859,0.282234 0.624088,0.503418 0.9986,0.625c0.096378,0.031128 0.197319,0.056641 0.29871,0.078613c-0.045353,-0.003784 -0.09119,-0.00293 -0.136539,-0.009155c-0.376163,-0.051384 -0.75732,-0.155029 -1.084171,-0.319824c-0.176762,-0.088745 -0.389282,-0.199226 -0.497131,-0.309692c-0.107849,-0.110229 -0.192749,-0.356934 -0.248528,-0.551018c-0.00275,-0.009399 -0.007751,-0.01783 -0.01001,-0.027473c-0.009342,-0.03479 -0.023323,-0.079712 -0.03791,-0.127319" id="Shape"/>
    <g id="svg_3">
     <rect id="Rectangle-path" x="45.018686" y="67.64929" width="0.90014" height="4.198833"/>
     <path d="m47.660198,67.895332l-0.814999,0l0,0.912109l-0.494019,0l0,0.557861l0.494198,0l0,1.793579c0,0.152954 0.023132,0.276978 0.075809,0.371338c0.048283,0.094238 0.116581,0.166023 0.2038,0.216797c0.084961,0.052246 0.1842,0.086426 0.294983,0.103271c0.114677,0.018311 0.233757,0.026848 0.359737,0.026848c0.08136,0 0.164433,-0.001709 0.250179,-0.006828c0.081421,-0.003181 0.158882,-0.012207 0.229012,-0.022217l0,-0.647835c-0.039978,0.008301 -0.07972,0.013191 -0.121338,0.019051c-0.041023,0.003174 -0.085823,0.005241 -0.134102,0.005241c-0.135738,0 -0.229,-0.024292 -0.2752,-0.070915c-0.044739,-0.047005 -0.067871,-0.139893 -0.067871,-0.281494l0,-1.506592l0.598511,0l0,-0.557869l-0.598511,0l0,-0.912346l-0.000191,0z" id="Shape"/>
     <path d="m52.557201,70.274399c-0.087803,-0.064896 -0.187302,-0.116898 -0.301601,-0.155296c-0.112999,-0.039406 -0.228901,-0.073105 -0.346401,-0.100601c-0.1161,-0.027298 -0.229,-0.053101 -0.340099,-0.076202c-0.109501,-0.023895 -0.208401,-0.048996 -0.2948,-0.0802c-0.086399,-0.028297 -0.155701,-0.067596 -0.208599,-0.1147c-0.054501,-0.047096 -0.0812,-0.107399 -0.0812,-0.182198c0,-0.062302 0.016499,-0.1119 0.046398,-0.148705c0.031902,-0.037796 0.067902,-0.066597 0.1106,-0.0868c0.045101,-0.018997 0.091,-0.032394 0.148003,-0.037399c0.052799,-0.006096 0.104,-0.0084 0.1488,-0.0084c0.146198,0 0.2719,0.027702 0.379898,0.084801c0.104202,0.057602 0.163902,0.166801 0.1768,0.3256l0.776001,0c-0.017101,-0.187195 -0.063,-0.343498 -0.140598,-0.467697c-0.078201,-0.122498 -0.177803,-0.221504 -0.295002,-0.2957c-0.119801,-0.075203 -0.253799,-0.127998 -0.4062,-0.159302c-0.1511,-0.030701 -0.3046,-0.046402 -0.467098,-0.046402c-0.162399,0 -0.3181,0.014603 -0.470501,0.044006c-0.152401,0.029099 -0.291901,0.079895 -0.414299,0.152496c-0.122803,0.071404 -0.222301,0.171799 -0.295002,0.297699c-0.074497,0.124298 -0.112598,0.285805 -0.112598,0.480904c0,0.133896 0.026501,0.246796 0.081001,0.338501c0.053299,0.091995 0.124496,0.168999 0.212498,0.228699c0.0881,0.061699 0.187,0.111099 0.301701,0.147995c0.1124,0.037003 0.226898,0.069504 0.346001,0.097c0.291798,0.063004 0.5173,0.1259 0.679897,0.1875c0.164001,0.063705 0.245201,0.157104 0.245201,0.282402c0,0.075005 -0.018101,0.135902 -0.053299,0.1856c-0.032902,0.0485 -0.076,0.087303 -0.127602,0.1185c-0.051197,0.027901 -0.107597,0.050201 -0.171898,0.064102c-0.061703,0.013802 -0.124802,0.020096 -0.181,0.020096c-0.079502,0 -0.159,-0.008797 -0.233501,-0.028c-0.073299,-0.020798 -0.139099,-0.050499 -0.197601,-0.0923c-0.055798,-0.041298 -0.104099,-0.093597 -0.140297,-0.159096c-0.037102,-0.064598 -0.054501,-0.143105 -0.054501,-0.232597l-0.775501,0c0.0098,0.204193 0.053902,0.373497 0.1357,0.509697c0.082901,0.135597 0.186901,0.243896 0.315201,0.327202c0.129299,0.0811 0.276501,0.1399 0.440498,0.1745c0.163902,0.035896 0.3325,0.053902 0.503403,0.053902c0.169197,0 0.334499,-0.016304 0.497097,-0.050301c0.162403,-0.032806 0.308502,-0.091606 0.434002,-0.173805c0.126198,-0.081398 0.229,-0.191299 0.307301,-0.326096c0.077599,-0.135101 0.119198,-0.303406 0.119198,-0.5019c0,-0.142105 -0.028297,-0.260101 -0.081299,-0.356102c-0.055599,-0.096901 -0.126999,-0.176102 -0.214699,-0.241402l0,0l0,0z" id="Shape"/>
     <path d="m54.361252,67.895332l-0.81665,0l0,0.912109l-0.493771,0l0,0.557861l0.493771,0l0,1.793579c0,0.152954 0.02478,0.276978 0.074528,0.371338c0.051453,0.094238 0.117611,0.166023 0.203793,0.216797c0.086178,0.052246 0.185299,0.086426 0.297909,0.103271c0.113041,0.018311 0.234009,0.026848 0.359749,0.026848c0.079952,0 0.16235,-0.001709 0.247311,-0.006828c0.08453,-0.003181 0.159,-0.012207 0.230042,-0.022217l0,-0.647835c-0.039551,0.008301 -0.077702,0.013191 -0.120541,0.019051c-0.04163,0.003174 -0.086792,0.005241 -0.13306,0.005241c-0.13715,0 -0.230412,-0.024292 -0.27496,-0.070915c-0.0448,-0.047005 -0.068119,-0.139893 -0.068119,-0.281494l0,-1.506592l0.596439,0l0,-0.557869l-0.596439,0l0,-0.912346l0,0z" id="Shape"/>
     <path d="m58.011581,71.170853l0,-1.581673c0,-0.184196 -0.03973,-0.331543 -0.120552,-0.443481c-0.079281,-0.112175 -0.182121,-0.199707 -0.309929,-0.262817c-0.127621,-0.062012 -0.26709,-0.104614 -0.419491,-0.125359c-0.153809,-0.02198 -0.304749,-0.032234 -0.451908,-0.032234c-0.165531,0 -0.328491,0.015869 -0.49255,0.049309c-0.16217,0.033707 -0.309761,0.089127 -0.43927,0.16761c-0.130501,0.079346 -0.238163,0.182495 -0.321171,0.312386c-0.084351,0.12841 -0.132629,0.292595 -0.143681,0.487534l0.81501,0c0.016659,-0.165024 0.067871,-0.282097 0.161129,-0.353386c0.09222,-0.068848 0.21796,-0.104858 0.379272,-0.104858c0.072689,0 0.140556,0.005127 0.203796,0.01355c0.065002,0.011597 0.117252,0.029671 0.16571,0.059074c0.047913,0.029305 0.087643,0.071053 0.11639,0.124153c0.027893,0.052612 0.042912,0.124512 0.042912,0.213623c0.001648,0.08667 -0.021671,0.15271 -0.074532,0.198975c-0.054558,0.044434 -0.12719,0.078979 -0.217159,0.101563c-0.094299,0.023811 -0.198608,0.040649 -0.31805,0.052612c-0.117249,0.013069 -0.238831,0.029419 -0.362671,0.047607c-0.121159,0.019653 -0.242126,0.046631 -0.363037,0.079712c-0.120972,0.033325 -0.229,0.083382 -0.32312,0.149658c-0.092411,0.067024 -0.167362,0.155762 -0.228519,0.268311c-0.05999,0.111092 -0.089542,0.252693 -0.089542,0.425903c0,0.157715 0.026249,0.291626 0.07782,0.406006c0.052921,0.113037 0.124092,0.207893 0.215523,0.280884c0.091118,0.07666 0.198788,0.130249 0.321587,0.164795c0.12384,0.035774 0.25312,0.053474 0.397221,0.053474c0.183781,0 0.363041,-0.027473 0.53894,-0.08252c0.17548,-0.054939 0.33099,-0.150887 0.458801,-0.28846c0.003109,0.050903 0.011658,0.101318 0.021488,0.148804c0.010193,0.050171 0.020142,0.098274 0.038509,0.146736l0.82373,0c-0.037048,-0.063362 -0.064938,-0.157967 -0.077877,-0.283211c-0.018131,-0.125969 -0.02478,-0.255852 -0.02478,-0.394279l0,0zm-0.815002,-0.499886c0,0.0476 -0.00494,0.109863 -0.01495,0.187866c-0.01001,0.078979 -0.03437,0.155884 -0.079781,0.232666c-0.039299,0.076782 -0.105949,0.142212 -0.1936,0.196899c-0.08783,0.05603 -0.211918,0.082031 -0.37299,0.082031c-0.064999,0 -0.127438,-0.005493 -0.188839,-0.017937c-0.06287,-0.009537 -0.114502,-0.032356 -0.160709,-0.060066c-0.04644,-0.029297 -0.082882,-0.070435 -0.109489,-0.121338c-0.026432,-0.050781 -0.039803,-0.113281 -0.039803,-0.188362c0,-0.077629 0.013371,-0.142204 0.039803,-0.193108c0.026608,-0.05188 0.063049,-0.093628 0.105949,-0.127319c0.044559,-0.032471 0.097839,-0.059692 0.155949,-0.079826c0.058041,-0.018936 0.119259,-0.034927 0.18066,-0.046036c0.064941,-0.011711 0.129269,-0.021965 0.195679,-0.030266c0.06311,-0.00708 0.12738,-0.016846 0.187382,-0.02832c0.058041,-0.012573 0.114071,-0.028198 0.16571,-0.045288c0.051388,-0.016846 0.094048,-0.04113 0.129028,-0.072754l0,0.311157l0,0z" id="Shape"/>
     <path d="m60.07835,68.771553c-0.09454,0.03138 -0.185482,0.075806 -0.270199,0.132446c-0.084721,0.055664 -0.159302,0.125 -0.223392,0.205444c-0.064758,0.081787 -0.118038,0.167358 -0.154228,0.262939l-0.013382,0l0,-0.564941l-0.77544,0l0,3.040649l0.81707,0l0,-1.370239c0,-0.138672 0.012943,-0.265503 0.039562,-0.383064c0.026478,-0.117058 0.07122,-0.220085 0.13409,-0.308586c0.064327,-0.088264 0.147579,-0.157593 0.250427,-0.209114c0.102661,-0.050529 0.230652,-0.076164 0.379513,-0.076164c0.049931,0 0.101379,0.003654 0.15588,0.008789c0.052917,0.006584 0.098949,0.01355 0.137638,0.020386l0,-0.77552c-0.064758,-0.019646 -0.126148,-0.029289 -0.179008,-0.029289c-0.103271,-0.00013 -0.202999,0.015869 -0.298531,0.046265l0,0z" id="Shape"/>
     <path d="m62.024948,67.895332l-0.816647,0l0,0.912109l-0.492313,0l0,0.557861l0.492313,0l0,1.793579c0,0.152954 0.026669,0.276978 0.074337,0.371338c0.050171,0.094238 0.119022,0.166023 0.203552,0.216797c0.086418,0.052246 0.1861,0.086426 0.300419,0.103271c0.11285,0.018311 0.231689,0.026848 0.359741,0.026848c0.077808,0 0.16217,-0.001709 0.244568,-0.006828c0.086601,-0.003181 0.161121,-0.012207 0.229,-0.022217l0,-0.647835c-0.03791,0.008301 -0.077641,0.013191 -0.119259,0.019051c-0.042912,0.003174 -0.084782,0.005241 -0.13306,0.005241c-0.136959,0 -0.228149,-0.024292 -0.27478,-0.070915c-0.046391,-0.047005 -0.06805,-0.139893 -0.06805,-0.281494l0,-1.506592l0.59515,0l0,-0.557869l-0.594971,0l0,-0.912346l0,0z" id="Shape"/>
     <path d="m65.324509,70.274361c-0.087646,-0.064819 -0.187378,-0.116821 -0.301636,-0.155273c-0.112854,-0.039429 -0.226936,-0.07312 -0.346191,-0.100586c-0.114502,-0.027344 -0.229195,-0.053101 -0.338074,-0.076172c-0.111389,-0.023926 -0.210876,-0.049072 -0.295227,-0.0802c-0.087402,-0.02832 -0.157352,-0.067627 -0.212101,-0.114746c-0.052849,-0.047127 -0.08075,-0.107422 -0.08075,-0.182137c0,-0.06237 0.01746,-0.111923 0.047241,-0.148796c0.030159,-0.03772 0.068058,-0.066528 0.111759,-0.086792c0.044128,-0.018921 0.092216,-0.032349 0.145752,-0.037361c0.054504,-0.006096 0.104485,-0.008415 0.150696,-0.008415c0.144043,0 0.27166,0.02771 0.379509,0.084839c0.106392,0.057617 0.16571,0.166748 0.177376,0.325562l0.775635,0c-0.018501,-0.187134 -0.063301,-0.343506 -0.142578,-0.467651c-0.078056,-0.122559 -0.17572,-0.221558 -0.295227,-0.295769c-0.117615,-0.075203 -0.253296,-0.12793 -0.402596,-0.159309c-0.15387,-0.03064 -0.307854,-0.046387 -0.468803,-0.046387c-0.16259,0 -0.318485,0.014641 -0.472103,0.044067c-0.152592,0.029053 -0.290649,0.079834 -0.413033,0.152466c-0.121147,0.071411 -0.220268,0.171753 -0.294979,0.297729c-0.074528,0.124268 -0.112431,0.285774 -0.112431,0.480827c0,0.133911 0.02771,0.246834 0.081432,0.338501c0.050529,0.092056 0.122189,0.169075 0.21191,0.22876c0.08783,0.061653 0.18713,0.111092 0.30035,0.147949c0.113888,0.036995 0.22821,0.06958 0.34893,0.097054c0.290405,0.062988 0.517281,0.125847 0.679878,0.1875c0.16217,0.063721 0.243347,0.157097 0.243347,0.282349c0,0.075073 -0.016418,0.135979 -0.051208,0.185669c-0.034981,0.048462 -0.07782,0.08728 -0.129456,0.118416c-0.052925,0.027946 -0.109505,0.050285 -0.172363,0.064194c-0.063293,0.013802 -0.124092,0.02002 -0.180733,0.02002c-0.08136,0 -0.159241,-0.008774 -0.232109,-0.027946c-0.076786,-0.020866 -0.140686,-0.050537 -0.198978,-0.092278c-0.056461,-0.041389 -0.104919,-0.093636 -0.14093,-0.15918c-0.036438,-0.064583 -0.054989,-0.143074 -0.054989,-0.232552l-0.773132,0c0.006653,0.204231 0.050961,0.373535 0.132561,0.509651c0.082462,0.13562 0.18866,0.243889 0.318123,0.327271c0.127007,0.081047 0.272888,0.139885 0.437378,0.174431c0.165279,0.035889 0.334534,0.053955 0.50708,0.053955c0.166992,0 0.332703,-0.016357 0.495659,-0.050285c0.163643,-0.032845 0.306221,-0.091682 0.431953,-0.173836c0.12616,-0.081421 0.228577,-0.191284 0.30835,-0.32605c0.079712,-0.135124 0.117798,-0.303467 0.117798,-0.501945c0,-0.14209 -0.026428,-0.260139 -0.079292,-0.356079c-0.054985,-0.096931 -0.125725,-0.176155 -0.213799,-0.241463l0,0z" id="Shape"/>
     <path d="m70.634987,70.865669l-0.009758,0l-0.506897,-2.058228l-0.791931,0l-0.492744,2.064697l-0.012688,0l-0.545586,-2.064697l-0.859756,0l0.93988,3.040649l0.844551,0l0.505669,-2.041634l0.011421,0l0.526909,2.041634l0.840401,0l0.93573,-3.040649l-0.837891,0l-0.54731,2.058228z" id="Shape"/>
     <rect id="Rectangle-path" x="72.386564" y="67.64929" width="0.815414" height="0.687722"/>
     <rect id="Rectangle-path" x="72.386564" y="68.807434" width="0.815414" height="3.040689"/>
     <path d="m74.877998,67.895302l-0.8162,0l0,0.912102l-0.493599,0l0,0.557899l0.493599,0l0,1.793594c0,0.152901 0.026802,0.277 0.076599,0.3713c0.049706,0.094299 0.117302,0.166 0.203705,0.216805c0.085999,0.052299 0.185501,0.086395 0.298599,0.103302c0.112602,0.018295 0.231697,0.026794 0.359497,0.026794c0.079498,0 0.162605,-0.001701 0.247101,-0.006798c0.082397,-0.003197 0.159203,-0.012199 0.230003,-0.022202l0,-0.647797c-0.039902,0.008301 -0.081001,0.0131 -0.121201,0.018997c-0.043098,0.003204 -0.088005,0.005203 -0.131905,0.005203c-0.137894,0 -0.2313,-0.0242 -0.277298,-0.0709c-0.043098,-0.047005 -0.068901,-0.1399 -0.068901,-0.281502l0,-1.506599l0.599304,0l0,-0.5578l-0.599304,0l0,-0.912399l0,0l0,0z" id="Shape"/>
     <path d="m78.600937,69.462349c-0.030579,-0.153572 -0.088074,-0.2854 -0.169006,-0.393311c-0.079353,-0.108887 -0.188423,-0.193001 -0.329773,-0.253906c-0.139709,-0.059082 -0.319771,-0.089966 -0.536865,-0.089966c-0.152596,0 -0.310181,0.039795 -0.470879,0.120232c-0.16053,0.079964 -0.292915,0.20874 -0.397652,0.384285l-0.016602,0l0,-1.581055l-0.81543,0l0,4.199341l0.81543,0l0,-1.59436c0,-0.310059 0.049927,-0.532227 0.150879,-0.668221c0.099304,-0.134758 0.260254,-0.202881 0.481934,-0.202881c0.195496,0 0.330566,0.0625 0.40802,0.186043c0.075989,0.123657 0.115967,0.310669 0.115967,0.561028l0,1.718391l0.81543,0l0,-1.870491c0,-0.188225 -0.016228,-0.360352 -0.051453,-0.515129l0,0z" id="Shape"/>
    </g>
    <path d="m40.109772,59.291908c-0.00732,-0.018559 -0.018131,-0.051758 -0.032291,-0.096558c-0.278931,-0.85767 -0.50647,-1.322392 -0.907829,-1.322392c-0.075993,0 -0.149052,0.019409 -0.216682,0.057381c-0.259827,0.14502 -0.23859,0.4674 -0.227539,0.640862c0.001221,0.01807 0.002262,0.033207 0.002869,0.044319c0,0.376831 -0.053467,0.734249 -0.172119,1.140621c-0.242741,-0.678951 -0.585629,-1.297363 -0.91888,-1.897831c-0.152828,-0.275749 -0.310608,-0.560661 -0.455257,-0.843872c-0.94556,-1.864868 -1.337532,-3.761719 -1.132511,-5.485348c0.086609,-0.73267 0.34436,-1.446411 0.609989,-2.10815c0.009583,-0.02515 0.034721,-0.080452 0.070122,-0.157841c0.580818,-1.27417 0.701359,-1.678711 0.382019,-1.902588c-0.096191,-0.067993 -0.210869,-0.102173 -0.339352,-0.102173c-0.44775,0 -1.099117,0.418819 -2.250309,1.446041c-0.050591,0.0448 -0.090748,0.080688 -0.117611,0.10413c-0.621647,0.535641 -1.183468,1.12915 -1.668949,1.763062c-0.84601,1.104858 -1.488459,2.360958 -1.91021,3.733398c-0.32514,1.0592 -0.51795,2.181881 -0.57288,3.336182c-0.030399,0.607788 -0.021669,1.199337 0.024349,1.763798c-0.108028,-0.230469 -0.16675,-0.505989 -0.225029,-0.810551c-0.069521,-0.36536 -0.112431,-0.753788 -0.126591,-1.154907c-0.0058,-0.160152 0.005671,-0.327641 0.0177,-0.504391c0.01416,-0.210941 0.029171,-0.429451 0.014591,-0.65015c-0.028511,-0.44482 -0.36866,-0.457401 -0.407412,-0.457401c-0.291199,0 -0.530399,0.355721 -0.679689,0.65406c-0.11969,0.23962 -0.219179,0.508789 -0.31226,0.847771c-0.19836,0.727421 -0.280821,1.468391 -0.330561,2.033329c-0.077888,0.881351 -0.10614,1.794922 -0.086609,2.781372c-0.00934,-0.012939 -0.01807,-0.024292 -0.026001,-0.034542c-0.185061,-0.254639 -0.33411,-0.564697 -0.455509,-0.947029c-0.08765,-0.276611 -0.154051,-0.570801 -0.20233,-0.900509c-0.021851,-0.151852 -0.0354,-0.282101 -0.03998,-0.39917c-0.015202,-0.33569 -0.24646,-0.425411 -0.380131,-0.425411c-0.27038,0 -0.396111,0.276119 -0.4284,0.359859c-0.100531,0.264889 -0.14698,0.537601 -0.19171,0.800411l-0.01935,0.112309c-0.11035,0.630131 -0.21839,1.302982 -0.22571,1.99683c-0.01623,1.73608 0.123289,3.907101 1.356079,5.307728c0.46442,0.52784 1.01086,0.966072 1.58124,1.267952c0.059141,0.031128 0.115351,0.057861 0.171991,0.085335l-0.359741,3.043083c-0.03686,0.310181 0.095341,0.756592 0.29413,0.993896l1.13623,1.356934c0.19879,0.235596 0.608891,0.399536 0.91095,0.360962l6.970089,-0.875366c0.30304,-0.03833 0.669071,-0.294685 0.814152,-0.567619l0.80793,-1.522591c0.145691,-0.274292 0.19714,-0.744263 0.114498,-1.04406l-0.813358,-2.95948c0.705509,-0.877441 1.232788,-1.878662 1.464119,-2.813606c0.093441,-0.376945 0.151302,-0.812614 0.181091,-1.370716c0.087208,-1.619881 -0.152161,-3.237679 -0.691349,-4.677372l0,0zm-6.629272,14.878052c-0.300838,0.050537 -0.322689,-0.019043 -0.048531,-0.155273l3.191963,-1.581177c0.27454,-0.13562 0.64325,-0.455566 0.819149,-0.710327l0.06702,-0.097046c0.17609,-0.25489 0.367001,-0.713493 0.42487,-1.02063l0.380119,-2.030273c-0.030819,0.030518 -0.06097,0.064209 -0.09198,0.093994c-0.472782,0.456543 -0.997559,0.879883 -1.61792,1.099495c-0.584351,0.208366 -1.209099,0.232048 -1.821529,0.208366c-0.593929,-0.023071 -1.202641,-0.051392 -1.762211,-0.275017c-0.501282,-0.199715 -0.997131,-0.483536 -1.405331,-0.84388c-0.02729,-0.023926 -0.050419,-0.052246 -0.07703,-0.076782c-0.10681,-0.030029 -0.21155,-0.064568 -0.314569,-0.104248c-0.034979,0.055664 -0.07056,0.111938 -0.09449,0.16394l-0.65387,1.429688c-0.013361,0.029541 -0.0252,0.053467 -0.036249,0.07605l-0.831421,2.032471c-0.117861,0.288086 -0.175289,0.270996 -0.12805,-0.036858l0.478569,-3.09034c-0.13488,-0.040161 -0.267879,-0.09021 -0.39819,-0.146973c-0.11475,-0.050293 -0.227779,-0.103638 -0.335569,-0.160637c-0.56311,-0.297493 -1.07251,-0.7201 -1.49597,-1.199837c-1.128481,-1.282715 -1.294621,-3.333374 -1.277351,-5.110348c0.00708,-0.655029 0.109322,-1.307129 0.221741,-1.953129c0.049931,-0.28442 0.091129,-0.583012 0.19422,-0.854c0.033321,-0.087891 0.14093,-0.234989 0.1488,-0.046021c0.00629,0.145752 0.02313,0.29467 0.04438,0.438229c0.048271,0.326172 0.11779,0.650143 0.21734,0.964722c0.11841,0.373169 0.28021,0.740108 0.509769,1.056641c0.094971,0.12915 0.681391,0.821777 0.66473,0.386719c-0.042479,-1.11047 -0.028749,-2.227909 0.0683,-3.334961c0.05847,-0.668209 0.14654,-1.339359 0.32288,-1.985229c0.074091,-0.27026 0.16424,-0.5387 0.28973,-0.789429c0.05579,-0.113041 0.41864,-0.73315 0.443661,-0.3363c0.02454,0.378048 -0.046631,0.771851 -0.03356,1.153809c0.01458,0.40905 0.057249,0.817142 0.13452,1.219112c0.070549,0.370487 0.15155,0.761719 0.35388,1.084347c0.098881,0.159313 0.22961,0.298344 0.40008,0.37598c0.06934,0.032471 0.190071,0.094971 0.23798,0.027592c0.046391,-0.065311 -0.03418,-0.29285 -0.043089,-0.36792c-0.082891,-0.706299 -0.099121,-1.421749 -0.064581,-2.131592c0.053101,-1.108891 0.23774,-2.212898 0.56336,-3.274048c0.40448,-1.317749 1.032709,-2.560669 1.86603,-3.648441c0.483822,-0.631588 1.033569,-1.209469 1.63269,-1.725338c0.253349,-0.217651 1.596058,-1.480591 2.165039,-1.480591c0.056641,0 0.10656,0.013058 0.1455,0.040768c0.156559,0.11047 -0.51416,1.490353 -0.578491,1.650272c-0.286427,0.715691 -0.546078,1.446041 -0.638058,2.217648c-0.236942,1.99255 0.284969,3.971191 1.17804,5.733761c0.501099,0.98682 1.11768,1.900032 1.448669,2.968632c0.045589,0.147339 0.089111,0.29932 0.10828,0.452641c0.00787,0.066528 -0.03125,0.242428 0.064079,0.251827c0.06744,0.005863 0.141541,-0.17017 0.163212,-0.216549c0.08514,-0.18457 0.120358,-0.388802 0.183598,-0.582031c0.151791,-0.471928 0.241512,-0.9231 0.241512,-1.42432c0,-0.083988 -0.03894,-0.332638 0.046391,-0.379757c0.283749,-0.159431 0.618889,1.029419 0.67865,1.188839c0.53754,1.435429 0.757748,3.03418 0.674931,4.567379c-0.023933,0.433483 -0.068302,0.892834 -0.172001,1.314701c-0.47998,1.702522 -1.468452,2.772217 -1.468452,2.772217c0,0 -0.275806,0.319336 -0.418579,0.468636l0.653629,2.344841c0.05933,0.211426 0.04541,0.504143 -0.018917,0.75428c-0.018131,0.00573 -0.0658,0.062248 -0.145142,0.175285l-0.697762,0.998169c-0.176937,0.253784 -0.56543,0.519531 -0.861809,0.590096c0,0 -3.243778,0.784294 -3.44532,0.822746l-0.45129,0.04541z" id="Shape"/>
   </g>
  </g>
 </g>
</svg>