<svg width="150" height="150" xmlns="http://www.w3.org/2000/svg">
 <!-- Generator: Sketch 3.3.2 (12043) - http://www.bohemiancoding.com/sketch -->
 <title>Jager Copy</title>
 <desc>Created with Sketch.</desc>
 <g>
  <title>Layer 1</title>
  <g fill="#4A4A4A" id="Desktop-HD">
   <path fill="black" id="Shape" d="m75.692123,36.046001c-15.81134,0 -28.675171,13.284912 -28.675171,29.613895c0,16.329102 12.863586,29.614258 28.675171,29.614258c15.811089,0 28.674683,-13.285156 28.674683,-29.614258c0,-16.328983 -12.863594,-29.613895 -28.674683,-29.613895l0,0zm0.127983,57.350712c-14.771233,0 -26.78875,-12.442749 -26.78875,-27.736816c0,-15.293705 12.017517,-27.736454 26.78875,-27.736454c14.771729,0 26.788948,12.442749 26.788948,27.736454c0,15.294312 -12.01722,27.736816 -26.788948,27.736816l0,0z"/>
   <g id="Shape">
    <path id="svg_1" d="m75.025116,45.414104l0.325256,0l-0.878113,-5.826538l-0.427429,0.036377l0.97406,5.778198l0.006226,0.011963z"/>
    <path id="svg_2" d="m76.151093,45.414104l0.053162,-5.848022l-0.441895,0l0.068604,5.848022l0.320129,0z"/>
    <path id="svg_3" d="m74.945404,47.050213l0,-0.670898l-2.29126,-6.539185l-0.062683,-0.034546l-0.465637,0.065063l2.646484,7.194946l0.173096,-0.015381z"/>
    <path id="svg_4" d="m74.945404,47.921062l-4.300293,-7.724243l-0.067566,-0.029785l-0.352905,0.11377l4.720764,8.214966l0,-0.574707z"/>
    <path id="svg_5" d="m74.945404,48.692425l-6.357544,-7.917969l-0.069092,-0.023193l-0.355469,0.135376l6.782104,8.234253l0,-0.428467z"/>
    <path id="svg_6" d="m74.535492,49.401409l0.409912,0l0,-0.218018l-8.588135,-7.603271l-0.07251,-0.018799l-0.444458,0.203613l8.695923,7.604004l-0.000732,0.032471z"/>
    <path id="svg_7" d="m73.921539,49.401409l0.516968,0l-10.649784,-6.564697l-0.021912,-0.02478l-0.392395,0.235229l10.537052,6.328979l0.010071,0.025269z"/>
    <path id="svg_8" d="m73.267853,49.357586l0.015747,-0.085693l-12.12122,-4.747192l-0.022949,-0.009033l-0.377625,0.30481l11.957645,4.534424l0.548401,0.002686z"/>
    <path id="svg_9" d="m72.578827,68.008835l0.36499,0l2.001587,-10.054085l0,-1.111938l-0.187805,0.10096l-2.178772,11.065063z"/>
    <path id="svg_10" d="m75.977203,59.768356l-0.148071,0l0.148071,8.210442l0,0.030037l0.176208,0l-0.176208,-8.130615l0,-0.109863z"/>
    <path id="svg_11" d="m77.19455,58.923866l1.427307,9.010506l0.006958,0.044678l0.362724,-0.068359l-1.71209,-10.329964l-0.085388,0.007446l0.000488,1.335693z"/>
    <path id="svg_12" d="m78.89193,49.401409l0.583809,0l11.954041,-4.265625l0.071411,-0.035889l-0.371704,-0.332031l-12.251953,4.528198l0.014397,0.105347z"/>
    <path id="svg_13" d="m77.799469,49.401409l0.376404,0l10.706238,-6.106201l-0.351074,-0.276123l-10.752686,6.282837l0.021118,0.099487z"/>
    <path id="svg_14" d="m77.267059,49.266644l0,0.134766l0.231628,0l8.89019,-7.426758l0.055489,-0.057129l-0.442932,-0.200439l-8.755249,7.539185l0.020874,0.010376z"/>
    <path id="svg_15" d="m77.267059,48.798016l0,0.416748l6.932487,-8.188843l0.022469,-0.048096l-0.433655,-0.163208l-6.542969,7.971191l0.021667,0.012207z"/>
    <path id="svg_16" d="m77.267059,48.06596l0,0.552856l4.826469,-8.273682l0.01239,-0.052368l-0.446526,-0.105469l-4.41864,7.868286l0.026306,0.010376z"/>
    <path id="svg_17" d="m77.194061,47.286053l0.083313,0.016113l2.77179,-7.43811l-0.43158,-0.061157l-2.420959,6.849854l-0.002563,0.633301z"/>
    <path id="svg_18" d="m78.133026,39.648724l0.009827,-0.032227l-0.433655,-0.061035l-1.004761,5.858643l0.3302,0l1.098389,-5.765381z"/>
    <path id="svg_19" d="m82.248863,77.262619c0.324768,0 0.804329,-0.102661 0.995735,-0.146729c0.321167,-0.074463 1.371338,-0.49292 1.666687,-0.679199c0.217468,-0.137215 0.633545,-0.501106 0.937431,-0.766975c0.094673,-0.082878 0.174141,-0.152214 0.22596,-0.195915c0.211784,-0.17749 1.089661,-1.136353 1.159782,-1.254036c0.02301,-0.038322 0.146553,-0.227898 0.299805,-0.462029c0.27137,-0.415283 0.608521,-0.932014 0.688484,-1.070801c0.142395,-0.247437 0.454041,-1.375 0.493225,-1.526245c0.012146,-0.046021 0.027092,-0.098389 0.043091,-0.155273c0.068604,-0.242432 0.162537,-0.574463 0.155823,-0.830933c-0.009033,-0.332275 -0.333557,-0.385254 -0.59491,-0.427734c-0.056458,-0.009033 -0.11322,-0.018318 -0.167664,-0.030273c-0.257141,-0.055542 -0.677376,-0.054207 -1.121338,-0.051025l-0.270325,0.000732c-0.477303,0 -0.492256,0.004265 -1.30481,0.229736l-0.457886,0.126701c-1.086792,0.298584 -1.572571,0.806526 -1.862488,1.110115c-0.056519,0.059074 -0.104248,0.109253 -0.147827,0.147217c-0.256165,0.224976 -0.768501,0.813721 -0.84845,0.960205c-0.067078,0.122559 -0.425903,0.681023 -0.624519,0.870605c-0.036613,0.034782 -0.061882,0.051758 -0.077873,0.060547l-0.017029,-0.019897c-0.00544,-0.006714 -0.055969,-0.074951 -0.067322,-0.403809c-0.001587,-0.043823 -0.003906,-0.074951 -0.005676,-0.099976c-0.005737,-0.076294 -0.005737,-0.076294 0.090271,-0.385132l0.059082,-0.191162c0.138489,-0.45166 0.578857,-0.728271 0.932495,-0.950317c0.10968,-0.068855 0.211304,-0.132942 0.295654,-0.195313c0.37738,-0.281494 1.48175,-1.019165 1.838989,-1.255493c0.232422,-0.153687 0.335869,-0.201782 0.455566,-0.25708c0.088013,-0.040894 0.187309,-0.087158 0.34906,-0.180428c0.275757,-0.160637 0.614677,-0.224968 0.839172,-0.267448c0.066772,-0.012825 0.123535,-0.023689 0.167358,-0.034302c0.042046,-0.01062 0.098564,-0.008789 0.158386,-0.006348c0.173401,0.005493 0.410461,0.014648 0.609619,-0.259155c0.165344,-0.227051 0.603882,-0.313965 0.839111,-0.360474c0.061951,-0.012573 0.112488,-0.022583 0.145752,-0.031982c0.087212,-0.024658 0.317802,-0.132568 0.687981,-0.307495c0.298706,-0.141113 0.637215,-0.301392 0.79792,-0.360474c0.331482,-0.121948 0.943848,-0.454842 1.185852,-0.669807c0.076355,-0.067627 0.191162,-0.153679 0.312927,-0.244873c0.311821,-0.234131 0.521057,-0.397339 0.583496,-0.526855c0.054443,-0.111328 0.475159,-0.585571 0.726677,-0.869507c0.121529,-0.136841 0.226997,-0.255493 0.28553,-0.326164c0.107597,-0.127571 0.201233,-0.177002 0.33075,-0.245369c0.091309,-0.048096 0.193962,-0.102287 0.319092,-0.193726c0.324768,-0.237183 0.841736,-0.951416 0.969658,-1.248039c0.066048,-0.152832 0.080994,-0.286621 0.094429,-0.404305c0.013672,-0.120964 0.025574,-0.225464 0.087708,-0.339966c0.082581,-0.150757 0.141907,-0.349121 0.193726,-0.524536c0.033569,-0.112183 0.071228,-0.238884 0.096008,-0.274773c0.096436,-0.138802 0.420959,-1.076057 0.522888,-1.48011c0.103935,-0.414421 0.147278,-0.551636 0.235229,-0.662956c0.102173,-0.129768 0.670464,-0.93116 0.909058,-1.29908c0.241455,-0.375114 0.489624,-1.236084 0.499443,-1.392944c0.00177,-0.029175 0.00824,-0.091911 0.017036,-0.176266c0.02832,-0.279297 0.082275,-0.799805 0.076355,-1.131592c-0.007996,-0.445679 0.049004,-1.829102 0.076836,-2.000244c0.034065,-0.212646 0.086433,-1.43335 0.047485,-1.770874c-0.014946,-0.126587 -0.074272,-0.227051 -0.172607,-0.291382c-0.17205,-0.112427 -0.424858,-0.081055 -0.520256,-0.04895c-0.101387,0.034302 -0.180359,0.17627 -0.336922,0.49231c-0.033813,0.068115 -0.06707,0.134766 -0.097527,0.192749c-0.161743,0.300659 -0.31134,0.972412 -0.408325,1.483032c-0.059082,0.311768 -0.099068,0.631348 -0.144714,1.001099c-0.0578,0.463623 -0.123108,0.98938 -0.245605,1.652344c-0.068909,0.368652 -0.164856,0.512447 -0.231941,0.524166c-0.085869,0.01355 -0.218987,-0.140621 -0.291191,-0.264523c-0.034302,-0.136108 -0.271423,-1.070923 -0.390816,-1.363647c-0.090019,-0.219604 -0.070984,-0.77002 -0.059631,-1.099365c0.003365,-0.090454 0.005684,-0.166748 0.005684,-0.219849c0,-0.145142 0.043091,-0.623901 0.077637,-1.008545c0.029968,-0.33252 0.046989,-0.523438 0.046989,-0.578735c0,-0.059814 -0.016045,-0.248291 -0.041557,-0.551758c-0.024475,-0.285278 -0.052124,-0.608521 -0.052124,-0.699097c0,-0.19812 -0.112984,-0.675293 -0.258484,-0.993408c-0.029663,-0.064819 -0.065979,-0.138306 -0.105225,-0.218262c-0.142151,-0.28894 -0.336914,-0.685059 -0.43232,-1.090942c-0.092644,-0.393677 -0.456108,-1.426636 -0.647758,-1.961182l0.007996,-0.002686c-0.042053,-0.133423 -0.100098,-0.30249 -0.136475,-0.348755l-0.029419,-0.036987l-0.046143,-0.003418c-0.005432,-0.000488 -0.13031,-0.009277 -0.235779,0.008789c-0.153755,0.026611 -0.325562,0.285156 -0.392395,0.395264c-0.093872,0.156006 -0.249947,0.83252 -0.241951,1.049194c0.008492,0.212891 0.142403,1.297974 0.172554,1.489136c0.012146,0.074097 0.065552,0.250122 0.158936,0.555298c0.123528,0.402954 0.310059,1.011963 0.314697,1.184448c0.007744,0.310303 -0.063171,0.544922 -0.185486,0.613281c-0.085876,0.046997 -0.185974,-0.016479 -0.342529,-0.124878c-0.04364,-0.030396 -0.088257,-0.061401 -0.134155,-0.0896c-0.121521,-0.073975 -0.242493,-0.525879 -0.300781,-0.742432c-0.026306,-0.096802 -0.048279,-0.177856 -0.06604,-0.227051c-0.07019,-0.193481 -0.502502,-1.053711 -0.624023,-1.254883c-0.028137,-0.046265 -0.077881,-0.13855 -0.140564,-0.253906c-0.263916,-0.488037 -0.536316,-0.978027 -0.711006,-1.140381c-0.275749,-0.255737 -0.913139,-0.412842 -1.135498,-0.451416c-0.349548,-0.061401 -0.419495,0.250732 -0.466972,0.45752l-0.013374,0.057983c-0.041809,0.171753 0.106018,0.416992 0.329414,0.789185c0.152222,0.252563 0.32428,0.539063 0.454529,0.838135c0.345398,0.793457 0.720757,1.784424 0.769775,2.142578c0.055176,0.409302 0.544556,1.536621 0.869568,1.817139c0.208191,0.179932 0.667908,0.554688 0.972038,0.802979l0.274422,0.224609c0.149414,0.123413 0.528076,1.078979 0.671753,1.633789c0.052666,0.203369 0.173096,0.585327 0.300774,0.990108c0.148872,0.471565 0.352425,1.117561 0.35627,1.2146c0.007751,0.190804 -0.140076,1.634521 -0.210518,1.822754c-0.018555,0.049927 -0.057793,0.164795 -0.108086,0.312256c-0.11042,0.325684 -0.352844,1.037483 -0.462219,1.263428c-0.032539,-0.129387 -0.085152,-0.344482 -0.10968,-0.488762c-0.030151,-0.172493 -0.083313,-1.02137 -0.111694,-1.470833c-0.011597,-0.039543 -0.282478,-0.974243 -0.343567,-1.15979l-0.038452,-0.11377c-0.242004,-0.714478 -0.570129,-1.678833 -0.62738,-1.804928c-0.071716,-0.155151 -0.521606,-1.464844 -0.558716,-1.739014c-0.021179,-0.157349 -0.112732,-0.208862 -0.165405,-0.226196c-0.180298,-0.056274 -0.415833,0.11731 -0.494751,0.205566c-0.075867,0.084473 -0.119202,0.323242 -0.199646,0.847412c-0.026863,0.174072 -0.052124,0.338379 -0.075623,0.446289c-0.053406,0.244263 0.057556,0.994747 0.172844,1.696529c0.015205,0.091675 0.025574,0.153564 0.026855,0.163696c0,0.03138 0.012093,0.081543 0.107796,0.446533c0.078186,0.297005 0.174919,0.666748 0.20562,0.832642c0.056465,0.310181 0.283516,2.271851 0.255379,2.464363c-0.029419,0.208366 -0.223389,1.237175 -0.381531,1.624626c-0.155029,0.380989 -0.878113,1.189095 -0.978699,1.270149c-0.07843,0.062981 -0.242493,0.153069 -0.355469,0.203613c0.015991,-0.068611 0.029907,-0.156258 0.023743,-0.259651c-0.011902,-0.197021 0.145996,-0.934448 0.210205,-1.21508c0.005188,-0.046761 0.124626,-1.149414 0.132324,-1.662239c0.008293,-0.49707 0.13623,-1.184448 0.139587,-1.213745c-0.002319,-0.189453 -0.025269,-1.855583 -0.080994,-2.064331c-0.029175,-0.109245 -0.098816,-0.142212 -0.137764,-0.152344c-0.135674,-0.03479 -0.277336,0.101807 -0.338982,0.17041c-0.067078,0.088257 -0.652893,0.868782 -0.732361,1.016235c-0.090515,0.167732 -0.335083,1.03064 -0.392334,1.304932c-0.012398,0.057983 -0.037659,0.18396 -0.071716,0.352783c-0.138802,0.687874 -0.427734,2.119385 -0.532715,2.47583c-0.144173,0.48877 -0.617065,1.795654 -0.721741,1.937256c-0.101135,0.135017 -1.346863,0.826668 -1.586243,0.880745c-0.069641,0.015617 -0.126892,0.03051 -0.175415,0.042961c-0.045166,0.011963 -0.094666,0.02478 -0.122253,0.029785c-0.015015,-0.148308 0.020081,-0.609489 0.04541,-0.746696c0.026306,-0.145149 0.084351,-0.905647 0.102356,-1.166626c0.073792,-1.098885 0.048279,-1.157356 0.035339,-1.180305c-0.011353,-0.083984 0.042053,-0.708374 0.073792,-1.081535c0.019592,-0.230476 0.036133,-0.423706 0.038696,-0.490974c0.003601,-0.088257 0.093628,-0.432861 0.173088,-0.736687c0.088257,-0.337036 0.179329,-0.685555 0.199165,-0.848152c0.020142,-0.158691 -0.007202,-0.271362 -0.08075,-0.335693c-0.064209,-0.056145 -0.146545,-0.057243 -0.196838,-0.041504l-0.035095,0.018555c-0.015991,0.012817 -0.397522,0.32032 -0.836304,0.918457c-0.438293,0.596436 -0.69342,1.374023 -0.72126,1.582886c-0.022949,0.174446 -0.379448,2.049812 -0.503044,2.5448c-0.124023,0.495972 -0.551758,1.796875 -0.671211,2.065674c-0.148064,0.335701 -0.526237,1.020752 -0.75219,1.19117c-0.257996,0.196411 -0.77314,0.476074 -0.896973,0.532959c-0.073242,0.033203 -0.278076,-0.040161 -0.411926,-0.128181c-0.168213,-0.111931 -1.054077,-0.049919 -1.062866,-0.049438c-0.106758,0.009529 -0.394104,0.076302 -0.671936,0.140877c-0.19812,0.046021 -0.402466,0.093628 -0.458435,0.099976c-0.08075,0.008545 -0.771545,-0.059082 -1.388611,-0.128906c-0.633301,0 -1.603516,-0.002205 -1.681152,-0.00769c-0.067078,-0.006104 -0.218506,0.018555 -0.459961,0.057861c-0.133057,0.021606 -0.283997,0.046257 -0.324219,0.046257c-0.088013,0 -0.269592,-0.048096 -0.41095,-0.180168c-0.15094,-0.140381 -0.408875,-0.152351 -0.596924,-0.161133c-0.055969,-0.002686 -0.106018,-0.004761 -0.14447,-0.010132c-0.182129,-0.026489 -0.363953,0.08252 -0.461487,0.140984l-0.02655,0.015877c-0.030212,0.017082 -0.054443,0.039673 -0.07843,0.061401c-0.048767,0.045288 -0.087219,0.082397 -0.167725,0.077148c-0.161682,-0.007446 -0.450623,-0.071289 -0.600525,-0.12281c-0.167908,-0.057976 -0.758911,-0.357536 -0.825989,-0.426392c-0.065796,-0.074455 -0.720459,-1.006714 -0.805359,-1.14624c-0.078186,-0.12915 -0.537048,-1.134026 -0.619873,-1.386719c-0.043579,-0.136108 -0.059326,-0.379639 -0.074585,-0.614624c-0.012329,-0.191154 -0.024963,-0.388428 -0.05365,-0.541992c-0.064758,-0.352295 -0.336609,-1.662712 -0.4646,-1.992065c-0.085876,-0.222527 -0.329651,-0.746208 -0.49115,-1.092522c-0.072998,-0.156868 -0.12793,-0.2743 -0.140076,-0.304688c-0.05365,-0.130989 -0.404724,-0.474739 -0.612671,-0.577644c-0.105469,-0.052368 -0.191101,-0.037109 -0.244812,-0.015381c-0.107544,0.043831 -0.192688,0.152344 -0.259766,0.331177c-0.067322,0.177856 -0.006653,0.49292 0.013428,0.53138c0.019348,0.071037 0.204041,1.085449 0.32196,1.734489c0.055969,1.343994 0.135193,3.395142 0.124084,3.537605l-0.003906,0.053093c-0.006409,0.090698 -0.016724,0.234253 -0.037903,0.293213c-0.06189,-0.022583 -0.183655,-0.101563 -0.240173,-0.137939c-0.041504,-0.0271 -0.078125,-0.050537 -0.104431,-0.065063c-0.090576,-0.050049 -0.638,-0.504265 -0.838135,-0.71032c-0.162292,-0.167488 -0.638245,-1.061646 -0.7948,-1.355721l-0.059082,-0.110596c-0.062927,-0.116699 -0.445251,-1.36731 -0.460449,-1.468872c0,-0.086182 -0.28064,-2.168823 -0.324524,-2.304436c-0.035828,-0.109741 -0.575504,-1.579231 -0.633793,-1.717171c-0.058838,-0.13855 -0.453003,-0.698608 -0.653992,-0.832764c-0.14032,-0.094719 -0.313416,-0.07373 -0.403687,-0.052734c-0.11145,0.025879 -0.250488,0.087532 -0.307007,0.182983c-0.021912,0.036385 -0.087952,0.146729 0.131592,0.874512c0.001038,0.015381 0.093384,1.53833 0.093384,1.75647c0,0.158211 0.053406,0.937866 0.092102,1.506966c0.016785,0.245972 0.029907,0.437004 0.032471,0.487053c0.007751,0.16053 0.104736,1.333015 0.109924,1.390991c0.000793,0.005005 0.076843,0.492805 0.084839,0.723022c0.001038,0.040894 -0.000488,0.069946 -0.002808,0.089844c-0.038696,-0.010132 -0.095215,-0.027344 -0.163818,-0.053093c-0.092896,-0.036995 -0.441101,-0.483284 -0.677673,-0.86927c-0.14679,-0.239014 -0.552307,-1.565666 -0.692383,-2.039185c-0.045105,-0.351074 -0.163818,-1.285156 -0.169983,-1.386963c-0.001526,-0.027458 -0.00592,-0.071289 -0.011353,-0.125732c-0.018799,-0.190666 -0.053894,-0.545769 -0.014709,-0.7257l0.041565,-0.194344c0.066772,-0.315796 0.190613,-0.903198 0.256653,-1.070183c0.099304,-0.252563 0.123291,-1.602905 0.116882,-1.816902c-0.003357,-0.109741 0.015991,-0.394405 0.03479,-0.669796c0.03302,-0.485718 0.05188,-0.788208 0.033264,-0.894531l-0.011597,-0.069336c-0.036621,-0.220703 -0.091553,-0.554565 -0.265442,-0.707397c-0.060364,-0.053467 -0.132324,-0.07312 -0.202271,-0.055054c-0.117615,0.030396 -0.222046,0.166382 -0.310791,0.403809c-0.039734,0.105835 -0.252808,0.884644 -0.271118,1.019897c-0.008301,0.067871 -0.149658,0.497681 -0.284302,0.883175c-0.002808,0.011353 -0.296143,1.130737 -0.36499,1.358276c-0.022461,0.074951 -0.056519,0.203369 -0.095703,0.35144c-0.078979,0.298714 -0.187073,0.707642 -0.258484,0.880623c-0.068115,0.166374 -0.143188,0.612785 -0.215698,1.043938c-0.047424,0.281746 -0.092102,0.547485 -0.122009,0.650391c-0.055176,0.186646 -0.076599,0.49073 -0.094421,0.768318c-0.044067,-0.10511 -0.088196,-0.213745 -0.088684,-0.213745c-0.01062,-0.038582 -0.218811,-0.797737 -0.265503,-0.942146c-0.057007,-0.172966 -0.189819,-0.702271 -0.196777,-1.873413c-0.006714,-1.013298 0.103394,-1.320068 0.200928,-1.590454c0.020386,-0.056396 0.039978,-0.111328 0.058594,-0.170647c0.048706,-0.158203 0.110352,-0.404297 0.175903,-0.665409c0.078918,-0.315796 0.160706,-0.642212 0.21051,-0.769775c0.086121,-0.222168 0.675842,-1.477417 0.744446,-1.623047c0.086426,-0.100464 0.667114,-0.776001 0.742188,-0.875977c0.080994,-0.108154 0.860535,-1.256958 1.040588,-1.55603c0.187317,-0.310547 0.534546,-1.28186 0.641602,-1.628418c0.090759,-0.294556 0.623474,-1.160034 0.90979,-1.625244l0.11377,-0.184814c0.069946,-0.11499 0.141907,-0.261719 0.079224,-0.380859c-0.068359,-0.129761 -0.238098,-0.13269 -0.434692,-0.136108c-0.057251,-0.000732 -0.118408,-0.001831 -0.180847,-0.005859c-0.26001,-0.012695 -0.643311,0.262329 -1.138367,0.829102l-0.018799,0.02124c-0.028381,0.029785 -0.119995,0.188232 -0.754578,1.304443l-0.451416,0.793457c-0.512329,0.900024 -0.77832,0.946289 -0.920959,0.971069c-0.035583,0.006104 -0.067078,0.012207 -0.095154,0.022339c-0.067627,0.026855 -0.359619,-0.18103 -0.431091,-0.382324c-0.038391,-0.106567 0.049011,-0.4375 0.096008,-0.615601c0.045898,-0.174438 0.065979,-0.25415 0.057495,-0.301147c0.002319,-0.029785 0.047974,-0.128662 0.080994,-0.20105c0.06604,-0.143433 0.141113,-0.305908 0.159668,-0.451538c0.001587,-0.012207 0.158386,-1.244629 0.028137,-1.705566c-0.049011,-0.171753 -0.158142,-0.212036 -0.218506,-0.220825c-0.25592,-0.040771 -0.57782,0.339111 -0.6604,0.4729c-0.065247,0.10498 -0.155762,0.321533 -0.270569,0.595703c-0.086975,0.207886 -0.183655,0.439087 -0.280396,0.645874c-0.158936,0.338135 -0.325562,0.944702 -0.447327,1.387329c-0.048523,0.175659 -0.088989,0.324097 -0.118164,0.413574c-0.105469,0.325439 -0.185974,1.486206 -0.168701,1.665894c0.005432,0.055298 0.029419,0.143555 0.07428,0.307617c0.083862,0.305908 0.210754,0.768677 0.190369,1.051025c-0.030396,0.416504 -0.396484,1.679443 -0.400818,1.694946c-0.096741,0.364868 -0.287903,0.986942 -0.388,1.100948c-0.007996,0.009277 -0.013916,0.01416 -0.015198,0.016479c-0.034058,-0.018311 -0.094421,-0.125244 -0.121033,-0.171753c-0.018799,-0.032959 -0.036621,-0.063965 -0.053101,-0.089233c-0.279419,-0.418209 -0.334595,-0.536495 -0.344666,-0.565426c-0.010803,-0.04126 -0.017273,-0.250122 -0.022705,-0.434937c-0.010803,-0.369141 -0.02478,-0.828491 -0.083313,-1.09436c-0.095154,-0.43457 -0.499146,-1.516724 -0.560791,-1.644043c-0.014954,-0.030884 -0.039001,-0.087524 -0.069153,-0.157349c-0.099548,-0.232666 -0.250244,-0.58374 -0.365784,-0.723389c-0.174377,-0.209473 -0.506653,-0.271118 -0.696777,-0.129639c-0.0495,0.036865 -0.200439,0.148804 -0.200439,0.859619c0,0.096802 0.019592,0.370239 0.042603,0.68689c0.029663,0.408081 0.063171,0.87085 0.059021,1.025269c-0.005371,0.183472 0.008789,0.699097 0.019897,1.113281c0.00592,0.218506 0.010803,0.398682 0.010803,0.460693c0,0.183594 0.087463,1.126705 0.141357,1.476315c0.0578,0.373413 0.275024,0.916267 0.39856,1.170906c0.098816,0.203125 0.598999,0.644897 1.102844,1.08007c0.098511,0.085083 0.175903,0.151741 0.213074,0.186646c0.081726,0.076538 0.095154,0.334351 0.105469,0.541748c0.006714,0.127571 0.012939,0.248535 0.031982,0.35083c0.037964,0.200928 0.221619,0.586182 0.383606,0.925537c0.078918,0.165405 0.153259,0.321655 0.181885,0.399055l0.026794,0.073112c0.125366,0.343391 0.458191,1.255737 0.640564,1.607674c0.207886,0.402946 0.822083,1.021233 1.183777,1.338371c0.198914,0.174438 0.437744,0.34021 0.648499,0.486214c0.175415,0.121452 0.340759,0.23632 0.42981,0.321167c0.08252,0.078125 0.230103,0.24157 0.400574,0.430779c0.242004,0.268311 0.516479,0.572388 0.735474,0.779182c0.262878,0.248528 0.803833,0.446533 1.564514,0.572876c0.239441,0.039795 1.803715,0.511108 1.973209,0.605713l0.141602,0.079224c0.666565,0.373047 1.452087,0.809937 1.610229,0.879143c0.225464,0.09803 1.470642,0.320076 1.582092,0.336555c0.128967,0.019043 0.372192,0.192871 0.490906,0.350586c0.134399,0.179688 1.216003,1.22644 1.368713,1.337883l0.076599,0.053963c0.687744,0.482903 0.815979,0.642693 0.831177,0.694824c0.01062,0.038574 -0.007996,0.082642 -0.025757,0.112427c-0.060669,0.104492 -0.189392,0.19165 -0.239929,0.204956c-0.063965,-0.015381 -0.219299,-0.237915 -0.277588,-0.321655c-0.040466,-0.057983 -0.075073,-0.106567 -0.098511,-0.132935c-0.078979,-0.088745 -0.783691,-0.772949 -1.051758,-0.906982c-0.095703,-0.047485 -0.278809,-0.152596 -0.485229,-0.271118c-0.31958,-0.182861 -0.682007,-0.390747 -0.886841,-0.483765c-0.310364,-0.141479 -1.21991,-0.530029 -1.527161,-0.607666c-0.21051,-0.052612 -0.504822,-0.096802 -0.816467,-0.143311c-0.125061,-0.018799 -0.253845,-0.038208 -0.382813,-0.058716c-0.430237,-0.069092 -1.002686,-0.131111 -1.313786,-0.11377c-0.22467,0.012199 -0.621155,0.123047 -0.798645,0.330688c-0.080994,0.095085 -0.09314,0.185783 -0.088745,0.245361c0.027832,0.389404 0.084106,0.520752 0.168701,0.719604c0.084595,0.198242 0.200439,0.469971 0.354431,1.187622c0.306458,1.434326 1.278996,2.471313 1.314091,2.508057c0.347717,0.433228 1.420593,1.272217 1.779907,1.484619c0.379517,0.224854 1.872559,0.82959 2.034302,0.863403c0.142395,0.029175 0.437256,0.046753 0.507202,0.050171l1.309937,0.441528c0.009766,0.242676 0.037109,1.004028 0.011841,1.42907c-0.029175,0.49305 -0.132324,1.393929 -0.270325,1.853027c-0.132629,0.439705 -0.393127,1.687996 -0.536865,2.392586c-0.124817,0.611938 -0.742126,3.204224 -0.813599,3.467651c-0.081238,0.299316 -0.475708,2.094727 -0.552551,2.534912c-0.07428,0.426147 0.412476,0.709717 0.629944,0.774292l-0.035339,-0.262817c-0.004395,-0.001343 -0.441345,-0.134521 -0.382568,-0.471924c0.073792,-0.422363 0.470032,-2.227058 0.548157,-2.514893c0.071716,-0.264526 0.69165,-2.867065 0.816711,-3.481697c0.142944,-0.70092 0.401917,-1.941032 0.531921,-2.372437c0.143433,-0.476677 0.25,-1.400871 0.279663,-1.905144c0.030945,-0.519409 -0.013184,-1.488281 -0.014954,-1.529305l-0.003357,-0.076294l-1.464966,-0.493645l-0.028137,-0.005493c-0.003601,-0.000252 -0.34668,-0.017578 -0.489868,-0.047607c-0.136719,-0.028198 -1.619263,-0.630493 -1.969543,-0.837891c-0.339233,-0.200684 -1.39325,-1.024658 -1.727051,-1.440437c-0.009827,-0.010124 -0.971012,-1.03698 -1.263798,-2.407585c-0.158386,-0.739258 -0.279114,-1.022583 -0.36731,-1.229134c-0.078674,-0.183952 -0.12616,-0.295288 -0.151184,-0.646965c-0.001831,-0.024544 0.010315,-0.052132 0.035828,-0.082397c0.113037,-0.132202 0.435486,-0.244019 0.648315,-0.255493c0.25275,-0.014038 0.773624,0.03186 1.269169,0.111076c0.129517,0.02076 0.259216,0.040169 0.385132,0.05909c0.306458,0.045898 0.595642,0.089233 0.795776,0.139275c0.27063,0.068489 1.127319,0.428955 1.491333,0.5951c0.196045,0.089111 0.553833,0.29406 0.869568,0.474731c0.210999,0.120972 0.398315,0.228142 0.495789,0.277092c0.22113,0.109993 0.899292,0.758545 0.987,0.856941c0.019836,0.022339 0.048218,0.063843 0.082275,0.112663c0.177734,0.254402 0.325806,0.44532 0.487549,0.409424c0.119202,-0.027336 0.297729,-0.149651 0.389771,-0.308342c0.056274,-0.096436 0.072754,-0.195686 0.047974,-0.286255c-0.041992,-0.154793 -0.299194,-0.384163 -0.917053,-0.818237l-0.07373,-0.052124c-0.131592,-0.095467 -1.201904,-1.131104 -1.322571,-1.29187c-0.139343,-0.185547 -0.425903,-0.404297 -0.630493,-0.434814c-0.180054,-0.026611 -1.347107,-0.241943 -1.528931,-0.321411c-0.168457,-0.07312 -1.202148,-0.651855 -1.591125,-0.869507l-0.142151,-0.079468c-0.206604,-0.115356 -1.802921,-0.59021 -2.041019,-0.629524c-0.956482,-0.159424 -1.321289,-0.39257 -1.453613,-0.517578c-0.212585,-0.200684 -0.483948,-0.501343 -0.723328,-0.766602c-0.173889,-0.192749 -0.323975,-0.359131 -0.412476,-0.442871c-0.100891,-0.096184 -0.265198,-0.210205 -0.455566,-0.342033c-0.206116,-0.142822 -0.439819,-0.304688 -0.62915,-0.471077c-0.336121,-0.294548 -0.940796,-0.901123 -1.133545,-1.27404c-0.175659,-0.338997 -0.516663,-1.274048 -0.628906,-1.581177l-0.026794,-0.073616c-0.032227,-0.087151 -0.10553,-0.240227 -0.18988,-0.417839c-0.140564,-0.294807 -0.333008,-0.698616 -0.365295,-0.870247c-0.016479,-0.087524 -0.022156,-0.200676 -0.02832,-0.320305c-0.014221,-0.27356 -0.028687,-0.556404 -0.175964,-0.694344c-0.038452,-0.035881 -0.117859,-0.104485 -0.219543,-0.192505c-0.311829,-0.269531 -0.961426,-0.830444 -1.04834,-1.009521c-0.126648,-0.26062 -0.327637,-0.775993 -0.378418,-1.106445c-0.056763,-0.366211 -0.138794,-1.279293 -0.138794,-1.441525c0,-0.062988 -0.004883,-0.245605 -0.010864,-0.467041c-0.010559,-0.389648 -0.024963,-0.923462 -0.019836,-1.100952c0.004395,-0.165894 -0.029419,-0.634888 -0.059326,-1.048218c-0.021667,-0.299072 -0.042297,-0.581543 -0.042297,-0.670044c0,-0.472412 0.072754,-0.651001 0.111145,-0.67981c0.089783,-0.066406 0.2995,-0.035522 0.407593,0.094116c0.094971,0.114624 0.249207,0.474731 0.332275,0.668579c0.031982,0.074219 0.057495,0.134277 0.073486,0.166992c0.058594,0.120117 0.453552,1.18335 0.543579,1.593506c0.053894,0.245361 0.06781,0.711914 0.078125,1.052368c0.009827,0.325439 0.014954,0.444214 0.034607,0.500366c0.011047,0.032593 0.045349,0.13147 0.370667,0.618771c0.014221,0.020996 0.02887,0.047607 0.044861,0.075447c0.067322,0.118889 0.151428,0.266968 0.285828,0.281609c0.048279,0.005249 0.122009,-0.005615 0.195313,-0.088867c0.164307,-0.186523 0.392334,-1.025509 0.435425,-1.189205c0.015503,-0.052979 0.376648,-1.298828 0.408875,-1.739258c0.022949,-0.321411 -0.109863,-0.806763 -0.197876,-1.128174c-0.032471,-0.118774 -0.063171,-0.230957 -0.067078,-0.269531c-0.014648,-0.1521 0.063477,-1.279663 0.158691,-1.57312c0.029663,-0.092041 0.071411,-0.243286 0.120972,-0.423462c0.119446,-0.434937 0.283264,-1.030396 0.433899,-1.35144c0.098267,-0.209473 0.196289,-0.443726 0.284546,-0.654419c0.101868,-0.243774 0.198364,-0.473999 0.254333,-0.564087c0.09314,-0.151001 0.34491,-0.3927 0.448853,-0.372681c0.020386,0.003174 0.034058,0.036377 0.042053,0.063477c0.091309,0.323853 0.015747,1.226807 -0.035095,1.61377c-0.01416,0.11145 -0.084351,0.263428 -0.140808,0.385742c-0.074097,0.160889 -0.112244,0.248535 -0.100403,0.31604c-0.000244,0.028442 -0.02887,0.136353 -0.051575,0.223022c-0.083313,0.31604 -0.147827,0.591187 -0.090027,0.750732c0.088989,0.25061 0.471558,0.599731 0.704224,0.515137c0.017578,-0.006348 0.037415,-0.009277 0.059631,-0.013306c0.189819,-0.032959 0.507629,-0.088257 1.070801,-1.077393l0.45166,-0.793945c0.371216,-0.653198 0.691895,-1.217163 0.720764,-1.259155l0.026855,-0.029785c0.627625,-0.718872 0.8974,-0.761108 0.964783,-0.755981c0.065735,0.00415 0.130249,0.005249 0.190613,0.006104c0.089783,0.001587 0.225464,0.003662 0.246887,0.014038c0,0.001587 0.004089,0.040161 -0.070435,0.162964l-0.112976,0.183716c-0.31189,0.506592 -0.83429,1.354858 -0.93335,1.677002c-0.119934,0.388672 -0.454529,1.30542 -0.619324,1.578491c-0.176453,0.293457 -0.958618,1.444702 -1.028015,1.537231c-0.059814,0.079956 -0.512024,0.60791 -0.742676,0.875854l-0.016235,0.025269c-0.0271,0.057373 -0.663513,1.409424 -0.757385,1.651245c-0.054932,0.140869 -0.134644,0.459595 -0.219299,0.797241c-0.061646,0.246338 -0.125366,0.501095 -0.172302,0.652828c-0.017273,0.05603 -0.036133,0.10791 -0.055176,0.161133c-0.10376,0.28833 -0.221069,0.615364 -0.214417,1.669075c0.007263,1.203369 0.148071,1.759644 0.207947,1.942627c0.045166,0.139275 0.260254,0.924438 0.266724,0.944702c0,0 0.094666,0.235718 0.149902,0.357544c0.013916,0.03051 0.030945,0.107048 0.043335,0.162956c0.031189,0.138672 0.054688,0.241089 0.15863,0.232544c0.106018,-0.006592 0.117615,-0.12207 0.126892,-0.214844c0.009583,-0.094849 0.016785,-0.211792 0.024536,-0.335449c0.017517,-0.277954 0.037415,-0.59301 0.088745,-0.766602c0.033813,-0.116455 0.077637,-0.376099 0.128174,-0.67675c0.064026,-0.379883 0.143433,-0.852539 0.201721,-0.995239c0.077148,-0.186653 0.182922,-0.587166 0.268066,-0.908813c0.038452,-0.145149 0.071472,-0.27063 0.093628,-0.344002c0.069885,-0.231567 0.35498,-1.320313 0.364258,-1.357544c0.046143,-0.131836 0.277588,-0.795895 0.292786,-0.920773c0.013916,-0.104248 0.220581,-0.86792 0.258484,-0.969238c0.071411,-0.19165 0.135437,-0.267944 0.172058,-0.259888c0.114502,0.100952 0.165588,0.410156 0.193176,0.576294l0.012146,0.071777c0.014954,0.08606 -0.014709,0.521484 -0.036377,0.839111c-0.019836,0.293457 -0.038696,0.571041 -0.035339,0.692257c0.009033,0.306152 -0.028381,1.541504 -0.101379,1.726692c-0.066833,0.170403 -0.168701,0.639893 -0.267273,1.106682l-0.040955,0.192749c-0.047485,0.215576 -0.011353,0.57972 0.010315,0.797127c0.004883,0.050285 0.008972,0.090942 0.010559,0.116447c0.007996,0.130737 0.1651,1.350838 0.175415,1.420288c0.021423,0.073128 0.527771,1.797729 0.720215,2.11084c0.005432,0.008553 0.543823,0.86792 0.785217,0.958618c0.150452,0.057381 0.252319,0.077271 0.247681,0.074341c0.041016,0.012817 0.087219,0.00293 0.123535,-0.025993c0.062439,-0.049202 0.089294,-0.144287 0.0849,-0.300667c-0.00824,-0.244507 -0.084351,-0.730469 -0.086426,-0.74292c-0.001038,-0.012207 -0.100586,-1.218262 -0.108337,-1.375122c-0.002319,-0.050285 -0.015747,-0.243279 -0.032532,-0.491455c-0.036621,-0.53405 -0.091797,-1.341057 -0.091797,-1.491333c0,-0.22509 -0.089783,-1.707642 -0.098022,-1.796143c-0.087463,-0.293457 -0.169739,-0.657593 -0.158691,-0.718506c0.033325,-0.051025 0.280457,-0.148796 0.409912,-0.060913c0.157654,0.105354 0.527283,0.625496 0.574219,0.735847c0.057312,0.136101 0.591557,1.590698 0.626896,1.69812c0.038147,0.133415 0.307983,2.128654 0.31366,2.234734c0,0.12146 0.431335,1.4729 0.487793,1.577881l0.05835,0.108398c0.301025,0.566284 0.667847,1.237183 0.831116,1.406006c0.206909,0.21241 0.774658,0.685547 0.888184,0.748291c0.023193,0.012939 0.055237,0.033936 0.091858,0.057617c0.203796,0.13208 0.345154,0.2146 0.451416,0.160889c0.125366,-0.06543 0.139526,-0.261108 0.155823,-0.487541l0.003845,-0.05188c0.015991,-0.20118 -0.109131,-3.220955 -0.125366,-3.580322c-0.314209,-1.746948 -0.328125,-1.775887 -0.333801,-1.786873c-0.015503,-0.044678 -0.051575,-0.274536 -0.01416,-0.373657c0.05957,-0.158684 0.116333,-0.196159 0.138245,-0.204948c0.012634,-0.005135 0.034302,-0.009651 0.072205,0.008789c0.180054,0.088989 0.477783,0.397339 0.50769,0.463745c0.012634,0.03112 0.069153,0.15258 0.14447,0.314568c0.160156,0.343628 0.402161,0.863037 0.485229,1.078857c0.117126,0.30127 0.382568,1.567627 0.453247,1.951424c0.025757,0.140137 0.038147,0.330688 0.050049,0.515137c0.017029,0.260254 0.032776,0.506714 0.085083,0.670158c0.087463,0.266846 0.555664,1.29187 0.641602,1.434082c0.081482,0.134521 0.743164,1.081673 0.828308,1.178108c0.103943,0.117798 0.773132,0.437859 0.917053,0.487793c0.167175,0.057495 0.472351,0.125237 0.659119,0.134033c0.163025,0.005249 0.263611,-0.080574 0.321167,-0.133179c0.014954,-0.014168 0.030396,-0.027954 0.03894,-0.033203l0.030396,-0.017822c0.069946,-0.041992 0.215149,-0.12928 0.322754,-0.113281c0.044067,0.006348 0.101624,0.009277 0.165344,0.012207c0.155823,0.006958 0.368896,0.016724 0.46228,0.104248c0.174377,0.162956 0.409912,0.237427 0.555115,0.237427c0.054443,0 0.171326,-0.018433 0.357788,-0.04895c0.144958,-0.023682 0.36377,-0.058235 0.411743,-0.05555c0.109863,0.007935 1.534119,0.008179 1.683716,0.007454c0.21228,0.024414 1.277954,0.143791 1.424194,0.128052c0.068359,-0.00769 0.260315,-0.052124 0.482117,-0.103882c0.245605,-0.057129 0.551575,-0.128174 0.643921,-0.136604c0.242981,-0.022087 0.839417,-0.028191 0.928162,0.015144c0.015442,0.010376 0.384338,0.24987 0.615479,0.144287c0.133362,-0.061157 0.662476,-0.348274 0.936943,-0.557129c0.293282,-0.221191 0.703987,-1.013916 0.820564,-1.278084c0.124878,-0.282104 0.554382,-1.586426 0.683342,-2.102661c0.124817,-0.498894 0.48468,-2.393181 0.508179,-2.569702c0.018074,-0.137932 0.243538,-0.885979 0.679756,-1.478996c0.346428,-0.471809 0.660088,-0.759407 0.762024,-0.847664c0.005127,0.016968 0.010803,0.054199 0.00177,0.125977c-0.018066,0.147827 -0.111694,0.504272 -0.19397,0.818733c-0.109131,0.418083 -0.175911,0.679924 -0.180054,0.785271c-0.002563,0.065918 -0.01886,0.254883 -0.038208,0.480835c-0.085632,1.008179 -0.085091,1.117195 -0.065254,1.161865c0.008545,0.039917 0.014229,0.236572 -0.043823,1.103638c-0.024529,0.345955 -0.078178,1.023438 -0.099358,1.141487c-0.00177,0.008537 -0.130005,0.853264 0.017021,0.967033c0.086182,0.067871 0.180611,0.042847 0.323799,0.005615c0.046387,-0.012207 0.101624,-0.026611 0.168152,-0.041252c0.269836,-0.060799 1.56897,-0.770264 1.712097,-0.963264c0.147339,-0.199707 0.641602,-1.618042 0.756348,-2.007195c0.108093,-0.366341 0.398315,-1.804443 0.537895,-2.495613c0.03376,-0.167969 0.059334,-0.293457 0.071175,-0.351067c0.062675,-0.298218 0.301819,-1.117554 0.370422,-1.244385c0.053894,-0.100471 0.456604,-0.645882 0.706841,-0.979744c0.03376,-0.036743 0.07917,-0.072876 0.109383,-0.089355c0.035095,0.18689 0.061646,1.309204 0.072449,1.971924c-0.005371,0.028687 -0.133118,0.713135 -0.141602,1.229858c-0.007446,0.501953 -0.129761,1.627693 -0.128975,1.627693c-0.023735,0.101555 -0.229607,1.001579 -0.213615,1.267448c0.006714,0.10498 -0.016235,0.191658 -0.033508,0.255127c-0.018555,0.069099 -0.037659,0.140381 0.010071,0.200439c0.019348,0.025032 0.056763,0.052612 0.124573,0.049194c0.135681,-0.011963 0.466919,-0.19799 0.578857,-0.2882c0.113274,-0.092163 0.869385,-0.92981 1.043999,-1.358894c0.167671,-0.411743 0.36451,-1.456413 0.395699,-1.677849c0.035637,-0.244026 -0.205818,-2.259407 -0.256653,-2.538216c-0.03199,-0.174683 -0.130554,-0.548706 -0.209473,-0.849609c-0.045418,-0.171997 -0.096497,-0.367424 -0.100594,-0.38842c0,-0.010628 -0.011101,-0.085571 -0.029655,-0.200935c-0.056282,-0.34021 -0.226257,-1.375851 -0.175171,-1.610836c0.024231,-0.11084 0.050049,-0.280396 0.077881,-0.459839c0.038208,-0.24939 0.102417,-0.666138 0.145508,-0.731812c0.064758,-0.072632 0.219536,-0.161133 0.272644,-0.144165c0.005981,0.001953 0.012939,0.020752 0.015991,0.044678c0.041008,0.304932 0.508972,1.655273 0.577087,1.803349c0.03894,0.085564 0.247375,0.685539 0.618591,1.782829l0.037903,0.113281c0.059074,0.179207 0.333862,1.12574 0.336662,1.125488c0.00312,0.052124 0.070686,1.24353 0.110413,1.471558c0.035835,0.207642 0.122017,0.540405 0.139526,0.607185c0.004646,0.052124 0.029671,0.110832 0.089058,0.136345c0.097473,0.040901 0.182373,-0.046745 0.210205,-0.075195c0.090027,-0.092285 0.255119,-0.546875 0.548706,-1.408325c0.048767,-0.144402 0.087151,-0.256836 0.105225,-0.305779c0.085686,-0.228523 0.232422,-1.722176 0.224976,-1.911751c-0.004639,-0.118774 -0.141663,-0.560547 -0.366577,-1.274048c-0.126648,-0.401974 -0.246651,-0.781002 -0.297668,-0.978756c-0.108643,-0.418945 -0.503548,-1.550781 -0.744759,-1.749634l-0.275513,-0.225464c-0.303337,-0.247437 -0.761528,-0.621216 -0.967407,-0.79895c-0.25872,-0.223022 -0.742363,-1.290894 -0.794731,-1.677979c-0.062195,-0.456055 -0.541748,-1.640015 -0.786804,-2.202271c-0.135681,-0.312622 -0.312134,-0.605469 -0.467415,-0.864136c-0.144218,-0.239502 -0.323479,-0.537842 -0.303886,-0.618896l0.01416,-0.060303c0.06012,-0.263184 0.098572,-0.310425 0.220825,-0.290039c0.306458,0.053711 0.827576,0.212646 1.028015,0.397949c0.162231,0.151001 0.490356,0.757568 0.666809,1.083252c0.064758,0.119873 0.116631,0.215332 0.145508,0.263428c0.115295,0.190063 0.539368,1.034546 0.605156,1.215332c0.016541,0.044678 0.036385,0.119263 0.060127,0.207886c0.110657,0.41272 0.217216,0.763428 0.398315,0.874023c0.042297,0.026001 0.083313,0.054443 0.124084,0.082886c0.169182,0.116699 0.36084,0.249878 0.564941,0.135864c0.283752,-0.157959 0.302856,-0.621826 0.297913,-0.813965c-0.004883,-0.188965 -0.143677,-0.655518 -0.324768,-1.24585c-0.072754,-0.237915 -0.141602,-0.462524 -0.151672,-0.524536c-0.031982,-0.201416 -0.162292,-1.268433 -0.169739,-1.461792c-0.006958,-0.186035 0.142883,-0.8125 0.209473,-0.923096c0.095154,-0.157104 0.206848,-0.28125 0.244812,-0.293823c0.036865,-0.006348 0.078369,-0.008179 0.112976,-0.008423c0.124809,0.344971 0.623474,1.7323 0.730042,2.185791c0.101624,0.430908 0.302544,0.839966 0.449646,1.139038c0.038391,0.078125 0.073723,0.149658 0.102348,0.212646c0.137764,0.301758 0.238106,0.74646 0.238106,0.898804c0,0.10022 0.026855,0.414673 0.052673,0.718506c0.020081,0.235229 0.041016,0.478149 0.041016,0.532471c0,0.047852 -0.023499,0.307251 -0.046211,0.557861c-0.036858,0.409668 -0.078423,0.874023 -0.078423,1.029297c0,0.05127 -0.002571,0.124878 -0.005432,0.212158c-0.013123,0.369751 -0.032227,0.928467 0.076355,1.193237c0.119995,0.293945 0.381836,1.337646 0.384636,1.348022l0.010323,0.027588c0.02478,0.044189 0.247681,0.431393 0.521118,0.385128c0.192688,-0.033203 0.326042,-0.262569 0.407585,-0.701412c0.124031,-0.669922 0.189827,-1.198853 0.24762,-1.665649c0.045662,-0.366089 0.084602,-0.681885 0.142403,-0.98645c0.133362,-0.699951 0.270081,-1.203613 0.385376,-1.418701c0.032288,-0.060059 0.066284,-0.128906 0.101135,-0.198853c0.065247,-0.13208 0.174927,-0.352783 0.212585,-0.382202c0.057739,-0.02002 0.236267,-0.040405 0.337891,0.025513c0.043091,0.028198 0.066833,0.06958 0.073792,0.130249c0.037895,0.33252 -0.018066,1.533203 -0.04615,1.70813c-0.03228,0.200928 -0.087463,1.612183 -0.079704,2.041016c0.005676,0.317871 -0.047241,0.829102 -0.075378,1.103882c-0.009277,0.088257 -0.015991,0.153927 -0.017761,0.185055c-0.006958,0.111328 -0.245064,0.944954 -0.463562,1.284424c-0.230347,0.354622 -0.799446,1.157967 -0.897217,1.281738c-0.119446,0.151611 -0.170776,0.325684 -0.27655,0.747559c-0.113708,0.450325 -0.426636,1.31604 -0.490112,1.406982c-0.044617,0.065674 -0.08075,0.185791 -0.125862,0.338379c-0.049004,0.164307 -0.104485,0.350586 -0.175957,0.481079c-0.083557,0.153687 -0.098824,0.290649 -0.113777,0.422981c-0.012627,0.111938 -0.024773,0.217644 -0.07708,0.339958c-0.113289,0.262337 -0.609314,0.946663 -0.897705,1.157104c-0.112244,0.082153 -0.203796,0.130257 -0.292542,0.177132c-0.134163,0.070679 -0.260559,0.137321 -0.395447,0.2976c-0.05835,0.069702 -0.162292,0.186646 -0.281738,0.321663c-0.392639,0.442375 -0.697517,0.790886 -0.760742,0.919792c-0.043823,0.091194 -0.328918,0.305176 -0.5177,0.446777c-0.126656,0.095222 -0.246651,0.185555 -0.326599,0.256355c-0.221313,0.196404 -0.809761,0.515129 -1.117493,0.628654c-0.169739,0.062141 -0.498108,0.217651 -0.81543,0.367805c-0.284546,0.134766 -0.578369,0.27356 -0.654968,0.295044c-0.029419,0.008545 -0.074829,0.017082 -0.129517,0.027954c-0.282715,0.056145 -0.755798,0.149895 -0.970711,0.445557c-0.13208,0.181274 -0.270073,0.17627 -0.429985,0.170647c-0.071724,-0.002197 -0.145508,-0.005127 -0.216431,0.012215c-0.040779,0.010132 -0.093933,0.020264 -0.155823,0.032227c-0.238899,0.044922 -0.599007,0.113396 -0.90625,0.292114c-0.152954,0.088501 -0.245544,0.131592 -0.33149,0.171379c-0.122002,0.056892 -0.237541,0.110359 -0.483391,0.272713c-0.358337,0.237427 -1.46759,0.978027 -1.848816,1.262207c-0.080505,0.059814 -0.177498,0.120117 -0.281189,0.185783c-0.384651,0.241333 -0.863411,0.542 -1.026184,1.072884l-0.05909,0.190544c-0.104736,0.337288 -0.108826,0.350349 -0.099792,0.470222c0.002014,0.022575 0.004097,0.050537 0.005379,0.090088c0.011658,0.334717 0.062439,0.461548 0.105766,0.523193c0.018074,0.045654 0.05677,0.095215 0.118904,0.115112c0.130058,0.040405 0.257202,-0.079712 0.298767,-0.119629c0.229065,-0.21875 0.601013,-0.80542 0.666077,-0.924805c0.057243,-0.104736 0.537285,-0.669312 0.800415,-0.89978c0.047241,-0.04126 0.099854,-0.095947 0.161743,-0.16053c0.27478,-0.287346 0.734985,-0.768547 1.764465,-1.051636l0.458679,-0.126823c0.800232,-0.222168 0.800232,-0.222168 1.248535,-0.222168l0.271362,-0.000854c0.432129,-0.002319 0.841248,-0.004272 1.075989,0.046875c0.0578,0.012451 0.118156,0.022217 0.178215,0.032097c0.278389,0.045418 0.40992,0.081673 0.413582,0.214729c0.005371,0.221802 -0.082825,0.534668 -0.147583,0.762695c-0.016541,0.058716 -0.031738,0.112671 -0.044128,0.160034c-0.071716,0.276733 -0.358826,1.276482 -0.470276,1.470818c-0.076851,0.13343 -0.426636,0.669067 -0.682007,1.059814c-0.155579,0.238167 -0.281738,0.430916 -0.304932,0.469978c-0.0578,0.093018 -0.901314,1.021477 -1.112373,1.198235c-0.052605,0.044441 -0.133598,0.11512 -0.229546,0.19886c-0.281677,0.246704 -0.707092,0.618896 -0.910095,0.746948c-0.269348,0.169678 -1.308174,0.58374 -1.601692,0.651855c-0.184196,0.042473 -0.645439,0.141357 -0.948784,0.141357c-0.314766,0 -0.813118,-0.157112 -0.84613,-0.266113c-0.046936,-0.157112 -0.049805,-0.236816 -0.050293,-0.251465l0.000488,-0.007935l-0.214905,-0.014893c0,0.00293 -0.000488,0.007202 -0.000488,0.013794l-0.061157,1.498779l0.214417,0.016724l0.020081,-0.18396c0.107056,0.078979 0.197083,0.166626 0.201233,0.213989c0.015991,0.185059 0.020386,0.682129 -0.021919,0.907227l-0.016296,0.084221c-0.051086,0.260498 -0.120964,0.618294 -0.052055,0.886848c0.061394,0.239502 0.25177,0.692993 0.353638,0.936768l0.039978,0.095459c0.139038,0.340698 0.225464,0.680908 0.25695,1.010857c0.017281,0.181038 0.040771,0.35511 0.062447,0.515999c0.036377,0.26757 0.067322,0.498657 0.053894,0.648315c-0.006714,0.074463 -0.036621,0.154655 -0.068123,0.239502c-0.063713,0.173576 -0.143669,0.389893 -0.040215,0.639763c0.101868,0.246712 0.21563,0.382088 0.307251,0.490974c0.03167,0.038078 0.060844,0.072021 0.085075,0.107666c0.080269,0.116455 0.395447,0.932243 0.449898,1.163567c0.014709,0.062134 0.046928,0.193977 0.088013,0.36097c0.108276,0.441284 0.290161,1.179688 0.346436,1.471069c0.091797,0.46936 0.184937,1.047607 0.184937,1.244507c0,0.367058 -0.038155,0.550781 -0.048767,0.574219c-0.09491,0.049194 -0.410645,0.23632 -0.410645,0.23632l0.222351,0.132942c0,0 0.191887,-0.123169 0.284782,-0.170776c0.054451,-0.028442 0.167427,-0.087402 0.167427,-0.772705c0,-0.254395 -0.123596,-0.954224 -0.188599,-1.288086c-0.057739,-0.296753 -0.232674,-1.009888 -0.348999,-1.481697c-0.040771,-0.16613 -0.073006,-0.296753 -0.087708,-0.358879c-0.057556,-0.243774 -0.380005,-1.089844 -0.483154,-1.240112c-0.028137,-0.040894 -0.061653,-0.081055 -0.098572,-0.124641c-0.085876,-0.102287 -0.183411,-0.217644 -0.271912,-0.432487c-0.069336,-0.167969 -0.016724,-0.309692 0.043884,-0.474243c0.035088,-0.094849 0.071167,-0.193245 0.08075,-0.297485c0.015991,-0.175415 -0.017029,-0.418335 -0.055237,-0.699585c-0.021126,-0.158447 -0.044312,-0.32959 -0.06134,-0.507446c-0.033569,-0.351685 -0.125122,-0.713753 -0.272705,-1.075195l-0.040779,-0.09729c-0.092583,-0.221436 -0.285828,-0.682129 -0.343071,-0.905396c-0.056221,-0.21875 0.00824,-0.547119 0.054932,-0.786621l0.016541,-0.085815c0.048462,-0.258423 0.042053,-0.776001 0.025269,-0.969238c-0.017525,-0.196907 -0.290466,-0.38282 -0.417358,-0.459351l0.023743,-0.570435c0.255859,0.186157 0.769226,0.255005 0.918083,0.255005l0,0z"/>
    <path id="svg_20" d="m63.145596,50.502117l8.188297,0.053711l0,-0.287598l-8.051517,-0.114624l-0.13678,0.348511z"/>
    <path id="svg_21" d="m57.365932,49.933025l-1.65686,0l-0.282715,0.465698l1.87561,-0.029541l0.063965,-0.436157z"/>
    <path id="svg_22" d="m71.333893,49.380413l-7.014771,-1.336792l0.034546,0.348755l6.980225,1.282837l0,-0.2948z"/>
    <path id="svg_23" d="m62.328396,47.650188l-3.930298,-0.750122l-0.346985,0.348999l3.980652,0.706299l0.296631,-0.305176z"/>
    <path id="svg_24" d="m61.79623,52.754681l-0.198914,0.409912l9.562199,-1.690308l0.174377,-0.006714l0,-0.294434l-9.377201,1.577881l-0.160461,0.003662z"/>
    <path id="svg_25" d="m54.017849,54.07951l-0.803284,0.155273l-0.210754,0.475342l1.094788,-0.21936l-0.08075,-0.411255z"/>
    <path id="svg_26" d="m73.082611,51.527996l-0.530579,0l-10.074039,3.802734l0.085144,0.054321l0,0.379517l10.647465,-4.106934l-0.127991,-0.129639z"/>
    <path id="svg_27" d="m54.376186,58.367844l-2.991882,1.115845l-0.10321,0.500603l3.161621,-1.26989l-0.066528,-0.346558z"/>
    <path id="svg_28" d="m74.126068,51.654705l-0.021362,-0.126709l-0.3573,0l-10.582706,6.193607l-0.070679,0.062981l0.34491,0.166382l10.687138,-6.296261z"/>
    <path id="svg_29" d="m56.270107,61.735764l-5.57196,3.245598l-0.021179,0.012207l-0.011841,0.513672l5.706909,-3.438721l-0.101929,-0.332756z"/>
    <path id="svg_30" d="m74.407806,51.527996l-9.738403,8.118404l-0.024719,0.04248l0.134888,0.313484l10.032959,-8.474369l-0.404724,0z"/>
    <path id="svg_31" d="m58.231411,65.52018l-0.177185,-0.238403l-6.842468,5.647339l-0.020386,0.016975l0.095154,0.4823l6.912903,-5.881348l0.031982,-0.026863z"/>
    <path id="svg_32" d="m74.945404,51.744305l-7.192017,8.384029l0.229309,0.144051l6.875244,-8.116337l0.087463,-0.012451l0,-0.399292z"/>
    <path id="svg_33" d="m61.048122,68.050575l-7.738647,9.192017l-0.018799,0.022583l0.20636,0.416634l7.800049,-9.46595l-0.248962,-0.165283z"/>
    <path id="svg_34" d="m65.401276,63.270798l1.209839,-1.435669l-0.139282,-0.323006l-1.277954,1.508545l0.207397,0.25013z"/>
    <path id="svg_35" d="m63.055874,72.959518l-5.839783,10.155884l-0.015747,0.027588l0.29303,0.343018l5.743286,-10.266357l-0.180786,-0.260132z"/>
    <path id="svg_36" d="m74.945404,52.385174l-5.775024,9.913082l-0.066833,0.027344l0.209717,0.278076l5.536438,-9.676998l0.095703,-0.010376l0,-0.531128z"/>
    <path id="svg_37" d="m74.657257,53.732098l-4.591492,12.566402l-0.007263,0.020752l0.214905,0.359138l4.464294,-12.397343l0.002869,-0.533203l-0.083313,-0.015747z"/>
    <path id="svg_38" d="m62.262905,87.476486l-0.011902,0.032349l0.376404,0.266113l3.903996,-10.995605l-0.262878,-0.171021l-4.005619,10.868164z"/>
    <path id="svg_39" d="m81.67099,66.477455l-4.35675,-12.637691l-0.04718,0.014893l0,0.556641l4.214844,12.47839l0.189087,-0.412231z"/>
    <path id="svg_40" d="m85.266266,76.845749l-0.346985,0.218262l3.822998,11.084106l0.358582,-0.220825l-3.817078,-11.029907l-0.017517,-0.051636z"/>
    <path id="svg_41" d="m82.61618,62.925819l0.191406,-0.305412l-5.496948,-10.050175l-0.043579,0.022095l0,0.370728l5.350952,9.898678l-0.001831,0.064087z"/>
    <path id="svg_42" d="m88.377289,73.455002l5.68573,10.436279l0.260551,-0.334106l-5.813477,-10.564697l-0.132805,0.462524z"/>
    <path id="svg_43" d="m83.645966,60.415077l0.29303,-0.17749l-6.632446,-8.348629l-0.03949,-0.095215l0,0.418213l6.391785,8.173344l-0.012878,0.029778z"/>
    <path id="svg_44" d="m90.123932,67.98735l-0.354675,0.199097l8.234192,10.357414l0.224663,-0.406982l-8.081726,-10.121704l-0.022453,-0.027824z"/>
    <path id="svg_45" d="m86.393524,63.892006l0.26416,-0.270508l-1.385254,-1.728386l-0.132629,0.410637l1.253723,1.588257z"/>
    <path id="svg_46" d="m93.173859,65.487473l-0.284065,0.224113l7.500313,6.687752l0.049805,0.044678l0.12793,-0.430664l-7.367432,-6.502449l-0.02655,-0.02343z"/>
    <path id="svg_47" d="m87.317841,60.230141l-9.833069,-8.647945l-0.011841,-0.054199l-0.205872,0l0,0.190796l9.939819,8.897823l0.110962,-0.386475z"/>
    <path id="svg_48" d="m88.377777,58.260178l0.358582,-0.175789l-10.62085,-6.506466l-0.010071,-0.049927l-0.502014,0l10.754997,6.676266l0.019356,0.055916z"/>
    <path id="svg_49" d="m95.208893,62.01725l-0.081734,0.403198l6.195503,3.823364l-0.034607,-0.510735l-6.027527,-3.684212l-0.051636,-0.031616z"/>
    <path id="svg_50" d="m89.311371,55.864056l0.084106,-0.346436l-10.090759,-3.899536l-0.521118,-0.00293l-0.015747,0.085571l10.498352,4.145508l0.045166,0.017822z"/>
    <path id="svg_51" d="m96.758759,58.777145l4.036377,1.61731l-0.126953,-0.521362l-3.779907,-1.464966l-0.129517,0.369019z"/>
    <path id="svg_52" d="m90.07724,53.408123l-0.041267,-0.391846l-9.157402,-1.751465l0,0.296631l9.162529,1.834473l0.03614,0.012207z"/>
    <path id="svg_53" d="m98.999176,54.753704l-1.353027,-0.260254l0,0.400879l1.585205,0.323242l-0.232178,-0.463867z"/>
    <path id="svg_54" d="m80.872894,50.464642l0.005676,0l0,0.201294l8.159607,0.123291l-0.128487,-0.328491l-8.036797,0.003906z"/>
    <path id="svg_55" d="m96.570221,50.478802l-1.761169,-0.013306l-0.033264,0.385986l2.10321,0.04248l-0.308777,-0.415161z"/>
    <path id="svg_56" d="m80.889923,49.486492l-0.011353,0.006592l0,0.315308l7.111748,-1.148926l0.03614,-0.007935l-0.106323,-0.397949l-7.030212,1.23291z"/>
   </g>
   <path id="Shape" d="m58.09288,57.285015c0.201172,-0.004517 0.584534,-1.748535 0.664246,-2.082153c0.08075,-0.332764 0.543274,-1.320068 0.844849,-1.775757c0.301514,-0.455566 0.724304,-0.861206 0.724304,-0.861206c0,0 -0.702637,0.150146 -1.287476,-0.077637c-0.584534,-0.228027 -0.792175,-0.837036 -0.792175,-0.837036c0,0 -0.133423,0.649902 -0.131836,0.878784c0.003845,0.716431 0.181091,1.182617 0.160461,1.513306c-0.020386,0.331787 -0.080017,1.056396 -0.281189,1.617798c-0.200684,0.560669 -0.382324,1.471069 -0.281677,1.533569c0.130493,0.079224 0.228271,0.093262 0.380493,0.090332l0,0z"/>
   <path id="Shape" d="m59.28569,63.618755c-0.170776,-0.159546 -0.559814,-0.544922 -0.730835,-0.865234c-0.171021,-0.320679 -0.575745,-1.314819 -0.71637,-1.731812c-0.139771,-0.41687 -0.263855,-1.122314 -0.326294,-1.859497c-0.062439,-0.737671 -0.046692,-0.930054 -0.202515,-0.930054c-0.155273,0 -0.699585,-0.096191 -0.980774,-0.272705c-0.279358,-0.176514 -0.606201,-0.609009 -0.746521,-1.235107c-0.139832,-0.625122 -0.093384,-0.865234 -0.124329,-1.073364c-0.031006,-0.208618 -0.279907,-0.176758 -0.279907,-0.176758c0,0 -0.061951,1.154419 -0.046692,1.619385c0.015747,0.464966 0.201965,0.721436 0.326843,1.090698c0.124329,0.368408 0.575745,0.737305 1.042664,1.185791c0.466919,0.449219 0.40448,0.353271 0.482422,0.641479c0.077332,0.28894 0.326782,1.25061 0.373779,1.555786c0.046143,0.304688 0.513062,1.330444 0.606201,1.619141c0.093872,0.288086 0.653442,1.266361 0.762817,1.42664c0.108826,0.160522 0.684326,0.481201 0.80896,0.49707c0.124084,0.016235 0.187012,0.016235 0.201965,-0.064087c0.015991,-0.079956 -0.186768,-0.833862 -0.201965,-0.977905c-0.015747,-0.144657 -0.077942,-0.288944 -0.249451,-0.449467l0,0z"/>
   <path id="Shape" d="m61.962082,67.130478c0.513062,0.256836 1.073853,0.385376 1.322021,0.385376l0.654175,0l-0.171753,-0.272949c0,0 -0.186035,-0.376961 -0.326599,-0.649658c-0.14032,-0.272705 -0.218262,-0.228638 -0.451721,-0.260498c-0.233154,-0.032104 -0.295105,-0.066414 -0.621643,-0.210571c-0.327148,-0.144287 -0.576294,-0.449463 -0.762817,-0.722412c-0.187012,-0.272461 -0.668884,-1.411259 -0.917603,-2.309208c-0.248657,-0.897949 -0.311096,-1.539917 -0.357788,-1.988647c-0.046692,-0.448975 -0.155823,-0.416504 -0.155823,-0.416504c0,0 -0.186707,0.817627 -0.217957,1.090088c-0.030701,0.272705 -0.030701,0.865845 0,1.491333c0.03125,0.625122 0.108887,0.76099 0.420471,1.916012c0.311096,1.153938 1.073669,1.69117 1.587036,1.947639l0,0z"/>
   <path id="Shape" d="m63.657639,65.398422c0.093933,0.641602 0.731567,1.572021 1.011475,2.036377c0.280388,0.464722 1.229736,1.154541 1.882874,1.394775c0.653435,0.240356 1.29113,0.224609 1.29113,0.224609l-0.31115,-1.170654c0,0 -0.26416,-0.032104 -0.48291,-0.064087c-0.217163,-0.031616 -0.855347,-0.336182 -1.244385,-0.609009c-0.388985,-0.272461 -0.933044,-1.074104 -1.307076,-1.811768c-0.373283,-0.737434 -0.528618,-1.234261 -0.544609,-1.747562c-0.014709,-0.512695 -0.248657,-1.346313 -0.295593,-1.539063c-0.046448,-0.192139 -0.43573,-0.272705 -0.43573,-0.272705c0,0 0.156067,1.106567 0.202515,1.668213c0.046936,0.560429 0.14032,1.249638 0.233459,1.890873l0,0z"/>
   <path id="Shape" d="m68.04557,67.530746c0.061951,0.593384 0.43573,1.475342 0.668404,1.908325c0.234009,0.432861 1.136101,1.298828 1.509644,1.58728c0.373474,0.288452 0.435669,0.41674 0.653381,0.432739c0.218498,0.016235 0.669189,-0.512817 0.793762,-0.640869c0.124878,-0.128418 0.435417,-0.577881 0.528801,-0.833862c0.093941,-0.256836 -0.10833,-0.256836 -0.10833,-0.256836c0,0 -0.358337,0.096191 -0.591255,0.064079c-0.233452,-0.031853 -0.886894,-0.320549 -1.105339,-0.448723c-0.217468,-0.127808 -0.979797,-0.817635 -1.212952,-1.202278c-0.233215,-0.384636 -0.622742,-1.539429 -0.731636,-2.068108c-0.10833,-0.529175 -0.216911,-1.2826 -0.27935,-1.619629c-0.062683,-0.336304 -0.388985,-0.255981 -0.388985,-0.255981c0,0 0.155037,1.362305 0.171028,1.763184c0.014954,0.400269 0.030937,0.977661 0.092827,1.570679l0,0z"/>
   <path id="Shape" d="m71.732643,71.972397c-0.357536,0.384644 -0.248894,0.496826 -0.341789,0.785522c-0.092834,0.28833 -0.015747,0.256226 0.186279,0.336548c0.202759,0.0802 0.171265,0.03186 0.233696,0.016235c0.062447,-0.016235 0.202766,-0.144417 0.202766,-0.144417c0,0 0.046135,-0.257072 0.279602,-0.304314c0.232971,-0.048706 0.311096,0.271851 0.311096,0.271851c0,0 0.264458,0.41687 0.435242,0.609253c0.171265,0.192505 0.093864,0 0.10907,-0.256226c0.015747,-0.256714 0.062195,-0.20813 0.062195,-0.20813c0,0 0.14032,-0.080811 0.233696,-0.080811c0.093391,0 0.093391,0.240837 0.123848,0.304932c0.031433,0.064087 0.171021,0.609009 0.234497,0.881218c0.061096,0.272713 0.155273,0.529793 0.155273,0.529793c0,0 0.046204,-0.128418 0.123833,-0.273071c0.078438,-0.143799 0.078438,-0.207886 0.078438,-0.207886l0.171013,0.064087c0,0 0.139839,1.185791 0.123543,1.474731c-0.014717,0.288452 0.202759,0.886841 0.202759,0.886841c0,0 0.042603,0.160767 0.12384,0.160767l0.001518,0c0.048531,0 0.110168,-0.070923 0.185738,-0.064339c0.201721,0.016243 -0.030952,0.09388 -0.093391,0.25367c-0.061882,0.160522 -0.061882,0.407707 0.031258,0.471802c0.093384,0.064331 0.093384,0.196167 0.093384,0.196167c0,0 -0.155586,0.217407 -0.202026,0.361816c-0.046936,0.144287 0.311089,0.302002 0.420227,0.253784c0.108643,-0.04834 0.342102,-0.602539 0.3573,-1.516243c0.00103,-0.040886 0.001518,-0.077507 0.002808,-0.077507c0.021973,-0.7948 0.114807,-0.80896 0.308838,-0.885506c0.201958,-0.080315 0.077087,0.39576 0.077087,0.524422c0,0.043945 0.00415,0.25415 0.008301,0.391113l0.312126,0.091423l-0.312126,0c0.01001,0 0.023674,0.495979 0.023674,0.495979c0,0 0.030708,0.68689 0.061653,0.799316c0.031242,0.112183 0.187561,0.13501 0.37384,0.247559c0.186218,0.112061 0.26416,-0.060913 0.26416,-0.060913c0,0 0.046387,-0.182861 -0.046753,-0.247192c-0.093079,-0.064339 -0.187012,-0.211914 -0.202759,-0.323853c-0.014961,-0.11219 0.040283,-0.242683 0.040283,-0.242683c0,0 0.296631,-0.040886 0.284782,-0.119865c-0.017021,-0.119873 -0.184685,-0.313354 -0.200432,-0.473396c-0.014954,-0.160515 0.156311,-0.044182 0.156311,-0.044182c0.033257,-0.005493 0.067627,-0.031013 0.102409,-0.031013l0.000496,0c0.062195,-0.265862 0.128784,-0.443108 0.207458,-0.626091c0.124329,-0.288696 0.313416,-0.354248 0.387207,-0.485359c0.074036,-0.13073 0.105713,-0.38488 0.116333,-0.614006c0.010559,-0.228638 0.010559,-0.49231 0.010559,-0.49231c0,0 0.073784,-0.126587 0.084595,-0.279175c0.010857,-0.152222 0.053162,-0.452148 0.073547,-0.550171c0.02166,-0.0979 0.126892,-0.099731 0.126892,-0.099731c0,0 0.117126,0.020996 0.170288,0.08667c0.052063,0.065178 0.190369,0.130249 0.317261,0.086914c0.126404,-0.044067 0.210754,-0.349487 0.210754,-0.349487c0,0 0.180847,-0.3927 0.24408,-0.534302c0.062683,-0.141731 0.116028,-0.098145 0.287102,-0.109253c0.171761,-0.01123 0.148567,0.098022 0.148567,0.098022c0,0 -0.105782,0.174438 -0.095215,0.250977c0.010071,0.076286 0.127441,-0.098145 0.127441,-0.098145c0,0 0.263672,-0.010864 0.316521,-0.010864c0.052925,0 0.180359,0.06543 0.2118,0.109009c0.031738,0.043571 0.127441,0.348755 0.169739,0.479736c0.042603,0.130852 0.295654,0.591187 0.317322,0.634766c0.021118,0.043701 0.105225,0.534294 0.053101,0.686638c-0.053101,0.152832 -0.116829,-0.021233 -0.116829,-0.021233c0,0 -0.074272,-0.295044 -0.381279,-0.556641c-0.306702,-0.260994 -0.582214,-0.108765 -0.837891,0.032959c-0.256409,0.141724 -0.623962,0.9375 -0.761719,1.2323c-0.078979,0.167847 -0.222664,0.575066 -0.343628,0.925659l-0.000244,0c-0.090576,0.26342 -0.168701,0.495239 -0.195557,0.570435c-0.063721,0.173828 0.010307,1.004753 0.010307,1.004753l0.274727,0.032959c0,0 0.042847,-0.296867 0.18988,-0.602287c0.14856,-0.304932 0.518738,-0.785278 0.518738,-0.785278c0,0 0.774963,0.022583 0.91217,-0.054207c0.054688,-0.030266 0.154297,-0.090942 0.260071,-0.166374c0.161736,-0.114014 0.33844,-0.26001 0.39624,-0.37854c0.09491,-0.196411 0.286072,-0.427742 0.286072,-0.427742c0,0 -0.116333,-0.17382 0.105461,-0.206779c0.222412,-0.032967 0.435738,-0.152832 0.435738,-0.152832c0,0 0.07428,-0.425537 0.116577,-0.643555c0.042542,-0.217651 0.031494,-0.370605 -0.053101,-0.501099c-0.084412,-0.130981 -0.499451,-0.547607 -0.60498,-0.787598c-0.105713,-0.239754 -0.105713,-0.501831 -0.116333,-0.610596c-0.010559,-0.109009 -0.032227,-0.556396 -0.084351,-0.69751c-0.053101,-0.142212 -0.550964,-1.005859 -0.730774,-1.289185c-0.179565,-0.283447 -0.628967,-0.84082 -0.830627,-0.985229c-0.202271,-0.144531 -0.763367,-0.369148 -0.763367,-0.369148l-0.964485,-0.016228l-1.760368,0.060913c0,0 0.003906,0.06958 -0.02478,0.152588c-0.029907,0.082397 -0.156807,0.404297 -0.237061,0.508423c-0.079712,0.104492 -0.231628,0.130249 -0.333252,0.095459c-0.101379,-0.03479 0.025757,-0.208618 0.0802,-0.321899c0.054932,-0.113281 0.025574,-0.408325 0.025574,-0.443115c0,-0.03479 -0.122559,-0.009033 -0.181641,0.008179c-0.059082,0.017334 -0.261292,0.499748 -0.358826,0.673584c-0.096985,0.174438 -0.358276,0.465454 -0.476746,0.552368c-0.117867,0.087036 -0.147034,-0.060555 -0.202759,-0.1698c-0.054932,-0.108154 0.03405,-0.269287 0.202759,-0.425903c0.168755,-0.156494 0.217529,-0.386475 0.217529,-0.386475c0,0 -0.171333,-0.064339 -0.279663,-0.064339c-0.109131,0 -0.466675,0.369026 -0.466675,0.369026c0,0 -0.295601,0.528931 -0.373535,0.673584c-0.075806,0.145142 -0.776184,0.75415 -1.134529,1.139282l0,0zm7.530769,3.366325c-0.092896,0.128181 -0.218025,0.112671 -0.388794,0.112671c-0.170776,0 0.046204,-0.192131 0.123833,-0.304802c0.077888,-0.111946 0.202522,-0.111946 0.374031,-0.12793c0.170532,-0.016479 -0.015198,0.192009 -0.10907,0.320061l0,0zm-3.952026,-1.554802c0.077881,-0.128296 0.170776,-0.032104 0.373283,-0.063972c0.202522,-0.032219 -0.046928,0.272102 -0.124077,0.384651c-0.07843,0.112183 -0.233459,0.128296 -0.373535,0.112183c-0.140076,-0.016235 0.046143,-0.304688 0.124329,-0.432861l0,0zm-0.201973,1.603149c0.046944,-0.160278 0.170784,-0.304565 0.404732,-0.577271c0.232666,-0.272705 0.263916,-0.160278 0.279663,-0.032227c0.015747,0.128418 -0.124878,0.368767 -0.233215,0.545776c-0.109131,0.175659 -0.202026,0.239746 -0.342041,0.288086c-0.140625,0.048218 -0.109138,0.080322 -0.202515,0.096313c-0.093628,0.015869 0.046379,-0.160645 0.093376,-0.320679l0,0z"/>
   <path id="Shape" d="m80.935768,71.256577l0,0.009758c0,0 1.046272,-0.833855 1.341927,-1.170166c0.295593,-0.336662 1.045288,-1.250603 1.169067,-2.260498c0.124329,-1.010124 0.319641,-2.741692 0.288147,-2.917839c-0.030701,-0.176758 0.082581,-1.202885 0.082581,-1.202885c0,0 -0.215393,-0.096191 -0.23114,-0.015991c-0.015991,0.080322 -0.155334,0.513065 -0.186035,0.673588c-0.030396,0.160645 -0.295113,1.602905 -0.403687,2.084106c-0.108337,0.481079 -0.357788,1.394409 -0.591003,1.715576c-0.233704,0.320549 -1.260132,1.121826 -1.462402,1.218262c-0.201965,0.096191 -0.5755,0.160278 -0.683838,0.160278c-0.109131,0 -0.374023,-0.079956 -0.374023,0.112427c0,0.192741 0.431824,0.657104 0.509216,0.817627c0.077881,0.160645 0.541191,0.775757 0.541191,0.775757l0,0z"/>
   <path id="Shape" d="m85.673752,68.268776c0.590996,-0.30468 1.60199,-0.881828 1.897087,-1.539665c0.29615,-0.657104 0.529366,-2.21241 0.622742,-2.821415c0.092842,-0.609009 0.155281,-1.891602 0.155281,-1.891602c0,0 -0.076904,-0.112427 -0.155281,0c-0.077934,0.111938 -0.450928,1.539307 -0.528862,1.923462c-0.07843,0.385502 -0.544312,1.747807 -0.668892,1.955936c-0.124565,0.208618 -0.388725,0.737427 -0.918327,1.058228c-0.528809,0.320557 -1.447205,0.721436 -1.447205,0.721436c0,0 -0.419189,0.112419 -0.435432,0.20813c-0.015739,0.096191 -0.186516,0.64135 -0.295341,0.850098c-0.109131,0.20813 -0.342102,0.641113 -0.342102,0.641113c0,0 1.525085,-0.801147 2.116333,-1.105721l0,0z"/>
   <path id="Shape" d="m87.805031,67.498886c0,0 2.115852,-0.945801 2.597725,-1.394539c0.483154,-0.448967 1.1054,-1.587646 1.198486,-2.052116c0.093933,-0.465702 0.07843,-1.266605 0.093933,-1.523319c0.015198,-0.256592 -0.06324,-1.009888 -0.078438,-1.122314c-0.015739,-0.112183 0.030952,-0.400879 -0.093376,-0.320557c-0.124878,0.079956 -0.233459,0.176147 -0.248657,0.368896c-0.015747,0.192139 0,1.266602 -0.139587,1.763672c-0.140564,0.496582 -0.29615,1.314823 -0.5448,1.651371c-0.248718,0.336792 -0.622742,0.7854 -0.964539,0.993652c-0.342041,0.208618 -0.809753,0.288574 -0.94928,0.320557c-0.140083,0.032104 -0.202522,0.016479 -0.248718,0.128296c-0.04718,0.112549 -0.202759,0.44873 -0.281189,0.577385c-0.076851,0.127937 -0.34156,0.609016 -0.34156,0.609016l0,0z"/>
   <path id="Shape" d="m93.872604,58.857281c0,0.224976 0.015991,1.362671 -0.030701,1.58728c-0.046936,0.224854 -0.280151,1.010376 -0.435425,1.346924c-0.156067,0.336548 -0.467957,0.769775 -0.576057,0.946045c-0.109062,0.176025 -0.404724,0.368652 -0.404724,0.368652l-0.155266,1.21912c0,0 0.918091,-0.72205 1.136047,-1.170658c0.217461,-0.448975 0.621704,-1.250732 0.699333,-1.60376c0.078438,-0.352661 0.38929,-1.298828 0.38929,-1.426636c0,-0.127563 0.109131,-0.577393 0.264153,-0.786011c0.156075,-0.207642 0.59095,-0.897217 0.793465,-1.0896c0.202263,-0.192749 0.342346,-0.497437 0.374084,-0.561157c0.030396,-0.064087 0.10833,-0.20813 0.046692,-0.28894c-0.062683,-0.079712 -0.186768,-0.095703 -0.264954,-0.03186c-0.077888,0.064331 -0.310303,0.384521 -0.482117,0.512939c-0.170776,0.128418 -0.435425,0.385254 -0.591003,0.448975c-0.155273,0.063599 -0.326599,0.160645 -0.420471,0.160645c-0.093384,0 -0.171265,-0.160645 -0.295654,-0.032227c-0.124084,0.127319 -0.046692,0.175659 -0.046692,0.400269l0,0z"/>
   <path id="Shape" d="m92.316818,54.015728c0.140076,0.240234 0.420776,0.945801 0.513603,1.201782c0.093391,0.256714 0.358101,1.058228 0.358101,1.058228l0.202454,0.641602c0,0 0.403992,0.047852 0.450928,-0.096191c0.046692,-0.144653 -0.093384,-0.689819 -0.124329,-0.913818c-0.030708,-0.224365 -0.249207,-1.362915 -0.279907,-1.731567c-0.030945,-0.369019 -0.062134,-1.010376 -0.030945,-1.202393c0.030945,-0.192627 -0.015747,-0.913818 0.015015,-1.026245c0.031677,-0.111938 0.01593,-0.640991 -0.046204,-0.753418c-0.062691,-0.112427 -0.171822,-0.416748 -0.280701,-0.337036c-0.108582,0.080811 -0.015198,0.865845 -0.06189,0.978516c-0.046692,0.111938 -0.233948,0.448975 -0.357544,0.641113c-0.124817,0.192261 -0.482674,0.41687 -0.607239,0.41687c-0.125122,0 -0.467163,-0.096313 -0.5448,-0.080566c-0.077393,0.016235 -0.233459,0.04834 -0.108643,0.176758c0.124634,0.128418 0.762329,0.785767 0.9021,1.026367l0,0z"/>
   <path id="Shape" d="m86.144333,71.603378c0,0 0.512505,-0.214966 0.569267,-0.333015c0.041809,-0.089592 0.019653,-0.22509 0.030708,-0.253052c0.012627,-0.028191 0.060608,-0.071281 0.072754,-0.107414c0.011108,-0.035889 -0.0196,-0.102051 -0.046692,-0.11853c-0.027588,-0.015747 -0.081238,-0.061401 -0.081238,-0.061401c0,0 -0.393127,-0.02771 -0.47467,0.011955c-0.082275,0.039551 -1.081665,0.457161 -1.081665,0.457161c0,0 -0.929688,0.580811 -1.256531,0.853638c-0.326057,0.272461 -0.894836,0.913818 -1.197693,1.346924c-0.304138,0.432373 -0.669678,1.193726 -0.770264,1.298218c-0.101135,0.104492 -0.140381,0.048096 -0.201477,0.120361c-0.063232,0.072144 -0.102173,0.176514 -0.124886,0.240601c-0.024231,0.064087 0,0.288452 -0.039177,0.320061c-0.038452,0.032112 -0.062195,-0.072014 -0.085388,0.144287c-0.023499,0.216682 -0.023499,0.497688 -0.023499,0.497688c0,0 -0.046936,0.023682 0.07019,0.023682c0.341789,0.032104 1.102539,-0.139893 1.33728,-0.272217c0.198112,-0.11145 0.3526,-0.143555 0.435913,-0.20874c0.105286,-0.082039 0.241753,-0.256714 0.245605,-0.33252c0.003601,-0.076294 0.022949,-0.184937 -0.055481,-0.184456c-0.087952,0.00074 -0.208923,-0.001823 -0.208923,-0.001823c-0.05909,-0.026863 0.006958,-0.082153 0.076904,-0.134277c0.069885,-0.052124 0.650024,-0.212646 0.723816,-0.244751c0.073792,-0.031982 0.548401,-0.324097 0.548401,-0.324097l0.112488,-0.10498c0,0 0.004639,-0.188232 -0.108337,-0.207642c-0.112183,-0.020508 -0.432068,-0.028442 -0.432068,-0.028442c0,0 -0.058296,-0.180176 -0.007996,-0.204353c0.051331,-0.024292 0.871399,-0.324577 0.945679,-0.35656c0.073792,-0.032349 0.310303,-0.176765 0.353394,-0.244514c0.043327,-0.06884 0.007996,-0.176994 -0.073792,-0.184441c-0.081726,-0.008301 -0.23291,-0.048096 -0.279602,-0.008301c-0.046692,0.040405 -0.054688,0.096558 -0.093384,0.088013c-0.03894,-0.00769 -0.074829,-0.021851 -0.111938,-0.054817c-0.037659,-0.032951 -0.090576,-0.077263 -0.070679,-0.109489c0.018791,-0.032104 0.112976,-0.139778 0.221313,-0.212402c0.108826,-0.072021 0.280151,-0.124634 0.458374,-0.207031c0.271667,-0.125488 0.631226,-0.289429 0.69342,-0.32959c0.062195,-0.039925 0.125916,-0.269287 0.054199,-0.301155c-0.10553,-0.046623 -0.404785,0 -0.413025,-0.019768c-0.006966,-0.019409 -0.050049,-0.103889 -0.003601,-0.123779l0.292297,-0.129028l0,0zm-1.544189,0.921631c-0.093384,0.080811 -0.202026,0.23291 -0.326599,0.345093c-0.124329,0.111938 -0.225952,0.352654 -0.358582,0.4729c-0.131775,0.120361 -0.209961,0.088501 -0.37323,0.079956c-0.163338,-0.007454 -0.039001,-0.216064 -0.015503,-0.312622c0.023979,-0.096191 0.209717,-0.184448 0.209717,-0.184448c0,0 0.132568,-0.120361 0.218018,-0.216675c0.085388,-0.095703 0.233452,-0.248291 0.233452,-0.248291c0,0 0.148018,-0.127808 0.217964,-0.19239c0.069885,-0.064079 0.084839,-0.064079 0.170776,-0.064079c0.085869,0 0.132568,0.072021 0.155815,0.144653c0.023438,0.072021 -0.039238,0.096191 -0.131828,0.175903l0,0z"/>
   <path id="Shape" d="m87.188271,71.616684c0.09803,-0.020142 0.557991,-0.254883 0.618591,-0.368164c0.117134,-0.218506 0.052132,-0.637451 -0.006462,-0.640015c-0.026802,-0.001099 -0.069893,0.001831 -0.069893,0.001831c0,0 -0.147522,0.060905 -0.187248,0.131836c-0.038696,0.071533 -0.403748,0.640625 -0.453804,0.701782c-0.049492,0.061401 -0.393608,0.699951 -0.452446,0.821655c-0.059578,0.122314 -0.621704,0.996574 -0.660896,1.098389c-0.039726,0.101563 -0.543266,0.730469 -0.621208,0.862541c-0.079956,0.132088 -0.709663,0.691414 -0.749084,0.722298c-0.039253,0.030273 -0.394173,0.437012 -0.581177,0.528076c-0.188049,0.092041 -0.573486,0.244377 -0.612671,0.274658c-0.03949,0.030266 -0.108643,0.164795 -0.118408,0.203369c-0.009033,0.039063 -0.060364,0.086426 0.053101,0.09436c0.167725,0.020508 0.637939,-0.125 0.854675,-0.236336c0.216919,-0.112419 1.222221,-0.793449 1.43866,-1.037476c0.217461,-0.244263 0.557434,-0.618034 0.59198,-0.711906c0.075623,-0.199829 0.039246,-0.343636 0.039246,-0.343636c-0.021179,-0.038818 -0.073792,-0.024773 -0.094421,-0.064934c-0.023987,-0.044067 -0.062683,-0.097778 0.005913,-0.12867c0.068916,-0.030266 0.602119,-0.283813 0.650887,-0.365959c0.0495,-0.081055 0.179504,-0.248779 0.091064,-0.362915c-0.03022,-0.039063 -0.100647,-0.073853 -0.100647,-0.073853c0,0 -0.010071,-0.132446 0.079468,-0.213501c0.088989,-0.081787 0.244568,-0.081787 0.343323,-0.122192c0.098572,-0.040405 0.285828,-0.437012 0.285828,-0.437012c0,0 0.101929,-0.116455 -0.059326,-0.081673c-0.21228,0.045418 -0.315979,0.031868 -0.315979,-0.05957c0.000793,-0.091675 -0.067627,-0.172729 0.030937,-0.192986l0,0z"/>
   <path id="Shape" d="m80.250107,77.00145c-0.307739,0.249634 -0.593567,0.35144 -0.670471,0.419189c-0.077393,0.068359 -0.143127,0.271965 -0.175903,0.328247c-0.033264,0.057487 -0.197884,0.715698 -0.197884,0.715698l0.087227,0.181519c0,0 0.605408,-0.455322 0.802483,-0.704468c0.198921,-0.249031 0.396248,-0.588745 0.417915,-0.724854c0.022217,-0.136108 0.043884,-0.464722 -0.263367,-0.215332l0,0z"/>
   <path id="Shape" d="m71.239418,77.04686c-0.076591,-0.135742 -0.177177,-0.51001 -0.243217,-0.453491c-0.06604,0.056641 -0.153755,0.24939 -0.109932,0.464966c0.043579,0.215088 0.111702,0.666138 0.320679,0.838135c0.208443,0.171753 0.35157,0.466553 0.604134,0.432487c0.252808,-0.03405 0.517509,-0.182121 0.539429,-0.249382c0.021667,-0.068237 0.021667,-0.523071 0.021667,-0.523071c0,0 -0.1651,0.147217 -0.352112,0.07946c-0.186768,-0.067986 -0.703247,-0.453239 -0.780647,-0.589104l0,0z"/>
   <path id="Shape" d="m73.472885,77.851295c0.176453,-0.033806 0.340759,-0.260246 0.319336,-0.453484c-0.022156,-0.192757 -0.231079,-1.187141 -0.264656,-1.347412c-0.032768,-0.160645 -0.39727,-1.010376 -0.451653,-1.135376c-0.054993,-0.124397 -0.253113,-0.543579 -0.583313,-0.599983c-0.329407,-0.056885 -0.30719,-0.090569 -0.572151,0.022102c-0.263359,0.11377 -0.350586,0.204468 -0.460991,0.283569c-0.109619,0.079224 -0.241943,0.226563 -0.241943,0.226563c0,0 -0.221313,-0.124397 -0.265442,-0.135628c-0.044128,-0.011711 -0.13208,-0.068352 -0.13208,-0.068352l0.044128,-0.52124c0,0 0.062439,-0.097046 -0.021675,-0.101563c-0.21978,-0.011597 -0.330193,-0.009766 -0.406792,-0.079468c-0.077393,-0.069824 -1.408997,-1.427368 -2.101624,-1.848267c-0.692627,-0.420784 -1.031372,-0.670288 -1.165527,-0.670288c-0.133606,0 -0.2453,0.168457 -0.144417,0.362785c0.10083,0.194099 0.419441,0.262337 0.683052,0.489143c0.264404,0.22644 0.604919,0.645142 0.68158,0.724846c0.076843,0.079475 0.253052,0.283089 0.253052,0.283089l-0.032776,0.407837c0,0 -0.175659,-0.135864 -0.505867,-0.328369c-0.329704,-0.192993 -0.804314,-0.781982 -1.210876,-1.09864c-0.407097,-0.317863 -1.000114,-0.79528 -1.29705,-0.954216c-0.296631,-0.158691 -0.639473,-0.350708 -0.782654,-0.350708c-0.142883,0 -0.615234,-0.011108 -0.615234,-0.011108c0,0 -0.109924,0.226685 -0.054932,0.373535c0.054932,0.147217 0.164795,0.158325 0.362907,0.328003c0.197884,0.17041 0.516182,0.376343 0.516182,0.376343l0.172058,0.20153c0,0 0.054443,0.078377 0.010864,0.078377c-0.043335,0 -0.162239,0.042847 -0.210754,0.021606c-0.050537,-0.021606 -0.14624,-0.072144 -0.160469,-0.075806c-0.013916,-0.003784 -0.091309,-0.026131 -0.129204,-0.013069c-0.021973,0.007454 -0.086983,0.037239 -0.086983,0.037239c0,0 -0.063164,0.015137 -0.074516,0.033806c-0.010315,0.018318 -0.016785,0.151489 -0.004402,0.175667c0.028145,0.05481 0.076599,0.148064 0.119698,0.162964c0.043579,0.015381 0.626091,0.309204 0.647766,0.32373c0.02166,0.015137 0.419189,0.227295 0.429993,0.249626c0.010864,0.022835 0.035889,0.111946 0.017822,0.115608c-0.017822,0.004028 -0.209236,-0.00769 -0.209236,-0.00769l-0.205315,-0.009033c0,0 -0.142395,-0.047607 -0.154785,-0.00769c-0.029907,0.09008 -0.013672,0.160278 0.034851,0.241577c0.037109,0.062248 0.077881,0.083244 0.136963,0.124146c0.101379,0.068115 0.265198,0.090942 0.293823,0.105835c0.029114,0.015381 0.115051,0.089348 0.150635,0.104492c0.036369,0.014893 0.350342,0.026611 0.364746,0.026611c0.015259,0 0.037407,0.014526 0.134399,0.077881c0.097534,0.063232 0.202026,0.10437 0.223694,0.175163c0.021912,0.07093 0.046692,0.196907 -0.00312,0.193481c-0.051079,-0.004021 -0.277275,-0.083244 -0.277275,-0.083244c0,0 -0.208992,-0.120117 -0.29541,-0.039795c-0.040771,0.037964 -0.047729,0.075684 -0.062935,0.129997c-0.022942,0.075684 -0.040222,0.187386 -0.011589,0.202026c0.02887,0.014893 0.188049,0.089485 0.249207,0.115601c0.061882,0.026001 0.07605,0.055794 0.159119,0.096191c0.084106,0.041512 0.224426,0.130501 0.357788,0.138191c0.133667,0.007446 0.116875,0.004517 0.116875,0.004517c0,0 0.150887,0.003296 0.215889,0.003296c0.064507,0 0.195557,-0.05616 0.224182,-0.004028c0.029419,0.052612 0.188354,0.152832 0.249756,0.19751c0.061394,0.044914 0.148071,0.126465 0.086365,0.137695c-0.06086,0.011467 -0.437744,0.015381 -0.437744,0.015381c0,0 -0.035095,0.019409 -0.063972,0.038574c-0.028618,0.018555 -0.04644,0.049927 -0.052849,0.067749c-0.007751,0.018921 -0.026855,0.062256 -0.002625,0.090942c0.032776,0.037964 0.076599,0.097046 0.123833,0.119385c0.047188,0.021721 0.204292,0.033928 0.262634,0.049683c0.029915,0.007935 0.085335,0.038818 0.145752,0.080803c0.073006,0.050537 0.122749,0.171143 0.155769,0.197029c0.031738,0.026245 0.428772,0.044067 0.453796,0.055176c0.025269,0.01123 0.030396,0.03112 0.095146,0.068604c0.052376,0.030273 0.314217,0.197021 0.357552,0.215813c0.043579,0.018188 0.166382,0.096077 0.206116,0.11512c0.03894,0.018433 0.373047,0.327515 0.404472,0.36499c0.032539,0.037224 0.036385,0.111938 -0.003105,0.119141c-0.039192,0.007446 -0.174072,0.011353 -0.20636,0.003662c-0.032471,-0.007202 -0.141357,0.011963 -0.141357,0.011963c0,0 -0.142883,0.248291 0.019348,0.285767c0.161743,0.03698 0.389282,0.148071 0.389282,0.148071c0,0 0.665527,0.278564 0.782654,0.305664c0.117371,0.027954 0.306458,0.037476 0.306458,0.037476c0,0 0.305969,-0.741821 0.341797,-0.834839c0.036369,-0.092537 -0.017525,-1.032234 0.054443,-1.087524c0.071472,-0.055542 0.296623,-0.14856 0.296623,-0.14856c0,0 0.100899,-0.138802 0.127693,-0.064575c0.0271,0.073853 0.045403,0.372314 0.072266,0.466179c0.027344,0.092781 0.12561,0.324829 0.306702,0.444954c0.179016,0.120483 0.332764,0.315552 0.549187,0.371086c0.215706,0.055916 0.809753,0.046516 0.809753,0.046516c0,0 0.16407,0.19458 0.253845,0.371094c0.08979,0.176514 0.144234,0.39856 0.144234,0.39856l0.153198,0.241577c0.000244,-0.001343 -0.010567,0.008293 0.036377,-0.003181l0,0zm-4.493713,-2.816887c-0.124878,0.031616 -0.155823,-0.096313 -0.233459,-0.144417c-0.077881,-0.048332 -0.311096,0.048103 -0.559265,0.016235c-0.250244,-0.032097 -0.483704,-0.288933 -0.483704,-0.288933l-0.341248,-0.320068l-0.389046,-0.54541c0,0 -0.202507,-0.288452 -0.26519,-0.384651c-0.062134,-0.096184 0.140076,-0.176514 0.280701,-0.160522c0.140076,0.016113 0.263916,0.208618 0.263916,0.208618c0,0 0.233704,0.256233 0.311584,0.400642c0.078178,0.144287 0.715332,0.641113 0.824951,0.737061c0.108643,0.096558 0.325806,0.128662 0.49762,0.144409c0.170776,0.016479 0.326599,0.128288 0.326599,0.128288c0,0 -0.109383,0.176521 -0.233459,0.208748l0,0zm3.605286,0.236572c-0.030151,0.02758 -0.12793,0.152336 -0.213867,0.216309c-0.085388,0.063843 -0.104439,-0.052612 -0.151123,-0.10022c-0.046692,-0.048584 -0.081306,-0.00415 -0.143745,-0.02417c-0.06237,-0.019897 -0.117607,-0.076294 -0.148552,-0.096191c-0.031189,-0.019897 -0.023193,-0.116455 -0.011108,-0.200684c0.011108,-0.08374 0.081299,-0.063843 0.128479,-0.123901c0.046448,-0.060303 0.096985,-0.027954 0.151176,-0.02417c0.054939,0.003777 0.058296,0.055786 0.077888,0.092285c0.019592,0.035889 0.124634,-0.004517 0.179321,0.020142c0.053894,0.023682 0.092346,0.052124 0.119682,0.107666c0.02784,0.056877 0.043098,0.104485 0.011848,0.132935l0,0z"/>
   <path id="Shape" d="m82.903793,89.701767c0,0 -0.155334,-0.206787 -0.26416,-0.36731c-0.10865,-0.160522 0,-1.266357 0,-1.266357l-0.046204,-0.384399c0,0 -0.047424,0.09655 -0.156075,0.112175c-0.108574,0.016479 -0.077385,-0.363029 -0.077385,-0.363029l-0.023193,-0.136719l-0.210754,-0.841553c-0.015266,-0.064087 -0.249207,-0.774658 -0.295349,-0.918945c-0.046997,-0.144409 -0.123604,-0.095947 -0.123604,-0.095947c0,0 -0.07843,0.657349 -0.109856,0.834099c-0.031738,0.175667 0.046692,0.726196 0.062134,0.854858c0.004639,0.036751 0.00415,0.167732 -0.001038,0.167732c-0.013123,0.264771 -0.052856,0.620483 -0.107544,0.665894c-0.077942,0.063599 -0.124878,-0.138428 -0.156067,-0.299561c-0.009033,-0.048584 -0.028381,-0.1521 -0.052673,-0.291389c-0.053101,-0.315788 -0.12738,-0.752686 -0.149055,-0.830315c-0.030693,-0.113037 -0.109123,-0.735359 -0.140068,-0.943726c-0.03125,-0.20813 0.046143,-1.12146 0.093079,-1.297241c0.046989,-0.176392 0.092896,-0.23999 0.187073,-0.480835c0.092834,-0.239746 0.092834,-0.832764 0.077332,-1.008789c-0.015686,-0.176765 -0.155273,-0.865723 -0.201729,-1.026375c-0.046379,-0.160515 -0.280388,-0.769287 -0.310783,-0.881462c-0.03125,-0.112427 0,-0.866211 0.014404,-1.01001c0.015991,-0.144653 0.077942,-1.138794 0.109673,-1.235107c0.031197,-0.096199 0.062134,-0.656738 0.062134,-0.656738l-0.201714,-0.048706c0,0 -0.171326,0.689575 -0.280952,0.833618c-0.10833,0.144653 -0.34124,0.721924 -0.54351,1.074707c-0.203003,0.352783 -0.871399,1.074463 -1.011963,1.042236c-0.14032,-0.032104 -0.264709,-0.320801 -0.37384,-0.432991c-0.107788,-0.112175 -0.170471,-0.048576 -0.186218,0.015755c-0.015198,0.063965 0.140076,0.272949 0.170769,0.353271c0.031502,0.0802 0.186768,0.544922 0.202278,0.753296c0.015984,0.208618 0.015984,0.673332 -0.092346,0.91394c-0.109932,0.240227 -0.389832,0.481079 -0.545349,0.512939c-0.15583,0.032227 -0.52832,-0.03186 -0.746834,-0.080811c-0.217705,-0.047493 -0.404228,-0.191902 -0.544304,-0.287842c-0.140564,-0.096191 0.140076,-0.208374 0.202271,-0.240601c0.061882,-0.032104 0.435181,-0.256958 0.529053,-0.385132c0.093628,-0.127815 0.046692,-0.432495 0.031494,-0.592529c-0.015991,-0.160522 -0.140076,-0.593018 -0.202515,-0.72168c-0.062195,-0.128174 -0.233459,-0.015991 -0.233459,-0.015991c0,0 -0.528564,0.224609 -0.591248,0.240601c-0.062134,0.015991 -1.462646,-0.016235 -1.633423,-0.016235c-0.17157,0 -0.544556,-0.144295 -0.653687,-0.224609c-0.108582,-0.080322 -0.217468,0.048096 -0.27961,0.160522c-0.062195,0.111694 -0.093925,0.512817 -0.171806,0.689331c-0.0774,0.176506 0.186768,0.608765 0.248901,0.689209c0.062439,0.080315 0.327141,0.176514 0.466919,0.272827c0.140068,0.096191 -0.030701,0.336182 -0.030701,0.336182c0,0 -0.607239,0.176758 -0.871887,0.176758c-0.263672,0 -0.559814,-0.176758 -0.700142,-0.320801c-0.13903,-0.144043 -0.232903,-0.641113 -0.248161,-0.849243c-0.015686,-0.208496 0.155579,-0.577393 0.186035,-0.657722c0.031189,-0.0802 -0.015747,-0.368652 -0.062195,-0.59301c-0.046204,-0.223885 -0.13929,0.048096 -0.170776,0.112183c-0.030945,0.064331 -0.139832,0.288696 -0.233704,0.368896c-0.092896,0.080322 -0.139832,-0.0802 -0.295654,-0.128052c-0.155273,-0.048103 -0.372742,-0.481201 -0.466614,-0.7052c-0.093636,-0.224609 -0.264404,-0.481201 -0.310852,-0.802002c-0.046692,-0.320557 -0.046692,-0.464966 -0.265198,-0.545532c-0.217224,-0.0802 -0.185974,0.192993 -0.248169,0.465202c-0.062439,0.272713 -0.077881,1.074471 -0.077881,1.491341c0,0.416504 0.062683,0.496216 0.093376,1.026001c0.020882,0.360474 -0.077934,1.12207 -0.155327,1.218018c-0.078125,0.096184 -0.295837,0.016235 -0.373787,-0.047852c-0.077385,-0.064087 -0.030693,-0.320801 -0.046684,-0.769775c-0.01545,-0.44873 -0.202454,-0.064331 -0.233215,0.048096c-0.03064,0.112427 -0.092842,0.512695 -0.015999,0.737305c0.078438,0.224609 0.404541,1.331299 0.404541,1.635368c0,0.304573 0.202461,2.180305 0.202461,2.180305c0,0 0.003113,0.2052 0.005981,0.499146c0.00769,0.644653 0.015442,1.716423 -0.005981,1.969238c-0.030701,0.369141 -0.077087,0.722778 -0.131287,0.963013c-0.053658,0.239868 -0.179817,0.256584 -0.257454,0.207634c-0.077873,-0.0476 -0.093376,-0.095695 -0.187004,-0.255981c-0.093384,-0.160515 -0.046204,-0.192131 -0.062447,-0.432732c-0.015434,-0.241089 0.062447,-0.5774 0.062447,-0.673828c0,-0.096313 0.030693,-0.5774 0.109131,-0.737183c0.054443,-0.112427 0.024475,-0.668831 0.002075,-1.040161c-0.009583,-0.156013 -0.017578,-0.279907 -0.017578,-0.322144c0,-0.145142 -0.233704,-1.171265 -0.233704,-1.283081c0,-0.111946 -0.093384,-0.689575 -0.202515,-0.913948c-0.108582,-0.224358 -0.217712,0.513313 -0.263855,0.721931c-0.046761,0.207878 -0.062996,1.191765 -0.187073,1.639885c-0.010071,0.034798 -0.019043,0.072029 -0.028076,0.072029c-0.108643,0.529778 -0.182129,1.458855 -0.267761,1.739861c-0.093689,0.304573 -0.3573,0.614754 -0.481941,0.695076c-0.125061,0.080322 -0.062614,0.152344 0.015503,0.217163c0.076118,0.061646 0.881477,0.693848 1.382454,0.959595l0.028625,0l1.381897,0c0.000793,0 0.001282,0.062012 0.002319,0.048706c0.01886,-0.264771 0.043091,-0.573364 0.052124,-0.767212c0.015198,-0.337532 0.342346,-2.041504 0.388977,-2.505859c0.009583,-0.09436 0.020386,-0.133667 0.031494,-0.398438c0.045166,-0.530037 0.102173,-1.383911 0.139587,-1.524544c0.047173,-0.176506 0.249146,-1.275139 0.26416,-1.339226c0.015442,-0.063721 -0.07843,-0.372681 0.108826,-0.276375c0.186768,0.096199 0.249451,0.27906 0.31134,0.647217c0.062187,0.36927 0.038933,0.916878 0.038933,1.173347c0,0.256462 -0.040703,1.033569 -0.040703,1.257935l0,0.072754c0,0.264771 -0.100647,0.782104 -0.100647,0.905884c0,0.144409 -0.057991,0.8927 0.051392,0.940796c0.108582,0.048332 0.211723,0.24646 0.320862,-0.267456c0.091064,-0.426033 0.12719,-1.049446 0.167419,-1.579224c0.007751,0 0.010559,-0.121704 0.018555,-0.183105c0.046448,-0.369263 0.167969,-1.406006 0.29229,-1.710327c0.12513,-0.304932 0.310066,-0.599121 0.403442,-0.486938c0.093391,0.112427 0.124641,1.047607 0.108345,1.159424c-0.010559,0.080322 0.009338,0.807854 -0.000244,1.303337c-0.003845,0.202278 -0.013123,0.367439 -0.031433,0.432739c-0.061714,0.224365 -0.107849,0.641731 -0.107849,0.641731c0,0 -0.032227,-0.031624 -0.12561,-0.063843c-0.092896,-0.032104 -0.311157,-0.144295 -0.311157,0.128418c0,0.272209 -0.217712,1.218262 -0.217712,1.218262c0,0 -0.076355,1.120972 -0.107544,1.309692l0.219788,0.00061l-0.219788,0.000481c-0.001045,0.00074 -0.001045,0.002693 -0.001526,0.004524c-0.031006,0.17627 -0.155334,1.106079 -0.155334,1.106079l-0.466919,0.016479l-0.014709,-1.12793l-0.016479,-1.229378c0,0 -0.232971,-0.320061 -0.280151,-0.096184c-0.046448,0.224609 -0.124084,0.946533 -0.124084,0.946533c0,0 -0.004639,0.169556 -0.019104,0.379395c-0.023438,0.334351 -0.072205,0.771362 -0.167114,0.790527c-0.155579,0.032715 -0.436218,0.043823 -0.436218,-0.260254c0,-0.122803 0.010315,-0.290283 0.023987,-0.533203l-1.381958,-0.002441c0.001587,0.002075 0.003113,0.005615 0.004944,0.006592c0.497864,0.304688 1.431396,1.035645 1.804932,1.180054c0.372498,0.144287 0.699646,0.229858 1.120361,0.326172c0.419983,0.096191 0.560303,0.165283 0.933044,0.244995c0.373535,0.080078 0.217949,-0.111572 0.217949,-0.111572l0.249458,-0.144409c0,0 0.310608,-0.032112 0.482178,-0.032112c0.171021,0 0.155518,-0.208122 0.155518,-0.208122c0,0 0.403992,0.015373 0.684937,0c0.279602,-0.016479 1.119812,-0.113037 1.228882,-0.144653c0.108887,-0.03186 0.700134,-0.064575 0.855713,-0.112183c0.155754,-0.048584 0.481873,-0.256477 0.793701,-0.449219c0.310356,-0.192383 0.481621,-0.095947 0.606255,-0.095947c0.12458,0 0.249214,-0.18177 0.373238,-0.277832c0.065796,-0.049927 0.280701,-0.048096 0.507935,-0.313843l0.002312,0c0.207405,0 0.423103,-0.096809 0.547913,-0.134766c0.264404,-0.080566 1.38501,-0.493896 1.587288,-0.574463c0.202515,-0.080078 0.938713,-0.36499 0.938713,-0.36499l-0.192924,-0.13269l0,0zm-11.249275,-4.822998c-0.030701,0.624634 -0.139824,0.865234 -0.139824,1.106079c0,0.239983 -0.046211,1.045776 -0.046211,1.045776c0,0 -0.016716,0.156006 -0.053093,0.421875l-0.000549,0c-0.023987,0 -0.058289,0.061401 -0.101868,-0.048218c-0.00415,-0.009766 -0.007996,-0.090576 -0.011902,-0.090576c-0.096436,-0.264771 -0.083008,-0.43042 -0.112427,-0.785522c-0.03125,-0.368896 -0.093391,-1.698364 -0.047241,-1.907227c0.047241,-0.207893 0.202515,-0.536743 0.202515,-0.536743l0.139832,-0.012207c0,0.000244 0.202515,0.181274 0.170769,0.806763l0,0zm7.966682,-0.320557c0,0 0.061646,-0.353279 0.108582,-0.433594c0.046692,-0.0802 0.031494,-0.368652 0.046692,-0.464844c0.015747,-0.096313 0.077934,-0.144173 0.234009,-0.127937c0.155266,0.016243 0.155266,0.336555 0.092827,0.657356c-0.062187,0.320679 -0.062187,0.496582 -0.311333,0.59362c-0.248962,0.095955 -0.170776,-0.224602 -0.170776,-0.224602l0,0zm-5.552124,6.488396c-0.01062,0.118042 -0.018066,0.196663 -0.018066,0.196663c0,0 -0.031006,1.186157 -0.108887,1.330688c-0.077881,0.144409 -0.217476,-0.048096 -0.342041,-0.160278c-0.124084,-0.112183 -0.155586,-0.625488 -0.155586,-0.625488c0,0 0.015503,-0.28894 0.015503,-0.352905c0,-0.038086 0.005379,-0.212402 0.020081,-0.388916l0,0c0.00959,-0.118896 0.023018,-0.239014 0.042061,-0.316658c0.04644,-0.191887 0.031487,-0.320557 0.109673,-0.528435c0.0774,-0.208618 0.248108,-0.401375 0.357002,-0.481689c0.109612,-0.080208 0.14032,0.160645 0.156067,0.256836c0.011589,0.071533 -0.045174,0.7323 -0.075806,1.068848l0.155754,0.000488l-0.155754,0.000847l0,0zm0.967834,-1.839478c0,0 -0.088501,1.202026 -0.11969,1.427124c-0.015755,0.109871 -0.050545,0.262695 -0.075813,0.411507l0.182373,0.00061l-0.186272,0.000488c-0.025513,0.155029 -0.046936,0.306763 -0.038452,0.404533c0.015495,0.193001 0.092346,0.5774 0.030212,0.689583c-0.062195,0.112175 -0.264412,0.25647 -0.327087,0.160889c-0.061646,-0.096321 -0.155334,-0.54554 -0.155334,-0.54554c0,0 0.014709,-0.329094 0.033813,-0.709717c0.019836,-0.390984 0.043335,-0.834709 0.059563,-1.021843c0.030708,-0.368408 0.030708,-1.919189 0.030708,-2.030884c0,-0.067749 -0.039978,-0.433235 -0.071167,-0.697998c-0.021179,0 -0.037659,-0.270874 -0.037659,-0.296143c0,-0.064575 0.092834,-0.491707 0.092834,-0.491707c0,0 0.140617,-0.422112 0.202759,-0.181633c0.061951,0.240349 0.347473,0.61438 0.347473,0.61438c0,0 -0.002563,0.219238 0.255432,0.438599l0,0.000977c0,0.148918 -0.083862,0.298828 -0.083862,0.383667c0,0.20752 -0.139832,1.443108 -0.139832,1.443108l0,0zm0.756897,1.940193c0.030945,0.128418 0.139771,0.496826 0.124084,0.59301c-0.015991,0.095467 -0.077148,0.288216 -0.263916,0.208504c-0.187012,-0.080322 -0.373779,-0.176514 -0.389282,-0.369263c-0.010071,-0.125488 -0.020386,-0.348267 -0.013123,-0.532967c0.004089,-0.095451 0.012634,-0.181877 0.028381,-0.236809c0.046936,-0.160645 0.10907,-1.297974 0.124573,-1.378296c0.015991,-0.081299 0.062134,-0.481689 0.077385,-0.850349c0.012093,-0.282837 -0.003601,-0.859978 -0.031975,-1.200188c-0.009583,-0.101563 -0.018623,-0.181885 -0.029175,-0.226196c-0.047974,-0.192505 -0.140808,-0.657959 -0.12458,-0.786011c0.015205,-0.128174 -0.077934,-0.609253 -0.047722,-0.737671c0.031494,-0.128181 0.233452,-0.400154 0.31189,-0.224365c0.077393,0.17675 0.186462,0.545166 0.186462,0.545166c0,0 0.15509,0.721436 0.186768,1.202881c0.004639,0.067749 0.007996,0.144287 0.011101,0.226196c0.0196,0.493279 0.018074,1.163696 0.005188,1.232788c-0.015991,0.080322 0.014656,0.994019 0.014656,0.994019c0,0 -0.09259,0.465088 -0.108582,0.593018c-0.01313,0.106804 -0.069885,0.60791 -0.068848,0.84375l0,0.000244l0,0.000244c0,0.046509 0.001526,0.080811 0.006714,0.102295l0,0zm-0.451233,-7.022705c-0.140327,-0.015869 -0.40448,0 -0.40448,0c0,0 -0.513855,-0.03186 -0.668884,-0.0802c-0.156075,-0.048218 -0.187263,-0.304932 -0.171021,-0.416626c0.014946,-0.11219 0.217468,-0.176147 0.342346,-0.208374c0.124023,-0.03186 0.435173,-0.192513 0.528564,-0.224609c0.093315,-0.031868 1.447136,-0.048096 1.587219,-0.031868c0.139832,0.015877 0.513123,0.080208 0.684387,0.144295c0.170776,0.064079 0.404236,0.160278 0.435425,0.384644c0.03125,0.224365 -0.062134,0.160278 -0.186523,0.20813c-0.124573,0.04834 -0.311584,0.112427 -0.653145,0.192749c-0.342346,0.080322 -1.354301,0.048088 -1.493889,0.03186l0,0zm2.441162,6.783447l-0.000549,0c-0.004646,0.265869 -0.017517,0.736084 -0.06012,0.779663c-0.062134,0.064331 -0.10907,0.130615 -0.217712,0.066765c-0.102905,-0.060905 -0.164551,-0.47448 -0.170479,-0.725945c-0.000542,-0.014893 -0.001335,-0.020508 -0.001335,-0.034058c0,-0.240845 0.015991,-0.860962 0.015991,-0.860962c0,0 -0.124825,-0.078125 -0.108826,-0.575562c0.015442,-0.49707 -0.031258,-0.768433 -0.031258,-0.768433l-0.077873,-0.144043c0,0 -0.030464,-0.560181 -0.062134,-0.62439c-0.031494,-0.064087 -0.062195,-0.1604 -0.062195,-0.1604l-0.031738,-0.515137c0,0 -0.03717,-0.15918 -0.07428,-0.15918l-0.064766,0c-0.00518,0 -0.005669,0.129997 0,0.15918c0.030708,0.176262 -0.015991,1.123413 -0.015991,1.123413c0,0 0.078438,0.183952 0.078438,0.409294c0,0.224373 -0.0467,0.412849 -0.078438,0.589363c-0.031487,0.176514 0.040779,0.952141 0.040779,0.952141c0,0 -0.052917,0.455086 -0.052917,0.535652l0,0.090332l0,0.518188c0,0 -0.086914,0.369141 -0.1651,0.400757c-0.078438,0.031975 -0.183655,0.160645 -0.277283,0.048706c-0.093628,-0.113037 -0.153748,-0.256836 -0.1073,-0.497681c0.012634,-0.063965 0.027344,-0.242065 0.040459,-0.469971c0.03614,-0.619019 0.069405,-1.597542 0.069405,-1.597542c0,0 0.047722,-1.81189 0.031494,-1.876465c-0.003113,-0.013786 -0.007751,-0.08532 -0.014465,-0.1903c-0.023987,-0.396362 -0.063171,-1.268684 -0.063171,-1.268684c0,0 -0.155334,-0.592896 -0.108643,-0.688835c0.046692,-0.09668 0.264702,-0.208862 0.357544,-0.177002c0.093628,0.032227 0.093628,0.096184 0.14032,0.224365c0.046692,0.128418 0.108879,0.288933 0.108879,0.385132c0,0.09594 0.078438,0.192261 0.171272,0.048096c0.093376,-0.144295 0.124084,-0.23999 0.140076,-0.337036c0.015747,-0.096191 0.015747,-0.480835 0.092888,-0.320557c0.078438,0.160522 0.093628,0.432983 0.093628,0.432983l0.077888,1.136963c0,0 0.017822,0.103882 0.047485,0.369751l0.003906,0c0.00824,0.265869 0.017273,0.214844 0.02655,0.277214c0.046692,0.304451 0.124817,1 0.124817,1c0,0 0.093376,1.429573 0.108643,1.510139c0.015747,0.080566 0.077881,0.802612 0.077881,0.802612c0,0 -0.000244,0.13147 -0.00177,0.13147l0,0zm1.562981,0.138542c-0.02758,0.067024 -0.061157,0.121216 -0.098564,0.132332c-0.109619,0.032471 -0.31134,-0.020393 -0.343079,-0.084717c-0.005684,-0.011963 -0.011848,-0.186157 -0.017273,-0.186157l-0.00312,0c-0.022148,-0.265747 -0.038139,-0.745369 -0.026299,-0.819458c0.015991,-0.095947 -0.015747,-0.392944 -0.077881,-0.521004c-0.062195,-0.127563 -0.139587,-0.757072 -0.170776,-0.837639c-0.030952,-0.079712 -0.030952,-1.052856 -0.0774,-1.149658c-0.010612,-0.021851 -0.043083,-0.127563 -0.086418,-0.393433l-0.021912,0c-0.151978,-0.531616 -0.405273,-1.577026 -0.405273,-1.577026c0,0 -0.031189,-0.886604 0.092346,-0.983032c0.124878,-0.095459 0.015991,-0.210091 0.156067,-0.018433c0.140564,0.192749 0.342346,0.680298 0.31134,0.952515c-0.031189,0.272705 0.206116,1.094116 0.237846,1.302734c0.015205,0.098145 0.055489,0.309448 0.055489,0.516479l0,0.000854c0,0.231804 0.124329,0.460083 0.115845,0.527344c-0.015747,0.128418 0.161438,1.154175 0.161438,1.154175l0.197388,0.385735l0.082031,1.298592c0,0 -0.030457,0.172485 -0.084656,0.29895l0.338989,0.00061l-0.336128,0.000237l0,0zm0.880684,-2.239868c-0.029907,0.320442 -0.046204,0.657478 -0.046204,0.657478c0,0 -0.140076,0.04834 -0.186462,-0.337036c-0.046692,-0.38501 -0.202759,-1.229248 -0.202759,-1.229248c0,0 -0.058838,-0.337036 -0.13208,-0.601807c-0.058594,-0.265015 -0.124084,-0.408325 -0.179321,-0.520149c-0.123535,-0.256828 -0.232422,-0.214348 -0.201721,-0.470825c0.019348,-0.164063 0.002075,-0.391594 0.050598,-0.469109c0.027588,-0.043953 0.150627,-0.008064 0.150627,-0.008064c0,0 0.074837,-0.004509 0.123848,0.018684c0.132324,0.062378 0.325493,0.252441 0.359802,0.474731c0.035645,0.233398 0.052666,0.804688 0.059074,1.060059c0.002083,0.078125 0.003113,0.126343 0.003113,0.126343c0,0 0.233711,0.978394 0.201485,1.298943l0,0zm0.404716,-4.649651c0,0 -0.18676,-0.320923 -0.217461,-0.529053c-0.031738,-0.208374 -0.10907,-0.690063 -0.10907,-0.83387c0,-0.144035 -0.046204,-1.009758 -0.046204,-1.009758c0,0 0.513611,0.03186 0.513062,0.737305c-0.000488,0.705193 0.077934,1.073975 0.077934,1.073975l-0.218262,0.561401l0,0z"/>
   <path id="Shape" d="m37.597946,104.08165l0,-0.407471l-0.731079,-0.00769l-0.002563,4.59655l0.760193,-2.189079l0.150391,-0.042725c0,0 1.817627,0.007935 1.920044,0.007935c0.102173,0 0.403198,-0.028442 0.601807,-0.056885c0.197876,-0.028687 1.4552,-0.31665 1.4552,-0.31665l0.04071,0.035637c0,0 -0.04071,0.042 -0.553589,0.429077c-0.512268,0.386726 -0.648743,0.408211 -0.648743,0.408211l0.102417,0.520752l0.042053,1.864502l-1.58905,-0.007202l0,-0.464355l-0.918884,0l0.013916,3.994743l0.546631,-1.849602l0.164307,-0.227539l1.802124,0.011963l0.007751,3.979614c0,0 0.034302,3.548462 0.026855,3.752808c-0.00647,0.203979 -0.109131,0.014893 -0.109131,0.014893c0,0 -3.005249,-3.715584 -3.189941,-4.025276c-0.18396,-0.309692 -0.129761,-0.414909 -0.129761,-0.414909l0.102356,-0.422371l-0.369141,-0.014404c0,0 0.048523,-0.105225 -0.115784,0.140633c-0.163574,0.246094 -0.484985,0.612427 -0.669434,1.716675c-0.220276,1.322144 0.443665,1.956902 0.443665,1.956902l2.835327,3.716187l2.014404,-1.548698c0,0 1.757507,-0.636841 1.754944,-0.64698c-0.13623,-0.423096 -0.082825,-1.626221 -0.082825,-1.626221l0,-7.53759c0,-0.112183 -0.006958,-1.654785 0.000793,-2.788452c0.006714,-1.133789 0.132874,-1.101814 0.295105,-1.44104c0.162781,-0.338989 0.735962,-0.510376 0.735962,-0.510376l0,-0.640625l-0.191406,0.035034l-6.515625,0.004028l0,0z"/>
   <path id="Shape" d="m49.298874,104.085678l-1.106628,-0.429077l-0.522888,1.903564l0.31958,0.105225l1.309937,-1.579712z"/>
   <path id="Shape" d="m51.332932,104.070175l-1.11853,-0.421509l-0.523926,1.904297l0.334839,0.112427l1.307617,-1.595215z"/>
   <path id="Shape" d="m70.642807,106.059921l-0.532967,0l-1.584465,2.853027l-0.013374,-1.563606l0.218201,-0.655754l-1.898857,-0.693726c0,0 -0.354675,0.533203 -0.614197,0.941162c-0.259766,0.407837 -0.614746,0.843506 -0.614746,0.843506l0.901115,0.323486c0,0 0,5.671875 0.014168,7.361938c0.01342,1.688965 -0.26001,1.899536 -0.26001,1.899536l3.12854,0.858276l1.474792,-2.448982l-0.763855,-0.253052l-0.04126,0.745369l-1.243896,-0.393433l0,-5.898315c0,0 0.451477,-1.041382 0.519836,-1.168457c0.068054,-0.126587 0.136963,-0.309448 0.136963,-0.309448c0,0 0.238586,0.830444 0.402161,1.421387c0.164543,0.591919 0.284546,1.000488 0.270081,1.309937c-0.013672,0.309326 -0.486519,0.815796 -0.486519,0.815796l0.460213,0.479248c0,0 0.175659,-0.182861 0.50354,-0.507202c0.327873,-0.32373 0.586601,-0.830688 0.791138,-1.365723c0.204826,-0.534302 0.053711,-1.516602 0.053711,-1.516602l-0.820313,-3.078369l0,0z"/>
   <path id="Shape" d="m83.551498,108.332626c0.006958,-0.537727 0.396782,-1.351196 0.396782,-1.351196l-2.746269,-1.012939l-1.816589,3.532463c0,0 -0.027344,-0.534904 -0.027344,-1.196526c0,-0.661011 0.246338,-1.308838 0.246338,-1.308838l-2.773376,-1.01355l-1.858337,3.265503c0,0 -0.01239,-0.858765 -0.01239,-1.337036c0,-0.479004 0.231384,-1.097778 0.231384,-1.097778l-2.117371,-0.830688l-1.160828,1.73156l0.915283,0.477905c0,0 0.027031,6.982063 0.013664,7.925667c-0.013664,0.942383 -0.287102,1.492554 -0.287102,1.492554l2.185669,0.590454l0.915527,-1.77356l-0.641792,-0.211311l-0.041801,-5.911613l1.218628,-2.238159l0.875549,0.393677l0,0.872681c0,0 0.09436,5.180046 0.09436,6.545776c0,1.364746 -0.220032,1.732056 -0.220032,1.732056l2.1922,0.590454l0.979729,-1.802002l-0.746025,-0.23877l-0.025269,-5.672852l1.394531,-2.420776l0.710686,0.281494c0,0 0.014473,6.179565 0.000252,7.432365c-0.012878,1.252449 -0.28656,1.745125 -0.28656,1.745125l2.391052,0.675659l0.916008,-1.815308l-0.888664,-0.267708c-0.000801,-0.000237 -0.041565,-6.715088 -0.027893,-7.784782l0,0z"/>
   <path id="Shape" d="m93.850937,107.7136l0.355461,-0.845085l-2.268242,-0.915283l-1.146667,1.915527l0.95575,0.379883c0,0 0.002625,4.706055 0.014214,6.804199c0.012642,2.098145 -0.331474,2.491577 -0.331474,2.491577l2.393921,0.632568l1.06665,-1.809082c0,0 -0.993408,-0.328865 -1.029297,-0.328865c-0.037354,-0.000237 -0.010315,-8.325439 -0.010315,-8.325439l0,0z"/>
   <path id="Shape" d="m92.744553,105.503036l0.300781,0.098259l1.352783,-1.59008l-1.120117,-0.464355l-0.533447,1.956177z"/>
   <path id="Shape" d="m101.022324,104.237167l-0.409912,-0.268188c0,0 -0.012634,0.028076 -0.368591,0.366577c-0.3545,0.337524 -0.84668,-0.014893 -0.84668,-0.014893l-1.215759,-0.788216l-1.216064,1.323242l-1.612,0.493172l0.246094,0.928955l0.027649,14.414177l0.819023,0.013557c0,0 0.014656,-0.337891 0.109627,-0.591194c0.09594,-0.253044 0.328125,-0.393921 0.600525,-0.534904c0.273682,-0.141121 0.615227,-0.126465 0.615227,-0.126465l-0.014153,-9.135742l0.027588,-4.561157c0,0 0.451416,0.196892 0.874756,0.338379c0.423584,0.140015 1.215508,-0.28186 1.215508,-0.28186l1.147163,-1.575439l0,0z"/>
   <path id="Shape" d="m101.965195,103.968979l-1.460815,2.153076l-1.435059,1.532715l0.779053,0c0,0 0.013611,6.701416 0.013611,7.954224c0,1.252808 -0.341492,1.886963 -0.341492,1.886963l2.403931,0.676514l1.052727,-1.844482l-1.02459,-0.295288l0.02655,-8.389282l1.202393,-0.01355l0.859802,-1.703735l-2.088745,0.01416l0.012634,-1.971313l0,0z"/>
   <path id="Shape" d="m113.884621,112.414536c0,0 0.177498,-0.182861 0.505379,-0.506348c0.327881,-0.324341 0.586853,-0.830444 0.791687,-1.365723c0.205566,-0.534912 0.055969,-1.59314 0.055969,-1.59314l-0.820862,-3.155281l-0.532173,0l-1.584404,2.930183l-0.014709,-1.525879l0.218987,-0.636604l-1.898064,-0.683708c0,0 -0.355713,0.536987 -0.615234,0.945313c-0.259773,0.408325 -0.614746,0.846802 -0.614746,0.846802l0.901855,0.324089c0,0 0,5.67347 0.013672,7.361946c0.013672,1.688965 -0.259773,1.900635 -0.259773,1.900635l3.127815,0.858757l1.476318,-2.448723l-0.765877,-0.254639l-0.130241,0.746948l-1.332947,-0.393929l0,-5.898064c0,0 0.54071,-1.041992 0.60907,-1.168457c0.067863,-0.126587 0.180298,-0.309937 0.180298,-0.309937c0,0 0.261833,0.830688 0.426392,1.421867c0.163818,0.591675 0.294922,0.999763 0.280457,1.30909c-0.013184,0.310303 -0.480896,0.81665 -0.480896,0.81665l0.462029,0.478149l0,0z"/>
   <path id="Shape" d="m50.944687,116.087997l-0.018555,-7.818855c0,0 0.083069,-0.329094 0.173889,-0.480347c0.091309,-0.149895 0.19165,-0.338371 0.19165,-0.338371l-3.707458,-1.401489l-1.049683,1.270142l-1.825806,0.940186c0,0 0.218994,0.404297 0.328369,0.546265c0.109375,0.140137 0.481323,0.51416 1.003723,0.828857c0.219543,0.130486 0.201233,0.130486 0.201233,0.130486l-1.579285,0.611946c0,0 0.1922,0.517212 0.201233,0.84668c0.008728,0.328728 0.008728,5.767204 0.008728,5.767204l-0.136719,0.687141l2.601563,0.555542l0.959656,-1.750122l0.465637,-0.743774c0,0 0.063965,0.320068 0.054382,0.460327c-0.008728,0.141724 -0.136719,1.460205 -0.136719,1.460205l2.036133,0.553955l1.122681,-1.844238l-0.739319,-0.197998l-0.155334,-0.08374l0,0zm-3.0401,0.093262l-0.903625,-0.300903l0.008789,-5.503784l1.771667,-0.884407l0.009033,5.11805l-0.885864,1.571045l0,0zm0.657532,-7.150513c-0.306458,0.008179 -0.495789,0.004143 -0.776672,-0.122314c-0.312683,-0.140381 -0.505615,-0.273071 -0.666626,-0.583252c-0.057251,-0.110596 -0.109375,-0.301392 -0.109375,-0.301392l2.48291,0.771965c0,0 -0.556702,0.225594 -0.930237,0.234993l0,0z"/>
   <path id="Shape" d="m54.085922,107.26194l-1.679321,0.761604l0.263367,0.828239l-0.017822,3.330452c0,0 0.027344,3.490715 0,4.036491c-0.0271,0.546028 -0.227539,1.147835 -0.227539,1.147835l2.291504,0.630737l0.036621,0.103394c0,0 -0.192139,0.009644 -0.548401,0.132202c-0.355713,0.121704 -0.757629,0.451042 -1.232056,0.939697c-0.47467,0.490112 -0.921936,1.393677 -0.921936,1.393677l0.502258,0.187622c0,0 0.263855,-0.489624 0.474121,-0.658691c0.210266,-0.169556 0.319092,-0.197266 1.077271,-0.188232c0.758423,0.008789 2.108582,0.686646 2.108582,0.686646l1.233826,-1.298218l1.359741,-0.41394l-0.018555,-6.501709c0,0 0,-3.89563 0.028076,-4.290894c0.0271,-0.394653 0.292053,-0.694824 0.292053,-0.694824l-3.998718,-1.383919l-1.023071,1.251831l0,0zm2.859253,11.196045l-1.686279,-0.414909l1.686279,-2.996094l0,3.411003l0,0zm0,-8.222038l0,3.678101l-1.320007,2.220207l-0.810791,-0.225945l-0.0495,-7.83728l2.273438,0.790642l-0.413513,0.564827c0,-0.000244 0.320374,0.470451 0.320374,0.809448l0,0z"/>
   <path id="Shape" d="m64.755295,116.257797l-2.158386,-0.563477l-0.027344,-1.364746l2.746033,-5.054321l0.328125,-0.408333l-2.677673,-2.856812l-1.311768,1.54847l-1.447693,0.394531c0,0 0.204346,0.618774 0.218018,1.64563c0.013672,1.02771 0,6.518188 0,6.518188l-0.20459,1.097534l4.084595,1.041496l1.365417,-2.476929l-0.668396,-0.211296l-0.246338,0.690063l0,0zm-2.213318,-7.671265l1.557556,1.82959l-1.543152,2.941895l-0.014404,-4.771484l0,0z"/>
   <path id="Shape" d="m89.671188,116.20311l-2.158882,-0.5625l-0.026848,-1.365845l2.745789,-5.052734l0.327332,-0.408569l-2.676636,-2.857544l-1.311226,1.548706l-1.448235,0.394409c0,0 0.205383,0.618408 0.219055,1.645508c0.01416,1.028931 0,6.518188 0,6.518188l-0.20533,1.097771l4.084846,1.041512l1.364868,-2.477173l-0.668884,-0.210815l-0.24585,0.689087l0,0zm-2.212585,-7.671394l1.557068,1.830208l-1.544128,2.942139l-0.012939,-4.772346l0,0z"/>
   <path id="Shape" d="m108.616493,116.143295l-2.157341,-0.563599l-0.02784,-1.365234l2.74604,-5.052979l0.327812,-0.408325l-2.677116,-2.857552l-1.312256,1.548096l-1.447449,0.393929c0,0 0.205078,0.619141 0.219299,1.647095c0.012878,1.027336 0,6.51709 0,6.51709l-0.205627,1.098877l4.084351,1.041504l1.366211,-2.477913l-0.670227,-0.211052l-0.245857,0.690063l0,0zm-2.212517,-7.672119l1.557312,1.829582l-1.54364,2.94239l-0.013672,-4.771973l0,0z"/>
   <path id="Shape" d="m74.7957,45.768658l0,3.865845l-3.640625,0l0,1.744263l3.640625,0l0,8.311401l1.968018,0l0,-8.311157l3.568665,0l0,-1.744263l-3.568665,0l0,-3.866089l-1.968018,0l0,0zm-0.688477,-0.707397l3.348083,0l0,3.861572l3.568176,0l0,3.165894l-3.568176,0l0,8.312012l-3.348083,0l0,-8.311768l-3.6427,0l0,-3.165894l3.6427,0l0,-3.861816l0,0z"/>
   <path id="Shape" d="m69.685471,90.831528l0.803284,0.529785l0.691093,-0.049438l0.152718,-0.165535l0.04821,-0.057976l0.0243,-0.405884l-0.546631,0.273438l-1.172974,-0.12439z"/>
  </g>
 </g>
</svg>