<?xml version="1.0" encoding="UTF-8" standalone="no"?>
<svg width="147px" height="39px" viewBox="0 0 147 39" version="1.1" xmlns="http://www.w3.org/2000/svg" xmlns:xlink="http://www.w3.org/1999/xlink" xmlns:sketch="http://www.bohemiancoding.com/sketch/ns">
    <!-- Generator: Sketch 3.3.2 (12043) - http://www.bohemiancoding.com/sketch -->
    <title>Sugar logo Copy</title>
    <desc>Created with Sketch.</desc>
    <defs></defs>
    <g id="Page-1" stroke="none" stroke-width="1" fill="none" fill-rule="evenodd" sketch:type="MSPage">
        <g id="iPad-Landscape" sketch:type="MSArtboardGroup" transform="translate(-439.000000, -14.000000)">
            <g id="Sugar-logo-Copy" sketch:type="MSLayerGroup" transform="translate(439.000000, 14.000000)">
                <path d="M30.3238331,23.1507472 L30.3238331,1.55600318 C30.3238331,0.697373609 31.0202719,0 31.8793688,0 L53.0403577,0 C53.9001558,0 54.5965946,0.697139905 54.5965946,1.55600318 L54.5965946,23.1507472 C54.5965946,24.0103116 53.9001558,24.7076852 53.0403577,24.7076852 L31.8793688,24.7076852 C31.0202719,24.7076852 30.3238331,24.0100779 30.3238331,23.1507472" id="Shape" fill="#8BC53F" sketch:type="MSShapeGroup"></path>
                <path d="M60.6467313,23.1507472 L60.6467313,1.55600318 C60.6467313,0.697373609 61.3436375,0 62.2027345,0 L83.3641908,0 C84.2228203,0 84.9199603,0.697139905 84.9199603,1.55600318 L84.9199603,23.1507472 C84.9199603,24.0103116 84.2228203,24.7076852 83.3641908,24.7076852 L62.2027345,24.7076852 C61.3436375,24.7076852 60.6467313,24.0100779 60.6467313,23.1507472" id="Shape" fill="#8BC53F" sketch:type="MSShapeGroup"></path>
                <path d="M90.970097,23.1507472 L90.970097,1.55600318 C90.970097,0.697373609 91.6663021,0 92.5261002,0 L113.686855,0 C114.54642,0 115.243793,0.697139905 115.243793,1.55600318 L115.243793,23.1507472 C115.243793,24.0103116 114.54642,24.7076852 113.686855,24.7076852 L92.5261002,24.7076852 C91.6663021,24.7076852 90.970097,24.0100779 90.970097,23.1507472" id="Shape" fill="#8BC53F" sketch:type="MSShapeGroup"></path>
                <path d="M122.726304,1.55600318 C122.726304,0.697373609 123.423677,0 124.282307,0 L145.443296,0 C146.302626,0 146.999065,0.697139905 146.999065,1.55600318 L146.999065,23.1507472 C146.999065,24.0103116 146.302626,24.7076852 145.443296,24.7076852 L124.282307,24.7076852 C123.423677,24.7076852 122.726304,24.0103116 122.726304,23.1507472 L122.726304,1.55600318 L122.726304,1.55600318 Z" id="Shape" fill="#8BC53F" sketch:type="MSShapeGroup"></path>
                <g id="Group" sketch:type="MSShapeGroup">
                    <path d="M0,1.55600318 C0,0.697139905 0.696672496,0 1.55623688,0 L22.7167583,0 C23.5772576,0 24.2729952,0.697139905 24.2729952,1.55600318 L24.2729952,23.1507472 C24.2729952,24.0103116 23.5770238,24.7076852 22.7167583,24.7076852 L1.55623688,24.7076852 C0.696672496,24.7076852 0,24.0100779 0,23.1507472 L0,1.55600318 L0,1.55600318 Z" id="Shape" fill="#8BC53F"></path>
                    <path d="M15.1227711,8.28201272 C15.1085151,8.01769316 15.0124626,7.76833068 14.8357822,7.53299046 C14.6602703,7.28245946 14.4172178,7.06277742 14.1098967,6.87160731 C13.8154293,6.68090461 13.4704817,6.5334372 13.0736518,6.43107472 C12.6770556,6.31352146 12.2582576,6.25416057 11.817725,6.25416057 C11.3629364,6.25416057 10.9289475,6.31352146 10.5178617,6.43107472 C10.1219666,6.5334372 9.77608426,6.68067091 9.48301908,6.87160731 C9.18855167,7.06277742 8.95391256,7.289938 8.77746582,7.55519237 C8.60078537,7.81951192 8.51361367,8.09832114 8.51361367,8.39138633 C8.51361367,8.68632114 8.62345469,8.95788553 8.84383784,9.20724801 C9.06375358,9.44188712 9.33555167,9.64801431 9.6582973,9.82422734 C9.99670111,10.0002067 10.356372,10.1479078 10.7380111,10.265461 C11.1194165,10.3820795 11.4807234,10.4631749 11.817725,10.507345 C12.4935978,10.5804944 13.1253005,10.7419841 13.7123657,10.9913466 C14.3146216,11.2271542 14.8357822,11.5281653 15.2765485,11.8953148 C15.7168474,12.2624642 16.0622623,12.6955183 16.3123259,13.1951781 C16.5616884,13.6791797 16.6864865,14.2078188 16.6864865,14.7815628 C16.6864865,15.368628 16.5544436,15.9267138 16.2905914,16.4551192 C16.0405278,16.969035 15.6871669,17.4168124 15.2323784,17.79962 C14.776655,18.1819603 14.2489507,18.4895151 13.6459936,18.725089 C13.0442051,18.9445374 12.3975453,19.0553132 11.7071828,19.0553132 C11.0168203,19.0553132 10.3715628,18.9445374 9.76837202,18.725089 C9.16681717,18.5044722 8.63771065,18.2029936 8.18198728,17.8220556 C7.72719873,17.4252258 7.36752782,16.9692687 7.10320827,16.4551192 C6.85384579,15.9414372 6.72834658,15.3908299 6.72834658,14.8032973 C6.72834658,14.6268506 6.78724006,14.4793831 6.90479332,14.3615962 C7.03683625,14.229787 7.19084738,14.1643498 7.36752782,14.1643498 C7.54420827,14.1643498 7.69027345,14.2295533 7.80806041,14.3615962 C7.94010334,14.4793831 8.00647536,14.6268506 8.00647536,14.8032973 C8.00647536,15.2148506 8.10252782,15.6039682 8.29299682,15.9704165 C8.48393323,16.3237774 8.74030684,16.6325008 9.06375358,16.8958855 C9.40075517,17.1599714 9.79010652,17.3733434 10.2318076,17.5343657 C10.6865962,17.6820668 11.172,17.7549825 11.685682,17.7549825 C12.1993641,17.7549825 12.6843005,17.6820668 13.1404913,17.5343657 C13.5948124,17.3733434 13.9921097,17.1597377 14.3300461,16.8958855 C14.6820048,16.6325008 14.9535692,16.3237774 15.1445056,15.9704165 C15.3349746,15.6039682 15.4172385,15.2148506 15.3868569,14.8032973 C15.358345,14.4209571 15.240558,14.0687647 15.0344308,13.7460191 C14.8294722,13.4076153 14.5646852,13.1147838 14.2414722,12.8644865 C13.9177917,12.6001669 13.5436312,12.3870286 13.1171208,12.2257727 C12.7065024,12.0495596 12.2732146,11.9252289 11.8174913,11.850911 C11.2000445,11.807442 10.6055008,11.689655 10.0329253,11.4987186 C9.47483943,11.3077822 8.98289189,11.0656645 8.55684897,10.7709634 C8.13150715,10.4631749 7.78609221,10.1105151 7.52177266,9.71368521 C7.27147536,9.30213196 7.14714467,8.85435453 7.14714467,8.37035294 C7.14714467,7.88635135 7.26446423,7.43763911 7.49910334,7.02585215 C7.74869952,6.60027663 8.08663593,6.23312719 8.51337997,5.92440382 C8.93848808,5.60165819 9.43043561,5.35136089 9.98945628,5.17514785 C10.5620318,4.98421145 11.1717663,4.88956121 11.8174913,4.88956121 C12.4636836,4.88956121 13.0659396,4.98421145 13.6240254,5.17514785 C14.196601,5.35136089 14.6957933,5.60165819 15.1225374,5.92440382 C15.548814,6.23312719 15.8790382,6.60027663 16.1136773,7.02585215 C16.3632734,7.43763911 16.488539,7.88635135 16.488539,8.37035294 C16.488539,8.56128935 16.4219332,8.72254531 16.2903577,8.85435453 C16.1571463,8.98686486 15.9958903,9.05276948 15.8058887,9.05276948 C15.6142512,9.05276948 15.4525278,8.98709857 15.3209523,8.85435453 C15.2036328,8.70758824 15.1367933,8.51641812 15.1227711,8.28201272" id="Shape" fill="#FFFFFF"></path>
                </g>
                <path d="M42.1193561,19.3974563 C41.3852909,19.3974563 40.7094181,19.2656471 40.0929062,19.0013275 C39.4759269,18.7225183 38.9395755,18.3551351 38.4845533,17.8987107 C38.0430859,17.4287313 37.6908935,16.8865374 37.4263402,16.2688569 C37.1620207,15.6376216 37.0224992,14.9689936 37.0087107,14.2643752 L37.0087107,5.84774881 C37.0087107,5.68672655 37.0746153,5.54650397 37.2068919,5.42965183 C37.3529571,5.31186486 37.522159,5.25343879 37.7128617,5.25343879 C37.9037981,5.25343879 38.0662226,5.31186486 38.1982655,5.42965183 C38.3296073,5.53248172 38.3969141,5.67807949 38.3969141,5.87018442 L38.3969141,14.4179189 C38.3969141,14.9327695 38.4915644,15.4095262 38.6825008,15.8507599 C38.888628,16.2761017 39.1599587,16.658442 39.4976614,16.9966121 C39.8503211,17.3195914 40.2466836,17.575965 40.688151,17.7673688 C41.1427059,17.9433482 41.6124515,18.0316884 42.0976216,18.0316884 C42.6405167,18.0316884 43.1401765,17.9361033 43.5961335,17.7449332 C44.0658792,17.5399746 44.4694865,17.2674754 44.8076566,16.9300064 C45.1458267,16.5925374 45.4092114,16.1954738 45.6003816,15.7404515 C45.7922528,15.2849618 45.8871367,14.8002591 45.8871367,14.2865771 L45.8871367,5.84774881 C45.8871367,5.68672655 45.9537424,5.54650397 46.0857854,5.42965183 C46.2178283,5.31186486 46.3790843,5.25343879 46.5709555,5.25343879 C46.7759141,5.23871542 46.9371701,5.30462003 47.0547234,5.45208744 C47.172744,5.58342925 47.2316375,5.73113037 47.2316375,5.89238633 L47.2316375,14.4849921 C47.2316375,15.1898442 47.0921161,15.8425803 46.8128394,16.4464722 C46.5337965,17.0323688 46.1589348,17.546752 45.6887218,17.9882194 C45.2189762,18.4285183 44.6756137,18.7736995 44.0581669,19.0239968 C43.4409539,19.2733593 42.7949952,19.3974563 42.1193561,19.3974563" id="Shape" fill="#FFFFFF" sketch:type="MSShapeGroup"></path>
                <path d="M76.1235644,12.9642782 C76.1235644,12.7738092 76.1892353,12.6120859 76.3219793,12.4795755 C76.4537886,12.3470652 76.6152782,12.2811606 76.8071494,12.2811606 L79.5386852,12.2811606 C79.7293879,12.2811606 79.8908776,12.3468315 80.0224531,12.4795755 C80.1558983,12.6120859 80.2211017,12.7738092 80.2211017,12.9642782 C80.1486534,13.8603005 79.9133132,14.7049078 79.5162496,15.4988013 C79.1194197,16.2763355 78.6057377,16.9599205 77.9733339,17.546752 C77.3575231,18.1197949 76.6381812,18.5752846 75.8146073,18.9129873 C75.0066916,19.2359666 74.1408172,19.3974563 73.2153482,19.3974563 C72.2459428,19.3974563 71.3351971,19.2149332 70.483345,18.846849 C69.6317266,18.4796995 68.889248,17.979806 68.2582464,17.348337 C67.6265437,16.7166343 67.1271176,15.9762591 66.760903,15.1230048 C66.3937536,14.2718537 66.2091272,13.3613418 66.2091272,12.391469 C66.2091272,11.422531 66.3937536,10.5120191 66.760903,9.65993323 C67.1271176,8.79312401 67.6265437,8.03638951 68.2582464,7.39113196 C68.889248,6.72998251 69.6319603,6.21536566 70.483345,5.84798251 C71.3354308,5.46587599 72.2459428,5.27517329 73.2153482,5.27517329 C74.1994769,5.27517329 75.1177011,5.46587599 75.9695533,5.84798251 C76.8354277,6.22915421 77.5921622,6.7512496 78.2383545,7.41216534 C78.3998442,7.54467568 78.4811733,7.70616534 78.4811733,7.89710175 C78.4942607,8.08710334 78.444248,8.25677266 78.3276296,8.40353895 C78.1799285,8.55077266 78.0030143,8.6239221 77.7980556,8.6239221 C77.5921622,8.60919873 77.4096391,8.52109221 77.2474483,8.35866773 C76.7325978,7.83096343 76.1312766,7.41193164 75.440213,7.10320827 C74.7505517,6.79541971 74.0080731,6.64140859 73.2153482,6.64140859 C72.4364118,6.64140859 71.7023466,6.79518601 71.0122178,7.10320827 C70.3218553,7.41193164 69.719132,7.83096343 69.2054499,8.35866773 C68.7060238,8.87328458 68.309194,9.48325278 68.0158951,10.1881049 C67.7214277,10.8787011 67.5751288,11.6122989 67.5751288,12.3912353 C67.5751288,13.169938 67.7214277,13.9044706 68.0158951,14.594132 C68.309194,15.2849618 68.7060238,15.8869841 69.2054499,16.4004324 C69.719132,16.9003259 70.3218553,17.2971558 71.0122178,17.5911558 C71.7023466,17.8849221 72.4364118,18.0316884 73.2153482,18.0316884 C73.891221,18.0316884 74.5299348,17.9209126 75.1321908,17.7007631 C75.734213,17.4808474 76.2782766,17.1793688 76.7622782,16.7984308 C77.2474483,16.4006661 77.6583005,15.9386328 77.9957695,15.4097599 C78.3327711,14.8673323 78.5767583,14.2790986 78.7223561,13.6478633 L76.8069157,13.6478633 C76.6150445,13.6478633 76.4535548,13.5807901 76.3217456,13.4494483 C76.1892353,13.3157695 76.1235644,13.1545135 76.1235644,12.9642782" id="Shape" fill="#FFFFFF" sketch:type="MSShapeGroup"></path>
                <path d="M99.67862,15.5754563 L106.089596,15.5754563 L102.895092,7.79777742 L99.67862,15.5754563 L99.67862,15.5754563 Z M108.777429,18.4614706 C108.84941,18.638151 108.84941,18.8134293 108.777429,18.9903434 C108.70428,19.1515994 108.578781,19.2691526 108.402801,19.3425358 C108.226121,19.4161526 108.050141,19.4161526 107.873928,19.3425358 C107.712672,19.254663 107.595119,19.1293975 107.520568,18.9679078 L106.639502,16.9409905 L99.1060445,16.9409905 L98.2455453,18.9679078 C98.171461,19.1291638 98.0468967,19.254663 97.8709173,19.3425358 C97.7094277,19.4161526 97.5411606,19.4161526 97.3644801,19.3425358 C97.1885008,19.2693863 97.0623005,19.1518331 96.9898521,18.9903434 C96.9167027,18.8134293 96.9167027,18.638151 96.9898521,18.4614706 L102.254509,5.74889189 C102.298679,5.63110493 102.379774,5.5205628 102.497328,5.41890143 C102.615348,5.30111447 102.747859,5.24175358 102.894157,5.24175358 C103.04069,5.24175358 103.172266,5.29363593 103.290286,5.39646582 C103.407839,5.49929571 103.496881,5.61708267 103.555307,5.74889189 L108.777429,18.4614706 L108.777429,18.4614706 Z" id="Shape" fill="#FFFFFF" sketch:type="MSShapeGroup"></path>
                <path d="M131.681385,10.4087218 C131.681385,10.9226375 131.777905,11.4073402 131.967906,11.8630636 C132.174968,12.318787 132.445364,12.7151494 132.784002,13.0526184 C133.122405,13.3907886 133.517366,13.6625866 133.973556,13.8682464 C134.427878,14.0594165 134.913749,14.1543005 135.427431,14.1543005 C135.941113,14.1543005 136.426283,14.0596502 136.881539,13.8682464 C137.336795,13.6625866 137.733625,13.3907886 138.072262,13.0526184 C138.424455,12.7151494 138.695318,12.318787 138.886254,11.8630636 C139.092148,11.4075739 139.194744,10.9228712 139.194744,10.4087218 C139.194744,9.89433863 139.092148,9.41033704 138.886254,8.95508108 C138.695318,8.4986566 138.424221,8.10299523 138.072262,7.76435771 C137.733859,7.41310016 137.337029,7.14130207 136.881539,6.95036566 C136.426517,6.74447218 135.941347,6.64070747 135.427431,6.64070747 C134.913983,6.64070747 134.428111,6.74447218 133.973556,6.95036566 C133.517366,7.14130207 133.122405,7.41310016 132.784002,7.76435771 C132.445364,8.10276153 132.174968,8.4986566 131.967906,8.95508108 C131.777905,9.41033704 131.681385,9.89433863 131.681385,10.4087218 L131.681385,10.4087218 Z M132.387172,14.4403545 C132.314022,14.3819285 132.217502,14.2854086 132.100417,14.1540668 C131.983564,14.0224913 131.843809,13.8238426 131.681385,13.5595231 L131.681385,18.6926041 C131.681385,18.8835405 131.616649,19.045965 131.483671,19.1775405 C131.351394,19.3088824 131.189671,19.3761892 130.998968,19.3761892 C130.808032,19.3761892 130.646542,19.3091161 130.5152,19.1775405 C130.38269,19.045965 130.316552,18.8835405 130.316552,18.6926041 L130.316552,10.4087218 C130.316552,9.70293482 130.447893,9.0429539 130.713148,8.42574086 C130.976533,7.79427186 131.336671,7.24997456 131.792394,6.79541971 C132.261672,6.32544038 132.805035,5.95829094 133.422715,5.69397138 C134.053951,5.41492846 134.722579,5.2758744 135.427197,5.2758744 C136.131816,5.2758744 136.793199,5.41492846 137.410645,5.69397138 C138.042114,5.95829094 138.585243,6.32544038 139.040499,6.79541971 C139.510712,7.24974086 139.877862,7.79403816 140.142181,8.42574086 C140.421224,9.0431876 140.560278,9.70316852 140.560278,10.4087218 C140.560278,11.1135739 140.428936,11.7819682 140.165552,12.4136709 C139.900297,13.0308839 139.533148,13.5660668 139.062234,14.0224913 C138.606744,14.4765787 138.072029,14.8439618 137.454114,15.1227711 C136.838304,15.3880254 136.176453,15.5205358 135.471835,15.5205358 L138.291477,18.2079014 C138.438711,18.3404118 138.510925,18.495124 138.510925,18.6704022 C138.510925,18.8477838 138.452733,19.0090397 138.334946,19.1553386 C138.218094,19.3018712 138.064083,19.3824992 137.873146,19.3981574 C137.68221,19.3981574 137.513242,19.3315517 137.364839,19.1997424 L132.387172,14.4403545 L132.387172,14.4403545 Z" id="Shape" fill="#FFFFFF" sketch:type="MSShapeGroup"></path>
                <g id="Group" transform="translate(1.168521, 32.718601)" fill="#808184" sketch:type="MSShapeGroup">
                    <path d="M2.16223211,5.34972496 L1.81003975,5.34972496 L1.81003975,0.431885533 L0.141858506,0.431885533 L0.141858506,0.165228935 L3.83064706,0.165228935 L3.83064706,0.431885533 L2.16223211,0.431885533 L2.16223211,5.34972496 L2.16223211,5.34972496 Z" id="Shape"></path>
                    <path d="M15.3359094,5.34972496 L15.3359094,0.165228935 L15.687868,0.165228935 L15.687868,2.50554372 L18.9323847,2.50554372 L18.9323847,0.165228935 L19.2845771,0.165228935 L19.2845771,5.34972496 L18.9323847,5.34972496 L18.9323847,2.77220032 L15.687868,2.77220032 L15.687868,5.34972496 L15.3359094,5.34972496 L15.3359094,5.34972496 Z" id="Shape"></path>
                    <path d="M34.5541145,2.81683784 L31.3348378,2.81683784 C31.3348378,4.34222576 32.8272734,5.08306836 34.0175294,5.08306836 L34.5541145,5.08306836 L34.5541145,5.34972496 L33.8833831,5.34972496 C32.424601,5.34972496 30.9826455,4.43126709 30.9826455,2.75747695 C30.9826455,1.0836868 32.424601,0.165228935 33.8833831,0.165228935 L34.5541145,0.165228935 L34.5541145,0.431885533 L33.9002099,0.431885533 C32.4077742,0.431885533 31.3346041,1.54291574 31.3346041,2.55018124 L34.5538808,2.55018124 L34.5538808,2.81683784 L34.5541145,2.81683784 Z" id="Shape"></path>
                    <path d="M63.6680604,5.34972496 L63.315868,5.34972496 L63.315868,2.81683784 L60.3144038,2.81683784 L60.3144038,2.55018124 L63.315868,2.55018124 L63.315868,1.76516852 C63.315868,0.891114467 62.6451367,0.358034976 61.6474531,0.358034976 C60.6497695,0.358034976 59.9790382,0.891114467 59.9790382,1.76516852 L59.9790382,5.34972496 L59.6268458,5.34972496 L59.6268458,1.86145469 C59.6268458,0.735467409 60.42331,0.0761875994 61.6474531,0.0761875994 C62.8715962,0.0761875994 63.6680604,0.735233704 63.6680604,1.86145469 L63.6680604,5.34972496 L63.6680604,5.34972496 Z" id="Shape"></path>
                    <path d="M80.2790604,1.15029253 C79.8013688,0.638947536 79.0467377,0.357801272 78.2418601,0.357801272 C76.7494245,0.357801272 75.634655,1.46111924 75.634655,2.75747695 C75.634655,4.05383466 76.7496582,5.15715262 78.2418601,5.15715262 C79.6838156,5.15715262 80.7569857,4.13516375 80.7904054,2.86124165 L78.2418601,2.86124165 L78.2418601,2.59458506 L81.1591908,2.59458506 C81.2096709,4.35741653 79.8345548,5.4387663 78.2418601,5.4387663 C76.5734452,5.4387663 75.2656359,4.22420509 75.2656359,2.75747695 C75.2656359,1.29074881 76.5736789,0.0761875994 78.2418601,0.0761875994 C79.1306375,0.0761875994 79.9773482,0.379769475 80.5223466,0.928039746 L80.2790604,1.15029253 L80.2790604,1.15029253 Z" id="Shape"></path>
                    <path d="M96.2032035,2.81683784 L92.9839269,2.81683784 C92.9839269,4.34222576 94.4763625,5.08306836 95.6666184,5.08306836 L96.2032035,5.08306836 L96.2032035,5.34972496 L95.5324722,5.34972496 C94.07369,5.34972496 92.6317345,4.43126709 92.6317345,2.75747695 C92.6317345,1.0836868 94.07369,0.165228935 95.5324722,0.165228935 L96.2032035,0.165228935 L96.2032035,0.431885533 L95.5492989,0.431885533 C94.0568633,0.431885533 92.9836932,1.54291574 92.9836932,2.55018124 L96.2029698,2.55018124 L96.2029698,2.81683784 L96.2032035,2.81683784 Z" id="Shape"></path>
                    <path d="M108.077251,5.34972496 L108.077251,0.491246423 C108.077251,0.298674086 108.177978,0.0764213037 108.51311,0.0764213037 C108.739569,0.0764213037 108.873715,0.120591415 109.016041,0.387248013 L111.472507,5.02394118 C111.506161,5.08330207 111.556407,5.12747218 111.615067,5.12747218 C111.673727,5.12747218 111.70738,5.08330207 111.70738,4.98678219 L111.70738,0.0761875994 L112.059572,0.0761875994 L112.059572,5.06834499 C112.059572,5.31981081 111.925426,5.43853259 111.631893,5.43853259 C111.313355,5.43853259 111.170795,5.23123688 111.095308,5.08306836 L108.764576,0.646426073 C108.647256,0.4246407 108.596776,0.358034976 108.529936,0.358034976 C108.471043,0.358034976 108.42921,0.394960254 108.42921,0.491246423 L108.42921,5.34972496 L108.077251,5.34972496 L108.077251,5.34972496 Z" id="Shape"></path>
                    <path d="M127.513736,5.34972496 L126.767518,5.34972496 C125.30897,5.34972496 123.866781,4.43126709 123.866781,2.75747695 C123.866781,1.0836868 125.30897,0.165228935 126.767518,0.165228935 L127.522149,0.165228935 L127.522149,0.431885533 L126.834591,0.431885533 C125.602269,0.431885533 124.2358,1.17226073 124.2358,2.75747695 C124.2358,4.34222576 125.602269,5.08306836 126.834591,5.08306836 L127.513736,5.08306836 L127.513736,5.34972496 L127.513736,5.34972496 Z" id="Shape"></path>
                    <path d="M142.74962,0.165228935 L142.74962,1.57984102 C142.74962,2.57214944 141.969983,3.18702544 141.131685,3.18702544 L141.131685,5.34972496 L140.779493,5.34972496 L140.779493,3.18702544 C139.940962,3.18702544 139.161324,2.57214944 139.161324,1.57984102 L139.161324,0.165228935 L139.513517,0.165228935 L139.513517,1.60204293 C139.513517,2.38705564 140.117175,2.90517806 140.955472,2.90517806 C141.794003,2.90517806 142.397428,2.38705564 142.397428,1.60204293 L142.397428,0.165228935 L142.74962,0.165228935 L142.74962,0.165228935 Z" id="Shape"></path>
                </g>
                <rect id="Rectangle-path" sketch:type="MSShapeGroup" x="0" y="0" width="147" height="39.0905485"></rect>
            </g>
        </g>
    </g>
</svg>