<?xml version="1.0" encoding="UTF-8" standalone="no"?>
<svg width="49px" height="48px" viewBox="0 0 49 48" version="1.1" xmlns="http://www.w3.org/2000/svg" xmlns:xlink="http://www.w3.org/1999/xlink" xmlns:sketch="http://www.bohemiancoding.com/sketch/ns">
    <!-- Generator: Sketch 3.3.2 (12043) - http://www.bohemiancoding.com/sketch -->
    <title>Outdoor Copy</title>
    <desc>Created with Sketch.</desc>
    <defs></defs>
    <g id="Page-1" stroke="none" stroke-width="1" fill="none" fill-rule="evenodd" sketch:type="MSPage">
        <g id="Desktop-HD" sketch:type="MSArtboardGroup" transform="translate(-444.000000, -1108.000000)">
            <g id="OUTDOOR-Copy-+-Outdoor-Copy-Copy" sketch:type="MSLayerGroup" transform="translate(408.000000, 1107.546609)">
                <g id="Outdoor-Copy" transform="translate(37.000000, 0.828125)" sketch:type="MSShapeGroup">
                    <path d="M25.75,46.367 C25.75,46.647 25.522,46.875 25.242,46.875 L21.258,46.875 C20.978,46.875 20.75,46.647 20.75,46.367 L20.75,28.383 C20.75,28.103 20.978,27.875 21.258,27.875 L25.242,27.875 C25.522,27.875 25.75,28.103 25.75,28.383 L25.75,46.367 L25.75,46.367 Z" id="Shape" fill="#4A4A4A"></path>
                    <path d="M27.25,45.492 C27.25,45.771 27.021,46.375 26.742,46.375 L22.758,46.375 C22.478,46.375 22.25,45.771 22.25,45.492 L22.25,28.883 C22.25,28.604 22.478,28.355 22.756,28.328 L26.744,27.963 C27.022,27.937 27.25,28.145 27.25,28.424 L27.25,45.492 L27.25,45.492 Z" id="Shape" stroke="#4A4A4A"></path>
                    <path d="M47.25,25.875 C47.25,26.15 47.025,26.395 46.752,26.417 L0.748,30.333 C0.474,30.355 0.25,30.15 0.25,29.875 L0.25,4.875 C0.25,4.6 0.474,4.356 0.748,4.333 L46.752,0.418 C47.025,0.395 47.25,0.601 47.25,0.876 L47.25,25.875 L47.25,25.875 Z" id="Shape" stroke="#4A4A4A"></path>
                    <path d="M2.25,28.875 L2.25,27.032 C2.25,26.785 2.459,26.566 2.705,26.546 L43.867,23.038 C44.112,23.017 44.25,23.202 44.25,23.448 L44.25,25.875" id="Shape" stroke="#4A4A4A"></path>
                    <path d="M0.292,28.917 L47.333,24.792 L47.25,26.375 L6.917,29.875 L0.5,30.292 L0.292,28.917 Z" id="Shape" fill="#4A4A4A"></path>
                </g>
            </g>
        </g>
    </g>
</svg>