<?xml version="1.0" encoding="UTF-8" standalone="no"?>
<svg width="34px" height="45px" viewBox="0 0 34 45" version="1.1" xmlns="http://www.w3.org/2000/svg" xmlns:xlink="http://www.w3.org/1999/xlink" xmlns:sketch="http://www.bohemiancoding.com/sketch/ns">
    <!-- Generator: Sketch 3.3.2 (12043) - http://www.bohemiancoding.com/sketch -->
    <title>Print Copy</title>
    <desc>Created with Sketch.</desc>
    <defs></defs>
    <g id="Page-1" stroke="none" stroke-width="1" fill="none" fill-rule="evenodd" sketch:type="MSPage">
        <g id="Desktop-HD" sketch:type="MSArtboardGroup" transform="translate(-782.000000, -981.000000)">
            <g id="PRINT-Copy-+-Print-Copy-Copy" sketch:type="MSLayerGroup" transform="translate(738.000000, 980.546609)">
                <g id="Print-Copy" transform="translate(44.500000, 0.828125)" sketch:type="MSShapeGroup">
                    <path d="M32.25,42.875 C32.25,43.151 32.026,43.375 31.75,43.375 L0.75,43.375 C0.474,43.375 0.25,43.151 0.25,42.875 L0.25,0.875 C0.25,0.599 0.474,0.375 0.75,0.375 L31.75,0.375 C32.026,0.375 32.25,0.599 32.25,0.875 L32.25,42.875 L32.25,42.875 Z" id="Shape" stroke="#4A4A4A"></path>
                    <rect id="Rectangle-path" x="22.75" y="35.875" width="6" height="4"></rect>
                    <path d="M28.668,35.375 L22.832,35.375 C22.511,35.375 22.25,35.636 22.25,35.957 L22.25,38.793 C22.25,39.114 22.511,39.375 22.832,39.375 L28.668,39.375 C28.989,39.375 29.25,39.114 29.25,38.793 L29.25,35.957 C29.25,35.636 28.989,35.375 28.668,35.375 L28.668,35.375 Z" id="Shape" stroke="#4A4A4A"></path>
                    <path d="M4.75,31.375 L18.75,31.375" id="Shape" stroke="#4A4A4A"></path>
                    <path d="M4.75,33.375 L18.75,33.375" id="Shape" stroke="#4A4A4A"></path>
                    <path d="M4.75,37.375 L10.75,37.375" id="Shape" stroke="#4A4A4A"></path>
                    <path d="M4.75,39.375 L10.75,39.375" id="Shape" stroke="#4A4A4A"></path>
                    <path d="M12.75,37.375 L18.75,37.375" id="Shape" stroke="#4A4A4A"></path>
                    <path d="M12.75,39.375 L18.75,39.375" id="Shape" stroke="#4A4A4A"></path>
                    <path d="M7,21.291 L12.625,15.667" id="Shape" stroke="#4A4A4A"></path>
                    <path d="M12.666,15.708 L16.083,19.125" id="Shape" stroke="#4A4A4A"></path>
                    <path d="M13.531,21.844 L19.609,15.766" id="Shape" stroke="#4A4A4A"></path>
                    <path d="M19.746,15.788 L25.416,21.459" id="Shape" stroke="#4A4A4A"></path>
                    <circle id="Oval" stroke="#4A4A4A" cx="21.917" cy="12.042" r="1.729"></circle>
                </g>
            </g>
        </g>
    </g>
</svg>