<?xml version="1.0" encoding="UTF-8" standalone="no"?>
<svg width="49px" height="46px" viewBox="0 0 49 46" version="1.1" xmlns="http://www.w3.org/2000/svg" xmlns:xlink="http://www.w3.org/1999/xlink" xmlns:sketch="http://www.bohemiancoding.com/sketch/ns">
    <!-- Generator: Sketch 3.3.2 (12043) - http://www.bohemiancoding.com/sketch -->
    <title>Radio Copy</title>
    <desc>Created with Sketch.</desc>
    <defs></defs>
    <g id="Page-1" stroke="none" stroke-width="1" fill="none" fill-rule="evenodd" sketch:type="MSPage">
        <g id="Desktop-HD" sketch:type="MSArtboardGroup" transform="translate(-939.000000, -982.000000)">
            <g id="RADIO-Copy-+-Radio-Copy-Copy" sketch:type="MSLayerGroup" transform="translate(902.500000, 980.546609)">
                <g id="Radio-Copy" transform="translate(37.000000, 0.828125)" sketch:type="MSShapeGroup">
                    <path d="M42.25,14.875 L42.25,11.873 C42.25,11.405 41.976,11.375 41.507,11.375 L5.993,11.375 C5.525,11.375 5.25,11.405 5.25,11.873 L5.25,15.875" id="Shape" stroke="#4A4A4A"></path>
                    <path d="M47.25,16.222 C47.25,15.754 46.87,15.375 46.402,15.375 L1.097,15.375 C0.629,15.375 0.249,15.754 0.249,16.222 L0.249,44.527 C0.249,44.996 0.628,45.375 1.097,45.375 L46.402,45.375 C46.87,45.375 47.25,44.996 47.25,44.527 L47.25,16.222 L47.25,16.222 Z" id="Shape" stroke="#4A4A4A"></path>
                    <ellipse id="Oval" stroke="#4A4A4A" stroke-width="0.9541" cx="40.129" cy="32.651" rx="3.737" ry="3.737"></ellipse>
                    <ellipse id="Oval" stroke="#4A4A4A" stroke-width="0.9541" cx="40.129" cy="23.111" rx="3.737" ry="3.737"></ellipse>
                    <g id="Group" transform="translate(3.000000, 18.000000)" fill="#4A4A4A">
                        <g id="Oval">
                            <ellipse cx="0.794" cy="1.214" rx="0.556" ry="0.556"></ellipse>
                            <ellipse cx="2.702" cy="1.214" rx="0.556" ry="0.556"></ellipse>
                            <ellipse cx="4.61" cy="1.214" rx="0.556" ry="0.556"></ellipse>
                            <ellipse cx="6.519" cy="1.214" rx="0.556" ry="0.556"></ellipse>
                            <ellipse cx="8.427" cy="1.214" rx="0.556" ry="0.556"></ellipse>
                            <ellipse cx="10.335" cy="1.214" rx="0.556" ry="0.556"></ellipse>
                            <ellipse cx="12.243" cy="1.214" rx="0.556" ry="0.556"></ellipse>
                            <ellipse cx="14.151" cy="1.214" rx="0.556" ry="0.556"></ellipse>
                            <ellipse cx="16.059" cy="1.214" rx="0.556" ry="0.556"></ellipse>
                            <ellipse cx="17.967" cy="1.214" rx="0.556" ry="0.556"></ellipse>
                            <ellipse cx="19.875" cy="1.214" rx="0.556" ry="0.556"></ellipse>
                            <ellipse cx="21.784" cy="1.214" rx="0.556" ry="0.556"></ellipse>
                            <ellipse cx="23.691" cy="1.214" rx="0.557" ry="0.557"></ellipse>
                            <ellipse cx="25.6" cy="1.214" rx="0.557" ry="0.557"></ellipse>
                            <ellipse cx="27.508" cy="1.214" rx="0.557" ry="0.557"></ellipse>
                            <ellipse cx="29.416" cy="1.214" rx="0.557" ry="0.557"></ellipse>
                        </g>
                        <g transform="translate(0.000000, 2.000000)" id="Oval">
                            <ellipse cx="0.794" cy="1.123" rx="0.556" ry="0.556"></ellipse>
                            <ellipse cx="2.702" cy="1.123" rx="0.556" ry="0.556"></ellipse>
                            <ellipse cx="4.61" cy="1.123" rx="0.556" ry="0.556"></ellipse>
                            <ellipse cx="6.519" cy="1.123" rx="0.556" ry="0.556"></ellipse>
                            <ellipse cx="8.427" cy="1.123" rx="0.556" ry="0.556"></ellipse>
                            <ellipse cx="10.335" cy="1.123" rx="0.556" ry="0.556"></ellipse>
                            <ellipse cx="12.243" cy="1.123" rx="0.556" ry="0.556"></ellipse>
                            <ellipse cx="14.151" cy="1.123" rx="0.556" ry="0.556"></ellipse>
                            <ellipse cx="16.059" cy="1.123" rx="0.556" ry="0.556"></ellipse>
                            <ellipse cx="17.967" cy="1.123" rx="0.556" ry="0.556"></ellipse>
                            <ellipse cx="19.875" cy="1.123" rx="0.556" ry="0.556"></ellipse>
                            <ellipse cx="21.784" cy="1.123" rx="0.556" ry="0.556"></ellipse>
                            <ellipse cx="23.691" cy="1.123" rx="0.557" ry="0.557"></ellipse>
                            <ellipse cx="25.6" cy="1.123" rx="0.557" ry="0.557"></ellipse>
                            <ellipse cx="27.508" cy="1.123" rx="0.557" ry="0.557"></ellipse>
                            <ellipse cx="29.416" cy="1.123" rx="0.557" ry="0.557"></ellipse>
                        </g>
                        <g transform="translate(0.000000, 4.000000)" id="Oval">
                            <ellipse cx="0.794" cy="1.031" rx="0.556" ry="0.556"></ellipse>
                            <ellipse cx="2.702" cy="1.031" rx="0.556" ry="0.556"></ellipse>
                            <ellipse cx="4.61" cy="1.031" rx="0.556" ry="0.556"></ellipse>
                            <ellipse cx="6.519" cy="1.031" rx="0.556" ry="0.556"></ellipse>
                            <ellipse cx="8.427" cy="1.031" rx="0.556" ry="0.556"></ellipse>
                            <ellipse cx="10.335" cy="1.031" rx="0.556" ry="0.556"></ellipse>
                            <ellipse cx="12.243" cy="1.031" rx="0.556" ry="0.556"></ellipse>
                            <ellipse cx="14.151" cy="1.031" rx="0.556" ry="0.556"></ellipse>
                            <ellipse cx="16.059" cy="1.031" rx="0.556" ry="0.556"></ellipse>
                            <ellipse cx="17.967" cy="1.031" rx="0.556" ry="0.556"></ellipse>
                            <ellipse cx="19.875" cy="1.031" rx="0.556" ry="0.556"></ellipse>
                            <ellipse cx="21.784" cy="1.031" rx="0.556" ry="0.556"></ellipse>
                            <ellipse cx="23.691" cy="1.031" rx="0.557" ry="0.557"></ellipse>
                            <ellipse cx="25.6" cy="1.031" rx="0.557" ry="0.557"></ellipse>
                            <ellipse cx="27.508" cy="1.031" rx="0.557" ry="0.557"></ellipse>
                            <ellipse cx="29.416" cy="1.031" rx="0.557" ry="0.557"></ellipse>
                        </g>
                        <g transform="translate(0.000000, 6.000000)" id="Oval">
                            <ellipse cx="0.794" cy="0.939" rx="0.556" ry="0.556"></ellipse>
                            <ellipse cx="2.702" cy="0.939" rx="0.556" ry="0.556"></ellipse>
                            <ellipse cx="4.61" cy="0.939" rx="0.556" ry="0.556"></ellipse>
                            <ellipse cx="6.519" cy="0.939" rx="0.556" ry="0.556"></ellipse>
                            <ellipse cx="8.427" cy="0.939" rx="0.556" ry="0.556"></ellipse>
                            <ellipse cx="10.335" cy="0.939" rx="0.556" ry="0.556"></ellipse>
                            <ellipse cx="12.243" cy="0.939" rx="0.556" ry="0.556"></ellipse>
                            <ellipse cx="14.151" cy="0.939" rx="0.556" ry="0.556"></ellipse>
                            <ellipse cx="16.059" cy="0.939" rx="0.556" ry="0.556"></ellipse>
                            <ellipse cx="17.967" cy="0.939" rx="0.556" ry="0.556"></ellipse>
                            <ellipse cx="19.875" cy="0.939" rx="0.556" ry="0.556"></ellipse>
                            <ellipse cx="21.784" cy="0.939" rx="0.556" ry="0.556"></ellipse>
                            <ellipse cx="23.691" cy="0.939" rx="0.557" ry="0.557"></ellipse>
                            <ellipse cx="25.6" cy="0.939" rx="0.557" ry="0.557"></ellipse>
                            <ellipse cx="27.508" cy="0.939" rx="0.557" ry="0.557"></ellipse>
                            <ellipse cx="29.416" cy="0.939" rx="0.557" ry="0.557"></ellipse>
                        </g>
                        <g transform="translate(0.000000, 8.000000)" id="Oval">
                            <ellipse cx="0.794" cy="0.847" rx="0.556" ry="0.556"></ellipse>
                            <ellipse cx="2.702" cy="0.847" rx="0.556" ry="0.556"></ellipse>
                            <ellipse cx="4.61" cy="0.847" rx="0.556" ry="0.556"></ellipse>
                            <ellipse cx="6.519" cy="0.847" rx="0.556" ry="0.556"></ellipse>
                            <ellipse cx="8.427" cy="0.847" rx="0.556" ry="0.556"></ellipse>
                            <ellipse cx="10.335" cy="0.847" rx="0.556" ry="0.556"></ellipse>
                            <ellipse cx="12.243" cy="0.847" rx="0.556" ry="0.556"></ellipse>
                            <ellipse cx="14.151" cy="0.847" rx="0.556" ry="0.556"></ellipse>
                            <ellipse cx="16.059" cy="0.847" rx="0.556" ry="0.556"></ellipse>
                            <ellipse cx="17.967" cy="0.847" rx="0.556" ry="0.556"></ellipse>
                            <ellipse cx="19.875" cy="0.847" rx="0.556" ry="0.556"></ellipse>
                            <ellipse cx="21.784" cy="0.847" rx="0.556" ry="0.556"></ellipse>
                            <ellipse cx="23.691" cy="0.847" rx="0.557" ry="0.557"></ellipse>
                            <ellipse cx="25.6" cy="0.847" rx="0.557" ry="0.557"></ellipse>
                            <ellipse cx="27.508" cy="0.847" rx="0.557" ry="0.557"></ellipse>
                            <ellipse cx="29.416" cy="0.847" rx="0.557" ry="0.557"></ellipse>
                        </g>
                        <g transform="translate(0.000000, 10.000000)" id="Oval">
                            <ellipse cx="0.794" cy="0.755" rx="0.556" ry="0.556"></ellipse>
                            <ellipse cx="2.702" cy="0.755" rx="0.556" ry="0.556"></ellipse>
                            <ellipse cx="4.61" cy="0.755" rx="0.556" ry="0.556"></ellipse>
                            <ellipse cx="6.519" cy="0.755" rx="0.556" ry="0.556"></ellipse>
                            <ellipse cx="8.427" cy="0.755" rx="0.556" ry="0.556"></ellipse>
                            <ellipse cx="10.335" cy="0.755" rx="0.556" ry="0.556"></ellipse>
                            <ellipse cx="12.243" cy="0.755" rx="0.556" ry="0.556"></ellipse>
                            <ellipse cx="14.151" cy="0.755" rx="0.556" ry="0.556"></ellipse>
                            <ellipse cx="16.059" cy="0.755" rx="0.556" ry="0.556"></ellipse>
                            <ellipse cx="17.967" cy="0.755" rx="0.556" ry="0.556"></ellipse>
                            <ellipse cx="19.875" cy="0.755" rx="0.556" ry="0.556"></ellipse>
                            <ellipse cx="21.784" cy="0.755" rx="0.556" ry="0.556"></ellipse>
                            <ellipse cx="23.691" cy="0.755" rx="0.557" ry="0.557"></ellipse>
                            <ellipse cx="25.6" cy="0.755" rx="0.557" ry="0.557"></ellipse>
                            <ellipse cx="27.508" cy="0.755" rx="0.557" ry="0.557"></ellipse>
                            <ellipse cx="29.416" cy="0.755" rx="0.557" ry="0.557"></ellipse>
                        </g>
                        <g transform="translate(0.000000, 12.000000)" id="Oval">
                            <ellipse cx="0.794" cy="0.663" rx="0.556" ry="0.556"></ellipse>
                            <ellipse cx="2.702" cy="0.663" rx="0.556" ry="0.556"></ellipse>
                            <ellipse cx="4.61" cy="0.663" rx="0.556" ry="0.556"></ellipse>
                            <ellipse cx="6.519" cy="0.663" rx="0.556" ry="0.556"></ellipse>
                            <ellipse cx="8.427" cy="0.663" rx="0.556" ry="0.556"></ellipse>
                            <ellipse cx="10.335" cy="0.663" rx="0.556" ry="0.556"></ellipse>
                            <ellipse cx="12.243" cy="0.663" rx="0.556" ry="0.556"></ellipse>
                            <ellipse cx="14.151" cy="0.663" rx="0.556" ry="0.556"></ellipse>
                            <ellipse cx="16.059" cy="0.663" rx="0.556" ry="0.556"></ellipse>
                            <ellipse cx="17.967" cy="0.663" rx="0.556" ry="0.556"></ellipse>
                            <ellipse cx="19.875" cy="0.663" rx="0.556" ry="0.556"></ellipse>
                            <ellipse cx="21.784" cy="0.663" rx="0.556" ry="0.556"></ellipse>
                            <ellipse cx="23.691" cy="0.663" rx="0.557" ry="0.557"></ellipse>
                            <ellipse cx="25.6" cy="0.663" rx="0.557" ry="0.557"></ellipse>
                            <ellipse cx="27.508" cy="0.663" rx="0.557" ry="0.557"></ellipse>
                            <ellipse cx="29.416" cy="0.663" rx="0.557" ry="0.557"></ellipse>
                        </g>
                        <g transform="translate(0.000000, 14.000000)" id="Oval">
                            <ellipse cx="0.794" cy="0.571" rx="0.556" ry="0.556"></ellipse>
                            <ellipse cx="2.702" cy="0.571" rx="0.556" ry="0.556"></ellipse>
                            <ellipse cx="4.61" cy="0.571" rx="0.556" ry="0.556"></ellipse>
                            <ellipse cx="6.519" cy="0.571" rx="0.556" ry="0.556"></ellipse>
                            <ellipse cx="8.427" cy="0.571" rx="0.556" ry="0.556"></ellipse>
                            <ellipse cx="10.335" cy="0.571" rx="0.556" ry="0.556"></ellipse>
                            <ellipse cx="12.243" cy="0.571" rx="0.556" ry="0.556"></ellipse>
                            <ellipse cx="14.151" cy="0.571" rx="0.556" ry="0.556"></ellipse>
                            <ellipse cx="16.059" cy="0.571" rx="0.556" ry="0.556"></ellipse>
                            <ellipse cx="17.967" cy="0.571" rx="0.556" ry="0.556"></ellipse>
                            <ellipse cx="19.875" cy="0.571" rx="0.556" ry="0.556"></ellipse>
                            <ellipse cx="21.784" cy="0.571" rx="0.556" ry="0.556"></ellipse>
                            <ellipse cx="23.691" cy="0.571" rx="0.557" ry="0.557"></ellipse>
                            <ellipse cx="25.6" cy="0.571" rx="0.557" ry="0.557"></ellipse>
                            <ellipse cx="27.508" cy="0.571" rx="0.557" ry="0.557"></ellipse>
                            <ellipse cx="29.416" cy="0.571" rx="0.557" ry="0.557"></ellipse>
                        </g>
                        <g transform="translate(0.000000, 15.000000)" id="Oval">
                            <ellipse cx="0.794" cy="1.479" rx="0.556" ry="0.556"></ellipse>
                            <ellipse cx="2.702" cy="1.479" rx="0.556" ry="0.556"></ellipse>
                            <ellipse cx="4.61" cy="1.479" rx="0.556" ry="0.556"></ellipse>
                            <ellipse cx="6.519" cy="1.479" rx="0.556" ry="0.556"></ellipse>
                            <ellipse cx="8.427" cy="1.479" rx="0.556" ry="0.556"></ellipse>
                            <ellipse cx="10.335" cy="1.479" rx="0.556" ry="0.556"></ellipse>
                            <ellipse cx="12.243" cy="1.479" rx="0.556" ry="0.556"></ellipse>
                            <ellipse cx="14.151" cy="1.479" rx="0.556" ry="0.556"></ellipse>
                            <ellipse cx="16.059" cy="1.479" rx="0.556" ry="0.556"></ellipse>
                            <ellipse cx="17.967" cy="1.479" rx="0.556" ry="0.556"></ellipse>
                            <ellipse cx="19.875" cy="1.479" rx="0.556" ry="0.556"></ellipse>
                            <ellipse cx="21.784" cy="1.479" rx="0.556" ry="0.556"></ellipse>
                            <ellipse cx="23.691" cy="1.479" rx="0.557" ry="0.557"></ellipse>
                            <ellipse cx="25.6" cy="1.479" rx="0.557" ry="0.557"></ellipse>
                            <ellipse cx="27.508" cy="1.479" rx="0.557" ry="0.557"></ellipse>
                            <ellipse cx="29.416" cy="1.479" rx="0.557" ry="0.557"></ellipse>
                        </g>
                        <g transform="translate(0.000000, 17.000000)" id="Oval">
                            <ellipse cx="0.794" cy="1.388" rx="0.556" ry="0.556"></ellipse>
                            <ellipse cx="2.702" cy="1.388" rx="0.556" ry="0.556"></ellipse>
                            <ellipse cx="4.61" cy="1.388" rx="0.556" ry="0.556"></ellipse>
                            <ellipse cx="6.519" cy="1.388" rx="0.556" ry="0.556"></ellipse>
                            <ellipse cx="8.427" cy="1.388" rx="0.556" ry="0.556"></ellipse>
                            <ellipse cx="10.335" cy="1.388" rx="0.556" ry="0.556"></ellipse>
                            <ellipse cx="12.243" cy="1.388" rx="0.556" ry="0.556"></ellipse>
                            <ellipse cx="14.151" cy="1.388" rx="0.556" ry="0.556"></ellipse>
                            <ellipse cx="16.059" cy="1.388" rx="0.556" ry="0.556"></ellipse>
                            <ellipse cx="17.967" cy="1.388" rx="0.556" ry="0.556"></ellipse>
                            <ellipse cx="19.875" cy="1.388" rx="0.556" ry="0.556"></ellipse>
                            <ellipse cx="21.784" cy="1.388" rx="0.556" ry="0.556"></ellipse>
                            <ellipse cx="23.691" cy="1.388" rx="0.557" ry="0.557"></ellipse>
                            <ellipse cx="25.6" cy="1.388" rx="0.557" ry="0.557"></ellipse>
                            <ellipse cx="27.508" cy="1.388" rx="0.557" ry="0.557"></ellipse>
                            <ellipse cx="29.416" cy="1.388" rx="0.557" ry="0.557"></ellipse>
                        </g>
                        <g transform="translate(0.000000, 19.000000)" id="Oval">
                            <ellipse cx="0.794" cy="1.296" rx="0.556" ry="0.556"></ellipse>
                            <ellipse cx="2.702" cy="1.296" rx="0.556" ry="0.556"></ellipse>
                            <ellipse cx="4.61" cy="1.296" rx="0.556" ry="0.556"></ellipse>
                            <ellipse cx="6.519" cy="1.296" rx="0.556" ry="0.556"></ellipse>
                            <ellipse cx="8.427" cy="1.296" rx="0.556" ry="0.556"></ellipse>
                            <ellipse cx="10.335" cy="1.296" rx="0.556" ry="0.556"></ellipse>
                            <ellipse cx="12.243" cy="1.296" rx="0.556" ry="0.556"></ellipse>
                            <ellipse cx="14.151" cy="1.296" rx="0.556" ry="0.556"></ellipse>
                            <ellipse cx="16.059" cy="1.296" rx="0.556" ry="0.556"></ellipse>
                            <ellipse cx="17.967" cy="1.296" rx="0.556" ry="0.556"></ellipse>
                            <ellipse cx="19.875" cy="1.296" rx="0.556" ry="0.556"></ellipse>
                            <ellipse cx="21.784" cy="1.296" rx="0.556" ry="0.556"></ellipse>
                            <ellipse cx="23.691" cy="1.296" rx="0.557" ry="0.557"></ellipse>
                            <ellipse cx="25.6" cy="1.296" rx="0.557" ry="0.557"></ellipse>
                            <ellipse cx="27.508" cy="1.296" rx="0.557" ry="0.557"></ellipse>
                            <ellipse cx="29.416" cy="1.296" rx="0.557" ry="0.557"></ellipse>
                        </g>
                        <g transform="translate(0.000000, 21.000000)" id="Oval">
                            <ellipse cx="0.794" cy="1.204" rx="0.556" ry="0.556"></ellipse>
                            <ellipse cx="2.702" cy="1.204" rx="0.556" ry="0.556"></ellipse>
                            <ellipse cx="4.61" cy="1.204" rx="0.556" ry="0.556"></ellipse>
                            <ellipse cx="6.519" cy="1.204" rx="0.556" ry="0.556"></ellipse>
                            <ellipse cx="8.427" cy="1.204" rx="0.556" ry="0.556"></ellipse>
                            <ellipse cx="10.335" cy="1.204" rx="0.556" ry="0.556"></ellipse>
                            <ellipse cx="12.243" cy="1.204" rx="0.556" ry="0.556"></ellipse>
                            <ellipse cx="14.151" cy="1.204" rx="0.556" ry="0.556"></ellipse>
                            <ellipse cx="16.059" cy="1.204" rx="0.556" ry="0.556"></ellipse>
                            <ellipse cx="17.967" cy="1.204" rx="0.556" ry="0.556"></ellipse>
                            <ellipse cx="19.875" cy="1.204" rx="0.556" ry="0.556"></ellipse>
                            <ellipse cx="21.784" cy="1.204" rx="0.556" ry="0.556"></ellipse>
                            <ellipse cx="23.691" cy="1.204" rx="0.557" ry="0.557"></ellipse>
                            <ellipse cx="25.6" cy="1.204" rx="0.557" ry="0.557"></ellipse>
                            <ellipse cx="27.508" cy="1.204" rx="0.557" ry="0.557"></ellipse>
                            <ellipse cx="29.416" cy="1.204" rx="0.557" ry="0.557"></ellipse>
                        </g>
                        <g transform="translate(0.000000, 23.000000)" id="Oval">
                            <ellipse cx="0.794" cy="1.112" rx="0.556" ry="0.556"></ellipse>
                            <ellipse cx="2.702" cy="1.112" rx="0.556" ry="0.556"></ellipse>
                            <ellipse cx="4.61" cy="1.112" rx="0.556" ry="0.556"></ellipse>
                            <ellipse cx="6.519" cy="1.112" rx="0.556" ry="0.556"></ellipse>
                            <ellipse cx="8.427" cy="1.112" rx="0.556" ry="0.556"></ellipse>
                            <ellipse cx="10.335" cy="1.112" rx="0.556" ry="0.556"></ellipse>
                            <ellipse cx="12.243" cy="1.112" rx="0.556" ry="0.556"></ellipse>
                            <ellipse cx="14.151" cy="1.112" rx="0.556" ry="0.556"></ellipse>
                            <ellipse cx="16.059" cy="1.112" rx="0.556" ry="0.556"></ellipse>
                            <ellipse cx="17.967" cy="1.112" rx="0.556" ry="0.556"></ellipse>
                            <ellipse cx="19.875" cy="1.112" rx="0.556" ry="0.556"></ellipse>
                            <ellipse cx="21.784" cy="1.112" rx="0.556" ry="0.556"></ellipse>
                            <ellipse cx="23.691" cy="1.112" rx="0.557" ry="0.557"></ellipse>
                            <ellipse cx="25.6" cy="1.112" rx="0.557" ry="0.557"></ellipse>
                            <ellipse cx="27.508" cy="1.112" rx="0.557" ry="0.557"></ellipse>
                            <ellipse cx="29.416" cy="1.112" rx="0.557" ry="0.557"></ellipse>
                        </g>
                    </g>
                    <rect id="Rectangle-path" fill="#4A4A4A" x="44.75" y="1.875" width="1" height="13"></rect>
                    <path d="M46.037,1.936 C46.037,2.162 45.852,2.346 45.627,2.346 L44.807,2.346 C44.581,2.346 44.397,2.161 44.397,1.936 L44.397,1.116 C44.397,0.89 44.582,0.706 44.807,0.706 L45.627,0.706 C45.853,0.706 46.037,0.891 46.037,1.116 L46.037,1.936 L46.037,1.936 Z" id="Shape" fill="#4A4A4A"></path>
                </g>
            </g>
        </g>
    </g>
</svg>