<?xml version="1.0" encoding="UTF-8" standalone="no"?>
<svg width="36px" height="33px" viewBox="0 0 36 33" version="1.1" xmlns="http://www.w3.org/2000/svg" xmlns:xlink="http://www.w3.org/1999/xlink" xmlns:sketch="http://www.bohemiancoding.com/sketch/ns">
    <!-- Generator: Sketch 3.3.2 (12043) - http://www.bohemiancoding.com/sketch -->
    <title>SCROLL + Arrow button</title>
    <desc>Created with Sketch.</desc>
    <defs></defs>
    <g id="Page-1" stroke="none" stroke-width="1" fill="none" fill-rule="evenodd" sketch:type="MSPage">
        <g id="Desktop-HD" sketch:type="MSArtboardGroup" transform="translate(-702.000000, -616.000000)" fill="#FFFFFF">
            <g id="SCROLL-+-Arrow-button" sketch:type="MSLayerGroup" transform="translate(264.000000, 614.000000)">
                <text id="SCROLL" sketch:type="MSTextLayer" font-family="Oswald" font-size="12" font-weight="260" sketch:alignment="middle" letter-spacing="0.49999997">
                    <tspan x="437.941406" y="13">SCROLL</tspan>
                </text>
                <g id="Arrow-button" transform="translate(444.000000, 19.000000)" sketch:type="MSShapeGroup">
                    <path d="M23.38125,4.75952314 L13.3955,14.8435624 C13.0275,15.2149229 12.521,15.4317812 12,15.4317812 C11.479,15.4317812 10.9725,15.2149229 10.61925,14.8435624 L0.63325,4.75952314 C0.2655,4.40280505 0.05075,3.8913324 0.05075,3.36521739 C0.05075,2.83910238 0.26525,2.32737728 0.63325,1.95601683 L1.76925,0.794221599 C2.137,0.437251052 2.64375,0.220645161 3.1645,0.220645161 C3.6855,0.220645161 4.192,0.437251052 4.54525,0.794221599 L12,8.32165498 L19.4545,0.794221599 C19.80775,0.437251052 20.314,0.220645161 20.83525,0.220645161 C21.35625,0.220645161 21.8625,0.437251052 22.2305,0.794221599 L23.38125,1.95601683 C23.7345,2.32737728 23.949,2.83910238 23.949,3.36521739 C23.94925,3.8913324 23.7345,4.40280505 23.38125,4.75952314 L23.38125,4.75952314 Z" id="Shape"></path>
                </g>
            </g>
        </g>
    </g>
</svg>