<?xml version="1.0" encoding="UTF-8" standalone="no"?>
<svg width="17px" height="17px" viewBox="0 0 17 17" version="1.1" xmlns="http://www.w3.org/2000/svg" xmlns:xlink="http://www.w3.org/1999/xlink" xmlns:sketch="http://www.bohemiancoding.com/sketch/ns">
    <!-- Generator: Sketch 3.3.2 (12043) - http://www.bohemiancoding.com/sketch -->
    <title>Search icon</title>
    <desc>Created with Sketch.</desc>
    <defs></defs>
    <g id="Page-1" stroke="none" stroke-width="1" fill="none" fill-rule="evenodd" sketch:type="MSPage">
        <g id="iPad-Landscape" sketch:type="MSArtboardGroup" transform="translate(-647.000000, -87.000000)" fill="#4A4A4A">
            <g id="Rectangle-58-+-SEARCH-+-Search-icon" sketch:type="MSLayerGroup" transform="translate(344.000000, 82.000000)">
                <g id="Search-icon" transform="translate(303.000000, 5.000000)" sketch:type="MSShapeGroup">
                    <path d="M15.6452159,16.9433977 C15.2994205,16.9433977 14.9625114,16.8010227 14.7279886,16.5560682 L11.2368068,13.0739659 C10.0456477,13.8978864 8.62015909,14.3369886 7.17438636,14.3369886 C3.21357955,14.3369886 0.00656818182,11.1293977 0.00656818182,7.16859091 C0.00656818182,3.20778409 3.21338636,0.000772727273 7.17438636,0.000772727273 C11.1359659,0.000772727273 14.3422045,3.20759091 14.3422045,7.16859091 C14.3422045,8.61436364 13.9042614,10.0400455 13.0805341,11.2319773 L16.5717159,14.7229659 C16.8062386,14.9574886 16.9486136,15.2928523 16.9486136,15.6401932 C16.9484205,16.3526477 16.3578636,16.9433977 15.6452159,16.9433977 L15.6452159,16.9433977 Z M7.17438636,2.607375 C4.65915909,2.607375 2.61317045,4.65355682 2.61317045,7.16859091 C2.61317045,9.68381818 4.65935227,11.7305795 7.17438636,11.7305795 C9.68942045,11.7305795 11.7356023,9.68381818 11.7356023,7.16859091 C11.7356023,4.65336364 9.68942045,2.607375 7.17438636,2.607375 L7.17438636,2.607375 Z" id="Shape"></path>
                </g>
            </g>
        </g>
    </g>
</svg>