<?xml version="1.0" encoding="UTF-8" standalone="no"?>
<svg width="50px" height="43px" viewBox="0 0 50 43" version="1.1" xmlns="http://www.w3.org/2000/svg" xmlns:xlink="http://www.w3.org/1999/xlink" xmlns:sketch="http://www.bohemiancoding.com/sketch/ns">
    <!-- Generator: Sketch 3.3.2 (12043) - http://www.bohemiancoding.com/sketch -->
    <title>Social_media Copy</title>
    <desc>Created with Sketch.</desc>
    <defs></defs>
    <g id="Page-1" stroke="none" stroke-width="1" fill="none" fill-rule="evenodd" sketch:type="MSPage">
        <g id="Desktop-HD" sketch:type="MSArtboardGroup" transform="translate(-609.000000, -1113.000000)" stroke="#4A4A4A">
            <g id="SOCIAL-MEDIA-Copy-+-Social_media-Copy-Copy" sketch:type="MSLayerGroup" transform="translate(573.000000, 1112.546609)">
                <g id="Social_media-Copy" transform="translate(36.000000, 0.828125)" sketch:type="MSShapeGroup">
                    <g id="path">
                        <path d="M18.292,20.167 C18.292,20.167 19.13,20.214 20.25,19.094 C20.984,18.36 26.25,10.5 26.25,8.875 L26.25,2.375 C26.25,2.1 26.347,1.672 26.465,1.423 C26.465,1.423 27.041,0.208 29,0.208 C30.959,0.208 31.586,1.092 31.586,1.092 C31.745,1.316 31.97,1.704 32.086,1.953 C32.086,1.953 34.208,6.5 34.5,8.625 C34.792,10.75 33.029,16.045 33.029,16.045 C32.944,16.307 33.099,16.375 33.375,16.375 L46.625,16.375 C46.9,16.375 47.326,16.622 47.572,16.745 C47.572,16.745 49.125,17.594 49.125,19.927 C49.125,22.261 46.984,22.841 46.984,22.841 C46.717,22.909 46.672,23.127 46.882,23.304 C46.882,23.304 47.541,23.866 47.541,25.616 C47.541,27.366 45.559,28.009 45.559,28.009 C45.297,28.093 45.272,28.287 45.503,28.438 C45.503,28.438 46.677,29.2 46.166,31.125 C45.624,33.167 43.953,33.393 43.953,33.393 C43.681,33.429 43.667,33.544 43.922,33.646 C43.922,33.646 45.541,34.293 44.874,36.668 C44.18,39.142 41.581,39.338 41.581,39.338 C41.307,39.359 40.857,39.376 40.582,39.376 L23.25,39.376 C22.975,39.376 22.574,39.235 22.359,39.064 L20.64,37.689 C20.425,37.517 20.024,37.377 19.749,37.377 L18.749,37.377" id="Shape"></path>
                        <path d="M18.25,40.875 C18.25,41.15 18.025,41.375 17.75,41.375 L3.75,41.375 C3.475,41.375 3.225,41.151 3.193,40.878 L0.806,19.872 C0.775,19.599 0.974,19.375 1.249,19.375 L17.749,19.375 C18.024,19.375 18.249,19.6 18.249,19.875 L18.249,40.875 L18.25,40.875 Z" id="Shape"></path>
                        <circle id="Oval" cx="13.562" cy="37.562" r="1.688"></circle>
                    </g>
                </g>
            </g>
        </g>
    </g>
</svg>