<?xml version="1.0"?>
<svg width="150" height="150" xmlns="http://www.w3.org/2000/svg" xmlns:svg="http://www.w3.org/2000/svg">
 <!-- Generator: Sketch 3.3.2 (12043) - http://www.bohemiancoding.com/sketch -->
 <title>Thirsti Copy</title>
 <desc>Created with Sketch.</desc>

 <g>
  <title>Layer 1</title>
  <g fill-rule="evenodd" fill="none" id="Page-1">
   <g fill="#4A4A4A" id="Desktop-HD">
    <g id="Thirsti-Copy">
     <g id="Group">
      <path id="Shape" d="m17.822212,75.602219l6.222717,0l0,11.1604l3.73361,0l0,-11.1604l6.222715,0l0,-3.297363l-16.179043,0l0,3.297363z"/>
      <path id="Shape" d="m51.673744,77.885056l-10.205231,0l0,-5.5802l-3.733643,0l0,14.457764l3.733643,0l0,-5.833862l10.205231,0l0,5.833862l3.484707,0l0,-14.457764l-3.484707,0l0,5.5802z"/>
      <rect height="14.457774" width="3.484716" y="72.30482" x="59.638805" id="Rectangle-path"/>
      <path id="Shape" d="m83.07975,73.353928c-0.48288,-0.348999 -0.990173,-0.649414 -1.519836,-0.786133c-0.53067,-0.136963 -0.983704,-0.262939 -1.359283,-0.262939l-12.596771,0l0,14.457764l3.484741,0l0,-4.819336l7.380127,0l2.255341,4.819336l3.7854,0l-2.456238,-5.303955c0.335297,-0.136963 0.667847,-0.316284 0.996399,-0.549194c0.328796,-0.2323 0.624512,-0.520752 0.886108,-0.869263c0.261841,-0.348999 0.472931,-0.760864 0.63446,-1.23999c0.161041,-0.478882 0.241699,-1.032104 0.241699,-1.661621c0,-0.957275 -0.168274,-1.740112 -0.50354,-2.348755c-0.336029,-0.608521 -0.745483,-1.087158 -1.228607,-1.435913l0,0zm-2.013428,4.595703c-0.134399,0.212646 -0.291718,0.379761 -0.473175,0.503052c-0.181213,0.123047 -0.359436,0.267822 -0.533417,0.31604c-0.174744,0.047729 -0.302185,0.131104 -0.382568,0.131104l-8.588562,0l0,-3.297363l8.588562,0c0.107025,0 0.251404,-0.021606 0.432861,0.019531c0.181213,0.041138 0.358673,0.098877 0.533417,0.215088c0.174469,0.116455 0.322083,0.269897 0.44281,0.482178c0.120728,0.21228 0.181427,0.484009 0.181427,0.825317c0,0.328247 -0.067444,0.593384 -0.201355,0.805054l0,0z"/>
      <path id="Shape" d="m103.829231,79.293747c-0.450012,-0.328247 -0.993652,-0.581299 -1.631348,-0.758911c-0.637695,-0.177734 -1.359283,-0.287598 -2.164246,-0.328491c-1.597504,-0.068237 -2.980164,-0.129883 -4.147827,-0.18457c-1.167603,-0.054321 -2.074127,-0.095459 -2.718323,-0.123291c-0.577209,-0.027222 -1.01355,-0.129639 -1.308746,-0.307495c-0.295715,-0.177734 -0.44281,-0.444336 -0.44281,-0.800415c0,-0.273438 0.14386,-0.519531 0.432617,-0.738403c0.288483,-0.218872 0.687958,-0.403564 1.197998,-0.554199c0.509766,-0.150146 1.110382,-0.263062 1.801819,-0.338623c0.691498,-0.075073 1.439697,-0.112671 2.245422,-0.112671c0.536621,0 1.097198,0.034302 1.681366,0.102295c0.583923,0.06897 1.160919,0.164063 1.731659,0.287354c0.570221,0.123047 1.11734,0.266846 1.640808,0.430908c0.523712,0.164429 0.993134,0.335327 1.409576,0.512939l1.066803,-2.831421c-0.845306,-0.396729 -1.714722,-0.697876 -2.60733,-0.90332c-0.892822,-0.204956 -1.701263,-0.362183 -2.426575,-0.471436c-0.845306,-0.123291 -1.677917,-0.184937 -2.496307,-0.184937c-1.382935,0 -2.634705,0.123535 -3.755035,0.369507c-1.121338,0.246094 -2.074158,0.584717 -2.859192,1.015625c-0.785339,0.430664 -1.389435,0.937012 -1.812073,1.518311c-0.422913,0.581299 -0.63446,1.200317 -0.63446,1.856689c0,0.656738 0.133911,1.228149 0.402466,1.713379c0.268585,0.485718 0.640961,0.895874 1.117371,1.230957c0.476654,0.335327 1.040649,0.592041 1.691803,0.769531c0.650665,0.178101 1.365509,0.287354 2.144104,0.328247c0.778351,0.041016 1.530304,0.075562 2.255371,0.102417c0.724579,0.02771 1.382446,0.055054 1.973358,0.082153c0.590393,0.02771 1.090454,0.051514 1.499908,0.072144c0.40921,0.020508 0.687744,0.03772 0.835602,0.051392c0.644165,0.027466 1.120575,0.129883 1.429443,0.307739c0.308411,0.177734 0.462982,0.458618 0.462982,0.841064c0,0.601929 -0.493073,1.087158 -1.479767,1.456909c-0.986664,0.369141 -2.486572,0.553711 -4.500244,0.553711c-0.657867,-0.013184 -1.342377,-0.074585 -2.053986,-0.18457c-0.603851,-0.095947 -1.278656,-0.24939 -2.023376,-0.46167c-0.744995,-0.211792 -1.487,-0.509644 -2.224762,-0.892578l-1.228607,2.872314c0.832336,0.437988 1.691589,0.772827 2.577209,1.005615c0.886108,0.232422 1.698029,0.40332 2.43631,0.512939c0.859222,0.136719 1.698029,0.2052 2.516937,0.2052c1.59726,0 2.980194,-0.133423 4.147827,-0.400269c1.167877,-0.266846 2.141113,-0.63562 2.919434,-1.107666c0.778351,-0.471802 1.35556,-1.022461 1.731659,-1.651978c0.37561,-0.629028 0.564026,-1.299438 0.564026,-2.010742c0,-0.615601 -0.120728,-1.162354 -0.362671,-1.641479c-0.241425,-0.478394 -0.58667,-0.881958 -1.036194,-1.210205l0,0z"/>
      <path id="Shape" d="m108.175911,75.602219l6.471619,0l0,11.1604l3.484741,0l0,-11.1604l6.222641,0l0,-3.297363l-16.179001,0l0,3.297363z"/>
      <rect height="14.457774" width="3.484716" y="72.30482" x="128.337495" id="Rectangle-path"/>
     </g>
    </g>
   </g>
  </g>
 </g>
</svg>