<?xml version="1.0" encoding="UTF-8" standalone="no"?>
<svg width="65px" height="47px" viewBox="0 0 65 47" version="1.1" xmlns="http://www.w3.org/2000/svg" xmlns:xlink="http://www.w3.org/1999/xlink" xmlns:sketch="http://www.bohemiancoding.com/sketch/ns">
    <!-- Generator: Sketch 3.3.2 (12043) - http://www.bohemiancoding.com/sketch -->
    <title>tv copy</title>
    <desc>Created with Sketch.</desc>
    <defs></defs>
    <g id="Page-1" stroke="none" stroke-width="1" fill="none" fill-rule="evenodd" sketch:type="MSPage">
        <g id="Desktop-HD" sketch:type="MSArtboardGroup" transform="translate(-601.000000, -979.000000)">
            <g id="TV-Copy-+-tv-copy-Copy" sketch:type="MSLayerGroup" transform="translate(573.000000, 978.546609)">
                <g id="tv-copy" transform="translate(27.000000, 0.828125)" sketch:type="MSShapeGroup">
                    <path d="M46.1093673,41.0955882 L20.7146684,41.0955882 C20.0763597,41.0955882 18.0210867,44.2804118 18.0210867,44.2804118 C18.0210867,44.9203529 18.5379413,45.1544118 19.1749005,45.1544118 L47.6491352,45.1544118 C48.2874439,45.1544118 48.802949,44.919 48.802949,44.2804118 C48.802949,44.2804118 46.747676,41.0955882 46.1093673,41.0955882 L46.1093673,41.0955882 Z" id="Shape" stroke="#4A4A4A"></path>
                    <path d="M65.1128827,1.66411765 C65.1128827,1.02417647 64.5946786,0.507352941 63.9577194,0.507352941 L2.843375,0.507352941 C2.20506633,0.507352941 1.68821173,1.02552941 1.68821173,1.66411765 L1.68821173,39.9388235 C1.68821173,40.5787647 2.20506633,41.0955882 2.843375,41.0955882 L63.9577194,41.0955882 C64.5960281,41.0955882 65.1128827,40.5774118 65.1128827,39.9388235 L65.1128827,1.66411765 L65.1128827,1.66411765 Z" id="Shape" stroke="#4A4A4A"></path>
                    <path d="M63.9577194,36.3602941 L2.83122959,36.3602941 C2.1956199,36.3602941 1.01211735,36.3602941 1.01211735,37.4521176 L1.01211735,40.3433529 C1.01211735,41.1456471 1.81641327,41.7734118 2.84202551,41.7734118 L63.9563699,41.7734118 C64.9833316,41.7734118 65.7862781,41.1456471 65.7862781,40.3433529 L65.7862781,37.4521176 C65.7876276,36.3602941 64.604125,36.3602941 63.9577194,36.3602941 L63.9577194,36.3602941 Z M33.3998724,40.0808824 C32.8411837,40.0808824 32.3877551,39.6262941 32.3877551,39.0661765 C32.3877551,38.5060588 32.8411837,38.0514706 33.3998724,38.0514706 C33.9585612,38.0514706 34.4119898,38.5060588 34.4119898,39.0661765 C34.4119898,39.6262941 33.9585612,40.0808824 33.3998724,40.0808824 L33.3998724,40.0808824 Z M64.4381378,40.2784118 L64.4381378,37.7227059 L64.4394872,37.7227059 L64.4570306,40.2662353 C64.4556811,40.2689412 64.4408367,40.2743529 64.4381378,40.2784118 L64.4381378,40.2784118 Z" id="Shape" fill="#4A4A4A"></path>
                </g>
            </g>
        </g>
    </g>
</svg>