<?xml version="1.0"?>
<svg width="150" height="150" xmlns="http://www.w3.org/2000/svg" xmlns:svg="http://www.w3.org/2000/svg">
 <!-- Generator: Sketch 3.3.2 (12043) - http://www.bohemiancoding.com/sketch -->
 <title>xpanda copy</title>
 <desc>Created with Sketch.</desc>

 <g>
  <title>Layer 1</title>
  <g fill-rule="evenodd" fill="none" id="Page-1">
   <g fill="#4A4A4A" id="Desktop-HD">
    <g id="xpanda-copy">
     <g id="Group">
      <path id="Shape" d="m123.502075,73.773674c-0.250061,0 -0.423584,-0.068115 -0.520813,-0.203979c-0.098389,-0.144897 -0.147217,-0.479248 -0.147461,-1.005005c0,-0.723877 0.151123,-2.24939 0.454163,-4.575806c0.311768,-2.335449 0.467773,-3.625488 0.467346,-3.869873c0,-0.633789 -0.373779,-0.950439 -1.121582,-0.950439c-0.597046,0.000122 -1.273132,0.199341 -2.029846,0.597168c-0.757446,0.389648 -1.206543,0.583862 -1.349182,0.583862c-0.222839,0 -0.640869,-0.194214 -1.255188,-0.583862c-0.61438,-0.397827 -1.246643,-0.597168 -1.896301,-0.597168c-1.593872,0 -3.129517,0.732788 -4.607483,2.199707c-0.970886,0.905396 -1.739136,2.136597 -2.353455,3.693481c-0.614563,1.548218 -0.89801,3.105103 -0.89801,4.670898l0,0.031738c0,-0.021118 -0.21106,-0.031738 -0.320984,-0.031738c-0.312012,0 -0.519409,-0.063477 -0.599365,-0.190186c-0.080444,-0.126587 -0.126282,-0.370972 -0.126282,-0.733154c0,-1.113159 0.273315,-3.612183 0.824951,-7.495605c0.55188,-3.892334 0.826599,-6.001709 0.826599,-6.327393c-0.000732,-0.87793 -0.424255,-1.317261 -1.26947,-1.317261c-0.677063,0 -1.602905,0.135986 -2.778137,0.407227c-1.318115,0.308105 -2.292847,0.651611 -2.924683,1.03186c-0.623535,0.380249 -0.934631,0.896484 -0.935547,1.547974c0,0.479858 0.280884,0.719971 0.841309,0.719971c0.070984,0 0.17395,-0.004395 0.307617,-0.013794c0.133423,-0.017822 0.222168,-0.027344 0.266846,-0.027344c0.347229,0.000488 0.520752,0.208252 0.520752,0.624878c-0.000427,0.353516 -0.071655,0.778809 -0.213562,1.276367c-0.133911,0.498169 -0.289429,0.746948 -0.467346,0.746948c-0.080872,0 -0.356689,-0.135864 -0.827942,-0.407471c-0.471924,-0.271729 -0.974976,-0.407349 -1.509338,-0.407349c-2.012207,0.000244 -3.752625,1.050049 -5.221924,3.150269c-1.46875,2.100464 -2.203369,4.494507 -2.203369,7.182861c0,0.230347 0.006409,0.452148 0.019531,0.664917c-0.062866,-0.03418 -0.133179,-0.065796 -0.210327,-0.094604c-0.427246,-0.163086 -0.640869,-0.429688 -0.640869,-0.800903c0,-0.543091 0.150696,-1.706299 0.454407,-3.489746c0.311096,-1.783081 0.467102,-3.045654 0.467102,-3.788452c0,-0.868774 -0.28064,-1.556885 -0.841309,-2.063843c-0.56134,-0.506836 -1.313049,-0.760498 -2.256653,-0.760498c-1.006287,0.000244 -2.110107,0.416504 -3.312012,1.249268c-1.201965,0.823975 -1.883362,1.235596 -2.044006,1.235596c-0.151123,0 -0.262939,-0.063232 -0.333435,-0.190186c-0.071167,-0.126343 -0.124878,-0.275757 -0.160156,-0.448242l-0.120056,-0.597412c-0.071655,-0.48877 -0.2099,-0.819092 -0.414063,-0.991089c-0.19635,-0.171753 -0.450073,-0.257935 -0.761353,-0.257935c-1.077759,0.000244 -2.417297,0.375732 -4.019714,1.127197c-1.602234,0.742188 -2.403931,1.498047 -2.403931,2.267456c0,0.597412 0.31134,0.89624 0.934937,0.89624c0.338013,0 0.56958,0.081055 0.694275,0.244385c0.133423,0.163208 0.200256,0.470825 0.200256,0.92334c0,0.887207 -0.200256,2.335449 -0.600769,4.344971c-0.391724,2.010254 -0.587585,3.200562 -0.587585,3.571167c0,0.986816 0.618469,1.480347 1.856384,1.480347c1.540222,-0.000732 2.639404,-0.227539 3.298462,-0.679321c0.658752,-0.461304 1.054871,-1.353271 1.188782,-2.674683l0.240356,-2.390259c0.320496,-3.059204 1.121521,-4.589478 2.403625,-4.589478c0.525208,0.000488 0.78833,0.308105 0.78833,0.923218c-0.000427,0.688354 -0.169556,1.932861 -0.507385,3.734375c-0.330017,1.792358 -0.49408,3.036987 -0.49408,3.734009c0,1.294922 0.676331,1.942139 2.029663,1.942139c1.059326,-0.000732 2.257141,-0.317261 3.592468,-0.951294c0.900085,-0.432983 1.49646,-0.915161 1.790283,-1.447021c0.447693,1.598633 1.494629,2.398071 3.141724,2.398071c0.774048,-0.000732 1.504089,-0.168213 2.189819,-0.502808c0.685303,-0.343506 1.397827,-0.87793 2.137085,-1.602417c0.400452,-0.370361 0.667297,-0.556396 0.801453,-0.556396c0.221863,0.000488 0.369385,0.180786 0.440369,0.543091c0.07074,0.352783 0.137756,0.692383 0.200195,1.018188c0.106934,0.642944 0.565063,0.963989 1.375732,0.963989c0.836731,0 2.007324,-0.366455 3.512268,-1.099609c0.9328,-0.451904 1.578491,-0.903931 1.935913,-1.356079c0.148804,0.514771 0.372803,0.975342 0.671692,1.383057c0.596375,0.805908 1.455627,1.208984 2.577209,1.208984c0.748657,0 1.446411,-0.162842 2.097168,-0.489014c0.649841,-0.326416 1.268555,-0.778564 1.856384,-1.358032c0.436462,-0.425171 0.75647,-0.638428 0.961365,-0.638428c0.21405,0.000488 0.34729,0.213013 0.400757,0.638428c0.053406,0.597534 0.204834,1.031616 0.454163,1.303223c0.257874,0.271729 0.689941,0.407227 1.295471,0.407227c0.854736,0 1.980591,-0.357056 3.378662,-1.072632c1.397583,-0.723755 2.096252,-1.506958 2.096252,-2.349121c-0.000427,-0.460571 -0.235962,-0.691162 -0.707153,-0.691162l0,0zm-22.199646,-2.539551c-0.676575,1.511963 -1.362122,2.267578 -2.056641,2.267578c-0.436462,0 -0.65448,-0.298706 -0.65448,-0.895996c0,-1.131104 0.315735,-2.466675 0.948303,-4.005737c0.640564,-1.538574 1.32196,-2.308472 2.04303,-2.308472c0.498657,0.000244 0.747986,0.348877 0.747986,1.045898c-0.000244,1.077271 -0.342407,2.375732 -1.028198,3.896729l0,0zm15.802246,-0.108643c-0.756958,1.674927 -1.473572,2.512085 -2.150146,2.512085c-0.400513,0 -0.600525,-0.384521 -0.600525,-1.153931c0,-1.104248 0.391052,-2.412476 1.175232,-3.924683c0.792236,-1.51123 1.504517,-2.267456 2.136597,-2.267456c0.382507,0 0.573975,0.325806 0.573975,0.977417c0,0.887329 -0.378113,2.172852 -1.135132,3.856567l0,0z"/>
      <path id="Shape" d="m43.207703,74.791496c-0.561096,-0.316528 -0.908325,-0.565308 -1.041748,-0.74646c-0.169373,-0.180908 -0.779358,-1.19043 -1.829651,-3.02832c-1.042053,-1.846436 -1.633545,-2.950684 -1.776184,-3.312866c-0.213867,-0.534058 -0.320557,-0.815186 -0.320557,-0.842163c0,-0.099121 0.133423,-0.348145 0.400513,-0.746948l2.510559,-3.584229c0.249573,-0.362183 0.529785,-0.674316 0.841797,-0.937134c0.320313,-0.271851 0.663208,-0.461548 1.028198,-0.570313l0.093567,-0.01355c0.667542,-0.117676 1.183716,-0.244385 1.54895,-0.380249c0.374023,-0.135742 0.560913,-0.448486 0.560913,-0.937256c-0.000488,-1.19519 -1.046448,-1.792114 -3.138306,-1.792114c-1.425049,0 -2.457336,0.13562 -3.098633,0.407227c-0.632141,0.271484 -0.947815,0.733276 -0.947815,1.384888c0,0.235474 0.035278,0.466553 0.106934,0.692627c0.070984,0.226318 0.106934,0.411865 0.106934,0.556396c-0.000488,0.308105 -0.218445,0.78772 -0.654907,1.439331c-0.427673,0.651978 -0.743652,0.977905 -0.947815,0.977905c-0.160828,0 -0.365234,-0.285156 -0.614563,-0.855591c-0.249512,-0.570068 -0.373962,-0.959473 -0.373962,-1.167725c0,-0.144897 0.213806,-0.352905 0.641052,-0.624634c0.427246,-0.271606 0.641052,-0.611084 0.641052,-1.018311c-0.000183,-0.651367 -0.235962,-1.113403 -0.707397,-1.384888c-0.463623,-0.271606 -1.353577,-0.407227 -2.671204,-0.407227c-2.715698,0 -4.531982,0.149292 -5.448853,0.447998c-0.907959,0.289551 -1.362122,0.737793 -1.362122,1.344116c0,0.534424 0.333923,0.954956 1.001709,1.262573c0.676575,0.299438 1.143616,0.710938 1.402161,1.235962l2.73761,5.458374c0.204834,0.380371 0.307373,0.665649 0.307373,0.855713c-0.000427,0.181152 -0.089417,0.371094 -0.26709,0.570068l-3.525879,3.951416c-0.56134,0.633911 -1.188782,1.127441 -1.883057,1.480225c-0.436707,0.20813 -0.850342,0.412109 -1.241821,0.610596c-0.38324,0.19043 -0.57428,0.506958 -0.57428,0.95105c0,1.195068 1.295288,1.792358 3.886292,1.792358c2.626282,0 3.939514,-0.597534 3.939514,-1.792358c-0.000244,-0.326172 -0.124878,-0.61084 -0.373779,-0.855713c-0.249756,-0.244141 -0.373962,-0.425171 -0.373962,-0.542847c0,-0.28064 0.28894,-0.882813 0.867798,-1.806152c0.58783,-0.932251 0.997314,-1.39856 1.228882,-1.39856c0.195679,0 0.471497,0.420776 0.828003,1.262817c0.356018,0.832764 0.534119,1.39856 0.534119,1.69751c0,0.235229 -0.213806,0.461548 -0.641052,0.678589c-0.42749,0.217896 -0.640869,0.538818 -0.640869,0.964355c0,0.660889 0.302551,1.126465 0.908142,1.398438c0.604919,0.261963 1.771606,0.394165 3.498718,0.394165c3.783752,0 5.675842,-0.597534 5.675842,-1.792358c0.000244,-0.543213 -0.280212,-0.968384 -0.841125,-1.276733l0,0z"/>
      <path id="Shape" d="m59.357056,64.66198c-0.650269,-0.995361 -1.54895,-1.493652 -2.697449,-1.493652c-0.819214,0.000244 -1.545105,0.14502 -2.176697,0.434326c-0.623535,0.289551 -1.166443,0.629272 -1.629395,1.018555c-0.400513,0.325439 -0.707886,0.488403 -0.921265,0.488403c-0.347534,0 -0.520813,-0.23938 -0.520813,-0.719482c-0.000427,-0.814697 -0.378845,-1.222046 -1.135132,-1.222046c-0.463623,0.000244 -1.429138,0.316772 -2.898193,0.950439c-1.469238,0.624878 -2.328308,1.009399 -2.577637,1.154175c-0.552124,0.362549 -0.827942,0.792236 -0.827942,1.290039c0,0.688354 0.369629,1.032104 1.108643,1.032104c0.329041,0.000244 0.578369,0.090698 0.747986,0.271606c0.168884,0.18103 0.253479,0.674683 0.253479,1.480225c-0.000244,0.208008 -0.017761,0.502075 -0.053467,0.882324l-0.707214,7.72644c-0.053467,0.551758 -0.307373,1.004883 -0.761597,1.358154c-0.454163,0.343506 -0.681152,0.746582 -0.681152,1.20813c0,0.769409 0.561096,1.353027 1.682861,1.751587c1.130493,0.398315 2.577637,0.597656 4.340454,0.597656c1.923218,0 2.884827,-0.543091 2.884827,-1.629272c-0.000427,-0.317017 -0.231812,-0.583862 -0.694763,-0.801025c-0.36499,-0.16333 -0.618713,-0.38501 -0.761353,-0.665894c-0.133423,-0.289185 -0.200256,-0.678589 -0.200256,-1.16748c0,-0.633545 0.1604,-0.950073 0.480469,-0.950073c0.106934,0 0.347473,0.062988 0.721252,0.189453c0.374023,0.11792 0.690186,0.177124 0.948242,0.177124c2.030151,-0.00061 3.712524,-1.000366 5.047913,-3.001343c1.335815,-2.009521 2.003174,-4.164063 2.003174,-6.463501c-0.000427,-1.610962 -0.325134,-2.910156 -0.974976,-3.896973l0,0zm-5.755554,8.120239c-0.43689,1.538818 -0.997559,2.308228 -1.682617,2.308228c-0.401001,0 -0.601257,-0.289307 -0.601257,-0.869019c0,-1.330566 0.195679,-2.787842 0.587646,-4.372437c0.391479,-1.592773 0.898682,-2.389526 1.522217,-2.389526c0.561157,0 0.841553,0.447876 0.841553,1.343872c-0.000183,1.104736 -0.222839,2.430786 -0.667542,3.978882l0,0z"/>
      <path id="Shape" d="m75.360046,73.773674c-0.249329,0 -0.423035,-0.068115 -0.520752,-0.203979c-0.098145,-0.144897 -0.14679,-0.479248 -0.14679,-1.005005c0,-0.723877 0.15094,-2.24939 0.453979,-4.575806c0.311035,-2.335449 0.467285,-3.625488 0.467285,-3.869873c0,-0.633789 -0.374023,-0.950439 -1.122009,-0.950439c-0.596558,0.000122 -1.273132,0.199341 -2.029846,0.597168c-0.756775,0.389648 -1.20636,0.583862 -1.348755,0.583862c-0.222839,0 -0.641052,-0.194214 -1.255188,-0.583862c-0.615051,-0.397827 -1.246643,-0.597168 -1.89624,-0.597168c-1.593933,0 -3.129761,0.732788 -4.607544,2.199707c-0.970581,0.905396 -1.762817,2.136597 -2.377197,3.693481c-0.614563,1.548462 -0.921509,3.105347 -0.921509,4.671143c0,1.240112 0.297974,2.268066 0.894592,3.082031c0.596375,0.805908 1.455627,1.208862 2.577881,1.208862c0.747986,0 1.445984,-0.162842 2.096497,-0.488892c0.649597,-0.326416 1.268494,-0.778564 1.856384,-1.358032c0.435974,-0.425171 0.75647,-0.638428 0.961365,-0.638428c0.213562,0.000488 0.347229,0.213013 0.400513,0.638428c0.05365,0.597412 0.204834,1.031616 0.454163,1.303223c0.258057,0.271729 0.690125,0.407104 1.295471,0.407104c0.854675,0 1.981079,-0.357056 3.378906,-1.07251c1.397827,-0.723755 2.09668,-1.50708 2.09668,-2.349121c-0.000183,-0.461304 -0.236389,-0.691895 -0.707886,-0.691895l0,0zm-6.396606,-2.648193c-0.757446,1.674927 -1.473633,2.512085 -2.150208,2.512085c-0.40094,0 -0.600952,-0.384521 -0.600952,-1.153931c0,-1.104248 0.391052,-2.412476 1.175232,-3.924683c0.792236,-1.51123 1.5047,-2.267456 2.13678,-2.267456c0.382996,0 0.574463,0.325806 0.574463,0.977417c-0.000916,0.887329 -0.379028,2.172852 -1.135315,3.856567l0,0z"/>
      <path d="m102.429993,62.761345l-0.0448,0.005981c0.067139,-0.008423 0.117798,-0.014404 0.0448,-0.005981l0,0z" id="Shape"/>
      <path id="Shape" d="m124.93512,71.922478c0.016113,-0.242432 0.0401,-0.679688 0.071655,-0.997803c0.074463,-0.750244 0.185059,-1.797729 0.33136,-2.969238l0.000916,0c0.191956,-1.171509 0.312012,-2.203369 0.358582,-2.587158c0.088928,-0.734497 0.133179,-1.124146 0.133179,-1.327515c0,-0.967896 -0.281128,-1.7052 -0.970337,-2.289307c-0.576599,-0.488037 -1.407288,-0.692993 -2.098572,-0.692993l0,0.008423c-0.460876,0 -1.070374,0.077271 -1.594849,0.231689c-0.475159,0.139893 -0.990173,0.338745 -1.479614,0.596313c-0.141052,0.07312 -0.285095,0.137573 -0.399597,0.192993c-0.054382,-0.033203 -0.121887,-0.07019 -0.18573,-0.110718l-0.00647,0.004395c-0.463135,-0.297363 -0.93811,-0.522461 -1.420837,-0.674805c-0.524963,-0.165649 -1.049622,-0.248291 -1.570618,-0.248291c-1.092773,0 -2.166565,0.252075 -3.222229,0.755859c-0.874695,0.417725 -1.716492,1.002563 -2.524597,1.753906c0.125793,-0.909546 0.236877,-1.704224 0.334778,-2.450806c0.148193,-1.137207 0.222839,-1.830933 0.222839,-2.065308l0.008057,0c0,-2.342896 -1.115479,-3.460327 -3.343811,-3.460327c-0.420288,0 -0.918274,0.017212 -1.493896,0.10144c-0.49823,0.073364 -1.077515,0.078735 -1.737732,0.31311l-0.008057,0c-0.706055,0.234253 -1.348938,0.358887 -1.930115,0.563721c-0.638062,0.225098 -1.166931,0.46814 -1.586548,0.720703l-0.007813,0.010498c-0.604431,0.368042 -1.072937,0.847656 -1.406616,1.399902c-0.355774,0.589233 -0.533447,1.288208 -0.533447,1.991089l-0.008057,0c0,0.234253 0.010864,0.300781 0.032043,0.452148c-1.027771,0.128906 -1.996948,0.45874 -2.906738,1.007935c-0.674927,0.406738 -1.310669,0.910522 -1.907532,1.542236c-0.253235,-0.509888 -0.594299,-0.893433 -1.023132,-1.362061l-0.008057,0c-0.489197,-0.468506 -1.169678,-0.749512 -1.860962,-0.96814l0,-0.008179c-0.460876,-0.198242 -1.152222,-0.297241 -1.843506,-0.297241l0,0.008423c-0.691284,0 -1.495056,0.145508 -2.265625,0.436035c-0.672852,0.253662 -1.350098,0.626953 -2.070679,1.118042c-0.179077,-0.321533 -0.392456,-0.594727 -0.657898,-0.818604l0.002747,0.003174c-0.294739,-0.250366 -0.628601,-0.439453 -1.005615,-0.567139c-0.337341,-0.11438 -0.693115,-0.171265 -1.070557,-0.171265c-0.729797,0 -1.518127,0.118774 -2.364075,0.355835c-0.786255,0.220215 -1.626831,0.540771 -2.522583,0.960449l0.001892,0.003174l-0.015442,0.032837c-0.472656,-0.906982 -1.396912,-1.360962 -2.779541,-1.360962l0,0.008423c-0.460876,0 -1.060425,0.061646 -1.584656,0.215698c-0.475891,0.140137 -1.021057,0.346558 -1.510498,0.580933l0.004333,0c-0.141724,0.234253 -0.267517,0.152954 -0.381592,0.20874c-0.05481,-0.033081 -0.113098,-0.062622 -0.176941,-0.103149l-0.002319,0.008423c-0.463379,-0.297485 -0.936035,-0.520752 -1.418579,-0.672607c-0.525391,-0.165894 -1.047974,-0.247681 -1.569031,-0.247681c-1.092957,0 -2.167236,0.252563 -3.222595,0.756348c-0.96991,0.463135 -1.899048,1.13208 -2.786438,2.005371l-0.000427,-0.000488c-0.14978,0.139648 -0.295654,0.285156 -0.43811,0.436035c-0.129456,-0.261108 -0.273743,-0.511963 -0.432068,-0.753052l0.001892,-0.001709c-0.513184,-0.785522 -1.047363,-1.386719 -1.800659,-1.803833c-0.766846,-0.425049 -1.734436,-0.637207 -2.425781,-0.637207l0,0.008423c-0.691284,0 -1.181885,0.047241 -1.654724,0.141724c-0.516663,0.103027 -1.057007,0.260742 -1.521118,0.473511l-0.033386,0.008179c-0.328186,0.152344 -0.635559,0.305054 -0.89801,0.457397c-0.032959,-0.039429 -0.124451,-0.078491 -0.159485,-0.116211c-0.602783,-0.649048 -1.263672,-0.973267 -2.415894,-0.973267l0,0.008423c-0.460876,0.000244 -0.970093,0.112427 -1.654053,0.33667c-0.528809,0.17334 -1.165771,0.431519 -1.960754,0.773926l0.011047,-0.004028c-0.786255,0.334351 -1.375,0.592285 -1.780334,0.773682c-0.476501,0.213135 -0.8125,0.37854 -1.014587,0.496216l-0.095886,0.057373c-0.5224,0.342773 -0.93396,0.75 -1.236267,1.220459c-0.364807,0.568604 -0.546814,1.182251 -0.546814,1.841309c0,0.954346 0.319397,1.728882 0.95813,2.323486c0.33252,0.310059 0.715942,0.531616 1.14917,0.665405l-0.010803,0.047852c-0.011292,0.171509 -0.041504,0.315308 -0.041504,0.431763l0,0.008179l-0.230652,2.614624l-0.008545,-0.009155l-0.003418,0.007202l-0.045898,-0.058105c-0.015625,-0.016357 -0.090088,-0.162842 -0.316345,-0.53833c-0.294739,-0.488037 -0.700073,-1.182739 -1.215088,-2.084351l0.002747,-0.001709c-0.599121,-1.061523 -1.001709,-1.784546 -1.208862,-2.170898c-0.189636,-0.35376 -0.320984,-0.6073 -0.393372,-0.760498l2.303467,-3.288696l0.008301,-0.016357c0.058289,-0.085083 0.11084,-0.182251 0.208984,-0.291748c0.070313,-0.077759 0.207642,-0.153442 0.207642,-0.225098l0,-0.008179c0,-0.046143 0.135498,-0.084839 0.191223,-0.115479c0.009216,-0.005005 0.031799,-0.010132 0.040833,-0.014526c0.326965,-0.058594 0.660889,-0.128418 0.98761,-0.208374c0.335999,-0.082153 0.629578,-0.169067 0.874512,-0.259155l0.002991,0.004761c0.644531,-0.234131 1.142029,-0.611328 1.491821,-1.194946c0.298401,-0.499023 0.448914,-1.197021 0.448914,-1.665649l-0.008545,0c0,-2.577148 -1.735168,-3.933838 -5.204834,-3.933838c-0.759705,0 -1.460938,0.026733 -2.102722,0.11084c-0.713623,0.094238 -1.31073,0.234863 -1.790466,0.437988l-0.007813,0.004639c-0.216187,0.092529 -0.417358,0.196045 -0.602844,0.314453c-0.103027,-0.074341 -0.21106,-0.144775 -0.324707,-0.210449l-0.001343,0.002319c-0.791992,-0.459839 -2.021851,-0.691162 -3.690857,-0.691162c-1.398987,0 -2.585938,0.040527 -3.561157,0.120728c-1.046875,0.085938 -1.881042,0.22937 -2.502991,0.429199l-0.000488,-0.003052c-0.766846,0.244629 -1.383057,0.628418 -1.848755,1.087891c-0.643127,0.634399 -0.964844,1.393311 -0.964844,2.330444l-0.008301,0c0,0.703003 0.23761,1.359009 0.71228,1.957642c0.375854,0.473511 0.880493,0.854004 1.513306,1.088257l0.024414,0c0.146301,0.234253 0.282288,0.171021 0.356689,0.23645c0.029053,0.025757 0.075623,0.084595 0.075623,0.093018l0,0.016357l2.536133,5.107422l-3.006042,3.354858l-0.014709,0.008301c-0.204895,0.231689 -0.413208,0.428467 -0.618958,0.590088c-0.20166,0.158203 -0.407166,0.29126 -0.612488,0.399536c-0.38739,0.184814 -0.602356,0.287476 -0.651428,0.311646c-0.381836,0.187378 -0.584839,0.287476 -0.632324,0.311768l-0.049072,0.006592c-0.552612,0.277466 -0.868286,0.66333 -1.329163,1.156738l0,0.008179c-0.230469,0.498413 -0.399353,1.054077 -0.399353,1.666626c0,1.501099 0.758118,2.589355 2.221375,3.264648c0.921997,0.424561 2.190552,0.637695 3.779175,0.637695c2.087708,0 3.637634,-0.354004 4.637024,-1.060913c0.24054,0.189575 0.514343,0.351074 0.814575,0.485718l0.026245,0.008179c0.491333,0.212769 1.129639,0.363403 1.91333,0.452026c0.680725,0.076172 1.480103,0.11499 2.396973,0.11499c1.353821,0 2.529968,-0.089966 3.528625,-0.268677c-0.064697,0.265137 -0.097229,0.538818 -0.097229,0.820068c0,0.95166 0.337402,1.827637 1.012329,2.530396c0.508118,0.528564 1.196167,1.069458 2.064697,1.303833l0.008057,0c0.703064,0.234253 1.480286,0.381836 2.331055,0.498779c0.802856,0.11084 1.697144,0.141724 2.682251,0.141724c1.32019,0 2.376282,-0.201172 3.168518,-0.64856c1.194092,-0.674927 1.791138,-1.866577 1.791138,-3.038086l-0.008057,0c0,-0.468506 -0.091919,-0.882324 -0.275574,-1.255127c0.900513,-0.149048 1.744812,-0.474854 2.532898,-0.942993c0.662537,-0.394043 1.280579,-0.909302 1.852478,-1.527344c0.100708,0.168701 0.208984,0.328613 0.325378,0.487549l0.008057,0.005371c0.511353,0.691162 1.143433,1.210083 1.883362,1.557129c0.699341,0.327515 1.437927,0.490112 2.359619,0.490601l0,0.007935c0.460876,0 1.026855,-0.060181 1.541199,-0.180176c0.504883,-0.117798 0.990601,-0.29541 1.462524,-0.531616c0.370789,-0.186035 0.737854,-0.407349 1.103333,-0.665649c0.043762,0.054199 0.088257,0.106689 0.135071,0.157959l0.069336,0.024658c0.670593,0.705688 1.679871,1.05896 2.832031,1.05896l0,-0.008667c0.691345,-0.000244 1.303833,-0.100098 2.057312,-0.339233c0.665527,-0.211548 1.35614,-0.682495 2.162659,-0.91687l0.008057,0c0.042664,0 0.084595,-0.064087 0.126038,-0.085938c0.178589,0.250244 0.396118,0.468628 0.652832,0.672852c0.680908,0.542969 1.569702,0.810059 2.664734,0.810425c0.907043,-0.00061 1.702026,-0.072998 2.385254,-0.213867c0.832336,-0.171509 1.523376,-0.446289 2.07251,-0.823364l0.01593,-0.017334c0.332947,-0.233521 0.62793,-0.512329 0.88324,-0.837036c0.173035,0.306396 0.389465,0.58313 0.649597,0.832642c0.734619,0.702393 1.715393,1.053833 2.941284,1.054321c0.709473,-0.000488 1.447327,-0.106567 2.211914,-0.308838c0.717346,-0.190186 1.469238,-0.61499 2.255981,-0.849243l0.007813,0c0.135254,0 0.26593,-0.126587 0.3927,-0.194458c0.929565,0.897827 2.148071,1.349731 3.655823,1.35022c0.546387,-0.000732 1.073792,-0.057617 1.582153,-0.174316c0.512024,-0.117188 1.012085,-0.295044 1.499451,-0.532837l0.02417,-0.007446c0.398926,-0.200317 0.796631,-0.442871 1.193237,-0.728027c0.194702,0.265503 0.433899,0.497925 0.718445,0.697266c0.590149,0.413818 1.299011,0.620483 2.126953,0.620483c0.612915,0 1.317627,-0.124878 2.113098,-0.374634c0.672363,-0.210449 1.43512,-0.523193 2.287964,-0.938354l0.002991,0.006714c0.137817,-0.067139 0.271667,-0.134644 0.400513,-0.202637c0.442444,0.488281 0.971497,0.870483 1.555664,1.144531c0.699402,0.327637 1.446899,0.491577 2.368652,0.492065l0,0.007935c0.460815,0 1.01709,-0.060181 1.531921,-0.180176c0.504395,-0.117554 0.985352,-0.29541 1.456787,-0.531616c0.371033,-0.186035 0.735535,-0.407471 1.101257,-0.665649c0.043335,0.054199 0.087341,0.106689 0.134094,0.157959l0.078369,0.024536c0.669861,0.705811 1.688599,1.059082 2.84082,1.059082l0,-0.008667c0.691284,-0.000244 1.29364,-0.100098 2.047363,-0.339233c0.665283,-0.211548 1.346924,-0.682495 2.153442,-0.91687l0.008057,0c0.921997,-0.468628 1.643433,-1.027832 2.164246,-1.61145c0.711365,-0.796631 1.067627,-1.686035 1.067627,-2.645874c0,-1.301514 -0.450317,-2.158447 -1.34967,-2.553467l0,0zm-0.213867,4.692993c-0.465454,0.521851 -1.122681,0.946167 -1.972534,1.414673l-0.005493,0c-0.771729,0.468628 -1.418823,0.720459 -2.050903,0.921509c-0.691956,0.219482 -1.387207,0.357056 -1.848083,0.357544l0,0.005371c-1.152161,0 -1.82251,-0.282593 -2.358948,-0.847412l-0.043762,-0.01709c-0.179077,-0.194946 -0.343811,-0.420776 -0.467102,-0.67627c-0.13916,0.114868 -0.288513,0.22522 -0.432312,0.330444c-0.378845,0.276733 -0.765015,0.511963 -1.153076,0.707031c-0.4245,0.212036 -0.849365,0.371826 -1.304016,0.478027c-0.461121,0.1073 -0.923157,0.161377 -1.384033,0.161377l0,-0.005859c-0.691284,0 -1.476135,-0.143311 -2.088196,-0.430176c-0.638977,-0.300049 -1.188538,-0.749023 -1.631226,-1.347168l-0.008972,-0.005371l-0.032288,-0.041748c-0.259705,0.154175 -0.544495,0.306763 -0.85144,0.455078l-0.002991,-0.004761c-0.820801,0.39978 -1.553101,0.700317 -2.19696,0.902344c-0.727478,0.227417 -1.366516,0.341553 -1.916321,0.341553c-0.69104,0 -1.273376,-0.166138 -1.74646,-0.497681c-0.418701,-0.293091 -0.71344,-0.680298 -0.884155,-1.161133c-0.150024,0.124878 -0.299622,0.243408 -0.447998,0.35498c-0.420044,0.314941 -0.839478,0.577515 -1.256775,0.786499l-0.016357,0.005371c-0.44104,0.215576 -0.893616,0.376343 -1.357971,0.48291c-0.461548,0.105713 -0.940186,0.158691 -1.43512,0.159302c-1.515137,0 -2.691467,-0.556152 -3.52887,-1.572998c-0.245667,0.153442 -0.514099,0.3927 -0.805603,0.3927l-0.00531,0c-0.747559,0.468506 -1.461182,0.670044 -2.14032,0.849976c-0.711121,0.187866 -1.3927,0.306274 -2.043945,0.306641c-1.047974,0 -1.875732,-0.278076 -2.481995,-0.85791c-0.549133,-0.525269 -0.860413,-1.213501 -0.934204,-2.074707c-0.050232,0.146484 -0.105042,0.288818 -0.16449,0.423096c-0.304626,0.685547 -0.729126,1.220947 -1.273865,1.602173l-0.010803,0.012207c-0.477966,0.327759 -1.087891,0.568604 -1.828979,0.721069c-0.639954,0.13147 -1.391174,0.197754 -2.253662,0.198242c-0.940613,0 -1.692078,-0.223511 -2.253174,-0.671021c-0.371033,-0.296143 -0.639465,-0.684326 -0.805603,-1.108154c-0.213623,0.134399 -0.443359,0.364746 -0.68927,0.364746l-0.005493,0c-0.771729,0.468628 -1.428223,0.720459 -2.06012,0.921509c-0.691956,0.219482 -1.166687,0.357056 -1.857971,0.357544l0,0.005371c-0.921753,0 -1.812622,-0.282593 -2.349487,-0.847412l-0.039185,-0.017212c-0.179504,-0.195313 -0.34198,-0.420776 -0.464783,-0.676147c-0.139648,0.114868 -0.287598,0.225464 -0.431885,0.330566c-0.377625,0.276733 -0.763855,0.512207 -1.151917,0.706909c-0.424011,0.212036 -0.85907,0.371826 -1.313904,0.478027c-0.460693,0.1073 -0.931702,0.161377 -1.392578,0.161377l0,-0.005859c-0.921692,0 -1.467163,-0.143433 -2.078491,-0.430176c-0.639709,-0.300171 -1.184204,-0.749023 -1.626648,-1.347168l-0.006897,-0.005371c-0.293579,-0.400879 -0.533264,-0.839111 -0.717102,-1.312988c-0.698486,0.925659 -1.478271,1.644775 -2.338013,2.155762c-1.053772,0.626465 -2.217957,0.939209 -3.49176,0.939941c-0.027893,0 -0.05603,-0.000488 -0.084351,-0.001221c0.180908,0.126831 0.337097,0.300171 0.468933,0.452515c0.345642,0.398682 0.519165,0.711304 0.519165,1.414185l0.005554,0c0,0.937134 -0.482117,1.887085 -1.444824,2.43103c-0.691345,0.390625 -1.639099,0.568604 -2.843384,0.568604c-0.951233,0 -1.815552,0.072632 -2.593079,-0.03418c-0.809753,-0.111206 -1.543884,-0.153687 -2.202454,-0.387939l-0.00531,0c-0.768494,-0.702881 -1.370178,-0.771118 -1.804565,-1.223267c-0.547241,-0.569824 -0.821045,-1.306396 -0.821045,-2.074707c0,-0.482178 0.119141,-0.968628 0.356995,-1.390137c0.095154,-0.169312 0.209229,-0.34668 0.342163,-0.499756c-1.157715,0.402832 -2.758301,0.596313 -4.801331,0.596313c-0.899597,0 -1.674561,-0.04126 -2.323242,-0.113892c-0.718506,-0.081299 -1.293213,-0.216675 -1.724121,-0.403442l-0.016113,-0.006592c-0.43689,-0.196045 -0.795471,-0.460327 -1.076355,-0.792358c-0.822449,0.87207 -2.367981,1.307861 -4.635925,1.307861c-1.493896,0 -2.657349,-0.192627 -3.490112,-0.576782c-1.199707,-0.552979 -1.792114,-1.43396 -1.792114,-2.642456c0,-0.485962 0.128784,-0.923096 0.359253,-1.311523l0,-0.006104c0.230408,-0.384766 0.559509,-0.686523 0.995483,-0.905396l-0.005798,-0.004395c0.095215,-0.048462 0.295898,-0.148804 0.622192,-0.309326c0.104614,-0.051514 0.319153,-0.154785 0.649597,-0.3125c0.249084,-0.129395 0.49176,-0.287231 0.727966,-0.473267c0.240784,-0.189087 0.475586,-0.413574 0.705139,-0.672729l0.005493,-0.005615l3.309265,-3.709106l-0.015869,-0.029297l-0.065247,-0.033569l-2.780884,-5.459473l0,-0.010864c0,-0.090576 -0.071655,-0.178223 -0.167053,-0.262329c-0.125793,-0.110596 -0.271667,-0.212524 -0.47998,-0.304565l-0.005554,-0.005493c-0.536438,-0.247192 -0.953064,-0.533447 -1.261414,-0.922363c-0.375122,-0.473022 -0.557373,-1.107788 -0.557373,-1.576416l0.005249,0c0,-0.702881 0.254211,-1.34082 0.762512,-1.842041c0.38855,-0.383301 0.915527,-0.697266 1.581238,-0.909302l0.000488,-0.005981c0.56897,-0.183472 1.354248,-0.320313 2.356201,-0.40332c0.953308,-0.078247 2.122742,-0.119507 3.508606,-0.119507c1.554749,0 2.674866,0.198975 3.360413,0.598267l0.00116,-0.002686c0.237793,0.136841 0.446838,0.298584 0.627014,0.485229c0.249329,-0.223755 0.545898,-0.409912 0.890869,-0.557617l0.00531,-0.005615c0.427917,-0.181274 0.967346,-0.314819 1.616943,-0.400391c0.60144,-0.078979 1.274048,-0.087158 2.01886,-0.087158c3.023743,0 4.536072,1.141968 4.536072,3.25061l0.005554,0c0,0.468628 -0.11615,0.922729 -0.348877,1.310669c-0.266418,0.445435 -0.647522,0.742798 -1.144104,0.922485l-0.000916,-0.010864c-0.225647,0.083496 -0.493164,0.159424 -0.803528,0.235718c-0.313904,0.07666 -0.640869,0.143188 -0.98053,0.202759l-0.023254,0.002808c-0.05603,0.021484 -0.154846,0.046753 -0.210388,0.077759c-0.093079,0.050537 -0.084778,0.113647 -0.315247,0.189331l0,0.005615c0,0.091064 -0.167053,0.188599 -0.259216,0.291626c-0.111572,0.124146 -0.186462,0.244385 -0.266418,0.36084l0.005066,0.010986l-2.488892,3.562012l0.002747,0.000244l-0.048828,0.035645l0.059875,0.215576l0,0.005615c0,0.137695 0.241272,0.454468 0.507202,0.950317c0.235046,0.438354 0.653259,1.16626 1.227783,2.18457l0.004822,0.000732c0.519592,0.909424 0.931885,1.609497 1.228699,2.10083c0.251831,0.41687 0.388,0.634766 0.405273,0.65332l0.105103,0.128052c0.024902,0.034302 -0.008545,-0.03064 0.048401,0.010376c0.139893,0.10022 0.319641,0.212769 0.537598,0.33667l0.001404,-0.001587c0.152527,0.083862 0.298157,0.174561 0.429504,0.272949l0.343384,-3.709473l0,-0.005371c0,-0.140747 0.020935,-0.292847 0.03064,-0.455688c0.005493,-0.086914 0.005981,-0.184814 0.005981,-0.293091c0,-0.129395 -0.002991,-0.245483 -0.007141,-0.349121c-0.543152,-0.066284 -0.998718,-0.27063 -1.366699,-0.612671c-0.491333,-0.457764 -0.737671,-1.064941 -0.737671,-1.821899c0,-0.526489 0.145447,-1.016357 0.436951,-1.470459c0.249084,-0.387939 0.594971,-0.727295 1.037659,-1.017822l0.066101,-0.039063c0.176758,-0.102661 0.495667,-0.257446 0.957214,-0.463623c0.413208,-0.185425 1.004028,-0.441406 1.773438,-0.768799l0.00116,0.002808c0.776123,-0.334351 1.370178,-0.585938 1.883789,-0.75415c0.61853,-0.203125 1.218567,-0.304321 1.448975,-0.305054l0,-0.005371c1.152161,0 1.453125,0.252319 1.921631,0.756958c0.160583,0.173096 0.31842,0.366455 0.420959,0.579468c0.108093,-0.075073 0.230896,-0.147827 0.343628,-0.217896c0.299316,-0.187744 0.648438,-0.370972 1.034607,-0.550415l0.008789,-0.005615c0.41687,-0.19043 0.958618,-0.332642 1.425476,-0.425903c0.43689,-0.087158 1.066895,-0.130737 1.527771,-0.131226l0,-0.005371c0.460876,0 1.441589,0.184082 2.105713,0.551758c0.654907,0.362671 1.159302,0.890503 1.611633,1.582886l-0.026245,0.000977c0.330688,0.503174 0.571716,1.057983 0.765503,1.664673c0.338257,-0.44873 0.612976,-0.855957 1.073853,-1.22168l0,0.000488c0.691284,-0.828003 1.720825,-1.458008 2.625305,-1.889893c0.96228,-0.459351 1.946716,-0.689209 2.944031,-0.689209c0.457214,0 0.916931,0.072388 1.374573,0.216187c0.428833,0.13501 0.850769,0.335815 1.263245,0.60144l0.002747,-0.002808c0.203674,0.129395 0.37146,0.228882 0.502319,0.297852c0.185547,-0.083862 0.426086,-0.202026 0.720398,-0.353638c0.453247,-0.238281 0.950256,-0.421265 1.381653,-0.547974c0.464355,-0.136597 0.937866,-0.204956 1.398743,-0.205444l0,-0.005371c1.382629,0 2.15387,0.54541 2.391663,1.634155c0.229065,-0.125366 0.448242,-0.249023 0.710205,-0.37085l-0.013794,-0.002319c0.865051,-0.40564 1.665588,-0.713501 2.414001,-0.923218c0.788818,-0.221191 1.514221,-0.331909 2.182251,-0.332397c0.305298,0 0.591064,0.045898 0.860413,0.137085c0.296326,0.10022 0.559265,0.249023 0.790161,0.446533l-0.038025,-0.002319c0.275635,0.232666 0.381409,0.538574 0.611816,0.917969l0,0.005615c0,0.124146 0.137085,0.255859 0.176025,0.394531c0.181824,-0.121338 0.403503,-0.257935 0.625183,-0.410034l0.011108,0.001221c0.699585,-0.484375 1.340881,-0.849121 1.990906,-1.093994c0.699402,-0.263794 1.344849,-0.395996 2.036133,-0.396362l0,-0.005493c0.691284,0 1.152161,0.087646 1.613037,0.262939l0,0.005127c0.691345,0.189087 1.226379,0.557007 1.647827,0.79126l0.005554,0c0.439209,0.468628 0.770325,0.900391 0.992737,1.446533c0.098816,0.240845 0.174683,0.508911 0.227661,0.770874c0.761108,-0.990601 1.593201,-1.751221 2.497192,-2.296387c1.070374,-0.645508 2.228088,-0.951172 3.473389,-0.960571c-0.177917,-0.313232 -0.267578,-0.600586 -0.267578,-1.069092l0.005554,0c0,-0.702881 0.145386,-1.153198 0.436462,-1.635132c0.275818,-0.456909 0.668457,-0.850098 1.178406,-1.160767l0.00531,-0.009888c0.385498,-0.232178 0.873108,-0.443726 1.462585,-0.651489c0.550964,-0.194458 1.171753,-0.291504 1.861877,-0.525757l0.005554,0c0.635986,-0.234375 1.198242,-0.266724 1.685181,-0.337891c0.539429,-0.079224 1.005371,-0.090942 1.399414,-0.090942c1.781067,0 2.672119,0.897339 2.672119,2.771729l-0.00531,0c0,0.234375 -0.072815,0.866699 -0.218201,1.977539c-0.15741,1.200928 -0.364319,2.689453 -0.620789,4.501221l-0.014282,0.100098c0.354614,-0.480591 0.925659,-0.923096 1.156067,-1.310913l0,0.000488c0.921753,-0.828003 1.711243,-1.458008 2.615417,-1.889893c0.963013,-0.459473 1.942139,-0.689209 2.939209,-0.689209c0.457397,0 0.915283,0.072388 1.372742,0.216187c0.428589,0.13501 0.849365,0.335815 1.262085,0.60144l0.001587,-0.002808c0.204163,0.129395 0.371704,0.228882 0.50238,0.297363c0.185913,-0.083862 0.426025,-0.201538 0.720764,-0.353149c0.453064,-0.238281 0.959778,-0.421265 1.391113,-0.547974c0.464355,-0.136597 0.947083,-0.205078 1.407959,-0.205444l0,-0.005493c0.691345,0 1.22113,0.190796 1.670898,0.572021c0.52655,0.446289 0.758118,1.048462 0.758118,1.805664c0,0.177124 -0.058533,0.506348 -0.143555,1.212036c-0.056458,0.465332 -0.191711,1.452881 -0.372131,2.62439l-0.000488,0c-0.147888,1.171387 -0.259705,2.192505 -0.333862,2.947876c-0.060181,0.602905 -0.093811,1.129272 -0.101196,1.467163c0.915344,0.220215 1.373657,0.913696 1.373657,2.053589c-0.000671,0.785156 -0.297974,1.525024 -0.892273,2.190674l0,0z"/>
      <path d="m119.305115,62.92321l0,0.026489l0,-0.026489l0,0z" id="Shape"/>
      <path d="m71.147217,62.921989c-0.072998,0.002441 -0.085999,0.004883 0.045959,0.004883l-0.045959,-0.004883l0,0z" id="Shape"/>
      <path d="m71.374695,62.92321l0,0.026489l0,-0.026489l0,0z" id="Shape"/>
      <path d="m119.289185,62.921989c-0.074158,0.002441 -0.084778,0.004883 0.043579,0.004883l-0.043579,-0.004883l0,0z" id="Shape"/>
      <path id="Shape" d="m127.985596,58.005608c-0.349548,-0.353394 -0.771729,-0.530273 -1.266907,-0.530273c-0.492249,0 -0.911865,0.17688 -1.259583,0.530273c-0.349548,0.355103 -0.523743,0.782959 -0.523743,1.283203c0,0.505615 0.172791,0.935547 0.519165,1.290771c0.347229,0.356567 0.768921,0.53479 1.26416,0.53479c0.495178,0 0.917358,-0.178223 1.266907,-0.53479c0.349365,-0.356934 0.52356,-0.787231 0.52356,-1.290771c0,-0.501831 -0.174194,-0.929932 -0.52356,-1.283203l0,0zm-0.178345,2.397949c-0.298645,0.307129 -0.661377,0.460693 -1.088806,0.460693c-0.427246,0 -0.790405,-0.153687 -1.08905,-0.460693c-0.297668,-0.307129 -0.446106,-0.678711 -0.446106,-1.114746c0,-0.432739 0.149109,-0.80127 0.448425,-1.107788c0.300232,-0.306641 0.662537,-0.460083 1.086487,-0.460083c0.425659,0 0.788574,0.153442 1.088806,0.460083c0.299133,0.306274 0.448669,0.675049 0.448669,1.107788c0.000244,0.435791 -0.149292,0.807617 -0.448425,1.114746l0,0z"/>
      <path id="Shape" d="m127.436951,60.153313c-0.00415,-0.052856 -0.066589,-0.102539 -0.066589,-0.148682l0,-0.145996c0,-0.100952 0.025574,-0.204346 -0.04541,-0.310059c-0.071655,-0.105835 -0.153687,-0.170776 -0.308289,-0.195557c0.12207,-0.019897 0.232239,-0.052002 0.300415,-0.096558c0.128418,-0.084351 0.2005,-0.21582 0.2005,-0.394043c0,-0.250977 -0.098145,-0.387329 -0.301147,-0.473267c-0.113586,-0.047852 -0.288269,-0.040161 -0.532104,-0.040161l-0.927002,0l0,1.87439l0.460876,0l0,-0.702881l0.398132,0c0.183228,0 0.173523,0.008423 0.246338,0.051147c0.123779,0.074463 0.046814,0.213867 0.046814,0.445068l0,0.158691l0.145874,0.064453c0.001343,0.008179 0.072144,-0.013672 0.07373,-0.007568c0.001587,0.00708 0.072571,-0.008911 0.074219,-0.008911l0.324219,0l-0.043091,0.004517c-0.008057,-0.016479 -0.04425,-0.021606 -0.047485,-0.074585l0,0zm-0.453064,-0.930176c-0.072998,0.029297 -0.182739,0.063354 -0.328552,0.063354l-0.437134,0l0,-0.702881l0.420288,0c0.19104,0 0.330444,-0.004272 0.416382,0.045166c0.08783,0.049683 0.131348,0.141724 0.131348,0.286987c0,0.153687 -0.067505,0.253052 -0.202332,0.307373l0,0z"/>
      <path id="Shape" d="m61.883118,86.409782c0.081543,-0.04126 0.155029,-0.082886 0.236389,-0.132568c0.350464,-0.207153 0.505127,-0.331543 0.733704,-0.555298c0.74176,-0.746216 0.855835,-1.334106 0.513672,-1.914673c-0.285278,-0.489014 -0.88031,-0.77063 -1.834045,-0.713013c-0.203735,0.008423 -0.374939,0.033569 -0.521973,0.066284c-0.700928,0.157715 -0.839661,0.397949 -0.554199,1.019653c0.016418,0.033325 0.02771,0.066162 0.052124,0.107544c0.016357,0.042236 0.035706,0.074585 0.035706,0.074585l0,0.008423c0,0.016846 0.004822,0.025269 -0.043762,0.141235c-0.097961,0.215332 -0.185303,0.430908 -0.185303,0.430908l-0.389648,0.870117l-0.040527,0.083252l-0.048218,0.13208l-0.073242,0.174072l-0.081604,0.19104l-0.138489,0.364502l-0.064941,0.165405l-0.350525,0.887329l-0.212219,0.538574l-0.008057,0.041748l-0.024231,0.06604c-0.024658,0.099609 -0.008484,0.182129 0.219849,0.455811c0.016357,0.025024 0.040588,0.041382 0.073303,0.041382l0.212219,0.033325c0.016113,0 0.040527,0.016846 0.073059,0.033203c0.040771,0.024902 0.081543,0.04126 0.081543,0.04126c0,0 0.024658,0.016602 0.048889,0.025146c0.154846,0.082886 0.24469,0.041138 0.293335,-0.2323l0.008301,-0.024536l0.040771,-0.141113l0.024414,-0.099243l0.048828,-0.116211l0.081604,-0.240234l0.032715,-0.091064l0.105774,-0.273438l0.073303,-0.207642l0.146545,-0.389404l0.089844,-0.223999l0.016357,-0.049438l0.073303,-0.190674l0.008545,-0.007935l0.032715,-0.091431l0.024414,-0.066284c0.007813,-0.016357 0.02417,-0.041748 0.040527,-0.058105c0.008118,-0.016602 0.024475,-0.007935 0.032532,0c0.016602,0.016357 0.016602,0.033325 0.024658,0.058105c0,0 0.024658,0.140625 0.049072,0.273438c0.220032,1.251831 0.562256,2.09668 0.815063,2.436157c0.293579,0.39856 0.480652,0.423462 0.677002,0.157715c0.089417,-0.115723 0.121887,-0.077759 0.220276,-0.053223c0.007874,0 0.02417,0.054443 0.0401,0.054443l0.04126,0l0.008301,0l0.016113,0c0.02417,0 0.057129,-0.079224 0.089905,-0.137329c0.056885,-0.108032 0.056885,-0.15564 -0.049133,-0.296631c-0.049072,-0.066284 -0.106201,-0.161011 -0.171204,-0.276978c-0.081543,-0.123901 -0.163147,-0.304565 -0.285278,-0.602539c-0.097717,-0.223755 -0.162903,-0.441895 -0.220276,-0.632446c-0.081604,-0.273315 -0.154602,-0.549194 -0.154602,-0.549194c0,0 -0.048889,-0.174683 -0.097961,-0.356812c-0.03363,-0.115723 -0.008972,-0.182739 0.113403,-0.249023l0,0zm-0.399597,-0.969727l-0.130188,0.082642l-0.065247,0.041504c0,0 -0.016357,0.008423 -0.032715,0.01709c-0.032715,0.016235 -0.065186,0.024414 -0.089661,0.024414c-0.032898,0 -0.06543,-0.033325 -0.057373,-0.057861c0.008301,-0.016479 0.016602,-0.033569 0.016602,-0.049927l0.040588,-0.083008l0.048828,-0.13208l0.301636,-0.729614c0,0 0.040771,-0.099365 0.089905,-0.207397c0.097473,-0.223511 0.333862,-0.331299 0.847534,-0.207031c0.15509,0.033447 0.236633,0.190918 0.179504,0.347656c-0.032715,0.074951 -0.073547,0.141479 -0.195679,0.273926c-0.089844,0.099487 -0.269104,0.248535 -0.497498,0.389648c-0.227905,0.148926 -0.456238,0.290039 -0.456238,0.290039l0,0z"/>
      <path id="Shape" d="m64.255188,87.478874c0.048584,-0.19043 0.06543,-0.223755 0.089661,-0.265015c0.008057,-0.016846 0.032471,-0.016846 0.040771,-0.008423c0.02417,0.016235 0.040527,0.04126 0.048828,0.058105c0.211548,0.364624 0.334167,0.388916 0.79895,0.223755c0.073059,-0.024536 0.154846,-0.058105 0.252747,-0.108032c0.774292,-0.380981 1.157288,-0.969727 1.157288,-1.574463c0,-0.671753 -0.570557,-1.093872 -1.247131,-0.887207c-0.578857,0.174072 -1.173828,0.654785 -1.60614,1.351196c-0.0896,0.149414 -0.171204,0.307129 -0.244263,0.472534c-0.147034,0.331543 -0.24469,0.679443 -0.269165,0.961548c-0.114258,1.05249 0.546387,1.657349 1.304749,1.458984c0.056946,-0.008667 0.113831,-0.024902 0.170959,-0.049683c0.546143,-0.165894 0.790894,-0.323608 0.921326,-0.48877c0.097656,-0.133057 0.130371,-0.240601 0.130371,-0.365234c0,-0.181885 -0.138916,-0.289795 -0.293518,-0.248657c-0.032776,0.008545 -0.065491,0.016235 -0.065491,0.016235l-0.032715,0.016602c0,0 -0.113831,0.041748 -0.220032,0.083008c-0.073059,0.02478 -0.162964,0.049805 -0.317993,0.091553c-0.048889,0.007935 -0.097534,0.016357 -0.138733,0.016357c-0.439941,0.057983 -0.554199,-0.06604 -0.513428,-0.546997c0.000488,-0.074341 0.016846,-0.141113 0.032959,-0.207397l0,0zm0.206482,-0.712769l0.043518,-0.016846l0.026062,-0.024536l0.016602,-0.016235c0,0 0.037048,-0.066284 0.077881,-0.132324c0.065186,-0.116211 0.148865,-0.240356 0.230408,-0.348633c0.122131,-0.165894 0.26178,-0.297852 0.351685,-0.381226c0.220276,-0.182007 0.277893,-0.215576 0.359253,-0.256836c0.097656,-0.033203 0.204163,0.024902 0.220276,0.132446c0.016602,0.099487 -0.016113,0.223755 -0.17926,0.505371c-0.154663,0.265259 -0.31781,0.398315 -0.65979,0.522217c-0.041016,0.016846 -0.117004,0.033325 -0.166138,0.041992c-0.220032,0.049194 -0.32074,0.033203 -0.32074,-0.016724l0,-0.008667l0.000244,0z"/>
      <path id="Shape" d="m67.598816,88.954216c0.130432,-0.049927 0.236633,-0.107788 0.334106,-0.165894c0.14679,-0.082642 0.23645,-0.14917 0.30188,-0.215332c0.032227,-0.02478 0.064941,-0.049805 0.097473,-0.06604c0.016357,-0.008423 0.032715,-0.008423 0.049072,0.016235c0.008057,0.02478 0.016357,0.066528 0,0.165894c-0.040771,0.173828 0.057129,0.315308 0.342224,0.431274c0.057129,0.024658 0.220276,0.04126 0.293518,0.049438c0.253052,0.041504 0.513916,-0.108032 0.513916,-0.290039l0,-0.007935l0,-0.01709l0,-0.016724l0,-0.016113c0,-0.497192 0.032227,-1.152344 0.334106,-2.03064c0.138489,-0.414917 0.274475,-0.588867 0.339661,-0.721191c0.367065,-0.721191 0.478394,-0.836914 0.478394,-0.903198l0,-0.008667l0,-0.016235c0,0 -0.160828,-0.190674 -0.218018,-0.265137l-0.063354,-0.016724c0,0 -0.085266,-0.050049 -0.134094,-0.10791c-0.253052,-0.23999 -0.421692,-0.206909 -0.584839,0.074951c-0.064758,0.115723 -0.071899,0.115723 -0.137146,0.223755c-0.041016,0.065796 -0.060791,0.074219 -0.068909,0.065796c-0.016113,-0.024536 -0.034058,-0.049927 -0.050415,-0.074219l-0.025391,-0.024902c0,0 -0.049316,-0.058105 -0.090332,-0.116211c-0.162903,-0.189941 -0.211975,-0.189941 -0.562439,-0.008179c-0.032776,0.016602 -0.057434,0.033081 -0.089905,0.058105l-0.163147,0.091431c0,0 -0.081543,0.058105 -0.163147,0.107666c-0.056946,0.032837 -0.114319,0.074585 -0.162903,0.108032c-0.725403,0.513672 -1.198486,1.13562 -1.410522,1.806641c-0.097656,0.307007 -0.138672,0.580444 -0.138672,0.853882c0.008728,0.902954 0.505981,1.209106 0.978882,1.035278l0,0zm0.14679,-1.715454c0.048584,-0.149048 0.154358,-0.34021 0.293091,-0.53894c0.203918,-0.298706 0.415955,-0.53064 0.635742,-0.696289c0.155334,-0.099854 0.19519,-0.099854 0.349609,-0.207397c0.163391,-0.099365 0.276489,-0.082886 0.276489,-0.049927l0,0.008545l-0.047913,0.016602l-0.028137,0.024536l-0.026245,0.033569l-0.103027,0.198608l-0.059448,0.124512l-0.074646,0.174072l-0.073975,0.173828l-0.057129,0.149414l-0.065674,0.174072l-0.048889,0.124023c0,0 -0.049072,0.157471 -0.098145,0.315308c-0.073303,0.206909 -0.228333,0.388916 -0.50531,0.547119c-0.138733,0.082886 -0.138733,0.082886 -0.276978,0.165405c-0.04126,0.02478 -0.081604,0.041992 -0.13092,0.057861c-0.048645,0.01709 -0.121887,-0.033081 -0.138245,-0.123901c-0.01593,-0.131958 0.008484,-0.257324 0.179749,-0.671021l0,0z"/>
      <path id="Shape" d="m70.206604,87.910027l-0.065186,0.19043c-0.008057,0.049683 -0.024231,0.091431 -0.040771,0.141113c-0.065491,0.231934 -0.065491,0.348145 -0.041016,0.44751c0.041016,0.157349 0.122314,0.256958 0.211975,0.28186c0.097961,0.033447 0.195618,0.057983 0.195618,0.057983c0.024475,0.016479 0.040588,0.032837 0.05719,0.049438c0.252563,0.165649 0.358765,0.13269 0.42395,-0.165527c0.024231,-0.107788 0.05719,-0.223755 0.05719,-0.223755l0.024414,-0.083008l0.073242,-0.265015l0.081604,-0.290039l0.040344,-0.149658l0.065186,-0.232056l0.081604,-0.273071l0.07373,-0.232422l0.057129,-0.190552l0.05719,-0.173584l0.072998,-0.207642l0.05719,-0.173828l0.057129,-0.149414l0.041016,-0.099609l0.040771,-0.108032l0.048645,-0.1073l0.057129,-0.149048l0.081604,-0.199341l0.057129,-0.132568l0.154358,-0.356445l0.114563,-0.265015l0.040771,-0.091309l0.040771,-0.083008l0.326111,-0.68811c0,0 0.073486,-0.148926 0.154846,-0.306885c0.0979,-0.215088 0.0979,-0.231689 -0.089417,-0.447266c-0.309692,-0.356323 -0.530212,-0.29834 -0.823608,0.257202c-0.032471,0.057861 -0.064941,0.124023 -0.089355,0.182373c-0.073303,0.157349 -0.138489,0.314575 -0.138489,0.314575l-0.098206,0.215576l-0.138489,0.314697l-0.114075,0.273804l-0.122559,0.290161l-0.138489,0.339722l-0.130188,0.322998l-0.122375,0.323608l-0.14679,0.373047l-0.105774,0.290039l-0.358826,0.961548l-0.081787,0.21582l0,0z"/>
      <path id="Shape" d="m76.207397,87.959831c-0.073059,0.04126 -0.154419,0.074097 -0.227905,0.099121c-0.366882,0.141357 -0.456726,0.124634 -0.62793,-0.190186c-0.146606,-0.282104 -0.252563,-0.273926 -0.505615,-0.033325c-0.048828,0.049438 -0.105774,0.115723 -0.162903,0.198486c-0.211975,0.323608 -0.195618,0.555786 0.08136,0.820801c0.350708,0.339722 0.994568,0.423096 1.768799,0.041626c0.195679,-0.099365 0.383667,-0.223999 0.54657,-0.373169c0.627747,-0.563354 0.831177,-1.301514 0.603333,-1.972534c-0.098206,-0.290161 -0.269409,-0.547119 -0.505859,-0.737793c-0.154602,-0.124268 -0.154602,-0.124268 -0.301392,-0.256836c-0.423767,-0.364868 -0.391052,-0.70459 0.375183,-1.243896c0.048584,-0.032837 0.10553,-0.06604 0.162659,-0.099121l0.016602,-0.016357c0,0 0.138489,-0.074585 0.276978,-0.149536c0.105774,-0.057861 0.14679,-0.074463 0.179504,-0.06604c0.048401,0 0.073059,0.049683 0.056946,0.082886c-0.016174,0.033325 -0.032959,0.066162 -0.056946,0.099609c-0.122559,0.173828 -0.244934,0.348145 -0.244934,0.348145l-0.01593,0.024902c-0.130432,0.248535 -0.073242,0.405762 0.130005,0.438843c0.146973,0.025024 0.293762,0.049927 0.293762,0.049927l0.203735,0.033203c0.08136,-0.033203 0.105774,-0.049927 0.113831,-0.066284c0.041016,-0.057861 0.0979,-0.12439 0.204163,-0.248779c0.073242,-0.082764 0.14679,-0.17395 0.14679,-0.17395c0,0 0.048828,-0.057861 0.097961,-0.115967c0.081055,-0.108032 0.130371,-0.174072 0.170715,-0.232178c0.269592,-0.414429 0.12262,-0.87854 -0.276733,-1.036011c-0.366882,-0.13269 -1.002869,-0.115967 -1.630371,0.173828c-1.426819,0.655151 -1.760742,2.163208 -1.035522,2.943237c0.098145,0.098633 0.195618,0.198486 0.317993,0.297729c0.090088,0.074585 0.187317,0.157715 0.293762,0.248901c0.301453,0.281616 0.261108,0.729614 -0.448608,1.110718l0,0z"/>
      <path id="Shape" d="m80.50592,84.917595c-0.579346,0.174072 -1.174072,0.654785 -1.606384,1.351196c-0.089417,0.149414 -0.170959,0.307129 -0.244263,0.472534c-0.14679,0.331543 -0.24469,0.679443 -0.269165,0.961548c-0.114258,1.05249 0.546387,1.657349 1.30426,1.458984c0.056946,-0.008667 0.114319,-0.024902 0.171265,-0.049683c0.546082,-0.165894 0.791077,-0.323608 0.921265,-0.48877c0.097717,-0.133057 0.130676,-0.240601 0.130676,-0.365234c0,-0.181885 -0.139221,-0.289795 -0.293823,-0.248657c-0.032471,0.008545 -0.065491,0.016235 -0.065491,0.016235l-0.032898,0.016602c0,0 -0.113647,0.041748 -0.219849,0.083008c-0.072815,0.02478 -0.16272,0.049805 -0.317749,0.091553c-0.048889,0.007935 -0.097473,0.016357 -0.138733,0.016357c-0.43988,0.057983 -0.553955,-0.06604 -0.513672,-0.546997c0,-0.074341 0.016357,-0.141113 0.032715,-0.207397c0.048889,-0.19043 0.065247,-0.223755 0.089905,-0.265015c0.008301,-0.016846 0.032471,-0.016846 0.040527,-0.008423c0.024414,0.016235 0.041016,0.04126 0.049133,0.058105c0.211731,0.364624 0.334351,0.388916 0.798889,0.223755c0.073303,-0.024536 0.154846,-0.058105 0.252991,-0.108032c0.774292,-0.380981 1.157043,-0.969727 1.157043,-1.574463c0.000244,-0.671753 -0.570129,-1.093628 -1.246643,-0.887207l0,0zm0.211975,1.309448c-0.154846,0.265259 -0.318237,0.398315 -0.659973,0.522217c-0.04126,0.016846 -0.067932,0.033325 -0.117065,0.041992c-0.219116,0.049194 -0.270508,0.033203 -0.270508,-0.016724l0,-0.008179l-0.005737,-0.016846l0.000671,-0.024536l0.004395,-0.016235c0,0 0.030884,-0.066284 0.071899,-0.132324c0.064941,-0.116211 0.146301,-0.240479 0.227417,-0.348633c0.122131,-0.165894 0.260376,-0.297852 0.350037,-0.381226c0.220276,-0.182007 0.276978,-0.215576 0.358521,-0.256836c0.097717,-0.033203 0.203491,0.024902 0.219604,0.132446c0.016602,0.099121 -0.016357,0.223267 -0.17926,0.504883l0,0z"/>
      <path id="Shape" d="m83.769531,84.900871c-0.276733,0.099854 -0.579041,0.307251 -0.929993,0.663086c-0.064758,0.066284 -0.118713,0.132813 -0.183899,0.207642c-0.399353,0.472778 -0.691345,1.028076 -0.829834,1.574951c-0.154846,0.629761 -0.121643,1.002686 0.082092,1.325806c0.293762,0.480591 0.661072,0.605469 1.198914,0.464233c0.073059,-0.024658 0.155334,-0.049683 0.245178,-0.091187c0.578857,-0.223755 0.74939,-0.38916 0.790649,-0.547119c0.015869,-0.107544 0.040283,-0.223511 0.040283,-0.223511l0.032959,-0.116455l-0.007813,-0.016113c0,0 -0.016357,-0.041748 -0.032471,-0.091187c-0.065247,-0.166138 -0.147278,-0.182251 -0.277466,-0.116211c-0.285034,0.165649 -0.334106,0.190308 -0.448425,0.232178c-0.521484,0.174072 -0.733459,0.024658 -0.717102,-0.331543c0.016357,-0.40625 0.105957,-0.712891 0.366821,-1.151978c0.162964,-0.282593 0.293396,-0.447998 0.578857,-0.738037c0.008057,-0.008423 0.016174,-0.016235 0.016174,-0.016235l0.220276,-0.199341c0.024414,-0.016357 0.048828,-0.033081 0.073242,-0.049927c0.023987,-0.016113 0.065247,0 0.08136,0.025269c0.024414,0.033081 0.032715,0.066162 0.016602,0.190552c0,0.016113 0,0.041016 -0.008301,0.057861c-0.008301,0.041016 -0.008301,0.082886 -0.016357,0.115967c-0.007813,0.207153 0.171204,0.373047 0.407898,0.323608c0.105957,-0.01709 0.222351,-0.108276 0.417542,-0.365356c0.057129,-0.074219 0.083618,-0.174072 0.083618,-0.289795l0,-0.02478l0,-0.016479c0,-0.613281 -0.59729,-1.019409 -1.200806,-0.795898l0,0z"/>
      <path id="Shape" d="m86.134277,87.37133c0.057129,-0.174316 0.195618,-0.522217 0.375122,-0.903687c0.138489,-0.306396 0.277222,-0.563721 0.407898,-0.795654c0.024414,-0.041748 0.048584,-0.083008 0.048584,-0.083008c0,0 0.065491,-0.107666 0.130432,-0.223633c0.065247,-0.116455 0.065247,-0.198975 0,-0.273682l-0.154602,-0.107544c0,0 -0.081543,-0.058594 -0.163147,-0.12439c-0.212036,-0.165894 -0.465027,-0.074585 -0.685059,0.373169l-0.34198,0.696289l-0.06543,0.149292l-0.276978,0.605225l-0.056946,0.115967c-0.032471,0.090942 -0.07373,0.173584 -0.106201,0.265015c-0.106018,0.256958 -0.163147,0.398071 -0.203979,0.522217c-0.138672,0.439087 -0.146301,0.563477 -0.081543,0.795654c0.228149,0.779053 0.693115,0.961548 1.344788,0.580322c0.04126,-0.024536 0.090088,-0.049927 0.130432,-0.082886l0.212036,-0.140869l0.00824,0.038452l0.032776,0.030518l0.008057,0l0.008057,0c0.02417,0.234253 0.032959,0.01123 0.032959,0.027344c0.015869,0.257324 0.113831,0.382568 0.293335,0.448975c0.407654,0.157349 0.408081,0.154175 0.497742,0.029663c0.02417,-0.032715 -0.023987,-0.09436 -0.023987,-0.13562l0,-0.025269c0,0 0.072388,-0.190308 0.080872,-0.380493c0.008118,-0.124634 0.065002,-0.331787 0.13855,-0.655151c0.02417,-0.116211 0.081299,-0.248535 0.113831,-0.372925c0.073242,-0.240234 0.171448,-0.464478 0.244934,-0.638794c0.129944,-0.289795 0.272339,-0.588013 0.272339,-0.588013l0.255371,-0.588623l0.033386,-0.074951c0,0 0.049072,-0.124146 0.098145,-0.256714c0.089905,-0.215576 0.073792,-0.25708 -0.146301,-0.497192c-0.276978,-0.28186 -0.423767,-0.273438 -0.570557,0.041382c-0.016357,0.024902 -0.024414,0.049683 -0.024414,0.049683l-0.048645,0.099365l-0.171448,0.339722l-0.081543,0.165894l-0.032959,0.066528l-0.064758,0.124146l-0.057129,0.132202l-0.049133,0.107788l-0.081787,0.173828l-0.1297,0.290283l-0.089905,0.199219l-0.057129,0.124146l-0.097473,0.231934l-0.065491,0.14978l-0.032471,0.099243l-0.033142,0.083008c0,0 -0.015686,0.041016 -0.023987,0.082642c-0.041016,0.149536 -0.065674,0.190308 -0.130676,0.223755l-0.203674,0.132935c0,0 -0.106018,0.06604 -0.203735,0.124146c-0.041199,0.02478 -0.081543,0.041504 -0.122559,0.057861c-0.10553,0.033203 -0.228149,-0.057861 -0.235962,-0.199219c-0.008057,-0.074219 0.007813,-0.156982 0.048828,-0.306641c0.049072,-0.157227 0.049072,-0.157227 0.097717,-0.322632l0,0z"/>
      <path id="Shape" d="m91.422546,85.887566l0,-0.057861l0,-0.058105l0,-0.058105l0,-0.058105l0,-0.049683l0,-0.033325l0.14032,-0.132324l0.057861,-0.033325c0,-0.016602 0.032898,-0.041382 0.032898,-0.058105c0.008545,-0.182007 -0.077148,-0.273438 -0.167053,-0.248535c-0.081116,0.016113 -0.132263,0.041504 -0.295166,0.107788c-0.024414,0.016357 -0.053711,0.032715 -0.078613,0.049927l-0.251404,0.13208c-0.007813,0.008423 -0.023499,0.008423 -0.039368,0.016602c-0.049316,0.016479 -0.073547,-0.008179 -0.073547,-0.049805c-0.007813,-0.066406 -0.007324,-0.066406 -0.007324,-0.141113c-0.007874,-0.091187 -0.049072,-0.140747 -0.203979,-0.215332c-0.097717,-0.041626 -0.097717,-0.041626 -0.187317,-0.091309c-0.252808,-0.115967 -0.366882,0 -0.472595,0.497314c-0.008118,0.049683 -0.024475,0.124512 -0.057373,0.223511c-0.024231,0.075073 -0.048889,0.141357 -0.048889,0.141357l-0.049072,0.13208l-0.072815,0.19104l-0.073547,0.182007l-0.0896,0.232178l-0.114075,0.273193l-0.122131,0.282104l-0.106262,0.256958l-0.105957,0.2323l-0.081604,0.19043l-0.06543,0.149292l-0.081604,0.182495l-0.065186,0.13208l-0.040527,0.091431c0,0 -0.081604,0.157471 -0.155334,0.314941c-0.08136,0.165527 -0.048645,0.248535 0.195618,0.397583l0.106445,0.05835l0.032776,0.024536l0.032227,0.025024c0,0 0.081848,0.065918 0.163147,0.140869c0.106018,0.090698 0.244751,0.024658 0.391785,-0.356567c0.114014,-0.298096 0.227844,-0.604736 0.227844,-0.604736l0.032776,-0.091431l0.032715,-0.082886l0.040771,-0.099609l0.04126,-0.124146l0.105286,-0.28186l0.106262,-0.298096l0.056885,-0.165771l0.057129,-0.141113l0.073547,-0.198853l0.032227,-0.074585c0,0 0.032715,-0.074463 0.06543,-0.157471c0.097961,-0.21521 0.293152,-0.36499 0.733948,-0.455933c0.048889,-0.008423 -0.002258,-0.016357 0.046814,-0.016357c0.333862,-0.024414 0.299805,-0.057129 0.299805,-0.223022l0,0z"/>
      <path id="Shape" d="m93.294373,84.28759c0.236389,0.215942 0.399292,0.190918 0.529968,-0.090942c0.040771,-0.108032 0.089905,-0.199219 0.130676,-0.28186c0.236206,-0.447266 0.244507,-0.439575 -0.065247,-0.68811c-0.114502,-0.082764 -0.114502,-0.082764 -0.220276,-0.165649c-0.154846,-0.115967 -0.252563,-0.066528 -0.431824,0.290039c-0.008545,0.032715 -0.024414,0.066284 -0.041016,0.099609l-0.040833,0.107544c0,0 -0.032715,0.074707 -0.057129,0.148926c-0.073242,0.224243 -0.032471,0.365234 0.195679,0.580444l0,0z"/>
      <path id="Shape" d="m93.351501,85.805046c0,0 -0.067505,-0.050171 -0.042664,-0.099609c0.024475,-0.058228 -0.043091,-0.116211 -0.043091,-0.182739l0,-0.024536l0,-0.024902c0,-0.099121 0.059448,-0.207031 -0.014465,-0.306396c-0.072876,-0.100098 -0.116882,-0.165894 -0.206726,-0.190918c-0.081604,-0.024658 -0.131348,-0.049927 -0.131348,-0.049927c-0.114075,0.074951 -0.135742,0.116455 -0.266174,0.381348c-0.154602,0.307251 -0.148865,0.307251 -0.295654,0.613892c-0.057129,0.115723 -0.102722,0.231689 -0.159912,0.356201c-0.302063,0.663208 -0.544495,1.251587 -0.700073,1.665771c-0.007813,0.016846 -0.007141,0.025146 -0.007141,0.025146c0,0 -0.072998,0.223755 -0.146545,0.438965c-0.081543,0.240479 -0.072815,0.339966 0.025146,0.44751c0.048828,0.058105 0.105774,0.091431 0.170959,0.099609c0.138733,0.033325 0.154846,0.041748 0.162903,0.050171l0.024475,0.016113c0,0 0.056641,0.049927 0.12207,0.099854c0.032776,0.024536 0.070801,0.049438 0.1026,0.074097c0.049072,0.02478 -0.0625,-0.016235 0.167969,-0.19873l0,-0.016602l0.044006,-0.149292l0.017761,-0.057617l0.074402,-0.224243l0.19635,-0.605225l0.073059,-0.215088l0.082031,-0.215698l0.073242,-0.207153l0.08136,-0.207642l0.081604,-0.190186c0,0 0.041199,-0.099609 0.081787,-0.207397c0.089661,-0.20752 0.138489,-0.298706 0.179016,-0.38147c0.048889,-0.107422 0.105774,-0.21521 0.105774,-0.21521l0.073792,-0.149292l0.073486,-0.148804l0,0z"/>
      <path id="Shape" d="m98.684204,84.834587c-0.089661,-0.065552 -0.204163,-0.02478 -0.277405,0.166138c-0.008118,0.016357 -0.008118,0.024658 -0.008118,0.024658l-0.064941,0.132324l-0.024475,0.058105l-0.14679,0.290039l-0.50531,1.019653l-0.081604,0.165649l-0.081299,0.149048l-0.081604,0.149414l-0.065186,0.124756c0,0 -0.097961,0.165405 -0.195679,0.331299c-0.252991,0.423096 -0.342407,0.555176 -0.440552,0.679443c0,0.008179 -0.007874,0.008179 -0.015686,0.008179c-0.033203,-0.008179 -0.049072,-0.049438 -0.04126,-0.215332c0.008057,-0.173828 0.016418,-0.356323 0.016418,-0.356323l0.008057,-0.107544l0.008057,-0.124512l0.02417,-0.174072l0.016602,-0.140991l0.032959,-0.207153l0.032471,-0.207275l0.032288,-0.190552l0.032898,-0.190674l0.040833,-0.206909l0.024414,-0.115967l0.032715,-0.157715c0,0 0.008301,-0.049927 0.024231,-0.099365c0.065186,-0.314819 0.016357,-0.456421 -0.301636,-0.688354c-0.268921,-0.199097 -0.440369,-0.157471 -0.513428,0.041504c-0.024414,0.066284 -0.041016,0.132568 -0.057129,0.199097c-0.015686,0.082275 -0.031128,0.163818 -0.044495,0.234375c-0.017517,-0.037231 -0.034119,-0.074707 -0.053955,-0.109863c-0.154846,-0.240479 -0.219604,-0.282104 -0.464539,-0.249146c-0.032471,0 -0.073303,0.109497 -0.106201,0.118164c-0.01593,0.007935 -0.024231,0.108643 -0.024231,0.108643l-0.016113,0c-0.016357,0 -0.058533,-0.21814 -0.058533,-0.242676l0,-0.016846l0,-0.008301l0,-0.016602l0.021179,-0.007935l0.144958,-0.298462l0.036194,-0.074341c0,0 0.03363,-0.082886 0.066101,-0.174072c0.073303,-0.182007 0.033691,-0.290039 -0.185913,-0.422852c-0.122864,-0.066162 -0.12262,-0.066162 -0.244751,-0.140869c-0.147278,-0.091309 -0.211975,-0.057861 -0.350464,0.256836c-0.097961,0.215332 -0.187134,0.43103 -0.187134,0.43103c0,0 -0.090088,0.223999 -0.171692,0.44751c-0.01593,0.04126 -0.064514,0.066406 -0.292847,0.132446l-0.253052,0.074951c-0.056885,0.057617 -0.073059,0.157227 -0.015869,0.571899c0.007813,0.049194 0.048828,0.140625 0.105774,0.215088c0.057129,0.06604 0.057129,0.06604 0.02417,0.12439l-0.032715,0.082764l-0.073059,0.166382l-0.040527,0.098877l-0.098206,0.232178l-0.098145,0.240601l-0.048645,0.140503l-0.073059,0.174194l-0.049316,0.140991l-0.040283,0.107788c0,0 -0.024658,0.066284 -0.049561,0.132568c-0.08136,0.215332 -0.138733,0.397583 -0.162903,0.513794c-0.121887,0.497192 -0.048645,0.687988 0.326538,0.911987c0.252563,0.148926 0.340088,0.165649 0.437317,0.124146c0.130432,-0.05835 0.153259,-0.124146 0.153259,-0.165649l0,-0.008179c0,0 0.018188,-0.033081 0.010132,-0.074585c-0.064941,-0.232178 -0.052063,-0.406006 0.038025,-0.8125c0.064758,-0.281372 0.186218,-0.679688 0.332764,-1.093994c0.056885,-0.182251 0.117065,-0.323242 0.17395,-0.464111c0.089661,-0.223511 0.091309,-0.223511 0.181152,-0.455688c0.097717,-0.223999 0.204834,-0.290283 0.530945,-0.298218c0.154846,0 0.155273,0 0.318176,-0.008179c0.098877,-0.003296 0.178833,-0.030518 0.236694,-0.070557l-0.040588,0.260742l-0.032227,0.240356l-0.032715,0.257324l-0.032776,0.273438l-0.032715,0.273438l-0.024414,0.240356l-0.122131,0.19043l-0.121399,0.264771l0,0.025024c0,0 0.097229,0.165649 0.0896,0.331543c-0.008057,0.289917 0.117737,0.397583 0.420105,0.555054c0.113586,0.066528 0.139832,0.083008 -0.023254,0.28186c-0.121704,0.149292 -0.223328,0.289917 -0.223328,0.289917l-0.00946,0.016846c-0.040527,0.049927 -0.086609,0.099121 -0.135254,0.140991c-0.269104,0.281616 -0.438293,0.422729 -0.527954,0.480591c-0.146973,0.099731 -0.28479,0.198853 -0.28479,0.198853c0,0 -0.02417,0.016968 -0.040527,0.033325c-0.285278,0.231934 -0.292908,0.298462 -0.129761,0.60498c0.261108,0.472534 0.342407,0.481201 0.684875,0.207275c0.024414,-0.015869 0.048828,-0.04126 0.073242,-0.066284c0.089905,-0.082886 0.187378,-0.165649 0.187378,-0.165649c0,0 0.065186,-0.065552 0.130676,-0.124146c0.12207,-0.116211 0.244446,-0.240112 0.374878,-0.38147c0.456482,-0.488525 0.904907,-1.060913 1.402466,-1.815063c0.236145,-0.348145 0.456238,-0.712769 0.692383,-1.152344c0.358826,-0.637939 0.571533,-1.085449 0.668762,-1.350464c0.081787,-0.224121 0.106262,-0.315308 0.106262,-0.406006l0,-0.008667l0,-0.016357c0,-0.132935 -0.033447,-0.19104 -0.171936,-0.414795c-0.047913,-0.066528 -0.105286,-0.132813 -0.170532,-0.190918l0,0z"/>
      <path id="Shape" d="m67.147827,93.034294l0.472168,0.683716c4.110474,-2.934204 10.95282,-3.438843 22.185364,-1.636108l0.128113,-0.825195c-11.460022,-1.839478 -18.487366,-1.29126 -22.785645,1.777588l0,0z"/>
     </g>
    </g>
   </g>
  </g>
 </g>
</svg>